<?xml version="1.0" encoding="UTF-8"?>
<!--Generator: Apple Native CoreSVG 232.5-->
<!DOCTYPE svg
PUBLIC "-//W3C//DTD SVG 1.1//EN"
       "http://www.w3.org/Graphics/SVG/1.1/DTD/svg11.dtd">
<svg version="1.1" xmlns="http://www.w3.org/2000/svg" xmlns:xlink="http://www.w3.org/1999/xlink" width="3300" height="2200">
 <!--glyph: "", point size: 100.0, font version: "19.0d7e1", template writer version: "128"-->
 <style>.monochrome-0 {-sfsymbols-motion-group:0}

.multicolor-0:tintColor {-sfsymbols-motion-group:0}

.hierarchical-0:primary {-sfsymbols-motion-group:0}

.SFSymbolsPreviewWireframe {fill:none;opacity:1.0;stroke:black;stroke-width:0.5}
</style>
 <g id="Notes">
  <rect height="2200" id="artboard" style="fill:white;opacity:1" width="3300" x="0" y="0"/>
  <line style="fill:none;stroke:black;opacity:1;stroke-width:0.5;" x1="263" x2="3036" y1="292" y2="292"/>
  <text style="stroke:none;fill:black;font-family:sans-serif;font-size:13;font-weight:bold;" transform="matrix(1 0 0 1 263 322)">Weight/Scale Variations</text>
  <text style="stroke:none;fill:black;font-family:sans-serif;font-size:13;text-anchor:middle;" transform="matrix(1 0 0 1 559.711 322)">Ultralight</text>
  <text style="stroke:none;fill:black;font-family:sans-serif;font-size:13;text-anchor:middle;" transform="matrix(1 0 0 1 856.422 322)">Thin</text>
  <text style="stroke:none;fill:black;font-family:sans-serif;font-size:13;text-anchor:middle;" transform="matrix(1 0 0 1 1153.13 322)">Light</text>
  <text style="stroke:none;fill:black;font-family:sans-serif;font-size:13;text-anchor:middle;" transform="matrix(1 0 0 1 1449.84 322)">Regular</text>
  <text style="stroke:none;fill:black;font-family:sans-serif;font-size:13;text-anchor:middle;" transform="matrix(1 0 0 1 1746.56 322)">Medium</text>
  <text style="stroke:none;fill:black;font-family:sans-serif;font-size:13;text-anchor:middle;" transform="matrix(1 0 0 1 2043.27 322)">Semibold</text>
  <text style="stroke:none;fill:black;font-family:sans-serif;font-size:13;text-anchor:middle;" transform="matrix(1 0 0 1 2339.98 322)">Bold</text>
  <text style="stroke:none;fill:black;font-family:sans-serif;font-size:13;text-anchor:middle;" transform="matrix(1 0 0 1 2636.69 322)">Heavy</text>
  <text style="stroke:none;fill:black;font-family:sans-serif;font-size:13;text-anchor:middle;" transform="matrix(1 0 0 1 2933.4 322)">Black</text>
  <line style="fill:none;stroke:black;opacity:1;stroke-width:0.5;" x1="263" x2="3036" y1="1903" y2="1903"/>
  <g transform="matrix(0.2 0 0 0.2 263 1933)">
   <path d="m46.2402 4.15039c21.5332 0 39.4531-17.8711 39.4531-39.4043s-17.9688-39.4043-39.502-39.4043c-21.4844 0-39.3555 17.8711-39.3555 39.4043s17.9199 39.4043 39.4043 39.4043Zm0-7.42188c-17.7246 0-31.8848-14.209-31.8848-31.9824s14.1113-31.9824 31.8359-31.9824c17.7734 0 32.0312 14.209 32.0312 31.9824s-14.209 31.9824-31.9824 31.9824Zm-17.9688-31.9824c0 2.14844 1.51367 3.61328 3.75977 3.61328h10.498v10.5957c0 2.19727 1.46484 3.71094 3.61328 3.71094 2.24609 0 3.71094-1.51367 3.71094-3.71094v-10.5957h10.5957c2.19727 0 3.71094-1.46484 3.71094-3.61328 0-2.19727-1.51367-3.71094-3.71094-3.71094h-10.5957v-10.5469c0-2.24609-1.46484-3.75977-3.71094-3.75977-2.14844 0-3.61328 1.51367-3.61328 3.75977v10.5469h-10.498c-2.24609 0-3.75977 1.51367-3.75977 3.71094Z"/>
  </g>
  <g transform="matrix(0.2 0 0 0.2 281.506 1933)">
   <path d="m58.5449 14.5508c27.2461 0 49.8047-22.6074 49.8047-49.8047 0-27.2461-22.6074-49.8047-49.8535-49.8047-27.1973 0-49.7559 22.5586-49.7559 49.8047 0 27.1973 22.6074 49.8047 49.8047 49.8047Zm0-8.30078c-23.0469 0-41.4551-18.457-41.4551-41.5039s18.3594-41.5039 41.4062-41.5039 41.5527 18.457 41.5527 41.5039-18.457 41.5039-41.5039 41.5039Zm-22.6562-41.5039c0 2.39258 1.66016 4.00391 4.15039 4.00391h14.3555v14.4043c0 2.44141 1.66016 4.15039 4.05273 4.15039 2.44141 0 4.15039-1.66016 4.15039-4.15039v-14.4043h14.4043c2.44141 0 4.15039-1.61133 4.15039-4.00391 0-2.44141-1.70898-4.15039-4.15039-4.15039h-14.4043v-14.3555c0-2.49023-1.70898-4.19922-4.15039-4.19922-2.39258 0-4.05273 1.70898-4.05273 4.19922v14.3555h-14.3555c-2.49023 0-4.15039 1.70898-4.15039 4.15039Z"/>
  </g>
  <g transform="matrix(0.2 0 0 0.2 304.924 1933)">
   <path d="m74.8535 28.3203c34.8145 0 63.623-28.8086 63.623-63.5742 0-34.8145-28.8574-63.623-63.6719-63.623-34.7656 0-63.5254 28.8086-63.5254 63.623 0 34.7656 28.8086 63.5742 63.5742 63.5742Zm0-9.08203c-30.1758 0-54.4434-24.3164-54.4434-54.4922 0-30.2246 24.2188-54.4922 54.3945-54.4922 30.2246 0 54.541 24.2676 54.541 54.4922 0 30.1758-24.2676 54.4922-54.4922 54.4922Zm-28.8574-54.4922c0 2.58789 1.85547 4.39453 4.58984 4.39453h19.7266v19.7754c0 2.68555 1.85547 4.58984 4.44336 4.58984 2.68555 0 4.54102-1.85547 4.54102-4.58984v-19.7754h19.7754c2.68555 0 4.58984-1.80664 4.58984-4.39453 0-2.73438-1.85547-4.58984-4.58984-4.58984h-19.7754v-19.7266c0-2.73438-1.85547-4.63867-4.54102-4.63867-2.58789 0-4.44336 1.9043-4.44336 4.63867v19.7266h-19.7266c-2.73438 0-4.58984 1.85547-4.58984 4.58984Z"/>
  </g>
  <text style="stroke:none;fill:black;font-family:sans-serif;font-size:13;font-weight:bold;" transform="matrix(1 0 0 1 263 1953)">Design Variations</text>
  <text style="stroke:none;fill:black;font-family:sans-serif;font-size:13;" transform="matrix(1 0 0 1 263 1971)">Symbols are supported in up to nine weights and three scales.</text>
  <text style="stroke:none;fill:black;font-family:sans-serif;font-size:13;" transform="matrix(1 0 0 1 263 1989)">For optimal layout with text and other symbols, vertically align</text>
  <text style="stroke:none;fill:black;font-family:sans-serif;font-size:13;" transform="matrix(1 0 0 1 263 2007)">symbols with the adjacent text.</text>
  <line style="fill:none;stroke:#00AEEF;stroke-width:0.5;opacity:1.0;" x1="776" x2="776" y1="1919" y2="1933"/>
  <g transform="matrix(0.2 0 0 0.2 776 1933)">
   <path d="m16.5527 0.78125c2.58789 0 3.85742-0.976562 4.78516-3.71094l6.29883-17.2363h28.8086l6.29883 17.2363c0.927734 2.73438 2.19727 3.71094 4.73633 3.71094 2.58789 0 4.24805-1.5625 4.24805-4.00391 0-0.830078-0.146484-1.61133-0.537109-2.63672l-22.9004-60.9863c-1.12305-2.97852-3.125-4.49219-6.25-4.49219-3.02734 0-5.07812 1.46484-6.15234 4.44336l-22.9004 61.084c-0.390625 1.02539-0.537109 1.80664-0.537109 2.63672 0 2.44141 1.5625 3.95508 4.10156 3.95508Zm13.4766-28.3691 11.8652-32.8613h0.244141l11.8652 32.8613Z"/>
  </g>
  <line style="fill:none;stroke:#00AEEF;stroke-width:0.5;opacity:1.0;" x1="792.836" x2="792.836" y1="1919" y2="1933"/>
  <text style="stroke:none;fill:black;font-family:sans-serif;font-size:13;font-weight:bold;" transform="matrix(1 0 0 1 776 1953)">Margins</text>
  <text style="stroke:none;fill:black;font-family:sans-serif;font-size:13;" transform="matrix(1 0 0 1 776 1971)">Leading and trailing margins on the left and right side of each symbol</text>
  <text style="stroke:none;fill:black;font-family:sans-serif;font-size:13;" transform="matrix(1 0 0 1 776 1989)">can be adjusted by modifying the x-location of the margin guidelines.</text>
  <text style="stroke:none;fill:black;font-family:sans-serif;font-size:13;" transform="matrix(1 0 0 1 776 2007)">Modifications are automatically applied proportionally to all</text>
  <text style="stroke:none;fill:black;font-family:sans-serif;font-size:13;" transform="matrix(1 0 0 1 776 2025)">scales and weights.</text>
  <g transform="matrix(0.2 0 0 0.2 1289 1933)">
   <path d="m14.209 9.32617 8.49609 8.54492c4.29688 4.3457 9.22852 4.05273 13.8672-1.07422l53.4668-58.9355-4.83398-4.88281-53.0762 58.3984c-1.75781 2.00195-3.41797 2.49023-5.76172 0.146484l-5.85938-5.81055c-2.34375-2.29492-1.80664-4.00391 0.195312-5.81055l57.373-54.0039-4.88281-4.83398-57.959 54.4434c-4.93164 4.58984-5.32227 9.47266-1.02539 13.8184Zm32.0801-90.9668c-2.09961 2.05078-2.24609 4.93164-1.07422 6.88477 1.17188 1.80664 3.4668 2.97852 6.68945 2.14844 7.32422-1.70898 14.9414-2.00195 22.0703 2.68555l-2.92969 7.27539c-1.70898 4.15039-0.830078 7.08008 1.85547 9.81445l11.4746 11.5723c2.44141 2.44141 4.49219 2.53906 7.32422 2.05078l5.32227-0.976562 3.32031 3.36914-0.195312 2.7832c-0.195312 2.49023 0.439453 4.39453 2.88086 6.78711l3.80859 3.71094c2.39258 2.39258 5.46875 2.53906 7.8125 0.195312l14.5508-14.5996c2.34375-2.34375 2.24609-5.32227-0.146484-7.71484l-3.85742-3.80859c-2.39258-2.39258-4.24805-3.17383-6.64062-2.97852l-2.88086 0.244141-3.22266-3.17383 1.2207-5.61523c0.634766-2.83203-0.146484-5.0293-3.07617-7.95898l-10.9863-10.9375c-16.6992-16.6016-38.8672-16.2109-53.3203-1.75781Zm7.4707 1.85547c12.1582-8.88672 28.6133-7.37305 39.7461 3.75977l12.1582 12.0605c1.17188 1.17188 1.36719 2.09961 1.02539 3.80859l-1.61133 7.42188 7.51953 7.42188 4.93164-0.292969c1.26953-0.0488281 1.66016 0.0488281 2.63672 1.02539l2.88086 2.88086-12.207 12.207-2.88086-2.88086c-0.976562-0.976562-1.12305-1.36719-1.07422-2.68555l0.341797-4.88281-7.4707-7.42188-7.61719 1.26953c-1.61133 0.341797-2.34375 0.195312-3.56445-0.976562l-10.0098-10.0098c-1.26953-1.17188-1.41602-2.00195-0.634766-3.85742l4.39453-10.4492c-7.8125-7.27539-17.9688-10.4004-28.125-7.42188-0.78125 0.195312-1.07422-0.439453-0.439453-0.976562Z"/>
  </g>
  <text style="stroke:none;fill:black;font-family:sans-serif;font-size:13;font-weight:bold;" transform="matrix(1 0 0 1 1289 1953)">Exporting</text>
  <text style="stroke:none;fill:black;font-family:sans-serif;font-size:13;" transform="matrix(1 0 0 1 1289 1971)">Symbols should be outlined when exporting to ensure the</text>
  <text style="stroke:none;fill:black;font-family:sans-serif;font-size:13;" transform="matrix(1 0 0 1 1289 1989)">design is preserved when submitting to Xcode.</text>
  <text id="template-version" style="stroke:none;fill:black;font-family:sans-serif;font-size:13;text-anchor:end;" transform="matrix(1 0 0 1 3036 1933)">Template v.5.0</text>
  <text style="stroke:none;fill:black;font-family:sans-serif;font-size:13;text-anchor:end;" transform="matrix(1 0 0 1 3036 1951)">Requires Xcode 15 or greater</text>
  <text id="descriptive-name" style="stroke:none;fill:black;font-family:sans-serif;font-size:13;text-anchor:end;" transform="matrix(1 0 0 1 3036 1969)">Generated from poop.symbol</text>
  <text style="stroke:none;fill:black;font-family:sans-serif;font-size:13;text-anchor:end;" transform="matrix(1 0 0 1 3036 1987)">Typeset at 100.0 points</text>
  <text style="stroke:none;fill:black;font-family:sans-serif;font-size:13;" transform="matrix(1 0 0 1 263 726)">Small</text>
  <text style="stroke:none;fill:black;font-family:sans-serif;font-size:13;" transform="matrix(1 0 0 1 263 1156)">Medium</text>
  <text style="stroke:none;fill:black;font-family:sans-serif;font-size:13;" transform="matrix(1 0 0 1 263 1586)">Large</text>
 </g>
 <g id="Guides">
  <g id="H-reference" style="fill:#27AAE1;stroke:none;" transform="matrix(1 0 0 1 339 696)">
   <path d="M0.993654 0L3.63775 0L29.3281-67.1323L30.0303-67.1323L30.0303-70.459L28.1226-70.459ZM11.6885-24.4799L46.9815-24.4799L46.2315-26.7285L12.4385-26.7285ZM55.1196 0L57.7637 0L30.6382-70.459L29.4326-70.459L29.4326-67.1323Z"/>
  </g>
  <line id="Baseline-S" style="fill:none;stroke:#27AAE1;opacity:1;stroke-width:0.5;" x1="263" x2="3036" y1="696" y2="696"/>
  <line id="Capline-S" style="fill:none;stroke:#27AAE1;opacity:1;stroke-width:0.5;" x1="263" x2="3036" y1="625.541" y2="625.541"/>
  <g id="H-reference" style="fill:#27AAE1;stroke:none;" transform="matrix(1 0 0 1 339 1126)">
   <path d="M0.993654 0L3.63775 0L29.3281-67.1323L30.0303-67.1323L30.0303-70.459L28.1226-70.459ZM11.6885-24.4799L46.9815-24.4799L46.2315-26.7285L12.4385-26.7285ZM55.1196 0L57.7637 0L30.6382-70.459L29.4326-70.459L29.4326-67.1323Z"/>
  </g>
  <line id="Baseline-M" style="fill:none;stroke:#27AAE1;opacity:1;stroke-width:0.5;" x1="263" x2="3036" y1="1126" y2="1126"/>
  <line id="Capline-M" style="fill:none;stroke:#27AAE1;opacity:1;stroke-width:0.5;" x1="263" x2="3036" y1="1055.54" y2="1055.54"/>
  <g id="H-reference" style="fill:#27AAE1;stroke:none;" transform="matrix(1 0 0 1 339 1556)">
   <path d="M0.993654 0L3.63775 0L29.3281-67.1323L30.0303-67.1323L30.0303-70.459L28.1226-70.459ZM11.6885-24.4799L46.9815-24.4799L46.2315-26.7285L12.4385-26.7285ZM55.1196 0L57.7637 0L30.6382-70.459L29.4326-70.459L29.4326-67.1323Z"/>
  </g>
  <line id="Baseline-L" style="fill:none;stroke:#27AAE1;opacity:1;stroke-width:0.5;" x1="263" x2="3036" y1="1556" y2="1556"/>
  <line id="Capline-L" style="fill:none;stroke:#27AAE1;opacity:1;stroke-width:0.5;" x1="263" x2="3036" y1="1485.54" y2="1485.54"/>
  <line id="left-margin-Ultralight-S" style="fill:none;stroke:#00AEEF;stroke-width:0.5;opacity:1.0;" x1="508.1" x2="508.1" y1="600.785" y2="720.121"/>
  <line id="right-margin-Ultralight-S" style="fill:none;stroke:#FF3B30;stroke-width:0.5;opacity:1.0;" x1="611.322" x2="611.322" y1="600.785" y2="720.121"/>
  <line id="left-margin-Thin-S" style="fill:none;stroke:#00AEEF;stroke-width:0.5;opacity:1.0;" x1="804.371" x2="804.371" y1="600.785" y2="720.121"/>
  <line id="right-margin-Thin-S" style="fill:none;stroke:#FF3B30;stroke-width:0.5;opacity:1.0;" x1="908.473" x2="908.473" y1="600.785" y2="720.121"/>
  <line id="left-margin-Light-S" style="fill:none;stroke:#00AEEF;stroke-width:0.5;opacity:1.0;" x1="1100.23" x2="1100.23" y1="600.785" y2="720.121"/>
  <line id="right-margin-Light-S" style="fill:none;stroke:#FF3B30;stroke-width:0.5;opacity:1.0;" x1="1206.04" x2="1206.04" y1="600.785" y2="720.121"/>
  <line id="left-margin-Regular-S" style="fill:none;stroke:#00AEEF;stroke-width:0.5;opacity:1.0;" x1="1396.3" x2="1396.3" y1="600.785" y2="720.121"/>
  <line id="right-margin-Regular-S" style="fill:none;stroke:#00AEEF;stroke-width:0.5;opacity:1.0;" x1="1503.38" x2="1503.38" y1="600.785" y2="720.121"/>
  <line id="left-margin-Medium-S" style="fill:none;stroke:#00AEEF;stroke-width:0.5;opacity:1.0;" x1="1692.65" x2="1692.65" y1="600.785" y2="720.121"/>
  <line id="right-margin-Medium-S" style="fill:none;stroke:#00AEEF;stroke-width:0.5;opacity:1.0;" x1="1800.46" x2="1800.46" y1="600.785" y2="720.121"/>
  <line id="left-margin-Semibold-S" style="fill:none;stroke:#00AEEF;stroke-width:0.5;opacity:1.0;" x1="1989.09" x2="1989.09" y1="600.785" y2="720.121"/>
  <line id="right-margin-Semibold-S" style="fill:none;stroke:#00AEEF;stroke-width:0.5;opacity:1.0;" x1="2097.44" x2="2097.44" y1="600.785" y2="720.121"/>
  <line id="left-margin-Bold-S" style="fill:none;stroke:#00AEEF;stroke-width:0.5;opacity:1.0;" x1="2285.41" x2="2285.41" y1="600.785" y2="720.121"/>
  <line id="right-margin-Bold-S" style="fill:none;stroke:#00AEEF;stroke-width:0.5;opacity:1.0;" x1="2394.54" x2="2394.54" y1="600.785" y2="720.121"/>
  <line id="left-margin-Heavy-S" style="fill:none;stroke:#00AEEF;stroke-width:0.5;opacity:1.0;" x1="2581.61" x2="2581.61" y1="600.785" y2="720.121"/>
  <line id="right-margin-Heavy-S" style="fill:none;stroke:#00AEEF;stroke-width:0.5;opacity:1.0;" x1="2691.77" x2="2691.77" y1="600.785" y2="720.121"/>
  <line id="left-margin-Black-S" style="fill:none;stroke:#00AEEF;stroke-width:0.5;opacity:1.0;" x1="2877.83" x2="2877.83" y1="600.785" y2="720.121"/>
  <line id="right-margin-Black-S" style="fill:none;stroke:#00AEEF;stroke-width:0.5;opacity:1.0;" x1="2988.97" x2="2988.97" y1="600.785" y2="720.121"/>
  <line id="left-margin-Ultralight-M" style="fill:none;stroke:#00AEEF;stroke-width:0.5;opacity:1.0;" x1="494.013" x2="494.013" y1="1030.79" y2="1150.12"/>
  <line id="right-margin-Ultralight-M" style="fill:none;stroke:#00AEEF;stroke-width:0.5;opacity:1.0;" x1="625.409" x2="625.409" y1="1030.79" y2="1150.12"/>
  <line id="left-margin-Thin-M" style="fill:none;stroke:#00AEEF;stroke-width:0.5;opacity:1.0;" x1="790.236" x2="790.236" y1="1030.79" y2="1150.12"/>
  <line id="right-margin-Thin-M" style="fill:none;stroke:#00AEEF;stroke-width:0.5;opacity:1.0;" x1="922.609" x2="922.609" y1="1030.79" y2="1150.12"/>
  <line id="left-margin-Light-M" style="fill:none;stroke:#00AEEF;stroke-width:0.5;opacity:1.0;" x1="1085.97" x2="1085.97" y1="1030.79" y2="1150.12"/>
  <line id="right-margin-Light-M" style="fill:none;stroke:#00AEEF;stroke-width:0.5;opacity:1.0;" x1="1220.3" x2="1220.3" y1="1030.79" y2="1150.12"/>
  <line id="left-margin-Regular-M" style="fill:none;stroke:#00AEEF;stroke-width:0.5;opacity:1.0;" x1="1381.95" x2="1381.95" y1="1030.79" y2="1150.12"/>
  <line id="right-margin-Regular-M" style="fill:none;stroke:#00AEEF;stroke-width:0.5;opacity:1.0;" x1="1517.74" x2="1517.74" y1="1030.79" y2="1150.12"/>
  <line id="left-margin-Medium-M" style="fill:none;stroke:#00AEEF;stroke-width:0.5;opacity:1.0;" x1="1678.15" x2="1678.15" y1="1030.79" y2="1150.12"/>
  <line id="right-margin-Medium-M" style="fill:none;stroke:#00AEEF;stroke-width:0.5;opacity:1.0;" x1="1814.96" x2="1814.96" y1="1030.79" y2="1150.12"/>
  <line id="left-margin-Semibold-M" style="fill:none;stroke:#00AEEF;stroke-width:0.5;opacity:1.0;" x1="1974.47" x2="1974.47" y1="1030.79" y2="1150.12"/>
  <line id="right-margin-Semibold-M" style="fill:none;stroke:#00AEEF;stroke-width:0.5;opacity:1.0;" x1="2112.07" x2="2112.07" y1="1030.79" y2="1150.12"/>
  <line id="left-margin-Bold-M" style="fill:none;stroke:#00AEEF;stroke-width:0.5;opacity:1.0;" x1="2270.67" x2="2270.67" y1="1030.79" y2="1150.12"/>
  <line id="right-margin-Bold-M" style="fill:none;stroke:#00AEEF;stroke-width:0.5;opacity:1.0;" x1="2409.29" x2="2409.29" y1="1030.79" y2="1150.12"/>
  <line id="left-margin-Heavy-M" style="fill:none;stroke:#00AEEF;stroke-width:0.5;opacity:1.0;" x1="2566.64" x2="2566.64" y1="1030.79" y2="1150.12"/>
  <line id="right-margin-Heavy-M" style="fill:none;stroke:#00AEEF;stroke-width:0.5;opacity:1.0;" x1="2706.73" x2="2706.73" y1="1030.79" y2="1150.12"/>
  <line id="left-margin-Black-M" style="fill:none;stroke:#00AEEF;stroke-width:0.5;opacity:1.0;" x1="2862.7" x2="2862.7" y1="1030.79" y2="1150.12"/>
  <line id="right-margin-Black-M" style="fill:none;stroke:#00AEEF;stroke-width:0.5;opacity:1.0;" x1="3004.1" x2="3004.1" y1="1030.79" y2="1150.12"/>
  <line id="left-margin-Ultralight-L" style="fill:none;stroke:#00AEEF;stroke-width:0.5;opacity:1.0;" x1="475.165" x2="475.165" y1="1460.79" y2="1580.12"/>
  <line id="right-margin-Ultralight-L" style="fill:none;stroke:#00AEEF;stroke-width:0.5;opacity:1.0;" x1="644.257" x2="644.257" y1="1460.79" y2="1580.12"/>
  <line id="left-margin-Thin-L" style="fill:none;stroke:#00AEEF;stroke-width:0.5;opacity:1.0;" x1="771.315" x2="771.315" y1="1460.79" y2="1580.12"/>
  <line id="right-margin-Thin-L" style="fill:none;stroke:#00AEEF;stroke-width:0.5;opacity:1.0;" x1="941.53" x2="941.53" y1="1460.79" y2="1580.12"/>
  <line id="left-margin-Light-L" style="fill:none;stroke:#00AEEF;stroke-width:0.5;opacity:1.0;" x1="1066.95" x2="1066.95" y1="1460.79" y2="1580.12"/>
  <line id="right-margin-Light-L" style="fill:none;stroke:#00AEEF;stroke-width:0.5;opacity:1.0;" x1="1239.31" x2="1239.31" y1="1460.79" y2="1580.12"/>
  <line id="left-margin-Regular-L" style="fill:none;stroke:#00AEEF;stroke-width:0.5;opacity:1.0;" x1="1362.86" x2="1362.86" y1="1460.79" y2="1580.12"/>
  <line id="right-margin-Regular-L" style="fill:none;stroke:#00AEEF;stroke-width:0.5;opacity:1.0;" x1="1536.83" x2="1536.83" y1="1460.79" y2="1580.12"/>
  <line id="left-margin-Medium-L" style="fill:none;stroke:#00AEEF;stroke-width:0.5;opacity:1.0;" x1="1658.91" x2="1658.91" y1="1460.79" y2="1580.12"/>
  <line id="right-margin-Medium-L" style="fill:none;stroke:#00AEEF;stroke-width:0.5;opacity:1.0;" x1="1834.2" x2="1834.2" y1="1460.79" y2="1580.12"/>
  <line id="left-margin-Semibold-L" style="fill:none;stroke:#00AEEF;stroke-width:0.5;opacity:1.0;" x1="1955.11" x2="1955.11" y1="1460.79" y2="1580.12"/>
  <line id="right-margin-Semibold-L" style="fill:none;stroke:#00AEEF;stroke-width:0.5;opacity:1.0;" x1="2131.43" x2="2131.43" y1="1460.79" y2="1580.12"/>
  <line id="left-margin-Bold-L" style="fill:none;stroke:#00AEEF;stroke-width:0.5;opacity:1.0;" x1="2251.16" x2="2251.16" y1="1460.79" y2="1580.12"/>
  <line id="right-margin-Bold-L" style="fill:none;stroke:#00AEEF;stroke-width:0.5;opacity:1.0;" x1="2428.8" x2="2428.8" y1="1460.79" y2="1580.12"/>
  <line id="left-margin-Heavy-L" style="fill:none;stroke:#00AEEF;stroke-width:0.5;opacity:1.0;" x1="2546.89" x2="2546.89" y1="1460.79" y2="1580.12"/>
  <line id="right-margin-Heavy-L" style="fill:none;stroke:#00AEEF;stroke-width:0.5;opacity:1.0;" x1="2726.48" x2="2726.48" y1="1460.79" y2="1580.12"/>
  <line id="left-margin-Black-L" style="fill:none;stroke:#00AEEF;stroke-width:0.5;opacity:1.0;" x1="2842.75" x2="2842.75" y1="1460.79" y2="1580.12"/>
  <line id="right-margin-Black-L" style="fill:none;stroke:#00AEEF;stroke-width:0.5;opacity:1.0;" x1="3024.05" x2="3024.05" y1="1460.79" y2="1580.12"/>
 </g>
 <g id="Symbols">
  <g id="Black-L" transform="matrix(1 0 0 1 2842.75 1556)">
   <path class="monochrome-0 multicolor-0:tintColor hierarchical-0:primary SFSymbolsPreviewWireframe" d="M99.4-41C101.3-43.4 102.5-46.4 102.5-49.6C102.5-57.2 96.3-63.3 88.8-63.3L87.3-63.3C87.3-65.9 86.6-68.2 85.1-70.3C82.1-74.5 76.9-76.6 73.8-77.5C75.9-82.7 75.5-89.5 75.5-89.8C75.5-90.5 75-91.2 74.3-91.4C73.6-91.6 72.8-91.4 72.3-90.9C72.2-90.8 63.9-81.5 52.6-76.5C44.5-72.9 42.7-67.1 42.6-63.1C35.7-62.4 30.3-56.5 30.3-49.4C30.3-46.2 31.4-43.2 33.3-40.8L33-40.8C25-41 18.4-34.4 18.4-26.4L18.4-21.2C18.4-13.1 25-6.5 33.1-6.5L98.5-6.5C106.6-6.5 113.2-13.1 113.2-21.2L113.2-26.4C113.1-34.1 107-40.5 99.4-41ZM48.8-43.6C48.8-46.6 51.3-49.1 54.3-49.1C57.3-49.1 59.8-46.6 59.8-43.6C59.8-40.6 57.3-38.1 54.3-38.1C51.2-38.1 48.8-40.5 48.8-43.6ZM65.8-23C65.7-23 65.7-23 65.8-23C65.7-23 65.7-23 65.8-23C65.7-23 65.7-23 65.8-23C65.7-23 65.7-23 65.8-23L65.8-23C65.7-23 65.7-23 65.8-23L65.6-23C65.6-23 65.6-23 65.5-23C60.8-23.1 57.1-26.4 57.1-30.3C57.1-30.4 57.1-30.9 57.5-31.2C57.8-31.5 58.3-31.7 58.9-31.6C58.9-31.6 72.8-31.6 72.8-31.6C73-31.6 73.6-31.5 73.9-31.2C74.2-31 74.3-30.6 74.3-30.3C74.2-26.4 70.4-23.1 65.8-23ZM77.2-38.1C74.2-38.1 71.7-40.6 71.7-43.6C71.7-46.6 74.2-49.1 77.2-49.1C80.2-49.1 82.7-46.6 82.7-43.6C82.7-40.5 80.3-38.1 77.2-38.1Z"/>
  </g>
  <g id="Heavy-L" transform="matrix(1 0 0 1 2546.89 1556)">
   <path class="monochrome-0 multicolor-0:tintColor hierarchical-0:primary SFSymbolsPreviewWireframe" d="M99.4-40C101.3-42.4 102.5-45.4 102.5-48.6C102.5-56.2 96.3-62.3 88.8-62.3L87.3-62.3C87.3-64.9 86.6-67.2 85.1-69.3C82.1-73.5 76.9-75.6 73.8-76.5C75.9-81.7 75.5-88.5 75.5-88.8C75.5-89.5 75-90.2 74.3-90.4C73.6-90.6 72.8-90.4 72.3-89.9C72.2-89.8 63.9-80.5 52.6-75.5C44.5-71.9 42.7-66.1 42.6-62.1C35.7-61.4 30.3-55.5 30.3-48.4C30.3-45.2 31.4-42.2 33.3-39.8L33-39.8C25-40 18.4-33.4 18.4-25.4L18.4-20.2C18.4-12.1 25-5.5 33.1-5.5L98.5-5.5C106.6-5.5 113.2-12.1 113.2-20.2L113.2-25.4C113.1-33.1 107-39.5 99.4-40ZM48.8-42.6C48.8-45.6 51.3-48.1 54.3-48.1C57.3-48.1 59.8-45.6 59.8-42.6C59.8-39.6 57.3-37.1 54.3-37.1C51.2-37.1 48.8-39.5 48.8-42.6ZM65.8-22C65.7-22 65.7-22 65.8-22C65.7-22 65.7-22 65.8-22C65.7-22 65.7-22 65.8-22C65.7-22 65.7-22 65.8-22L65.8-22C65.7-22 65.7-22 65.8-22L65.6-22C65.6-22 65.6-22 65.5-22C60.8-22.1 57.1-25.4 57.1-29.3C57.1-29.4 57.1-29.9 57.5-30.2C57.8-30.5 58.3-30.7 58.9-30.6C58.9-30.6 72.8-30.6 72.8-30.6C73-30.6 73.6-30.5 73.9-30.2C74.2-30 74.3-29.6 74.3-29.3C74.2-25.4 70.4-22.1 65.8-22ZM77.2-37.1C74.2-37.1 71.7-39.6 71.7-42.6C71.7-45.6 74.2-48.1 77.2-48.1C80.2-48.1 82.7-45.6 82.7-42.6C82.7-39.5 80.3-37.1 77.2-37.1Z"/>
  </g>
  <g id="Bold-L" transform="matrix(1 0 0 1 2251.16 1556)">
   <path class="monochrome-0 multicolor-0:tintColor hierarchical-0:primary SFSymbolsPreviewWireframe" d="M99.4-38C101.3-40.4 102.5-43.4 102.5-46.6C102.5-54.2 96.3-60.3 88.8-60.3L87.3-60.3C87.3-62.9 86.6-65.2 85.1-67.3C82.1-71.5 76.9-73.6 73.8-74.5C75.9-79.7 75.5-86.5 75.5-86.8C75.5-87.5 75-88.2 74.3-88.4C73.6-88.6 72.8-88.4 72.3-87.9C72.2-87.8 63.9-78.5 52.6-73.5C44.5-69.9 42.7-64.1 42.6-60.1C35.7-59.4 30.3-53.5 30.3-46.4C30.3-43.2 31.4-40.2 33.3-37.8L33-37.8C25-38 18.4-31.4 18.4-23.4L18.4-18.2C18.4-10.1 25-3.5 33.1-3.5L98.5-3.5C106.6-3.5 113.2-10.1 113.2-18.2L113.2-23.4C113.1-31.1 107-37.5 99.4-38ZM48.8-40.6C48.8-43.6 51.3-46.1 54.3-46.1C57.3-46.1 59.8-43.6 59.8-40.6C59.8-37.6 57.3-35.1 54.3-35.1C51.2-35.1 48.8-37.5 48.8-40.6ZM65.8-20C65.7-20 65.7-20 65.8-20C65.7-20 65.7-20 65.8-20C65.7-20 65.7-20 65.8-20C65.7-20 65.7-20 65.8-20L65.8-20C65.7-20 65.7-20 65.8-20L65.6-20C65.6-20 65.6-20 65.5-20C60.8-20.1 57.1-23.4 57.1-27.3C57.1-27.4 57.1-27.9 57.5-28.2C57.8-28.5 58.3-28.7 58.9-28.6C58.9-28.6 72.8-28.6 72.8-28.6C73-28.6 73.6-28.5 73.9-28.2C74.2-28 74.3-27.6 74.3-27.3C74.2-23.4 70.4-20.1 65.8-20ZM77.2-35.1C74.2-35.1 71.7-37.6 71.7-40.6C71.7-43.6 74.2-46.1 77.2-46.1C80.2-46.1 82.7-43.6 82.7-40.6C82.7-37.5 80.3-35.1 77.2-35.1Z"/>
  </g>
  <g id="Semibold-L" transform="matrix(1 0 0 1 1955.11 1556)">
   <path class="monochrome-0 multicolor-0:tintColor hierarchical-0:primary SFSymbolsPreviewWireframe" d="M99.4-37C101.3-39.4 102.5-42.4 102.5-45.6C102.5-53.2 96.3-59.3 88.8-59.3L87.3-59.3C87.3-61.9 86.6-64.2 85.1-66.3C82.1-70.5 76.9-72.6 73.8-73.5C75.9-78.7 75.5-85.5 75.5-85.8C75.5-86.5 75-87.2 74.3-87.4C73.6-87.6 72.8-87.4 72.3-86.9C72.2-86.8 63.9-77.5 52.6-72.5C44.5-68.9 42.7-63.1 42.6-59.1C35.7-58.4 30.3-52.5 30.3-45.4C30.3-42.2 31.4-39.2 33.3-36.8L33-36.8C25-37 18.4-30.4 18.4-22.4L18.4-17.2C18.4-9.1 25-2.5 33.1-2.5L98.5-2.5C106.6-2.5 113.2-9.1 113.2-17.2L113.2-22.4C113.1-30.1 107-36.5 99.4-37ZM48.8-39.6C48.8-42.6 51.3-45.1 54.3-45.1C57.3-45.1 59.8-42.6 59.8-39.6C59.8-36.6 57.3-34.1 54.3-34.1C51.2-34.1 48.8-36.5 48.8-39.6ZM65.8-19C65.7-19 65.7-19 65.8-19C65.7-19 65.7-19 65.8-19C65.7-19 65.7-19 65.8-19C65.7-19 65.7-19 65.8-19L65.8-19C65.7-19 65.7-19 65.8-19L65.6-19C65.6-19 65.6-19 65.5-19C60.8-19.1 57.1-22.4 57.1-26.3C57.1-26.4 57.1-26.9 57.5-27.2C57.8-27.5 58.3-27.7 58.9-27.6C58.9-27.6 72.8-27.6 72.8-27.6C73-27.6 73.6-27.5 73.9-27.2C74.2-27 74.3-26.6 74.3-26.3C74.2-22.4 70.4-19.1 65.8-19ZM77.2-34.1C74.2-34.1 71.7-36.6 71.7-39.6C71.7-42.6 74.2-45.1 77.2-45.1C80.2-45.1 82.7-42.6 82.7-39.6C82.7-36.5 80.3-34.1 77.2-34.1Z"/>
  </g>
  <g id="Medium-L" transform="matrix(1 0 0 1 1658.91 1556)">
   <path class="monochrome-0 multicolor-0:tintColor hierarchical-0:primary SFSymbolsPreviewWireframe" d="M99.4-36C101.3-38.4 102.5-41.4 102.5-44.6C102.5-52.2 96.3-58.3 88.8-58.3L87.3-58.3C87.3-60.9 86.6-63.2 85.1-65.3C82.1-69.5 76.9-71.6 73.8-72.5C75.9-77.7 75.5-84.5 75.5-84.8C75.5-85.5 75-86.2 74.3-86.4C73.6-86.6 72.8-86.4 72.3-85.9C72.2-85.8 63.9-76.5 52.6-71.5C44.5-67.9 42.7-62.1 42.6-58.1C35.7-57.4 30.3-51.5 30.3-44.4C30.3-41.2 31.4-38.2 33.3-35.8L33-35.8C25-36 18.4-29.4 18.4-21.4L18.4-16.2C18.4-8.1 25-1.5 33.1-1.5L98.5-1.5C106.6-1.5 113.2-8.1 113.2-16.2L113.2-21.4C113.1-29.1 107-35.5 99.4-36ZM48.8-38.6C48.8-41.6 51.3-44.1 54.3-44.1C57.3-44.1 59.8-41.6 59.8-38.6C59.8-35.6 57.3-33.1 54.3-33.1C51.2-33.1 48.8-35.5 48.8-38.6ZM65.8-18C65.7-18 65.7-18 65.8-18C65.7-18 65.7-18 65.8-18C65.7-18 65.7-18 65.8-18C65.7-18 65.7-18 65.8-18L65.8-18C65.7-18 65.7-18 65.8-18L65.6-18C65.6-18 65.6-18 65.5-18C60.8-18.1 57.1-21.4 57.1-25.3C57.1-25.4 57.1-25.9 57.5-26.2C57.8-26.5 58.3-26.7 58.9-26.6C58.9-26.6 72.8-26.6 72.8-26.6C73-26.6 73.6-26.5 73.9-26.2C74.2-26 74.3-25.6 74.3-25.3C74.2-21.4 70.4-18.1 65.8-18ZM77.2-33.1C74.2-33.1 71.7-35.6 71.7-38.6C71.7-41.6 74.2-44.1 77.2-44.1C80.2-44.1 82.7-41.6 82.7-38.6C82.7-35.5 80.3-33.1 77.2-33.1Z"/>
  </g>
  <g id="Regular-L" transform="matrix(1 0 0 1 1362.86 1556)">
   <path class="monochrome-0 multicolor-0:tintColor hierarchical-0:primary SFSymbolsPreviewWireframe" d="M99.4-35C101.3-37.4 102.5-40.4 102.5-43.6C102.5-51.2 96.3-57.3 88.8-57.3L87.3-57.3C87.3-59.9 86.6-62.2 85.1-64.3C82.1-68.5 76.9-70.6 73.8-71.5C75.9-76.7 75.5-83.5 75.5-83.8C75.5-84.5 75-85.2 74.3-85.4C73.6-85.6 72.8-85.4 72.3-84.9C72.2-84.8 63.9-75.5 52.6-70.5C44.5-66.9 42.7-61.1 42.6-57.1C35.7-56.4 30.3-50.5 30.3-43.4C30.3-40.2 31.4-37.2 33.3-34.8L33-34.8C25-35 18.4-28.4 18.4-20.4L18.4-15.2C18.4-7.1 25-0.5 33.1-0.5L98.5-0.5C106.6-0.5 113.2-7.1 113.2-15.2L113.2-20.4C113.1-28.1 107-34.5 99.4-35ZM48.8-37.6C48.8-40.6 51.3-43.1 54.3-43.1C57.3-43.1 59.8-40.6 59.8-37.6C59.8-34.6 57.3-32.1 54.3-32.1C51.2-32.1 48.8-34.5 48.8-37.6ZM65.8-17C65.7-17 65.7-17 65.8-17C65.7-17 65.7-17 65.8-17C65.7-17 65.7-17 65.8-17C65.7-17 65.7-17 65.8-17L65.8-17C65.7-17 65.7-17 65.8-17L65.6-17C65.6-17 65.6-17 65.5-17C60.8-17.1 57.1-20.4 57.1-24.3C57.1-24.4 57.1-24.9 57.5-25.2C57.8-25.5 58.3-25.7 58.9-25.6C58.9-25.6 72.8-25.6 72.8-25.6C73-25.6 73.6-25.5 73.9-25.2C74.2-25 74.3-24.6 74.3-24.3C74.2-20.4 70.4-17.1 65.8-17ZM77.2-32.1C74.2-32.1 71.7-34.6 71.7-37.6C71.7-40.6 74.2-43.1 77.2-43.1C80.2-43.1 82.7-40.6 82.7-37.6C82.7-34.5 80.3-32.1 77.2-32.1Z"/>
  </g>
  <g id="Light-L" transform="matrix(1 0 0 1 1066.95 1556)">
   <path class="monochrome-0 multicolor-0:tintColor hierarchical-0:primary SFSymbolsPreviewWireframe" d="M99.4-34C101.3-36.4 102.5-39.4 102.5-42.6C102.5-50.2 96.3-56.3 88.8-56.3L87.3-56.3C87.3-58.9 86.6-61.2 85.1-63.3C82.1-67.5 76.9-69.6 73.8-70.5C75.9-75.7 75.5-82.5 75.5-82.8C75.5-83.5 75-84.2 74.3-84.4C73.6-84.6 72.8-84.4 72.3-83.9C72.2-83.8 63.9-74.5 52.6-69.5C44.5-65.9 42.7-60.1 42.6-56.1C35.7-55.4 30.3-49.5 30.3-42.4C30.3-39.2 31.4-36.2 33.3-33.8L33-33.8C25-34 18.4-27.4 18.4-19.4L18.4-14.2C18.4-6.1 25 0.5 33.1 0.5L98.5 0.5C106.6 0.5 113.2-6.1 113.2-14.2L113.2-19.4C113.1-27.1 107-33.5 99.4-34ZM48.8-36.6C48.8-39.6 51.3-42.1 54.3-42.1C57.3-42.1 59.8-39.6 59.8-36.6C59.8-33.6 57.3-31.1 54.3-31.1C51.2-31.1 48.8-33.5 48.8-36.6ZM65.8-16C65.7-16 65.7-16 65.8-16C65.7-16 65.7-16 65.8-16C65.7-16 65.7-16 65.8-16C65.7-16 65.7-16 65.8-16L65.8-16C65.7-16 65.7-16 65.8-16L65.6-16C65.6-16 65.6-16 65.5-16C60.8-16.1 57.1-19.4 57.1-23.3C57.1-23.4 57.1-23.9 57.5-24.2C57.8-24.5 58.3-24.7 58.9-24.6C58.9-24.6 72.8-24.6 72.8-24.6C73-24.6 73.6-24.5 73.9-24.2C74.2-24 74.3-23.6 74.3-23.3C74.2-19.4 70.4-16.1 65.8-16ZM77.2-31.1C74.2-31.1 71.7-33.6 71.7-36.6C71.7-39.6 74.2-42.1 77.2-42.1C80.2-42.1 82.7-39.6 82.7-36.6C82.7-33.5 80.3-31.1 77.2-31.1Z"/>
  </g>
  <g id="Thin-L" transform="matrix(1 0 0 1 771.315 1556)">
   <path class="monochrome-0 multicolor-0:tintColor hierarchical-0:primary SFSymbolsPreviewWireframe" d="M99.4-33C101.3-35.4 102.5-38.4 102.5-41.6C102.5-49.2 96.3-55.3 88.8-55.3L87.3-55.3C87.3-57.9 86.6-60.2 85.1-62.3C82.1-66.5 76.9-68.6 73.8-69.5C75.9-74.7 75.5-81.5 75.5-81.8C75.5-82.5 75-83.2 74.3-83.4C73.6-83.6 72.8-83.4 72.3-82.9C72.2-82.8 63.9-73.5 52.6-68.5C44.5-64.9 42.7-59.1 42.6-55.1C35.7-54.4 30.3-48.5 30.3-41.4C30.3-38.2 31.4-35.2 33.3-32.8L33-32.8C25-33 18.4-26.4 18.4-18.4L18.4-13.2C18.4-5.1 25 1.5 33.1 1.5L98.5 1.5C106.6 1.5 113.2-5.1 113.2-13.2L113.2-18.4C113.1-26.1 107-32.5 99.4-33ZM48.8-35.6C48.8-38.6 51.3-41.1 54.3-41.1C57.3-41.1 59.8-38.6 59.8-35.6C59.8-32.6 57.3-30.1 54.3-30.1C51.2-30.1 48.8-32.5 48.8-35.6ZM65.8-15C65.7-15 65.7-15 65.8-15C65.7-15 65.7-15 65.8-15C65.7-15 65.7-15 65.8-15C65.7-15 65.7-15 65.8-15L65.8-15C65.7-15 65.7-15 65.8-15L65.6-15C65.6-15 65.6-15 65.5-15C60.8-15.1 57.1-18.4 57.1-22.3C57.1-22.4 57.1-22.9 57.5-23.2C57.8-23.5 58.3-23.7 58.9-23.6C58.9-23.6 72.8-23.6 72.8-23.6C73-23.6 73.6-23.5 73.9-23.2C74.2-23 74.3-22.6 74.3-22.3C74.2-18.4 70.4-15.1 65.8-15ZM77.2-30.1C74.2-30.1 71.7-32.6 71.7-35.6C71.7-38.6 74.2-41.1 77.2-41.1C80.2-41.1 82.7-38.6 82.7-35.6C82.7-32.5 80.3-30.1 77.2-30.1Z"/>
  </g>
  <g id="Ultralight-L" transform="matrix(1 0 0 1 475.165 1556)">
   <path class="monochrome-0 multicolor-0:tintColor hierarchical-0:primary SFSymbolsPreviewWireframe" d="M99.4-32C101.3-34.4 102.5-37.4 102.5-40.6C102.5-48.2 96.3-54.3 88.8-54.3L87.3-54.3C87.3-56.9 86.6-59.2 85.1-61.3C82.1-65.5 76.9-67.6 73.8-68.5C75.9-73.7 75.5-80.5 75.5-80.8C75.5-81.5 75-82.2 74.3-82.4C73.6-82.6 72.8-82.4 72.3-81.9C72.2-81.8 63.9-72.5 52.6-67.5C44.5-63.9 42.7-58.1 42.6-54.1C35.7-53.4 30.3-47.5 30.3-40.4C30.3-37.2 31.4-34.2 33.3-31.8L33-31.8C25-32 18.4-25.4 18.4-17.4L18.4-12.2C18.4-4.1 25 2.5 33.1 2.5L98.5 2.5C106.6 2.5 113.2-4.1 113.2-12.2L113.2-17.4C113.1-25.1 107-31.5 99.4-32ZM48.8-34.6C48.8-37.6 51.3-40.1 54.3-40.1C57.3-40.1 59.8-37.6 59.8-34.6C59.8-31.6 57.3-29.1 54.3-29.1C51.2-29.1 48.8-31.5 48.8-34.6ZM65.8-14C65.7-14 65.7-14 65.8-14C65.7-14 65.7-14 65.8-14C65.7-14 65.7-14 65.8-14C65.7-14 65.7-14 65.8-14L65.8-14C65.7-14 65.7-14 65.8-14L65.6-14C65.6-14 65.6-14 65.5-14C60.8-14.1 57.1-17.4 57.1-21.3C57.1-21.4 57.1-21.9 57.5-22.2C57.8-22.5 58.3-22.7 58.9-22.6C58.9-22.6 72.8-22.6 72.8-22.6C73-22.6 73.6-22.5 73.9-22.2C74.2-22 74.3-21.6 74.3-21.3C74.2-17.4 70.4-14.1 65.8-14ZM77.2-29.1C74.2-29.1 71.7-31.6 71.7-34.6C71.7-37.6 74.2-40.1 77.2-40.1C80.2-40.1 82.7-37.6 82.7-34.6C82.7-31.5 80.3-29.1 77.2-29.1Z"/>
  </g>
  <g id="Black-M" transform="matrix(1 0 0 1 2862.7 1126)">
   <path class="monochrome-0 multicolor-0:tintColor hierarchical-0:primary SFSymbolsPreviewWireframe" d="M95.4-28C97.3-30.4 98.5-33.4 98.5-36.6C98.5-44.2 92.3-50.3 84.8-50.3L83.3-50.3C83.3-52.9 82.6-55.2 81.1-57.3C78.1-61.5 72.9-63.6 69.8-64.5C71.9-69.7 71.5-76.5 71.5-76.8C71.5-77.5 71-78.2 70.3-78.4C69.6-78.6 68.8-78.4 68.3-77.9C68.2-77.8 59.9-68.5 48.6-63.5C40.5-59.9 38.7-54.1 38.6-50.1C31.7-49.4 26.3-43.5 26.3-36.4C26.3-33.2 27.4-30.2 29.3-27.8L29-27.8C21-28 14.4-21.4 14.4-13.4L14.4-8.2C14.4-0.1 21 6.5 29.1 6.5L94.5 6.5C102.6 6.5 109.2-0.1 109.2-8.2L109.2-13.4C109.1-21.1 103-27.5 95.4-28ZM44.8-30.6C44.8-33.6 47.3-36.1 50.3-36.1C53.3-36.1 55.8-33.6 55.8-30.6C55.8-27.6 53.3-25.1 50.3-25.1C47.2-25.1 44.8-27.5 44.8-30.6ZM61.8-10C61.7-10 61.7-10 61.8-10C61.7-10 61.7-10 61.8-10C61.7-10 61.7-10 61.8-10C61.7-10 61.7-10 61.8-10L61.8-10C61.7-10 61.7-10 61.8-10L61.6-10C61.6-10 61.6-10 61.5-10C56.8-10.1 53.1-13.4 53.1-17.3C53.1-17.4 53.1-17.9 53.5-18.2C53.8-18.5 54.3-18.7 54.9-18.6C54.9-18.6 68.8-18.6 68.8-18.6C69-18.6 69.6-18.5 69.9-18.2C70.2-18 70.3-17.6 70.3-17.3C70.2-13.4 66.4-10.1 61.8-10ZM73.2-25.1C70.2-25.1 67.7-27.6 67.7-30.6C67.7-33.6 70.2-36.1 73.2-36.1C76.2-36.1 78.7-33.6 78.7-30.6C78.7-27.5 76.3-25.1 73.2-25.1Z"/>
  </g>
  <g id="Heavy-M" transform="matrix(1 0 0 1 2566.64 1126)">
   <path class="monochrome-0 multicolor-0:tintColor hierarchical-0:primary SFSymbolsPreviewWireframe" d="M95.4-27C97.3-29.4 98.5-32.4 98.5-35.6C98.5-43.2 92.3-49.3 84.8-49.3L83.3-49.3C83.3-51.9 82.6-54.2 81.1-56.3C78.1-60.5 72.9-62.6 69.8-63.5C71.9-68.7 71.5-75.5 71.5-75.8C71.5-76.5 71-77.2 70.3-77.4C69.6-77.6 68.8-77.4 68.3-76.9C68.2-76.8 59.9-67.5 48.6-62.5C40.5-58.9 38.7-53.1 38.6-49.1C31.7-48.4 26.3-42.5 26.3-35.4C26.3-32.2 27.4-29.2 29.3-26.8L29-26.8C21-27 14.4-20.4 14.4-12.4L14.4-7.2C14.4 0.9 21 7.5 29.1 7.5L94.5 7.5C102.6 7.5 109.2 0.9 109.2-7.2L109.2-12.4C109.1-20.1 103-26.5 95.4-27ZM44.8-29.6C44.8-32.6 47.3-35.1 50.3-35.1C53.3-35.1 55.8-32.6 55.8-29.6C55.8-26.6 53.3-24.1 50.3-24.1C47.2-24.1 44.8-26.5 44.8-29.6ZM61.8-9C61.7-9 61.7-9 61.8-9C61.7-9 61.7-9 61.8-9C61.7-9 61.7-9 61.8-9C61.7-9 61.7-9 61.8-9L61.8-9C61.7-9 61.7-9 61.8-9L61.6-9C61.6-9 61.6-9 61.5-9C56.8-9.1 53.1-12.4 53.1-16.3C53.1-16.4 53.1-16.9 53.5-17.2C53.8-17.5 54.3-17.7 54.9-17.6C54.9-17.6 68.8-17.6 68.8-17.6C69-17.6 69.6-17.5 69.9-17.2C70.2-17 70.3-16.6 70.3-16.3C70.2-12.4 66.4-9.1 61.8-9ZM73.2-24.1C70.2-24.1 67.7-26.6 67.7-29.6C67.7-32.6 70.2-35.1 73.2-35.1C76.2-35.1 78.7-32.6 78.7-29.6C78.7-26.5 76.3-24.1 73.2-24.1Z"/>
  </g>
  <g id="Bold-M" transform="matrix(1 0 0 1 2270.67 1126)">
   <path class="monochrome-0 multicolor-0:tintColor hierarchical-0:primary SFSymbolsPreviewWireframe" d="M95.4-25C97.3-27.4 98.5-30.4 98.5-33.6C98.5-41.2 92.3-47.3 84.8-47.3L83.3-47.3C83.3-49.9 82.6-52.2 81.1-54.3C78.1-58.5 72.9-60.6 69.8-61.5C71.9-66.7 71.5-73.5 71.5-73.8C71.5-74.5 71-75.2 70.3-75.4C69.6-75.6 68.8-75.4 68.3-74.9C68.2-74.8 59.9-65.5 48.6-60.5C40.5-56.9 38.7-51.1 38.6-47.1C31.7-46.4 26.3-40.5 26.3-33.4C26.3-30.2 27.4-27.2 29.3-24.8L29-24.8C21-25 14.4-18.4 14.4-10.4L14.4-5.2C14.4 2.9 21 9.5 29.1 9.5L94.5 9.5C102.6 9.5 109.2 2.9 109.2-5.2L109.2-10.4C109.1-18.1 103-24.5 95.4-25ZM44.8-27.6C44.8-30.6 47.3-33.1 50.3-33.1C53.3-33.1 55.8-30.6 55.8-27.6C55.8-24.6 53.3-22.1 50.3-22.1C47.2-22.1 44.8-24.5 44.8-27.6ZM61.8-7C61.7-7 61.7-7 61.8-7C61.7-7 61.7-7 61.8-7C61.7-7 61.7-7 61.8-7C61.7-7 61.7-7 61.8-7L61.8-7C61.7-7 61.7-7 61.8-7L61.6-7C61.6-7 61.6-7 61.5-7C56.8-7.1 53.1-10.4 53.1-14.3C53.1-14.4 53.1-14.9 53.5-15.2C53.8-15.5 54.3-15.7 54.9-15.6C54.9-15.6 68.8-15.6 68.8-15.6C69-15.6 69.6-15.5 69.9-15.2C70.2-15 70.3-14.6 70.3-14.3C70.2-10.4 66.4-7.1 61.8-7ZM73.2-22.1C70.2-22.1 67.7-24.6 67.7-27.6C67.7-30.6 70.2-33.1 73.2-33.1C76.2-33.1 78.7-30.6 78.7-27.6C78.7-24.5 76.3-22.1 73.2-22.1Z"/>
  </g>
  <g id="Semibold-M" transform="matrix(1 0 0 1 1974.47 1126)">
   <path class="monochrome-0 multicolor-0:tintColor hierarchical-0:primary SFSymbolsPreviewWireframe" d="M95.4-24C97.3-26.4 98.5-29.4 98.5-32.6C98.5-40.2 92.3-46.3 84.8-46.3L83.3-46.3C83.3-48.9 82.6-51.2 81.1-53.3C78.1-57.5 72.9-59.6 69.8-60.5C71.9-65.7 71.5-72.5 71.5-72.8C71.5-73.5 71-74.2 70.3-74.4C69.6-74.6 68.8-74.4 68.3-73.9C68.2-73.8 59.9-64.5 48.6-59.5C40.5-55.9 38.7-50.1 38.6-46.1C31.7-45.4 26.3-39.5 26.3-32.4C26.3-29.2 27.4-26.2 29.3-23.8L29-23.8C21-24 14.4-17.4 14.4-9.4L14.4-4.2C14.4 3.9 21 10.5 29.1 10.5L94.5 10.5C102.6 10.5 109.2 3.9 109.2-4.2L109.2-9.4C109.1-17.1 103-23.5 95.4-24ZM44.8-26.6C44.8-29.6 47.3-32.1 50.3-32.1C53.3-32.1 55.8-29.6 55.8-26.6C55.8-23.6 53.3-21.1 50.3-21.1C47.2-21.1 44.8-23.5 44.8-26.6ZM61.8-6C61.7-6 61.7-6 61.8-6C61.7-6 61.7-6 61.8-6C61.7-6 61.7-6 61.8-6C61.7-6 61.7-6 61.8-6L61.8-6C61.7-6 61.7-6 61.8-6L61.6-6C61.6-6 61.6-6 61.5-6C56.8-6.1 53.1-9.4 53.1-13.3C53.1-13.4 53.1-13.9 53.5-14.2C53.8-14.5 54.3-14.7 54.9-14.6C54.9-14.6 68.8-14.6 68.8-14.6C69-14.6 69.6-14.5 69.9-14.2C70.2-14 70.3-13.6 70.3-13.3C70.2-9.4 66.4-6.1 61.8-6ZM73.2-21.1C70.2-21.1 67.7-23.6 67.7-26.6C67.7-29.6 70.2-32.1 73.2-32.1C76.2-32.1 78.7-29.6 78.7-26.6C78.7-23.5 76.3-21.1 73.2-21.1Z"/>
  </g>
  <g id="Medium-M" transform="matrix(1 0 0 1 1678.15 1126)">
   <path class="monochrome-0 multicolor-0:tintColor hierarchical-0:primary SFSymbolsPreviewWireframe" d="M95.4-24C97.3-26.4 98.5-29.4 98.5-32.6C98.5-40.2 92.3-46.3 84.8-46.3L83.3-46.3C83.3-48.9 82.6-51.2 81.1-53.3C78.1-57.5 72.9-59.6 69.8-60.5C71.9-65.7 71.5-72.5 71.5-72.8C71.5-73.5 71-74.2 70.3-74.4C69.6-74.6 68.8-74.4 68.3-73.9C68.2-73.8 59.9-64.5 48.6-59.5C40.5-55.9 38.7-50.1 38.6-46.1C31.7-45.4 26.3-39.5 26.3-32.4C26.3-29.2 27.4-26.2 29.3-23.8L29-23.8C21-24 14.4-17.4 14.4-9.4L14.4-4.2C14.4 3.9 21 10.5 29.1 10.5L94.5 10.5C102.6 10.5 109.2 3.9 109.2-4.2L109.2-9.4C109.1-17.1 103-23.5 95.4-24ZM44.8-26.6C44.8-29.6 47.3-32.1 50.3-32.1C53.3-32.1 55.8-29.6 55.8-26.6C55.8-23.6 53.3-21.1 50.3-21.1C47.2-21.1 44.8-23.5 44.8-26.6ZM61.8-6C61.7-6 61.7-6 61.8-6C61.7-6 61.7-6 61.8-6C61.7-6 61.7-6 61.8-6C61.7-6 61.7-6 61.8-6L61.8-6C61.7-6 61.7-6 61.8-6L61.6-6C61.6-6 61.6-6 61.5-6C56.8-6.1 53.1-9.4 53.1-13.3C53.1-13.4 53.1-13.9 53.5-14.2C53.8-14.5 54.3-14.7 54.9-14.6C54.9-14.6 68.8-14.6 68.8-14.6C69-14.6 69.6-14.5 69.9-14.2C70.2-14 70.3-13.6 70.3-13.3C70.2-9.4 66.4-6.1 61.8-6ZM73.2-21.1C70.2-21.1 67.7-23.6 67.7-26.6C67.7-29.6 70.2-32.1 73.2-32.1C76.2-32.1 78.7-29.6 78.7-26.6C78.7-23.5 76.3-21.1 73.2-21.1Z"/>
  </g>
  <g id="Regular-M" transform="matrix(1 0 0 1 1381.95 1126)">
   <path class="monochrome-0 multicolor-0:tintColor hierarchical-0:primary SFSymbolsPreviewWireframe" d="M95.4-23C97.3-25.4 98.5-28.4 98.5-31.6C98.5-39.2 92.3-45.3 84.8-45.3L83.3-45.3C83.3-47.9 82.6-50.2 81.1-52.3C78.1-56.5 72.9-58.6 69.8-59.5C71.9-64.7 71.5-71.5 71.5-71.8C71.5-72.5 71-73.2 70.3-73.4C69.6-73.6 68.8-73.4 68.3-72.9C68.2-72.8 59.9-63.5 48.6-58.5C40.5-54.9 38.7-49.1 38.6-45.1C31.7-44.4 26.3-38.5 26.3-31.4C26.3-28.2 27.4-25.2 29.3-22.8L29-22.8C21-23 14.4-16.4 14.4-8.4L14.4-3.2C14.4 4.9 21 11.5 29.1 11.5L94.5 11.5C102.6 11.5 109.2 4.9 109.2-3.2L109.2-8.4C109.1-16.1 103-22.5 95.4-23ZM44.8-25.6C44.8-28.6 47.3-31.1 50.3-31.1C53.3-31.1 55.8-28.6 55.8-25.6C55.8-22.6 53.3-20.1 50.3-20.1C47.2-20.1 44.8-22.5 44.8-25.6ZM61.8-5C61.7-5 61.7-5 61.8-5C61.7-5 61.7-5 61.8-5C61.7-5 61.7-5 61.8-5C61.7-5 61.7-5 61.8-5L61.8-5C61.7-5 61.7-5 61.8-5L61.6-5C61.6-5 61.6-5 61.5-5C56.8-5.1 53.1-8.4 53.1-12.3C53.1-12.4 53.1-12.9 53.5-13.2C53.8-13.5 54.3-13.7 54.9-13.6C54.9-13.6 68.8-13.6 68.8-13.6C69-13.6 69.6-13.5 69.9-13.2C70.2-13 70.3-12.6 70.3-12.3C70.2-8.4 66.4-5.1 61.8-5ZM73.2-20.1C70.2-20.1 67.7-22.6 67.7-25.6C67.7-28.6 70.2-31.1 73.2-31.1C76.2-31.1 78.7-28.6 78.7-25.6C78.7-22.5 76.3-20.1 73.2-20.1Z"/>
  </g>
  <g id="Light-M" transform="matrix(1 0 0 1 1085.97 1126)">
   <path class="monochrome-0 multicolor-0:tintColor hierarchical-0:primary SFSymbolsPreviewWireframe" d="M95.4-22C97.3-24.4 98.5-27.4 98.5-30.6C98.5-38.2 92.3-44.3 84.8-44.3L83.3-44.3C83.3-46.9 82.6-49.2 81.1-51.3C78.1-55.5 72.9-57.6 69.8-58.5C71.9-63.7 71.5-70.5 71.5-70.8C71.5-71.5 71-72.2 70.3-72.4C69.6-72.6 68.8-72.4 68.3-71.9C68.2-71.8 59.9-62.5 48.6-57.5C40.5-53.9 38.7-48.1 38.6-44.1C31.7-43.4 26.3-37.5 26.3-30.4C26.3-27.2 27.4-24.2 29.3-21.8L29-21.8C21-22 14.4-15.4 14.4-7.4L14.4-2.2C14.4 5.9 21 12.5 29.1 12.5L94.5 12.5C102.6 12.5 109.2 5.9 109.2-2.2L109.2-7.4C109.1-15.1 103-21.5 95.4-22ZM44.8-24.6C44.8-27.6 47.3-30.1 50.3-30.1C53.3-30.1 55.8-27.6 55.8-24.6C55.8-21.6 53.3-19.1 50.3-19.1C47.2-19.1 44.8-21.5 44.8-24.6ZM61.8-4C61.7-4 61.7-4 61.8-4C61.7-4 61.7-4 61.8-4C61.7-4 61.7-4 61.8-4C61.7-4 61.7-4 61.8-4L61.8-4C61.7-4 61.7-4 61.8-4L61.6-4C61.6-4 61.6-4 61.5-4C56.8-4.1 53.1-7.4 53.1-11.3C53.1-11.4 53.1-11.9 53.5-12.2C53.8-12.5 54.3-12.7 54.9-12.6C54.9-12.6 68.8-12.6 68.8-12.6C69-12.6 69.6-12.5 69.9-12.2C70.2-12 70.3-11.6 70.3-11.3C70.2-7.4 66.4-4.1 61.8-4ZM73.2-19.1C70.2-19.1 67.7-21.6 67.7-24.6C67.7-27.6 70.2-30.1 73.2-30.1C76.2-30.1 78.7-27.6 78.7-24.6C78.7-21.5 76.3-19.1 73.2-19.1Z"/>
  </g>
  <g id="Thin-M" transform="matrix(1 0 0 1 790.236 1126)">
   <path class="monochrome-0 multicolor-0:tintColor hierarchical-0:primary SFSymbolsPreviewWireframe" d="M95.4-21C97.3-23.4 98.5-26.4 98.5-29.6C98.5-37.2 92.3-43.3 84.8-43.3L83.3-43.3C83.3-45.9 82.6-48.2 81.1-50.3C78.1-54.5 72.9-56.6 69.8-57.5C71.9-62.7 71.5-69.5 71.5-69.8C71.5-70.5 71-71.2 70.3-71.4C69.6-71.6 68.8-71.4 68.3-70.9C68.2-70.8 59.9-61.5 48.6-56.5C40.5-52.9 38.7-47.1 38.6-43.1C31.7-42.4 26.3-36.5 26.3-29.4C26.3-26.2 27.4-23.2 29.3-20.8L29-20.8C21-21 14.4-14.4 14.4-6.4L14.4-1.2C14.4 6.9 21 13.5 29.1 13.5L94.5 13.5C102.6 13.5 109.2 6.9 109.2-1.2L109.2-6.4C109.1-14.1 103-20.5 95.4-21ZM44.8-23.6C44.8-26.6 47.3-29.1 50.3-29.1C53.3-29.1 55.8-26.6 55.8-23.6C55.8-20.6 53.3-18.1 50.3-18.1C47.2-18.1 44.8-20.5 44.8-23.6ZM61.8-3C61.7-3 61.7-3 61.8-3C61.7-3 61.7-3 61.8-3C61.7-3 61.7-3 61.8-3C61.7-3 61.7-3 61.8-3L61.8-3C61.7-3 61.7-3 61.8-3L61.6-3C61.6-3 61.6-3 61.5-3C56.8-3.1 53.1-6.4 53.1-10.3C53.1-10.4 53.1-10.9 53.5-11.2C53.8-11.5 54.3-11.7 54.9-11.6C54.9-11.6 68.8-11.6 68.8-11.6C69-11.6 69.6-11.5 69.9-11.2C70.2-11 70.3-10.6 70.3-10.3C70.2-6.4 66.4-3.1 61.8-3ZM73.2-18.1C70.2-18.1 67.7-20.6 67.7-23.6C67.7-26.6 70.2-29.1 73.2-29.1C76.2-29.1 78.7-26.6 78.7-23.6C78.7-20.5 76.3-18.1 73.2-18.1Z"/>
  </g>
  <g id="Ultralight-M" transform="matrix(1 0 0 1 494.013 1126)">
   <path class="monochrome-0 multicolor-0:tintColor hierarchical-0:primary SFSymbolsPreviewWireframe" d="M95.4-20C97.3-22.4 98.5-25.4 98.5-28.6C98.5-36.2 92.3-42.3 84.8-42.3L83.3-42.3C83.3-44.9 82.6-47.2 81.1-49.3C78.1-53.5 72.9-55.6 69.8-56.5C71.9-61.7 71.5-68.5 71.5-68.8C71.5-69.5 71-70.2 70.3-70.4C69.6-70.6 68.8-70.4 68.3-69.9C68.2-69.8 59.9-60.5 48.6-55.5C40.5-51.9 38.7-46.1 38.6-42.1C31.7-41.4 26.3-35.5 26.3-28.4C26.3-25.2 27.4-22.2 29.3-19.8L29-19.8C21-20 14.4-13.4 14.4-5.4L14.4-0.2C14.4 7.9 21 14.5 29.1 14.5L94.5 14.5C102.6 14.5 109.2 7.9 109.2-0.2L109.2-5.4C109.1-13.1 103-19.5 95.4-20ZM44.8-22.6C44.8-25.6 47.3-28.1 50.3-28.1C53.3-28.1 55.8-25.6 55.8-22.6C55.8-19.6 53.3-17.1 50.3-17.1C47.2-17.1 44.8-19.5 44.8-22.6ZM61.8-2C61.7-2 61.7-2 61.8-2C61.7-2 61.7-2 61.8-2C61.7-2 61.7-2 61.8-2C61.7-2 61.7-2 61.8-2L61.8-2C61.7-2 61.7-2 61.8-2L61.6-2C61.6-2 61.6-2 61.5-2C56.8-2.1 53.1-5.4 53.1-9.3C53.1-9.4 53.1-9.9 53.5-10.2C53.8-10.5 54.3-10.7 54.9-10.6C54.9-10.6 68.8-10.6 68.8-10.6C69-10.6 69.6-10.5 69.9-10.2C70.2-10 70.3-9.6 70.3-9.3C70.2-5.4 66.4-2.1 61.8-2ZM73.2-17.1C70.2-17.1 67.7-19.6 67.7-22.6C67.7-25.6 70.2-28.1 73.2-28.1C76.2-28.1 78.7-25.6 78.7-22.6C78.7-19.5 76.3-17.1 73.2-17.1Z"/>
  </g>
  <g id="Black-S" transform="matrix(1 0 0 1 2877.83 696)">
   <path class="monochrome-0 multicolor-0:tintColor hierarchical-0:primary SFSymbolsPreviewWireframe" d="M92.4-17C94.3-19.4 95.5-22.4 95.5-25.6C95.5-33.2 89.3-39.3 81.8-39.3L80.3-39.3C80.3-41.9 79.6-44.2 78.1-46.3C75.1-50.5 69.9-52.6 66.8-53.5C68.9-58.7 68.5-65.5 68.5-65.8C68.5-66.5 68-67.2 67.3-67.4C66.6-67.6 65.8-67.4 65.3-66.9C65.2-66.8 56.9-57.5 45.6-52.5C37.5-48.9 35.7-43.1 35.6-39.1C28.7-38.4 23.3-32.5 23.3-25.4C23.3-22.2 24.4-19.2 26.3-16.8L26-16.8C18-17 11.4-10.4 11.4-2.4L11.4 2.8C11.4 10.9 18 17.5 26.1 17.5L91.5 17.5C99.6 17.5 106.2 10.9 106.2 2.8L106.2-2.4C106.1-10.1 100-16.5 92.4-17ZM41.8-19.6C41.8-22.6 44.3-25.1 47.3-25.1C50.3-25.1 52.8-22.6 52.8-19.6C52.8-16.6 50.3-14.1 47.3-14.1C44.2-14.1 41.8-16.5 41.8-19.6ZM58.8 1C58.7 1 58.7 1 58.8 1C58.7 1 58.7 1 58.8 1C58.7 1 58.7 1 58.8 1C58.7 1 58.7 1 58.8 1L58.8 1C58.7 1 58.7 1 58.8 1L58.6 1C58.6 1 58.6 1 58.5 1C53.8 0.9 50.1-2.4 50.1-6.3C50.1-6.4 50.1-6.9 50.5-7.2C50.8-7.5 51.3-7.7 51.9-7.6C51.9-7.6 65.8-7.6 65.8-7.6C66-7.6 66.6-7.5 66.9-7.2C67.2-7 67.3-6.6 67.3-6.3C67.2-2.4 63.4 0.9 58.8 1ZM70.2-14.1C67.2-14.1 64.7-16.6 64.7-19.6C64.7-22.6 67.2-25.1 70.2-25.1C73.2-25.1 75.7-22.6 75.7-19.6C75.7-16.5 73.3-14.1 70.2-14.1Z"/>
  </g>
  <g id="Heavy-S" transform="matrix(1 0 0 1 2581.61 696)">
   <path class="monochrome-0 multicolor-0:tintColor hierarchical-0:primary SFSymbolsPreviewWireframe" d="M92.4-17C94.3-19.4 95.5-22.4 95.5-25.6C95.5-33.2 89.3-39.3 81.8-39.3L80.3-39.3C80.3-41.9 79.6-44.2 78.1-46.3C75.1-50.5 69.9-52.6 66.8-53.5C68.9-58.7 68.5-65.5 68.5-65.8C68.5-66.5 68-67.2 67.3-67.4C66.6-67.6 65.8-67.4 65.3-66.9C65.2-66.8 56.9-57.5 45.6-52.5C37.5-48.9 35.7-43.1 35.6-39.1C28.7-38.4 23.3-32.5 23.3-25.4C23.3-22.2 24.4-19.2 26.3-16.8L26-16.8C18-17 11.4-10.4 11.4-2.4L11.4 2.8C11.4 10.9 18 17.5 26.1 17.5L91.5 17.5C99.6 17.5 106.2 10.9 106.2 2.8L106.2-2.4C106.1-10.1 100-16.5 92.4-17ZM41.8-19.6C41.8-22.6 44.3-25.1 47.3-25.1C50.3-25.1 52.8-22.6 52.8-19.6C52.8-16.6 50.3-14.1 47.3-14.1C44.2-14.1 41.8-16.5 41.8-19.6ZM58.8 1C58.7 1 58.7 1 58.8 1C58.7 1 58.7 1 58.8 1C58.7 1 58.7 1 58.8 1C58.7 1 58.7 1 58.8 1L58.8 1C58.7 1 58.7 1 58.8 1L58.6 1C58.6 1 58.6 1 58.5 1C53.8 0.9 50.1-2.4 50.1-6.3C50.1-6.4 50.1-6.9 50.5-7.2C50.8-7.5 51.3-7.7 51.9-7.6C51.9-7.6 65.8-7.6 65.8-7.6C66-7.6 66.6-7.5 66.9-7.2C67.2-7 67.3-6.6 67.3-6.3C67.2-2.4 63.4 0.9 58.8 1ZM70.2-14.1C67.2-14.1 64.7-16.6 64.7-19.6C64.7-22.6 67.2-25.1 70.2-25.1C73.2-25.1 75.7-22.6 75.7-19.6C75.7-16.5 73.3-14.1 70.2-14.1Z"/>
  </g>
  <g id="Bold-S" transform="matrix(1 0 0 1 2285.41 696)">
   <path class="monochrome-0 multicolor-0:tintColor hierarchical-0:primary SFSymbolsPreviewWireframe" d="M92.4-15C94.3-17.4 95.5-20.4 95.5-23.6C95.5-31.2 89.3-37.3 81.8-37.3L80.3-37.3C80.3-39.9 79.6-42.2 78.1-44.3C75.1-48.5 69.9-50.6 66.8-51.5C68.9-56.7 68.5-63.5 68.5-63.8C68.5-64.5 68-65.2 67.3-65.4C66.6-65.6 65.8-65.4 65.3-64.9C65.2-64.8 56.9-55.5 45.6-50.5C37.5-46.9 35.7-41.1 35.6-37.1C28.7-36.4 23.3-30.5 23.3-23.4C23.3-20.2 24.4-17.2 26.3-14.8L26-14.8C18-15 11.4-8.4 11.4-0.4L11.4 4.8C11.4 12.9 18 19.5 26.1 19.5L91.5 19.5C99.6 19.5 106.2 12.9 106.2 4.8L106.2-0.4C106.1-8.1 100-14.5 92.4-15ZM41.8-17.6C41.8-20.6 44.3-23.1 47.3-23.1C50.3-23.1 52.8-20.6 52.8-17.6C52.8-14.6 50.3-12.1 47.3-12.1C44.2-12.1 41.8-14.5 41.8-17.6ZM58.8 3C58.7 3 58.7 3 58.8 3C58.7 3 58.7 3 58.8 3C58.7 3 58.7 3 58.8 3C58.7 3 58.7 3 58.8 3L58.8 3C58.7 3 58.7 3 58.8 3L58.6 3C58.6 3 58.6 3 58.5 3C53.8 2.9 50.1-0.4 50.1-4.3C50.1-4.4 50.1-4.9 50.5-5.2C50.8-5.5 51.3-5.7 51.9-5.6C51.9-5.6 65.8-5.6 65.8-5.6C66-5.6 66.6-5.5 66.9-5.2C67.2-5 67.3-4.6 67.3-4.3C67.2-0.4 63.4 2.9 58.8 3ZM70.2-12.1C67.2-12.1 64.7-14.6 64.7-17.6C64.7-20.6 67.2-23.1 70.2-23.1C73.2-23.1 75.7-20.6 75.7-17.6C75.7-14.5 73.3-12.1 70.2-12.1Z"/>
  </g>
  <g id="Semibold-S" transform="matrix(1 0 0 1 1989.09 696)">
   <path class="monochrome-0 multicolor-0:tintColor hierarchical-0:primary SFSymbolsPreviewWireframe" d="M92.4-15C94.3-17.4 95.5-20.4 95.5-23.6C95.5-31.2 89.3-37.3 81.8-37.3L80.3-37.3C80.3-39.9 79.6-42.2 78.1-44.3C75.1-48.5 69.9-50.6 66.8-51.5C68.9-56.7 68.5-63.5 68.5-63.8C68.5-64.5 68-65.2 67.3-65.4C66.6-65.6 65.8-65.4 65.3-64.9C65.2-64.8 56.9-55.5 45.6-50.5C37.5-46.9 35.7-41.1 35.6-37.1C28.7-36.4 23.3-30.5 23.3-23.4C23.3-20.2 24.4-17.2 26.3-14.8L26-14.8C18-15 11.4-8.4 11.4-0.4L11.4 4.8C11.4 12.9 18 19.5 26.1 19.5L91.5 19.5C99.6 19.5 106.2 12.9 106.2 4.8L106.2-0.4C106.1-8.1 100-14.5 92.4-15ZM41.8-17.6C41.8-20.6 44.3-23.1 47.3-23.1C50.3-23.1 52.8-20.6 52.8-17.6C52.8-14.6 50.3-12.1 47.3-12.1C44.2-12.1 41.8-14.5 41.8-17.6ZM58.8 3C58.7 3 58.7 3 58.8 3C58.7 3 58.7 3 58.8 3C58.7 3 58.7 3 58.8 3C58.7 3 58.7 3 58.8 3L58.8 3C58.7 3 58.7 3 58.8 3L58.6 3C58.6 3 58.6 3 58.5 3C53.8 2.9 50.1-0.4 50.1-4.3C50.1-4.4 50.1-4.9 50.5-5.2C50.8-5.5 51.3-5.7 51.9-5.6C51.9-5.6 65.8-5.6 65.8-5.6C66-5.6 66.6-5.5 66.9-5.2C67.2-5 67.3-4.6 67.3-4.3C67.2-0.4 63.4 2.9 58.8 3ZM70.2-12.1C67.2-12.1 64.7-14.6 64.7-17.6C64.7-20.6 67.2-23.1 70.2-23.1C73.2-23.1 75.7-20.6 75.7-17.6C75.7-14.5 73.3-12.1 70.2-12.1Z"/>
  </g>
  <g id="Medium-S" transform="matrix(1 0 0 1 1692.65 696)">
   <path class="monochrome-0 multicolor-0:tintColor hierarchical-0:primary SFSymbolsPreviewWireframe" d="M92.4-14C94.3-16.4 95.5-19.4 95.5-22.6C95.5-30.2 89.3-36.3 81.8-36.3L80.3-36.3C80.3-38.9 79.6-41.2 78.1-43.3C75.1-47.5 69.9-49.6 66.8-50.5C68.9-55.7 68.5-62.5 68.5-62.8C68.5-63.5 68-64.2 67.3-64.4C66.6-64.6 65.8-64.4 65.3-63.9C65.2-63.8 56.9-54.5 45.6-49.5C37.5-45.9 35.7-40.1 35.6-36.1C28.7-35.4 23.3-29.5 23.3-22.4C23.3-19.2 24.4-16.2 26.3-13.8L26-13.8C18-14 11.4-7.4 11.4 0.6L11.4 5.8C11.4 13.9 18 20.5 26.1 20.5L91.5 20.5C99.6 20.5 106.2 13.9 106.2 5.8L106.2 0.6C106.1-7.1 100-13.5 92.4-14ZM41.8-16.6C41.8-19.6 44.3-22.1 47.3-22.1C50.3-22.1 52.8-19.6 52.8-16.6C52.8-13.6 50.3-11.1 47.3-11.1C44.2-11.1 41.8-13.5 41.8-16.6ZM58.8 4C58.7 4 58.7 4 58.8 4C58.7 4 58.7 4 58.8 4C58.7 4 58.7 4 58.8 4C58.7 4 58.7 4 58.8 4L58.8 4C58.7 4 58.7 4 58.8 4L58.6 4C58.6 4 58.6 4 58.5 4C53.8 3.9 50.1 0.6 50.1-3.3C50.1-3.4 50.1-3.9 50.5-4.2C50.8-4.5 51.3-4.7 51.9-4.6C51.9-4.6 65.8-4.6 65.8-4.6C66-4.6 66.6-4.5 66.9-4.2C67.2-4 67.3-3.6 67.3-3.3C67.2 0.6 63.4 3.9 58.8 4ZM70.2-11.1C67.2-11.1 64.7-13.6 64.7-16.6C64.7-19.6 67.2-22.1 70.2-22.1C73.2-22.1 75.7-19.6 75.7-16.6C75.7-13.5 73.3-11.1 70.2-11.1Z"/>
  </g>
  <g id="Regular-S" transform="matrix(1 0 0 1 1396.3 696)">
   <path class="monochrome-0 multicolor-0:tintColor hierarchical-0:primary SFSymbolsPreviewWireframe" d="M92.4-13C94.3-15.4 95.5-18.4 95.5-21.6C95.5-29.2 89.3-35.3 81.8-35.3L80.3-35.3C80.3-37.9 79.6-40.2 78.1-42.3C75.1-46.5 69.9-48.6 66.8-49.5C68.9-54.7 68.5-61.5 68.5-61.8C68.5-62.5 68-63.2 67.3-63.4C66.6-63.6 65.8-63.4 65.3-62.9C65.2-62.8 56.9-53.5 45.6-48.5C37.5-44.9 35.7-39.1 35.6-35.1C28.7-34.4 23.3-28.5 23.3-21.4C23.3-18.2 24.4-15.2 26.3-12.8L26-12.8C18-13 11.4-6.4 11.4 1.6L11.4 6.8C11.4 14.9 18 21.5 26.1 21.5L91.5 21.5C99.6 21.5 106.2 14.9 106.2 6.8L106.2 1.6C106.1-6.1 100-12.5 92.4-13ZM41.8-15.6C41.8-18.6 44.3-21.1 47.3-21.1C50.3-21.1 52.8-18.6 52.8-15.6C52.8-12.6 50.3-10.1 47.3-10.1C44.2-10.1 41.8-12.5 41.8-15.6ZM58.8 5C58.7 5 58.7 5 58.8 5C58.7 5 58.7 5 58.8 5C58.7 5 58.7 5 58.8 5C58.7 5 58.7 5 58.8 5L58.8 5C58.7 5 58.7 5 58.8 5L58.6 5C58.6 5 58.6 5 58.5 5C53.8 4.9 50.1 1.6 50.1-2.3C50.1-2.4 50.1-2.9 50.5-3.2C50.8-3.5 51.3-3.7 51.9-3.6C51.9-3.6 65.8-3.6 65.8-3.6C66-3.6 66.6-3.5 66.9-3.2C67.2-3 67.3-2.6 67.3-2.3C67.2 1.6 63.4 4.9 58.8 5ZM70.2-10.1C67.2-10.1 64.7-12.6 64.7-15.6C64.7-18.6 67.2-21.1 70.2-21.1C73.2-21.1 75.7-18.6 75.7-15.6C75.7-12.5 73.3-10.1 70.2-10.1Z"/>
  </g>
  <g id="Light-S" transform="matrix(1 0 0 1 1100.23 696)">
   <path class="monochrome-0 multicolor-0:tintColor hierarchical-0:primary SFSymbolsPreviewWireframe" d="M92.4-13C94.3-15.4 95.5-18.4 95.5-21.6C95.5-29.2 89.3-35.3 81.8-35.3L80.3-35.3C80.3-37.9 79.6-40.2 78.1-42.3C75.1-46.5 69.9-48.6 66.8-49.5C68.9-54.7 68.5-61.5 68.5-61.8C68.5-62.5 68-63.2 67.3-63.4C66.6-63.6 65.8-63.4 65.3-62.9C65.2-62.8 56.9-53.5 45.6-48.5C37.5-44.9 35.7-39.1 35.6-35.1C28.7-34.4 23.3-28.5 23.3-21.4C23.3-18.2 24.4-15.2 26.3-12.8L26-12.8C18-13 11.4-6.4 11.4 1.6L11.4 6.8C11.4 14.9 18 21.5 26.1 21.5L91.5 21.5C99.6 21.5 106.2 14.9 106.2 6.8L106.2 1.6C106.1-6.1 100-12.5 92.4-13ZM41.8-15.6C41.8-18.6 44.3-21.1 47.3-21.1C50.3-21.1 52.8-18.6 52.8-15.6C52.8-12.6 50.3-10.1 47.3-10.1C44.2-10.1 41.8-12.5 41.8-15.6ZM58.8 5C58.7 5 58.7 5 58.8 5C58.7 5 58.7 5 58.8 5C58.7 5 58.7 5 58.8 5C58.7 5 58.7 5 58.8 5L58.8 5C58.7 5 58.7 5 58.8 5L58.6 5C58.6 5 58.6 5 58.5 5C53.8 4.9 50.1 1.6 50.1-2.3C50.1-2.4 50.1-2.9 50.5-3.2C50.8-3.5 51.3-3.7 51.9-3.6C51.9-3.6 65.8-3.6 65.8-3.6C66-3.6 66.6-3.5 66.9-3.2C67.2-3 67.3-2.6 67.3-2.3C67.2 1.6 63.4 4.9 58.8 5ZM70.2-10.1C67.2-10.1 64.7-12.6 64.7-15.6C64.7-18.6 67.2-21.1 70.2-21.1C73.2-21.1 75.7-18.6 75.7-15.6C75.7-12.5 73.3-10.1 70.2-10.1Z"/>
  </g>
  <g id="Thin-S" transform="matrix(1 0 0 1 804.371 696)">
   <path class="monochrome-0 multicolor-0:tintColor hierarchical-0:primary SFSymbolsPreviewWireframe" d="M92.4-12C94.3-14.4 95.5-17.4 95.5-20.6C95.5-28.2 89.3-34.3 81.8-34.3L80.3-34.3C80.3-36.9 79.6-39.2 78.1-41.3C75.1-45.5 69.9-47.6 66.8-48.5C68.9-53.7 68.5-60.5 68.5-60.8C68.5-61.5 68-62.2 67.3-62.4C66.6-62.6 65.8-62.4 65.3-61.9C65.2-61.8 56.9-52.5 45.6-47.5C37.5-43.9 35.7-38.1 35.6-34.1C28.7-33.4 23.3-27.5 23.3-20.4C23.3-17.2 24.4-14.2 26.3-11.8L26-11.8C18-12 11.4-5.4 11.4 2.6L11.4 7.8C11.4 15.9 18 22.5 26.1 22.5L91.5 22.5C99.6 22.5 106.2 15.9 106.2 7.8L106.2 2.6C106.1-5.1 100-11.5 92.4-12ZM41.8-14.6C41.8-17.6 44.3-20.1 47.3-20.1C50.3-20.1 52.8-17.6 52.8-14.6C52.8-11.6 50.3-9.1 47.3-9.1C44.2-9.1 41.8-11.5 41.8-14.6ZM58.8 6C58.7 6 58.7 6 58.8 6C58.7 6 58.7 6 58.8 6C58.7 6 58.7 6 58.8 6C58.7 6 58.7 6 58.8 6L58.8 6C58.7 6 58.7 6 58.8 6L58.6 6C58.6 6 58.6 6 58.5 6C53.8 5.9 50.1 2.6 50.1-1.3C50.1-1.4 50.1-1.9 50.5-2.2C50.8-2.5 51.3-2.7 51.9-2.6C51.9-2.6 65.8-2.6 65.8-2.6C66-2.6 66.6-2.5 66.9-2.2C67.2-2 67.3-1.6 67.3-1.3C67.2 2.6 63.4 5.9 58.8 6ZM70.2-9.1C67.2-9.1 64.7-11.6 64.7-14.6C64.7-17.6 67.2-20.1 70.2-20.1C73.2-20.1 75.7-17.6 75.7-14.6C75.7-11.5 73.3-9.1 70.2-9.1Z"/>
  </g>
  <g id="Ultralight-S" transform="matrix(1 0 0 1 508.1 696)">
   <path class="monochrome-0 multicolor-0:tintColor hierarchical-0:primary SFSymbolsPreviewWireframe" d="M92.4-11C94.3-13.4 95.5-16.4 95.5-19.6C95.5-27.2 89.3-33.3 81.8-33.3L80.3-33.3C80.3-35.9 79.6-38.2 78.1-40.3C75.1-44.5 69.9-46.6 66.8-47.5C68.9-52.7 68.5-59.5 68.5-59.8C68.5-60.5 68-61.2 67.3-61.4C66.6-61.6 65.8-61.4 65.3-60.9C65.2-60.8 56.9-51.5 45.6-46.5C37.5-42.9 35.7-37.1 35.6-33.1C28.7-32.4 23.3-26.5 23.3-19.4C23.3-16.2 24.4-13.2 26.3-10.8L26-10.8C18-11 11.4-4.4 11.4 3.6L11.4 8.8C11.4 16.9 18 23.5 26.1 23.5L91.5 23.5C99.6 23.5 106.2 16.9 106.2 8.8L106.2 3.6C106.1-4.1 100-10.5 92.4-11ZM41.8-13.6C41.8-16.6 44.3-19.1 47.3-19.1C50.3-19.1 52.8-16.6 52.8-13.6C52.8-10.6 50.3-8.1 47.3-8.1C44.2-8.1 41.8-10.5 41.8-13.6ZM58.8 7C58.7 7 58.7 7 58.8 7C58.7 7 58.7 7 58.8 7C58.7 7 58.7 7 58.8 7C58.7 7 58.7 7 58.8 7L58.8 7C58.7 7 58.7 7 58.8 7L58.6 7C58.6 7 58.6 7 58.5 7C53.8 6.9 50.1 3.6 50.1-0.3C50.1-0.4 50.1-0.9 50.5-1.2C50.8-1.5 51.3-1.7 51.9-1.6C51.9-1.6 65.8-1.6 65.8-1.6C66-1.6 66.6-1.5 66.9-1.2C67.2-1 67.3-0.6 67.3-0.3C67.2 3.6 63.4 6.9 58.8 7ZM70.2-8.1C67.2-8.1 64.7-10.6 64.7-13.6C64.7-16.6 67.2-19.1 70.2-19.1C73.2-19.1 75.7-16.6 75.7-13.6C75.7-10.5 73.3-8.1 70.2-8.1Z"/>
  </g>
 </g>
</svg>
