<?xml version="1.0" encoding="UTF-8"?>
<!--Generator: Apple Native CoreSVG 232.5-->
<!DOCTYPE svg
PUBLIC "-//W3C//DTD SVG 1.1//EN"
       "http://www.w3.org/Graphics/SVG/1.1/DTD/svg11.dtd">
<svg version="1.1" xmlns="http://www.w3.org/2000/svg" xmlns:xlink="http://www.w3.org/1999/xlink" width="3300" height="2200">
 <!--glyph: "", point size: 100.0, font version: "19.0d7e1", template writer version: "128"-->
 <style>.monochrome-0 {-sfsymbols-motion-group:0}

.multicolor-0:tintColor {-sfsymbols-motion-group:0}

.hierarchical-0:primary {-sfsymbols-motion-group:0}

.SFSymbolsPreviewWireframe {fill:none;opacity:1.0;stroke:black;stroke-width:0.5}
</style>
 <g id="Notes">
  <rect height="2200" id="artboard" style="fill:white;opacity:1" width="3300" x="0" y="0"/>
  <line style="fill:none;stroke:black;opacity:1;stroke-width:0.5;" x1="263" x2="3036" y1="292" y2="292"/>
  <text style="stroke:none;fill:black;font-family:sans-serif;font-size:13;font-weight:bold;" transform="matrix(1 0 0 1 263 322)">Weight/Scale Variations</text>
  <text style="stroke:none;fill:black;font-family:sans-serif;font-size:13;text-anchor:middle;" transform="matrix(1 0 0 1 559.711 322)">Ultralight</text>
  <text style="stroke:none;fill:black;font-family:sans-serif;font-size:13;text-anchor:middle;" transform="matrix(1 0 0 1 856.422 322)">Thin</text>
  <text style="stroke:none;fill:black;font-family:sans-serif;font-size:13;text-anchor:middle;" transform="matrix(1 0 0 1 1153.13 322)">Light</text>
  <text style="stroke:none;fill:black;font-family:sans-serif;font-size:13;text-anchor:middle;" transform="matrix(1 0 0 1 1449.84 322)">Regular</text>
  <text style="stroke:none;fill:black;font-family:sans-serif;font-size:13;text-anchor:middle;" transform="matrix(1 0 0 1 1746.56 322)">Medium</text>
  <text style="stroke:none;fill:black;font-family:sans-serif;font-size:13;text-anchor:middle;" transform="matrix(1 0 0 1 2043.27 322)">Semibold</text>
  <text style="stroke:none;fill:black;font-family:sans-serif;font-size:13;text-anchor:middle;" transform="matrix(1 0 0 1 2339.98 322)">Bold</text>
  <text style="stroke:none;fill:black;font-family:sans-serif;font-size:13;text-anchor:middle;" transform="matrix(1 0 0 1 2636.69 322)">Heavy</text>
  <text style="stroke:none;fill:black;font-family:sans-serif;font-size:13;text-anchor:middle;" transform="matrix(1 0 0 1 2933.4 322)">Black</text>
  <line style="fill:none;stroke:black;opacity:1;stroke-width:0.5;" x1="263" x2="3036" y1="1903" y2="1903"/>
  <g transform="matrix(0.2 0 0 0.2 263 1933)">
   <path d="m46.2402 4.15039c21.5332 0 39.4531-17.8711 39.4531-39.4043s-17.9688-39.4043-39.502-39.4043c-21.4844 0-39.3555 17.8711-39.3555 39.4043s17.9199 39.4043 39.4043 39.4043Zm0-7.42188c-17.7246 0-31.8848-14.209-31.8848-31.9824s14.1113-31.9824 31.8359-31.9824c17.7734 0 32.0312 14.209 32.0312 31.9824s-14.209 31.9824-31.9824 31.9824Zm-17.9688-31.9824c0 2.14844 1.51367 3.61328 3.75977 3.61328h10.498v10.5957c0 2.19727 1.46484 3.71094 3.61328 3.71094 2.24609 0 3.71094-1.51367 3.71094-3.71094v-10.5957h10.5957c2.19727 0 3.71094-1.46484 3.71094-3.61328 0-2.19727-1.51367-3.71094-3.71094-3.71094h-10.5957v-10.5469c0-2.24609-1.46484-3.75977-3.71094-3.75977-2.14844 0-3.61328 1.51367-3.61328 3.75977v10.5469h-10.498c-2.24609 0-3.75977 1.51367-3.75977 3.71094Z"/>
  </g>
  <g transform="matrix(0.2 0 0 0.2 281.506 1933)">
   <path d="m58.5449 14.5508c27.2461 0 49.8047-22.6074 49.8047-49.8047 0-27.2461-22.6074-49.8047-49.8535-49.8047-27.1973 0-49.7559 22.5586-49.7559 49.8047 0 27.1973 22.6074 49.8047 49.8047 49.8047Zm0-8.30078c-23.0469 0-41.4551-18.457-41.4551-41.5039s18.3594-41.5039 41.4062-41.5039 41.5527 18.457 41.5527 41.5039-18.457 41.5039-41.5039 41.5039Zm-22.6562-41.5039c0 2.39258 1.66016 4.00391 4.15039 4.00391h14.3555v14.4043c0 2.44141 1.66016 4.15039 4.05273 4.15039 2.44141 0 4.15039-1.66016 4.15039-4.15039v-14.4043h14.4043c2.44141 0 4.15039-1.61133 4.15039-4.00391 0-2.44141-1.70898-4.15039-4.15039-4.15039h-14.4043v-14.3555c0-2.49023-1.70898-4.19922-4.15039-4.19922-2.39258 0-4.05273 1.70898-4.05273 4.19922v14.3555h-14.3555c-2.49023 0-4.15039 1.70898-4.15039 4.15039Z"/>
  </g>
  <g transform="matrix(0.2 0 0 0.2 304.924 1933)">
   <path d="m74.8535 28.3203c34.8145 0 63.623-28.8086 63.623-63.5742 0-34.8145-28.8574-63.623-63.6719-63.623-34.7656 0-63.5254 28.8086-63.5254 63.623 0 34.7656 28.8086 63.5742 63.5742 63.5742Zm0-9.08203c-30.1758 0-54.4434-24.3164-54.4434-54.4922 0-30.2246 24.2188-54.4922 54.3945-54.4922 30.2246 0 54.541 24.2676 54.541 54.4922 0 30.1758-24.2676 54.4922-54.4922 54.4922Zm-28.8574-54.4922c0 2.58789 1.85547 4.39453 4.58984 4.39453h19.7266v19.7754c0 2.68555 1.85547 4.58984 4.44336 4.58984 2.68555 0 4.54102-1.85547 4.54102-4.58984v-19.7754h19.7754c2.68555 0 4.58984-1.80664 4.58984-4.39453 0-2.73438-1.85547-4.58984-4.58984-4.58984h-19.7754v-19.7266c0-2.73438-1.85547-4.63867-4.54102-4.63867-2.58789 0-4.44336 1.9043-4.44336 4.63867v19.7266h-19.7266c-2.73438 0-4.58984 1.85547-4.58984 4.58984Z"/>
  </g>
  <text style="stroke:none;fill:black;font-family:sans-serif;font-size:13;font-weight:bold;" transform="matrix(1 0 0 1 263 1953)">Design Variations</text>
  <text style="stroke:none;fill:black;font-family:sans-serif;font-size:13;" transform="matrix(1 0 0 1 263 1971)">Symbols are supported in up to nine weights and three scales.</text>
  <text style="stroke:none;fill:black;font-family:sans-serif;font-size:13;" transform="matrix(1 0 0 1 263 1989)">For optimal layout with text and other symbols, vertically align</text>
  <text style="stroke:none;fill:black;font-family:sans-serif;font-size:13;" transform="matrix(1 0 0 1 263 2007)">symbols with the adjacent text.</text>
  <line style="fill:none;stroke:#00AEEF;stroke-width:0.5;opacity:1.0;" x1="776" x2="776" y1="1919" y2="1933"/>
  <g transform="matrix(0.2 0 0 0.2 776 1933)">
   <path d="m16.5527 0.78125c2.58789 0 3.85742-0.976562 4.78516-3.71094l6.29883-17.2363h28.8086l6.29883 17.2363c0.927734 2.73438 2.19727 3.71094 4.73633 3.71094 2.58789 0 4.24805-1.5625 4.24805-4.00391 0-0.830078-0.146484-1.61133-0.537109-2.63672l-22.9004-60.9863c-1.12305-2.97852-3.125-4.49219-6.25-4.49219-3.02734 0-5.07812 1.46484-6.15234 4.44336l-22.9004 61.084c-0.390625 1.02539-0.537109 1.80664-0.537109 2.63672 0 2.44141 1.5625 3.95508 4.10156 3.95508Zm13.4766-28.3691 11.8652-32.8613h0.244141l11.8652 32.8613Z"/>
  </g>
  <line style="fill:none;stroke:#00AEEF;stroke-width:0.5;opacity:1.0;" x1="792.836" x2="792.836" y1="1919" y2="1933"/>
  <text style="stroke:none;fill:black;font-family:sans-serif;font-size:13;font-weight:bold;" transform="matrix(1 0 0 1 776 1953)">Margins</text>
  <text style="stroke:none;fill:black;font-family:sans-serif;font-size:13;" transform="matrix(1 0 0 1 776 1971)">Leading and trailing margins on the left and right side of each symbol</text>
  <text style="stroke:none;fill:black;font-family:sans-serif;font-size:13;" transform="matrix(1 0 0 1 776 1989)">can be adjusted by modifying the x-location of the margin guidelines.</text>
  <text style="stroke:none;fill:black;font-family:sans-serif;font-size:13;" transform="matrix(1 0 0 1 776 2007)">Modifications are automatically applied proportionally to all</text>
  <text style="stroke:none;fill:black;font-family:sans-serif;font-size:13;" transform="matrix(1 0 0 1 776 2025)">scales and weights.</text>
  <g transform="matrix(0.2 0 0 0.2 1289 1933)">
   <path d="m14.209 9.32617 8.49609 8.54492c4.29688 4.3457 9.22852 4.05273 13.8672-1.07422l53.4668-58.9355-4.83398-4.88281-53.0762 58.3984c-1.75781 2.00195-3.41797 2.49023-5.76172 0.146484l-5.85938-5.81055c-2.34375-2.29492-1.80664-4.00391 0.195312-5.81055l57.373-54.0039-4.88281-4.83398-57.959 54.4434c-4.93164 4.58984-5.32227 9.47266-1.02539 13.8184Zm32.0801-90.9668c-2.09961 2.05078-2.24609 4.93164-1.07422 6.88477 1.17188 1.80664 3.4668 2.97852 6.68945 2.14844 7.32422-1.70898 14.9414-2.00195 22.0703 2.68555l-2.92969 7.27539c-1.70898 4.15039-0.830078 7.08008 1.85547 9.81445l11.4746 11.5723c2.44141 2.44141 4.49219 2.53906 7.32422 2.05078l5.32227-0.976562 3.32031 3.36914-0.195312 2.7832c-0.195312 2.49023 0.439453 4.39453 2.88086 6.78711l3.80859 3.71094c2.39258 2.39258 5.46875 2.53906 7.8125 0.195312l14.5508-14.5996c2.34375-2.34375 2.24609-5.32227-0.146484-7.71484l-3.85742-3.80859c-2.39258-2.39258-4.24805-3.17383-6.64062-2.97852l-2.88086 0.244141-3.22266-3.17383 1.2207-5.61523c0.634766-2.83203-0.146484-5.0293-3.07617-7.95898l-10.9863-10.9375c-16.6992-16.6016-38.8672-16.2109-53.3203-1.75781Zm7.4707 1.85547c12.1582-8.88672 28.6133-7.37305 39.7461 3.75977l12.1582 12.0605c1.17188 1.17188 1.36719 2.09961 1.02539 3.80859l-1.61133 7.42188 7.51953 7.42188 4.93164-0.292969c1.26953-0.0488281 1.66016 0.0488281 2.63672 1.02539l2.88086 2.88086-12.207 12.207-2.88086-2.88086c-0.976562-0.976562-1.12305-1.36719-1.07422-2.68555l0.341797-4.88281-7.4707-7.42188-7.61719 1.26953c-1.61133 0.341797-2.34375 0.195312-3.56445-0.976562l-10.0098-10.0098c-1.26953-1.17188-1.41602-2.00195-0.634766-3.85742l4.39453-10.4492c-7.8125-7.27539-17.9688-10.4004-28.125-7.42188-0.78125 0.195312-1.07422-0.439453-0.439453-0.976562Z"/>
  </g>
  <text style="stroke:none;fill:black;font-family:sans-serif;font-size:13;font-weight:bold;" transform="matrix(1 0 0 1 1289 1953)">Exporting</text>
  <text style="stroke:none;fill:black;font-family:sans-serif;font-size:13;" transform="matrix(1 0 0 1 1289 1971)">Symbols should be outlined when exporting to ensure the</text>
  <text style="stroke:none;fill:black;font-family:sans-serif;font-size:13;" transform="matrix(1 0 0 1 1289 1989)">design is preserved when submitting to Xcode.</text>
  <text id="template-version" style="stroke:none;fill:black;font-family:sans-serif;font-size:13;text-anchor:end;" transform="matrix(1 0 0 1 3036 1933)">Template v.5.0</text>
  <text style="stroke:none;fill:black;font-family:sans-serif;font-size:13;text-anchor:end;" transform="matrix(1 0 0 1 3036 1951)">Requires Xcode 15 or greater</text>
  <text id="descriptive-name" style="stroke:none;fill:black;font-family:sans-serif;font-size:13;text-anchor:end;" transform="matrix(1 0 0 1 3036 1969)">Generated from female.outline</text>
  <text style="stroke:none;fill:black;font-family:sans-serif;font-size:13;text-anchor:end;" transform="matrix(1 0 0 1 3036 1987)">Typeset at 100.0 points</text>
  <text style="stroke:none;fill:black;font-family:sans-serif;font-size:13;" transform="matrix(1 0 0 1 263 726)">Small</text>
  <text style="stroke:none;fill:black;font-family:sans-serif;font-size:13;" transform="matrix(1 0 0 1 263 1156)">Medium</text>
  <text style="stroke:none;fill:black;font-family:sans-serif;font-size:13;" transform="matrix(1 0 0 1 263 1586)">Large</text>
 </g>
 <g id="Guides">
  <g id="H-reference" style="fill:#27AAE1;stroke:none;" transform="matrix(1 0 0 1 339 696)">
   <path d="M0.993654 0L3.63775 0L29.3281-67.1323L30.0303-67.1323L30.0303-70.459L28.1226-70.459ZM11.6885-24.4799L46.9815-24.4799L46.2315-26.7285L12.4385-26.7285ZM55.1196 0L57.7637 0L30.6382-70.459L29.4326-70.459L29.4326-67.1323Z"/>
  </g>
  <line id="Baseline-S" style="fill:none;stroke:#27AAE1;opacity:1;stroke-width:0.5;" x1="263" x2="3036" y1="696" y2="696"/>
  <line id="Capline-S" style="fill:none;stroke:#27AAE1;opacity:1;stroke-width:0.5;" x1="263" x2="3036" y1="625.541" y2="625.541"/>
  <g id="H-reference" style="fill:#27AAE1;stroke:none;" transform="matrix(1 0 0 1 339 1126)">
   <path d="M0.993654 0L3.63775 0L29.3281-67.1323L30.0303-67.1323L30.0303-70.459L28.1226-70.459ZM11.6885-24.4799L46.9815-24.4799L46.2315-26.7285L12.4385-26.7285ZM55.1196 0L57.7637 0L30.6382-70.459L29.4326-70.459L29.4326-67.1323Z"/>
  </g>
  <line id="Baseline-M" style="fill:none;stroke:#27AAE1;opacity:1;stroke-width:0.5;" x1="263" x2="3036" y1="1126" y2="1126"/>
  <line id="Capline-M" style="fill:none;stroke:#27AAE1;opacity:1;stroke-width:0.5;" x1="263" x2="3036" y1="1055.54" y2="1055.54"/>
  <g id="H-reference" style="fill:#27AAE1;stroke:none;" transform="matrix(1 0 0 1 339 1556)">
   <path d="M0.993654 0L3.63775 0L29.3281-67.1323L30.0303-67.1323L30.0303-70.459L28.1226-70.459ZM11.6885-24.4799L46.9815-24.4799L46.2315-26.7285L12.4385-26.7285ZM55.1196 0L57.7637 0L30.6382-70.459L29.4326-70.459L29.4326-67.1323Z"/>
  </g>
  <line id="Baseline-L" style="fill:none;stroke:#27AAE1;opacity:1;stroke-width:0.5;" x1="263" x2="3036" y1="1556" y2="1556"/>
  <line id="Capline-L" style="fill:none;stroke:#27AAE1;opacity:1;stroke-width:0.5;" x1="263" x2="3036" y1="1485.54" y2="1485.54"/>
  <line id="left-margin-Ultralight-S" style="fill:none;stroke:#00AEEF;stroke-width:0.5;opacity:1.0;" x1="508.1" x2="508.1" y1="600.785" y2="720.121"/>
  <line id="right-margin-Ultralight-S" style="fill:none;stroke:#00AEEF;stroke-width:0.5;opacity:1.0;" x1="611.322" x2="611.322" y1="600.785" y2="720.121"/>
  <line id="left-margin-Thin-S" style="fill:none;stroke:#00AEEF;stroke-width:0.5;opacity:1.0;" x1="804.371" x2="804.371" y1="600.785" y2="720.121"/>
  <line id="right-margin-Thin-S" style="fill:none;stroke:#00AEEF;stroke-width:0.5;opacity:1.0;" x1="908.473" x2="908.473" y1="600.785" y2="720.121"/>
  <line id="left-margin-Light-S" style="fill:none;stroke:#00AEEF;stroke-width:0.5;opacity:1.0;" x1="1100.23" x2="1100.23" y1="600.785" y2="720.121"/>
  <line id="right-margin-Light-S" style="fill:none;stroke:#00AEEF;stroke-width:0.5;opacity:1.0;" x1="1206.04" x2="1206.04" y1="600.785" y2="720.121"/>
  <line id="left-margin-Regular-S" style="fill:none;stroke:#00AEEF;stroke-width:0.5;opacity:1.0;" x1="1396.3" x2="1396.3" y1="600.785" y2="720.121"/>
  <line id="right-margin-Regular-S" style="fill:none;stroke:#00AEEF;stroke-width:0.5;opacity:1.0;" x1="1503.38" x2="1503.38" y1="600.785" y2="720.121"/>
  <line id="left-margin-Medium-S" style="fill:none;stroke:#00AEEF;stroke-width:0.5;opacity:1.0;" x1="1692.65" x2="1692.65" y1="600.785" y2="720.121"/>
  <line id="right-margin-Medium-S" style="fill:none;stroke:#00AEEF;stroke-width:0.5;opacity:1.0;" x1="1800.46" x2="1800.46" y1="600.785" y2="720.121"/>
  <line id="left-margin-Semibold-S" style="fill:none;stroke:#00AEEF;stroke-width:0.5;opacity:1.0;" x1="1989.09" x2="1989.09" y1="600.785" y2="720.121"/>
  <line id="right-margin-Semibold-S" style="fill:none;stroke:#00AEEF;stroke-width:0.5;opacity:1.0;" x1="2097.44" x2="2097.44" y1="600.785" y2="720.121"/>
  <line id="left-margin-Bold-S" style="fill:none;stroke:#00AEEF;stroke-width:0.5;opacity:1.0;" x1="2285.41" x2="2285.41" y1="600.785" y2="720.121"/>
  <line id="right-margin-Bold-S" style="fill:none;stroke:#00AEEF;stroke-width:0.5;opacity:1.0;" x1="2394.54" x2="2394.54" y1="600.785" y2="720.121"/>
  <line id="left-margin-Heavy-S" style="fill:none;stroke:#00AEEF;stroke-width:0.5;opacity:1.0;" x1="2581.61" x2="2581.61" y1="600.785" y2="720.121"/>
  <line id="right-margin-Heavy-S" style="fill:none;stroke:#00AEEF;stroke-width:0.5;opacity:1.0;" x1="2691.77" x2="2691.77" y1="600.785" y2="720.121"/>
  <line id="left-margin-Black-S" style="fill:none;stroke:#00AEEF;stroke-width:0.5;opacity:1.0;" x1="2877.83" x2="2877.83" y1="600.785" y2="720.121"/>
  <line id="right-margin-Black-S" style="fill:none;stroke:#00AEEF;stroke-width:0.5;opacity:1.0;" x1="2988.97" x2="2988.97" y1="600.785" y2="720.121"/>
  <line id="left-margin-Ultralight-M" style="fill:none;stroke:#00AEEF;stroke-width:0.5;opacity:1.0;" x1="494.013" x2="494.013" y1="1030.79" y2="1150.12"/>
  <line id="right-margin-Ultralight-M" style="fill:none;stroke:#00AEEF;stroke-width:0.5;opacity:1.0;" x1="625.409" x2="625.409" y1="1030.79" y2="1150.12"/>
  <line id="left-margin-Thin-M" style="fill:none;stroke:#00AEEF;stroke-width:0.5;opacity:1.0;" x1="790.236" x2="790.236" y1="1030.79" y2="1150.12"/>
  <line id="right-margin-Thin-M" style="fill:none;stroke:#00AEEF;stroke-width:0.5;opacity:1.0;" x1="922.609" x2="922.609" y1="1030.79" y2="1150.12"/>
  <line id="left-margin-Light-M" style="fill:none;stroke:#00AEEF;stroke-width:0.5;opacity:1.0;" x1="1085.97" x2="1085.97" y1="1030.79" y2="1150.12"/>
  <line id="right-margin-Light-M" style="fill:none;stroke:#00AEEF;stroke-width:0.5;opacity:1.0;" x1="1220.3" x2="1220.3" y1="1030.79" y2="1150.12"/>
  <line id="left-margin-Regular-M" style="fill:none;stroke:#00AEEF;stroke-width:0.5;opacity:1.0;" x1="1381.95" x2="1381.95" y1="1030.79" y2="1150.12"/>
  <line id="right-margin-Regular-M" style="fill:none;stroke:#00AEEF;stroke-width:0.5;opacity:1.0;" x1="1517.74" x2="1517.74" y1="1030.79" y2="1150.12"/>
  <line id="left-margin-Medium-M" style="fill:none;stroke:#00AEEF;stroke-width:0.5;opacity:1.0;" x1="1678.15" x2="1678.15" y1="1030.79" y2="1150.12"/>
  <line id="right-margin-Medium-M" style="fill:none;stroke:#00AEEF;stroke-width:0.5;opacity:1.0;" x1="1814.96" x2="1814.96" y1="1030.79" y2="1150.12"/>
  <line id="left-margin-Semibold-M" style="fill:none;stroke:#00AEEF;stroke-width:0.5;opacity:1.0;" x1="1974.47" x2="1974.47" y1="1030.79" y2="1150.12"/>
  <line id="right-margin-Semibold-M" style="fill:none;stroke:#00AEEF;stroke-width:0.5;opacity:1.0;" x1="2112.07" x2="2112.07" y1="1030.79" y2="1150.12"/>
  <line id="left-margin-Bold-M" style="fill:none;stroke:#00AEEF;stroke-width:0.5;opacity:1.0;" x1="2270.67" x2="2270.67" y1="1030.79" y2="1150.12"/>
  <line id="right-margin-Bold-M" style="fill:none;stroke:#00AEEF;stroke-width:0.5;opacity:1.0;" x1="2409.29" x2="2409.29" y1="1030.79" y2="1150.12"/>
  <line id="left-margin-Heavy-M" style="fill:none;stroke:#00AEEF;stroke-width:0.5;opacity:1.0;" x1="2566.64" x2="2566.64" y1="1030.79" y2="1150.12"/>
  <line id="right-margin-Heavy-M" style="fill:none;stroke:#00AEEF;stroke-width:0.5;opacity:1.0;" x1="2706.73" x2="2706.73" y1="1030.79" y2="1150.12"/>
  <line id="left-margin-Black-M" style="fill:none;stroke:#00AEEF;stroke-width:0.5;opacity:1.0;" x1="2862.7" x2="2862.7" y1="1030.79" y2="1150.12"/>
  <line id="right-margin-Black-M" style="fill:none;stroke:#00AEEF;stroke-width:0.5;opacity:1.0;" x1="3004.1" x2="3004.1" y1="1030.79" y2="1150.12"/>
  <line id="left-margin-Ultralight-L" style="fill:none;stroke:#00AEEF;stroke-width:0.5;opacity:1.0;" x1="475.165" x2="475.165" y1="1460.79" y2="1580.12"/>
  <line id="right-margin-Ultralight-L" style="fill:none;stroke:#00AEEF;stroke-width:0.5;opacity:1.0;" x1="644.257" x2="644.257" y1="1460.79" y2="1580.12"/>
  <line id="left-margin-Thin-L" style="fill:none;stroke:#00AEEF;stroke-width:0.5;opacity:1.0;" x1="771.315" x2="771.315" y1="1460.79" y2="1580.12"/>
  <line id="right-margin-Thin-L" style="fill:none;stroke:#00AEEF;stroke-width:0.5;opacity:1.0;" x1="941.53" x2="941.53" y1="1460.79" y2="1580.12"/>
  <line id="left-margin-Light-L" style="fill:none;stroke:#00AEEF;stroke-width:0.5;opacity:1.0;" x1="1066.95" x2="1066.95" y1="1460.79" y2="1580.12"/>
  <line id="right-margin-Light-L" style="fill:none;stroke:#00AEEF;stroke-width:0.5;opacity:1.0;" x1="1239.31" x2="1239.31" y1="1460.79" y2="1580.12"/>
  <line id="left-margin-Regular-L" style="fill:none;stroke:#00AEEF;stroke-width:0.5;opacity:1.0;" x1="1362.86" x2="1362.86" y1="1460.79" y2="1580.12"/>
  <line id="right-margin-Regular-L" style="fill:none;stroke:#00AEEF;stroke-width:0.5;opacity:1.0;" x1="1536.83" x2="1536.83" y1="1460.79" y2="1580.12"/>
  <line id="left-margin-Medium-L" style="fill:none;stroke:#00AEEF;stroke-width:0.5;opacity:1.0;" x1="1658.91" x2="1658.91" y1="1460.79" y2="1580.12"/>
  <line id="right-margin-Medium-L" style="fill:none;stroke:#00AEEF;stroke-width:0.5;opacity:1.0;" x1="1834.2" x2="1834.2" y1="1460.79" y2="1580.12"/>
  <line id="left-margin-Semibold-L" style="fill:none;stroke:#00AEEF;stroke-width:0.5;opacity:1.0;" x1="1955.11" x2="1955.11" y1="1460.79" y2="1580.12"/>
  <line id="right-margin-Semibold-L" style="fill:none;stroke:#00AEEF;stroke-width:0.5;opacity:1.0;" x1="2131.43" x2="2131.43" y1="1460.79" y2="1580.12"/>
  <line id="left-margin-Bold-L" style="fill:none;stroke:#00AEEF;stroke-width:0.5;opacity:1.0;" x1="2251.16" x2="2251.16" y1="1460.79" y2="1580.12"/>
  <line id="right-margin-Bold-L" style="fill:none;stroke:#00AEEF;stroke-width:0.5;opacity:1.0;" x1="2428.8" x2="2428.8" y1="1460.79" y2="1580.12"/>
  <line id="left-margin-Heavy-L" style="fill:none;stroke:#00AEEF;stroke-width:0.5;opacity:1.0;" x1="2546.89" x2="2546.89" y1="1460.79" y2="1580.12"/>
  <line id="right-margin-Heavy-L" style="fill:none;stroke:#00AEEF;stroke-width:0.5;opacity:1.0;" x1="2726.48" x2="2726.48" y1="1460.79" y2="1580.12"/>
  <line id="left-margin-Black-L" style="fill:none;stroke:#00AEEF;stroke-width:0.5;opacity:1.0;" x1="2842.75" x2="2842.75" y1="1460.79" y2="1580.12"/>
  <line id="right-margin-Black-L" style="fill:none;stroke:#00AEEF;stroke-width:0.5;opacity:1.0;" x1="3024.05" x2="3024.05" y1="1460.79" y2="1580.12"/>
 </g>
 <g id="Symbols">
  <g id="Black-L" transform="matrix(1 0 0 1 2842.75 1556)">
   <path class="monochrome-0 multicolor-0:tintColor hierarchical-0:primary SFSymbolsPreviewWireframe" d="M80.6033-42.5697L80.6033-42.5697C88.8623-50.7747 88.9061-64.1215 80.701-72.3805C72.496-80.6395 59.1493-80.6833 50.8902-72.4783C42.6312-64.2732 42.5875-50.9265 50.7925-42.6675C54.1277-39.3102 58.4957-37.173 63.1931-36.5997L63.1931-26.1879L54.4002-26.1432L54.4002-26.1432C52.8947-26.1395 51.6772-24.9161 51.6809-23.4105C51.6845-21.905 52.908-20.6875 54.4135-20.6912L54.4268-20.6912L63.1931-20.7358L63.1931-12.1565L63.1931-12.1565C63.1931-10.651 64.4136-9.4305 65.9191-9.4305C67.4247-9.4305 68.6451-10.651 68.6451-12.1565L68.6451-20.7636L77.4381-20.8083L77.4381-20.8083C78.9436-20.812 80.1611-22.0355 80.1574-23.541C80.1537-25.0465 78.9303-26.264 77.4248-26.2603L77.4114-26.2603L68.6451-26.2158L68.6451-36.6494L68.6451-36.6494C73.1716-37.2613 77.3724-39.341 80.6033-42.5697ZM54.7449-68.4267L54.7449-68.4267C60.8207-74.5028 70.6718-74.5031 76.7479-68.4274C82.824-62.3516 82.8243-52.5005 76.7485-46.4244C70.6728-40.3483 60.8217-40.348 54.7456-46.4238C54.7454-46.424 54.7452-46.4242 54.7449-46.4244L54.7449-46.4244C48.6802-52.5048 48.6802-62.3464 54.7449-68.4267Z"/>
  </g>
  <g id="Heavy-L" transform="matrix(1 0 0 1 2546.89 1556)">
   <path class="monochrome-0 multicolor-0:tintColor hierarchical-0:primary SFSymbolsPreviewWireframe" d="M80.6033-41.5697L80.6033-41.5697C88.8623-49.7747 88.9061-63.1215 80.701-71.3805C72.496-79.6395 59.1493-79.6833 50.8902-71.4783C42.6312-63.2732 42.5875-49.9265 50.7925-41.6675C54.1277-38.3102 58.4957-36.173 63.1931-35.5997L63.1931-25.1879L54.4002-25.1432L54.4002-25.1432C52.8947-25.1395 51.6772-23.9161 51.6809-22.4105C51.6845-20.905 52.908-19.6875 54.4135-19.6912L54.4268-19.6912L63.1931-19.7358L63.1931-11.1565L63.1931-11.1565C63.1931-9.65097 64.4136-8.4305 65.9191-8.4305C67.4247-8.4305 68.6451-9.65097 68.6451-11.1565L68.6451-19.7636L77.4381-19.8083L77.4381-19.8083C78.9436-19.812 80.1611-21.0355 80.1574-22.541C80.1537-24.0465 78.9303-25.264 77.4248-25.2603L77.4114-25.2603L68.6451-25.2158L68.6451-35.6494L68.6451-35.6494C73.1716-36.2613 77.3724-38.341 80.6033-41.5697ZM54.7449-67.4267L54.7449-67.4267C60.8207-73.5028 70.6718-73.5031 76.7479-67.4274C82.824-61.3516 82.8243-51.5005 76.7485-45.4244C70.6728-39.3483 60.8217-39.348 54.7456-45.4238C54.7454-45.424 54.7452-45.4242 54.7449-45.4244L54.7449-45.4244C48.6802-51.5048 48.6802-61.3464 54.7449-67.4267Z"/>
  </g>
  <g id="Bold-L" transform="matrix(1 0 0 1 2251.16 1556)">
   <path class="monochrome-0 multicolor-0:tintColor hierarchical-0:primary SFSymbolsPreviewWireframe" d="M80.6033-39.5697L80.6033-39.5697C88.8623-47.7747 88.9061-61.1215 80.701-69.3805C72.496-77.6395 59.1493-77.6833 50.8902-69.4783C42.6312-61.2732 42.5875-47.9265 50.7925-39.6675C54.1277-36.3102 58.4957-34.173 63.1931-33.5997L63.1931-23.1879L54.4002-23.1432L54.4002-23.1432C52.8947-23.1395 51.6772-21.9161 51.6809-20.4105C51.6845-18.905 52.908-17.6875 54.4135-17.6912L54.4268-17.6912L63.1931-17.7358L63.1931-9.1565L63.1931-9.1565C63.1931-7.65097 64.4136-6.4305 65.9191-6.4305C67.4247-6.4305 68.6451-7.65097 68.6451-9.1565L68.6451-17.7636L77.4381-17.8083L77.4381-17.8083C78.9436-17.812 80.1611-19.0355 80.1574-20.541C80.1537-22.0465 78.9303-23.264 77.4248-23.2603L77.4114-23.2603L68.6451-23.2158L68.6451-33.6494L68.6451-33.6494C73.1716-34.2613 77.3724-36.341 80.6033-39.5697ZM54.7449-65.4267L54.7449-65.4267C60.8207-71.5028 70.6718-71.5031 76.7479-65.4274C82.824-59.3516 82.8243-49.5005 76.7485-43.4244C70.6728-37.3483 60.8217-37.348 54.7456-43.4238C54.7454-43.424 54.7452-43.4242 54.7449-43.4244L54.7449-43.4244C48.6802-49.5048 48.6802-59.3464 54.7449-65.4267Z"/>
  </g>
  <g id="Semibold-L" transform="matrix(1 0 0 1 1955.11 1556)">
   <path class="monochrome-0 multicolor-0:tintColor hierarchical-0:primary SFSymbolsPreviewWireframe" d="M80.6033-38.5697L80.6033-38.5697C88.8623-46.7747 88.9061-60.1215 80.701-68.3805C72.496-76.6395 59.1493-76.6833 50.8902-68.4783C42.6312-60.2732 42.5875-46.9265 50.7925-38.6675C54.1277-35.3102 58.4957-33.173 63.1931-32.5997L63.1931-22.1879L54.4002-22.1432L54.4002-22.1432C52.8947-22.1395 51.6772-20.9161 51.6809-19.4105C51.6845-17.905 52.908-16.6875 54.4135-16.6912L54.4268-16.6912L63.1931-16.7358L63.1931-8.1565L63.1931-8.1565C63.1931-6.65097 64.4136-5.4305 65.9191-5.4305C67.4247-5.4305 68.6451-6.65097 68.6451-8.1565L68.6451-16.7636L77.4381-16.8083L77.4381-16.8083C78.9436-16.812 80.1611-18.0355 80.1574-19.541C80.1537-21.0465 78.9303-22.264 77.4247-22.2603L77.4114-22.2603L68.6451-22.2158L68.6451-32.6494L68.6451-32.6494C73.1716-33.2613 77.3724-35.341 80.6033-38.5697ZM54.7449-64.4267L54.7449-64.4267C60.8207-70.5028 70.6718-70.5031 76.7479-64.4274C82.824-58.3516 82.8243-48.5005 76.7485-42.4244C70.6728-36.3483 60.8217-36.348 54.7456-42.4238C54.7454-42.424 54.7452-42.4242 54.7449-42.4244L54.7449-42.4244C48.6802-48.5048 48.6802-58.3464 54.7449-64.4267Z"/>
  </g>
  <g id="Medium-L" transform="matrix(1 0 0 1 1658.91 1556)">
   <path class="monochrome-0 multicolor-0:tintColor hierarchical-0:primary SFSymbolsPreviewWireframe" d="M80.6033-37.5697L80.6033-37.5697C88.8623-45.7747 88.9061-59.1215 80.701-67.3805C72.496-75.6395 59.1493-75.6833 50.8902-67.4783C42.6312-59.2732 42.5875-45.9265 50.7925-37.6675C54.1277-34.3102 58.4957-32.173 63.1931-31.5997L63.1931-21.1879L54.4002-21.1432L54.4002-21.1432C52.8947-21.1395 51.6772-19.9161 51.6809-18.4105C51.6845-16.905 52.908-15.6875 54.4135-15.6912L54.4268-15.6912L63.1931-15.7358L63.1931-7.1565L63.1931-7.1565C63.1931-5.65097 64.4136-4.4305 65.9191-4.4305C67.4247-4.4305 68.6451-5.65097 68.6451-7.1565L68.6451-15.7636L77.4381-15.8083L77.4381-15.8083C78.9436-15.812 80.1611-17.0355 80.1574-18.541C80.1537-20.0465 78.9303-21.264 77.4247-21.2603L77.4114-21.2603L68.6451-21.2158L68.6451-31.6494L68.6451-31.6494C73.1716-32.2613 77.3724-34.341 80.6033-37.5697ZM54.7449-63.4267L54.7449-63.4267C60.8207-69.5028 70.6718-69.5031 76.7479-63.4274C82.824-57.3516 82.8243-47.5005 76.7485-41.4244C70.6728-35.3483 60.8217-35.348 54.7456-41.4238C54.7454-41.424 54.7452-41.4242 54.7449-41.4244L54.7449-41.4244C48.6802-47.5048 48.6802-57.3464 54.7449-63.4267Z"/>
  </g>
  <g id="Regular-L" transform="matrix(1 0 0 1 1362.86 1556)">
   <path class="monochrome-0 multicolor-0:tintColor hierarchical-0:primary SFSymbolsPreviewWireframe" d="M80.6033-36.5697L80.6033-36.5697C88.8623-44.7747 88.9061-58.1215 80.701-66.3805C72.496-74.6395 59.1493-74.6833 50.8902-66.4783C42.6312-58.2732 42.5875-44.9265 50.7925-36.6675C54.1277-33.3102 58.4957-31.173 63.1931-30.5997L63.1931-20.1879L54.4002-20.1432L54.4002-20.1432C52.8947-20.1395 51.6772-18.9161 51.6809-17.4105C51.6845-15.905 52.908-14.6875 54.4135-14.6912L54.4268-14.6912L63.1931-14.7358L63.1931-6.1565L63.1931-6.1565C63.1931-4.65097 64.4136-3.4305 65.9191-3.4305C67.4247-3.4305 68.6451-4.65097 68.6451-6.1565L68.6451-14.7636L77.4381-14.8083L77.4381-14.8083C78.9436-14.812 80.1611-16.0355 80.1574-17.541C80.1537-19.0465 78.9303-20.264 77.4248-20.2603L77.4114-20.2603L68.6451-20.2158L68.6451-30.6494L68.6451-30.6494C73.1716-31.2613 77.3724-33.341 80.6033-36.5697ZM54.7449-62.4267L54.7449-62.4267C60.8207-68.5028 70.6718-68.5031 76.7479-62.4274C82.824-56.3516 82.8243-46.5005 76.7485-40.4244C70.6728-34.3483 60.8217-34.348 54.7456-40.4238C54.7454-40.424 54.7452-40.4242 54.7449-40.4244L54.7449-40.4244C48.6802-46.5048 48.6802-56.3464 54.7449-62.4267Z"/>
  </g>
  <g id="Light-L" transform="matrix(1 0 0 1 1066.95 1556)">
   <path class="monochrome-0 multicolor-0:tintColor hierarchical-0:primary SFSymbolsPreviewWireframe" d="M80.6033-35.5697L80.6033-35.5697C88.8623-43.7747 88.9061-57.1215 80.701-65.3805C72.496-73.6395 59.1493-73.6833 50.8902-65.4783C42.6312-57.2732 42.5875-43.9265 50.7925-35.6675C54.1277-32.3102 58.4957-30.173 63.1931-29.5997L63.1931-19.1879L54.4002-19.1432L54.4002-19.1432C52.8947-19.1395 51.6772-17.9161 51.6809-16.4105C51.6845-14.905 52.908-13.6875 54.4135-13.6912L54.4268-13.6912L63.1931-13.7358L63.1931-5.1565L63.1931-5.1565C63.1931-3.65097 64.4136-2.4305 65.9191-2.4305C67.4247-2.4305 68.6451-3.65097 68.6451-5.1565L68.6451-13.7636L77.4381-13.8083L77.4381-13.8083C78.9436-13.812 80.1611-15.0355 80.1574-16.541C80.1537-18.0465 78.9303-19.264 77.4247-19.2603L77.4114-19.2603L68.6451-19.2158L68.6451-29.6494L68.6451-29.6494C73.1716-30.2613 77.3724-32.341 80.6033-35.5697ZM54.7449-61.4267L54.7449-61.4267C60.8207-67.5028 70.6718-67.5031 76.7479-61.4274C82.824-55.3516 82.8243-45.5005 76.7485-39.4244C70.6728-33.3483 60.8217-33.348 54.7456-39.4238C54.7454-39.424 54.7452-39.4242 54.7449-39.4244L54.7449-39.4244C48.6802-45.5048 48.6802-55.3464 54.7449-61.4267Z"/>
  </g>
  <g id="Thin-L" transform="matrix(1 0 0 1 771.315 1556)">
   <path class="monochrome-0 multicolor-0:tintColor hierarchical-0:primary SFSymbolsPreviewWireframe" d="M80.6033-34.5697L80.6033-34.5697C88.8623-42.7747 88.9061-56.1215 80.701-64.3805C72.496-72.6395 59.1493-72.6833 50.8902-64.4783C42.6312-56.2732 42.5875-42.9265 50.7925-34.6675C54.1277-31.3102 58.4957-29.173 63.1931-28.5997L63.1931-18.1879L54.4002-18.1432L54.4002-18.1432C52.8947-18.1395 51.6772-16.9161 51.6809-15.4105C51.6845-13.905 52.908-12.6875 54.4135-12.6912L54.4268-12.6912L63.1931-12.7358L63.1931-4.1565L63.1931-4.1565C63.1931-2.65097 64.4136-1.4305 65.9191-1.4305C67.4247-1.4305 68.6451-2.65097 68.6451-4.1565L68.6451-12.7636L77.4381-12.8083L77.4381-12.8083C78.9436-12.812 80.1611-14.0355 80.1574-15.541C80.1537-17.0465 78.9303-18.264 77.4248-18.2603L77.4114-18.2603L68.6451-18.2158L68.6451-28.6494L68.6451-28.6494C73.1716-29.2613 77.3724-31.341 80.6033-34.5697ZM54.7449-60.4267L54.7449-60.4267C60.8207-66.5028 70.6718-66.5031 76.7479-60.4274C82.824-54.3516 82.8243-44.5005 76.7485-38.4244C70.6728-32.3483 60.8217-32.348 54.7456-38.4238C54.7454-38.424 54.7452-38.4242 54.7449-38.4244L54.7449-38.4244C48.6802-44.5048 48.6802-54.3464 54.7449-60.4267Z"/>
  </g>
  <g id="Ultralight-L" transform="matrix(1 0 0 1 475.165 1556)">
   <path class="monochrome-0 multicolor-0:tintColor hierarchical-0:primary SFSymbolsPreviewWireframe" d="M80.6033-33.5697L80.6033-33.5697C88.8623-41.7747 88.9061-55.1215 80.701-63.3805C72.496-71.6395 59.1493-71.6833 50.8902-63.4783C42.6312-55.2732 42.5875-41.9265 50.7925-33.6675C54.1277-30.3102 58.4957-28.173 63.1931-27.5997L63.1931-17.1879L54.4002-17.1432L54.4002-17.1432C52.8947-17.1395 51.6772-15.9161 51.6809-14.4105C51.6845-12.905 52.908-11.6875 54.4135-11.6912L54.4268-11.6912L63.1931-11.7358L63.1931-3.1565L63.1931-3.1565C63.1931-1.65097 64.4136-0.4305 65.9191-0.4305C67.4247-0.4305 68.6451-1.65097 68.6451-3.1565L68.6451-11.7636L77.4381-11.8083L77.4381-11.8083C78.9436-11.812 80.1611-13.0355 80.1574-14.541C80.1537-16.0465 78.9303-17.264 77.4248-17.2603L77.4114-17.2603L68.6451-17.2158L68.6451-27.6494L68.6451-27.6494C73.1716-28.2613 77.3724-30.341 80.6033-33.5697ZM54.7449-59.4267L54.7449-59.4267C60.8207-65.5028 70.6718-65.5031 76.7479-59.4274C82.824-53.3516 82.8243-43.5005 76.7485-37.4244C70.6728-31.3483 60.8217-31.348 54.7456-37.4238C54.7454-37.424 54.7452-37.4242 54.7449-37.4244L54.7449-37.4244C48.6802-43.5048 48.6802-53.3464 54.7449-59.4267Z"/>
  </g>
  <g id="Black-M" transform="matrix(1 0 0 1 2862.7 1126)">
   <path class="monochrome-0 multicolor-0:tintColor hierarchical-0:primary SFSymbolsPreviewWireframe" d="M76.6033-29.5697L76.6033-29.5697C84.8623-37.7747 84.9061-51.1215 76.701-59.3805C68.496-67.6395 55.1493-67.6833 46.8902-59.4783C38.6312-51.2732 38.5875-37.9265 46.7925-29.6675C50.1277-26.3102 54.4957-24.173 59.1931-23.5997L59.1931-13.1879L50.4002-13.1432L50.4002-13.1432C48.8947-13.1395 47.6772-11.9161 47.6809-10.4105C47.6845-8.905 48.908-7.6875 50.4135-7.69118L50.4268-7.69118L59.1931-7.73577L59.1931 0.8435L59.1931 0.8435C59.1931 2.34903 60.4136 3.5695 61.9191 3.5695C63.4247 3.5695 64.6451 2.34903 64.6451 0.8435L64.6451-7.76358L73.4381-7.80834L73.4381-7.80834C74.9436-7.81202 76.1611-9.03547 76.1574-10.541C76.1537-12.0465 74.9303-13.264 73.4248-13.2603L73.4114-13.2603L64.6451-13.2158L64.6451-23.6494L64.6451-23.6494C69.1716-24.2613 73.3724-26.341 76.6033-29.5697ZM50.7449-55.4267L50.7449-55.4267C56.8207-61.5028 66.6718-61.5031 72.7479-55.4274C78.824-49.3516 78.8243-39.5005 72.7485-33.4244C66.6728-27.3483 56.8217-27.348 50.7456-33.4238C50.7454-33.424 50.7452-33.4242 50.7449-33.4244L50.7449-33.4244C44.6802-39.5048 44.6802-49.3464 50.7449-55.4267Z"/>
  </g>
  <g id="Heavy-M" transform="matrix(1 0 0 1 2566.64 1126)">
   <path class="monochrome-0 multicolor-0:tintColor hierarchical-0:primary SFSymbolsPreviewWireframe" d="M76.6033-28.5697L76.6033-28.5697C84.8623-36.7747 84.9061-50.1215 76.701-58.3805C68.496-66.6395 55.1493-66.6833 46.8902-58.4783C38.6312-50.2732 38.5875-36.9265 46.7925-28.6675C50.1277-25.3102 54.4957-23.173 59.1931-22.5997L59.1931-12.1879L50.4002-12.1432L50.4002-12.1432C48.8947-12.1395 47.6772-10.9161 47.6809-9.41053C47.6845-7.905 48.908-6.6875 50.4135-6.69118L50.4268-6.69118L59.1931-6.73577L59.1931 1.8435L59.1931 1.8435C59.1931 3.34903 60.4136 4.5695 61.9191 4.5695C63.4247 4.5695 64.6451 3.34903 64.6451 1.8435L64.6451-6.76358L73.4381-6.80834L73.4381-6.80834C74.9436-6.81202 76.1611-8.03547 76.1574-9.541C76.1537-11.0465 74.9303-12.264 73.4248-12.2603L73.4114-12.2603L64.6451-12.2158L64.6451-22.6494L64.6451-22.6494C69.1716-23.2613 73.3724-25.341 76.6033-28.5697ZM50.7449-54.4267L50.7449-54.4267C56.8207-60.5028 66.6718-60.5031 72.7479-54.4274C78.824-48.3516 78.8243-38.5005 72.7485-32.4244C66.6728-26.3483 56.8217-26.348 50.7456-32.4238C50.7454-32.424 50.7452-32.4242 50.7449-32.4244L50.7449-32.4244C44.6802-38.5048 44.6802-48.3464 50.7449-54.4267Z"/>
  </g>
  <g id="Bold-M" transform="matrix(1 0 0 1 2270.67 1126)">
   <path class="monochrome-0 multicolor-0:tintColor hierarchical-0:primary SFSymbolsPreviewWireframe" d="M76.6033-26.5697L76.6033-26.5697C84.8623-34.7747 84.9061-48.1215 76.701-56.3805C68.496-64.6395 55.1493-64.6833 46.8902-56.4783C38.6312-48.2732 38.5875-34.9265 46.7925-26.6675C50.1277-23.3102 54.4957-21.173 59.1931-20.5997L59.1931-10.1879L50.4002-10.1432L50.4002-10.1432C48.8947-10.1395 47.6772-8.91605 47.6809-7.41053C47.6845-5.905 48.908-4.6875 50.4135-4.69118L50.4268-4.69118L59.1931-4.73577L59.1931 3.8435L59.1931 3.8435C59.1931 5.34903 60.4136 6.5695 61.9191 6.5695C63.4247 6.5695 64.6451 5.34903 64.6451 3.8435L64.6451-4.76358L73.4381-4.80834L73.4381-4.80834C74.9436-4.81202 76.1611-6.03547 76.1574-7.541C76.1537-9.04652 74.9303-10.264 73.4248-10.2603L73.4114-10.2603L64.6451-10.2158L64.6451-20.6494L64.6451-20.6494C69.1716-21.2613 73.3724-23.341 76.6033-26.5697ZM50.7449-52.4267L50.7449-52.4267C56.8207-58.5028 66.6718-58.5031 72.7479-52.4274C78.824-46.3516 78.8243-36.5005 72.7485-30.4244C66.6728-24.3483 56.8217-24.348 50.7456-30.4238C50.7454-30.424 50.7452-30.4242 50.7449-30.4244L50.7449-30.4244C44.6802-36.5048 44.6802-46.3464 50.7449-52.4267Z"/>
  </g>
  <g id="Semibold-M" transform="matrix(1 0 0 1 1974.47 1126)">
   <path class="monochrome-0 multicolor-0:tintColor hierarchical-0:primary SFSymbolsPreviewWireframe" d="M76.6033-25.5697L76.6033-25.5697C84.8623-33.7747 84.9061-47.1215 76.701-55.3805C68.496-63.6395 55.1493-63.6833 46.8902-55.4783C38.6312-47.2732 38.5875-33.9265 46.7925-25.6675C50.1277-22.3102 54.4957-20.173 59.1931-19.5997L59.1931-9.18794L50.4002-9.14318L50.4002-9.14318C48.8947-9.1395 47.6772-7.91605 47.6809-6.41053C47.6845-4.905 48.908-3.6875 50.4135-3.69118L50.4268-3.69118L59.1931-3.73577L59.1931 4.8435L59.1931 4.8435C59.1931 6.34903 60.4136 7.5695 61.9191 7.5695C63.4247 7.5695 64.6451 6.34903 64.6451 4.8435L64.6451-3.76358L73.4381-3.80834L73.4381-3.80834C74.9436-3.81202 76.1611-5.03547 76.1574-6.541C76.1537-8.04652 74.9303-9.26402 73.4247-9.26034L73.4114-9.26034L64.6451-9.21575L64.6451-19.6494L64.6451-19.6494C69.1716-20.2613 73.3724-22.341 76.6033-25.5697ZM50.7449-51.4267L50.7449-51.4267C56.8207-57.5028 66.6718-57.5031 72.7479-51.4274C78.824-45.3516 78.8243-35.5005 72.7485-29.4244C66.6728-23.3483 56.8217-23.348 50.7456-29.4238C50.7454-29.424 50.7452-29.4242 50.7449-29.4244L50.7449-29.4244C44.6802-35.5048 44.6802-45.3464 50.7449-51.4267Z"/>
  </g>
  <g id="Medium-M" transform="matrix(1 0 0 1 1678.15 1126)">
   <path class="monochrome-0 multicolor-0:tintColor hierarchical-0:primary SFSymbolsPreviewWireframe" d="M76.6033-25.5697L76.6033-25.5697C84.8623-33.7747 84.9061-47.1215 76.701-55.3805C68.496-63.6395 55.1493-63.6833 46.8902-55.4783C38.6312-47.2732 38.5875-33.9265 46.7925-25.6675C50.1277-22.3102 54.4957-20.173 59.1931-19.5997L59.1931-9.18794L50.4002-9.14318L50.4002-9.14318C48.8947-9.1395 47.6772-7.91605 47.6809-6.41053C47.6845-4.905 48.908-3.6875 50.4135-3.69118L50.4268-3.69118L59.1931-3.73577L59.1931 4.8435L59.1931 4.8435C59.1931 6.34903 60.4136 7.5695 61.9191 7.5695C63.4247 7.5695 64.6451 6.34903 64.6451 4.8435L64.6451-3.76358L73.4381-3.80834L73.4381-3.80834C74.9436-3.81202 76.1611-5.03547 76.1574-6.541C76.1537-8.04652 74.9303-9.26402 73.4247-9.26034L73.4114-9.26034L64.6451-9.21575L64.6451-19.6494L64.6451-19.6494C69.1716-20.2613 73.3724-22.341 76.6033-25.5697ZM50.7449-51.4267L50.7449-51.4267C56.8207-57.5028 66.6718-57.5031 72.7479-51.4274C78.824-45.3516 78.8243-35.5005 72.7485-29.4244C66.6728-23.3483 56.8217-23.348 50.7456-29.4238C50.7454-29.424 50.7452-29.4242 50.7449-29.4244L50.7449-29.4244C44.6802-35.5048 44.6802-45.3464 50.7449-51.4267Z"/>
  </g>
  <g id="Regular-M" transform="matrix(1 0 0 1 1381.95 1126)">
   <path class="monochrome-0 multicolor-0:tintColor hierarchical-0:primary SFSymbolsPreviewWireframe" d="M76.6033-24.5697L76.6033-24.5697C84.8623-32.7747 84.9061-46.1215 76.701-54.3805C68.496-62.6395 55.1493-62.6833 46.8902-54.4783C38.6312-46.2732 38.5875-32.9265 46.7925-24.6675C50.1277-21.3102 54.4957-19.173 59.1931-18.5997L59.1931-8.18794L50.4002-8.14318L50.4002-8.14318C48.8947-8.1395 47.6772-6.91605 47.6809-5.41053C47.6845-3.905 48.908-2.6875 50.4135-2.69118L50.4268-2.69118L59.1931-2.73577L59.1931 5.8435L59.1931 5.8435C59.1931 7.34903 60.4136 8.5695 61.9191 8.5695C63.4247 8.5695 64.6451 7.34903 64.6451 5.8435L64.6451-2.76358L73.4381-2.80834L73.4381-2.80834C74.9436-2.81202 76.1611-4.03547 76.1574-5.541C76.1537-7.04652 74.9303-8.26402 73.4247-8.26034L73.4114-8.26034L64.6451-8.21575L64.6451-18.6494L64.6451-18.6494C69.1716-19.2613 73.3724-21.341 76.6033-24.5697ZM50.7449-50.4267L50.7449-50.4267C56.8207-56.5028 66.6718-56.5031 72.7479-50.4274C78.824-44.3516 78.8243-34.5005 72.7485-28.4244C66.6728-22.3483 56.8217-22.348 50.7456-28.4238C50.7454-28.424 50.7452-28.4242 50.7449-28.4244L50.7449-28.4244C44.6802-34.5048 44.6802-44.3464 50.7449-50.4267Z"/>
  </g>
  <g id="Light-M" transform="matrix(1 0 0 1 1085.97 1126)">
   <path class="monochrome-0 multicolor-0:tintColor hierarchical-0:primary SFSymbolsPreviewWireframe" d="M76.6033-23.5697L76.6033-23.5697C84.8623-31.7747 84.9061-45.1215 76.701-53.3805C68.496-61.6395 55.1493-61.6833 46.8902-53.4783C38.6312-45.2732 38.5875-31.9265 46.7925-23.6675C50.1277-20.3102 54.4957-18.173 59.1931-17.5997L59.1931-7.18794L50.4002-7.14318L50.4002-7.14318C48.8947-7.1395 47.6772-5.91605 47.6809-4.41053C47.6845-2.905 48.908-1.6875 50.4135-1.69118L50.4268-1.69118L59.1931-1.73577L59.1931 6.8435L59.1931 6.8435C59.1931 8.34903 60.4136 9.5695 61.9191 9.5695C63.4247 9.5695 64.6451 8.34903 64.6451 6.8435L64.6451-1.76358L73.4381-1.80834L73.4381-1.80834C74.9436-1.81202 76.1611-3.03547 76.1574-4.541C76.1537-6.04652 74.9303-7.26402 73.4247-7.26034L73.4114-7.26034L64.6451-7.21575L64.6451-17.6494L64.6451-17.6494C69.1716-18.2613 73.3724-20.341 76.6033-23.5697ZM50.7449-49.4267L50.7449-49.4267C56.8207-55.5028 66.6718-55.5031 72.7479-49.4274C78.824-43.3516 78.8243-33.5005 72.7485-27.4244C66.6728-21.3483 56.8217-21.348 50.7456-27.4238C50.7454-27.424 50.7452-27.4242 50.7449-27.4244L50.7449-27.4244C44.6802-33.5048 44.6802-43.3464 50.7449-49.4267Z"/>
  </g>
  <g id="Thin-M" transform="matrix(1 0 0 1 790.236 1126)">
   <path class="monochrome-0 multicolor-0:tintColor hierarchical-0:primary SFSymbolsPreviewWireframe" d="M76.6033-22.5697L76.6033-22.5697C84.8623-30.7747 84.9061-44.1215 76.701-52.3805C68.496-60.6395 55.1493-60.6833 46.8902-52.4783C38.6312-44.2732 38.5875-30.9265 46.7925-22.6675C50.1277-19.3102 54.4957-17.173 59.1931-16.5997L59.1931-6.18794L50.4002-6.14318L50.4002-6.14318C48.8947-6.1395 47.6772-4.91605 47.6809-3.41053C47.6845-1.905 48.908-0.687505 50.4135-0.69118L50.4268-0.69118L59.1931-0.73577L59.1931 7.8435L59.1931 7.8435C59.1931 9.34903 60.4136 10.5695 61.9191 10.5695C63.4247 10.5695 64.6451 9.34903 64.6451 7.8435L64.6451-0.76358L73.4381-0.80834L73.4381-0.80834C74.9436-0.812015 76.1611-2.03547 76.1574-3.541C76.1537-5.04652 74.9303-6.26402 73.4248-6.26034L73.4114-6.26034L64.6451-6.21575L64.6451-16.6494L64.6451-16.6494C69.1716-17.2613 73.3724-19.341 76.6033-22.5697ZM50.7449-48.4267L50.7449-48.4267C56.8207-54.5028 66.6718-54.5031 72.7479-48.4274C78.824-42.3516 78.8243-32.5005 72.7485-26.4244C66.6728-20.3483 56.8217-20.348 50.7456-26.4238C50.7454-26.424 50.7452-26.4242 50.7449-26.4244L50.7449-26.4244C44.6802-32.5048 44.6802-42.3464 50.7449-48.4267Z"/>
  </g>
  <g id="Ultralight-M" transform="matrix(1 0 0 1 494.013 1126)">
   <path class="monochrome-0 multicolor-0:tintColor hierarchical-0:primary SFSymbolsPreviewWireframe" d="M76.6033-21.5697L76.6033-21.5697C84.8623-29.7747 84.9061-43.1215 76.701-51.3805C68.496-59.6395 55.1493-59.6833 46.8902-51.4783C38.6312-43.2732 38.5875-29.9265 46.7925-21.6675C50.1277-18.3102 54.4957-16.173 59.1931-15.5997L59.1931-5.18794L50.4002-5.14318L50.4002-5.14318C48.8947-5.1395 47.6772-3.91605 47.6809-2.41053C47.6845-0.904997 48.908 0.312495 50.4135 0.30882L50.4268 0.30882L59.1931 0.26423L59.1931 8.8435L59.1931 8.8435C59.1931 10.349 60.4136 11.5695 61.9191 11.5695C63.4247 11.5695 64.6451 10.349 64.6451 8.8435L64.6451 0.23642L73.4381 0.19166L73.4381 0.19166C74.9436 0.187985 76.1611-1.03547 76.1574-2.541C76.1537-4.04652 74.9303-5.26402 73.4247-5.26034L73.4114-5.26034L64.6451-5.21575L64.6451-15.6494L64.6451-15.6494C69.1716-16.2613 73.3724-18.341 76.6033-21.5697ZM50.7449-47.4267L50.7449-47.4267C56.8207-53.5028 66.6718-53.5031 72.7479-47.4274C78.824-41.3516 78.8243-31.5005 72.7485-25.4244C66.6728-19.3483 56.8217-19.348 50.7456-25.4238C50.7454-25.424 50.7452-25.4242 50.7449-25.4244L50.7449-25.4244C44.6802-31.5048 44.6802-41.3464 50.7449-47.4267Z"/>
  </g>
  <g id="Black-S" transform="matrix(1 0 0 1 2877.83 696)">
   <path class="monochrome-0 multicolor-0:tintColor hierarchical-0:primary SFSymbolsPreviewWireframe" d="M73.6033-18.5697L73.6033-18.5697C81.8623-26.7747 81.9061-40.1215 73.701-48.3805C65.496-56.6395 52.1493-56.6833 43.8902-48.4783C35.6312-40.2732 35.5875-26.9265 43.7925-18.6675C47.1277-15.3102 51.4957-13.173 56.1931-12.5997L56.1931-2.18794L47.4002-2.14318L47.4002-2.14318C45.8947-2.1395 44.6772-0.916053 44.6809 0.589475C44.6845 2.095 45.908 3.3125 47.4135 3.30882L47.4268 3.30882L56.1931 3.26423L56.1931 11.8435L56.1931 11.8435C56.1931 13.349 57.4136 14.5695 58.9191 14.5695C60.4247 14.5695 61.6451 13.349 61.6451 11.8435L61.6451 3.23642L70.4381 3.19166L70.4381 3.19166C71.9436 3.18798 73.1611 1.96453 73.1574 0.459005C73.1537-1.04652 71.9303-2.26402 70.4248-2.26034L70.4114-2.26034L61.6451-2.21575L61.6451-12.6494L61.6451-12.6494C66.1716-13.2613 70.3724-15.341 73.6033-18.5697ZM47.7449-44.4267L47.7449-44.4267C53.8207-50.5028 63.6718-50.5031 69.7479-44.4274C75.824-38.3516 75.8243-28.5005 69.7485-22.4244C63.6728-16.3483 53.8217-16.348 47.7456-22.4238C47.7454-22.424 47.7452-22.4242 47.7449-22.4244L47.7449-22.4244C41.6802-28.5048 41.6802-38.3464 47.7449-44.4267Z"/>
  </g>
  <g id="Heavy-S" transform="matrix(1 0 0 1 2581.61 696)">
   <path class="monochrome-0 multicolor-0:tintColor hierarchical-0:primary SFSymbolsPreviewWireframe" d="M73.6033-18.5697L73.6033-18.5697C81.8623-26.7747 81.9061-40.1215 73.701-48.3805C65.496-56.6395 52.1493-56.6833 43.8902-48.4783C35.6312-40.2732 35.5875-26.9265 43.7925-18.6675C47.1277-15.3102 51.4957-13.173 56.1931-12.5997L56.1931-2.18794L47.4002-2.14318L47.4002-2.14318C45.8947-2.1395 44.6772-0.916053 44.6809 0.589475C44.6845 2.095 45.908 3.3125 47.4135 3.30882L47.4268 3.30882L56.1931 3.26423L56.1931 11.8435L56.1931 11.8435C56.1931 13.349 57.4136 14.5695 58.9191 14.5695C60.4247 14.5695 61.6451 13.349 61.6451 11.8435L61.6451 3.23642L70.4381 3.19166L70.4381 3.19166C71.9436 3.18798 73.1611 1.96453 73.1574 0.459005C73.1537-1.04652 71.9303-2.26402 70.4248-2.26034L70.4114-2.26034L61.6451-2.21575L61.6451-12.6494L61.6451-12.6494C66.1716-13.2613 70.3724-15.341 73.6033-18.5697ZM47.7449-44.4267L47.7449-44.4267C53.8207-50.5028 63.6718-50.5031 69.7479-44.4274C75.824-38.3516 75.8243-28.5005 69.7485-22.4244C63.6728-16.3483 53.8217-16.348 47.7456-22.4238C47.7454-22.424 47.7452-22.4242 47.7449-22.4244L47.7449-22.4244C41.6802-28.5048 41.6802-38.3464 47.7449-44.4267Z"/>
  </g>
  <g id="Bold-S" transform="matrix(1 0 0 1 2285.41 696)">
   <path class="monochrome-0 multicolor-0:tintColor hierarchical-0:primary SFSymbolsPreviewWireframe" d="M73.6033-16.5697L73.6033-16.5697C81.8623-24.7747 81.9061-38.1215 73.701-46.3805C65.496-54.6395 52.1493-54.6833 43.8902-46.4783C35.6312-38.2732 35.5875-24.9265 43.7925-16.6675C47.1277-13.3102 51.4957-11.173 56.1931-10.5997L56.1931-0.18794L47.4002-0.14318L47.4002-0.14318C45.8947-0.139505 44.6772 1.08395 44.6809 2.58947C44.6845 4.095 45.908 5.3125 47.4135 5.30882L47.4268 5.30882L56.1931 5.26423L56.1931 13.8435L56.1931 13.8435C56.1931 15.349 57.4136 16.5695 58.9191 16.5695C60.4247 16.5695 61.6451 15.349 61.6451 13.8435L61.6451 5.23642L70.4381 5.19166L70.4381 5.19166C71.9436 5.18798 73.1611 3.96453 73.1574 2.45901C73.1537 0.953477 71.9303-0.264015 70.4248-0.26034L70.4114-0.26034L61.6451-0.21575L61.6451-10.6494L61.6451-10.6494C66.1716-11.2613 70.3724-13.341 73.6033-16.5697ZM47.7449-42.4267L47.7449-42.4267C53.8207-48.5028 63.6718-48.5031 69.7479-42.4274C75.824-36.3516 75.8243-26.5005 69.7485-20.4244C63.6728-14.3483 53.8217-14.348 47.7456-20.4238C47.7454-20.424 47.7452-20.4242 47.7449-20.4244L47.7449-20.4244C41.6802-26.5048 41.6802-36.3464 47.7449-42.4267Z"/>
  </g>
  <g id="Semibold-S" transform="matrix(1 0 0 1 1989.09 696)">
   <path class="monochrome-0 multicolor-0:tintColor hierarchical-0:primary SFSymbolsPreviewWireframe" d="M73.6033-16.5697L73.6033-16.5697C81.8623-24.7747 81.9061-38.1215 73.701-46.3805C65.496-54.6395 52.1493-54.6833 43.8902-46.4783C35.6312-38.2732 35.5875-24.9265 43.7925-16.6675C47.1277-13.3102 51.4957-11.173 56.1931-10.5997L56.1931-0.18794L47.4002-0.14318L47.4002-0.14318C45.8947-0.139505 44.6772 1.08395 44.6809 2.58947C44.6845 4.095 45.908 5.3125 47.4135 5.30882L47.4268 5.30882L56.1931 5.26423L56.1931 13.8435L56.1931 13.8435C56.1931 15.349 57.4136 16.5695 58.9191 16.5695C60.4247 16.5695 61.6451 15.349 61.6451 13.8435L61.6451 5.23642L70.4381 5.19166L70.4381 5.19166C71.9436 5.18798 73.1611 3.96453 73.1574 2.45901C73.1537 0.953477 71.9303-0.264015 70.4247-0.26034L70.4114-0.26034L61.6451-0.21575L61.6451-10.6494L61.6451-10.6494C66.1716-11.2613 70.3724-13.341 73.6033-16.5697ZM47.7449-42.4267L47.7449-42.4267C53.8207-48.5028 63.6718-48.5031 69.7479-42.4274C75.824-36.3516 75.8243-26.5005 69.7485-20.4244C63.6728-14.3483 53.8217-14.348 47.7456-20.4238C47.7454-20.424 47.7452-20.4242 47.7449-20.4244L47.7449-20.4244C41.6802-26.5048 41.6802-36.3464 47.7449-42.4267Z"/>
  </g>
  <g id="Medium-S" transform="matrix(1 0 0 1 1692.65 696)">
   <path class="monochrome-0 multicolor-0:tintColor hierarchical-0:primary SFSymbolsPreviewWireframe" d="M73.6033-15.5697L73.6033-15.5697C81.8623-23.7747 81.9061-37.1215 73.701-45.3805C65.496-53.6395 52.1493-53.6833 43.8902-45.4783C35.6312-37.2732 35.5875-23.9265 43.7925-15.6675C47.1277-12.3102 51.4957-10.173 56.1931-9.59969L56.1931 0.81206L47.4002 0.85682L47.4002 0.85682C45.8947 0.860495 44.6772 2.08395 44.6809 3.58947C44.6845 5.095 45.908 6.3125 47.4135 6.30882L47.4268 6.30882L56.1931 6.26423L56.1931 14.8435L56.1931 14.8435C56.1931 16.349 57.4136 17.5695 58.9191 17.5695C60.4247 17.5695 61.6451 16.349 61.6451 14.8435L61.6451 6.23642L70.4381 6.19166L70.4381 6.19166C71.9436 6.18798 73.1611 4.96453 73.1574 3.45901C73.1537 1.95348 71.9303 0.735985 70.4247 0.73966L70.4114 0.73966L61.6451 0.78425L61.6451-9.64943L61.6451-9.64943C66.1716-10.2613 70.3724-12.341 73.6033-15.5697ZM47.7449-41.4267L47.7449-41.4267C53.8207-47.5028 63.6718-47.5031 69.7479-41.4274C75.824-35.3516 75.8243-25.5005 69.7485-19.4244C63.6728-13.3483 53.8217-13.348 47.7456-19.4238C47.7454-19.424 47.7452-19.4242 47.7449-19.4244L47.7449-19.4244C41.6802-25.5048 41.6802-35.3464 47.7449-41.4267Z"/>
  </g>
  <g id="Regular-S" transform="matrix(1 0 0 1 1396.3 696)">
   <path class="monochrome-0 multicolor-0:tintColor hierarchical-0:primary SFSymbolsPreviewWireframe" d="M73.6033-14.5697L73.6033-14.5697C81.8623-22.7747 81.9061-36.1215 73.701-44.3805C65.496-52.6395 52.1493-52.6833 43.8902-44.4783C35.6312-36.2732 35.5875-22.9265 43.7925-14.6675C47.1277-11.3102 51.4957-9.17298 56.1931-8.59969L56.1931 1.81206L47.4002 1.85682L47.4002 1.85682C45.8947 1.8605 44.6772 3.08395 44.6809 4.58947C44.6845 6.095 45.908 7.3125 47.4135 7.30882L47.4268 7.30882L56.1931 7.26423L56.1931 15.8435L56.1931 15.8435C56.1931 17.349 57.4136 18.5695 58.9191 18.5695C60.4247 18.5695 61.6451 17.349 61.6451 15.8435L61.6451 7.23642L70.4381 7.19166L70.4381 7.19166C71.9436 7.18798 73.1611 5.96453 73.1574 4.45901C73.1537 2.95348 71.9303 1.73598 70.4247 1.73966L70.4114 1.73966L61.6451 1.78425L61.6451-8.64943L61.6451-8.64943C66.1716-9.26131 70.3724-11.341 73.6033-14.5697ZM47.7449-40.4267L47.7449-40.4267C53.8207-46.5028 63.6718-46.5031 69.7479-40.4274C75.824-34.3516 75.8243-24.5005 69.7485-18.4244C63.6728-12.3483 53.8217-12.348 47.7456-18.4238C47.7454-18.424 47.7452-18.4242 47.7449-18.4244L47.7449-18.4244C41.6802-24.5048 41.6802-34.3464 47.7449-40.4267Z"/>
  </g>
  <g id="Light-S" transform="matrix(1 0 0 1 1100.23 696)">
   <path class="monochrome-0 multicolor-0:tintColor hierarchical-0:primary SFSymbolsPreviewWireframe" d="M73.6033-14.5697L73.6033-14.5697C81.8623-22.7747 81.9061-36.1215 73.701-44.3805C65.496-52.6395 52.1493-52.6833 43.8902-44.4783C35.6312-36.2732 35.5875-22.9265 43.7925-14.6675C47.1277-11.3102 51.4957-9.17298 56.1931-8.59969L56.1931 1.81206L47.4002 1.85682L47.4002 1.85682C45.8947 1.8605 44.6772 3.08395 44.6809 4.58947C44.6845 6.095 45.908 7.3125 47.4135 7.30882L47.4268 7.30882L56.1931 7.26423L56.1931 15.8435L56.1931 15.8435C56.1931 17.349 57.4136 18.5695 58.9191 18.5695C60.4247 18.5695 61.6451 17.349 61.6451 15.8435L61.6451 7.23642L70.4381 7.19166L70.4381 7.19166C71.9436 7.18798 73.1611 5.96453 73.1574 4.45901C73.1537 2.95348 71.9303 1.73598 70.4247 1.73966L70.4114 1.73966L61.6451 1.78425L61.6451-8.64943L61.6451-8.64943C66.1716-9.26131 70.3724-11.341 73.6033-14.5697ZM47.7449-40.4267L47.7449-40.4267C53.8207-46.5028 63.6718-46.5031 69.7479-40.4274C75.824-34.3516 75.8243-24.5005 69.7485-18.4244C63.6728-12.3483 53.8217-12.348 47.7456-18.4238C47.7454-18.424 47.7452-18.4242 47.7449-18.4244L47.7449-18.4244C41.6802-24.5048 41.6802-34.3464 47.7449-40.4267Z"/>
  </g>
  <g id="Thin-S" transform="matrix(1 0 0 1 804.371 696)">
   <path class="monochrome-0 multicolor-0:tintColor hierarchical-0:primary SFSymbolsPreviewWireframe" d="M73.6033-13.5697L73.6033-13.5697C81.8623-21.7747 81.9061-35.1215 73.701-43.3805C65.496-51.6395 52.1493-51.6833 43.8902-43.4783C35.6312-35.2732 35.5875-21.9265 43.7925-13.6675C47.1277-10.3102 51.4957-8.17298 56.1931-7.59969L56.1931 2.81206L47.4002 2.85682L47.4002 2.85682C45.8947 2.8605 44.6772 4.08395 44.6809 5.58947C44.6845 7.095 45.908 8.3125 47.4135 8.30882L47.4268 8.30882L56.1931 8.26423L56.1931 16.8435L56.1931 16.8435C56.1931 18.349 57.4136 19.5695 58.9191 19.5695C60.4247 19.5695 61.6451 18.349 61.6451 16.8435L61.6451 8.23642L70.4381 8.19166L70.4381 8.19166C71.9436 8.18798 73.1611 6.96453 73.1574 5.45901C73.1537 3.95348 71.9303 2.73598 70.4248 2.73966L70.4114 2.73966L61.6451 2.78425L61.6451-7.64943L61.6451-7.64943C66.1716-8.26131 70.3724-10.341 73.6033-13.5697ZM47.7449-39.4267L47.7449-39.4267C53.8207-45.5028 63.6718-45.5031 69.7479-39.4274C75.824-33.3516 75.8243-23.5005 69.7485-17.4244C63.6728-11.3483 53.8217-11.348 47.7456-17.4238C47.7454-17.424 47.7452-17.4242 47.7449-17.4244L47.7449-17.4244C41.6802-23.5048 41.6802-33.3464 47.7449-39.4267Z"/>
  </g>
  <g id="Ultralight-S" transform="matrix(1 0 0 1 508.1 696)">
   <path class="monochrome-0 multicolor-0:tintColor hierarchical-0:primary SFSymbolsPreviewWireframe" d="M73.6033-12.5697L73.6033-12.5697C81.8623-20.7747 81.9061-34.1215 73.701-42.3805C65.496-50.6395 52.1493-50.6833 43.8902-42.4783C35.6312-34.2732 35.5875-20.9265 43.7925-12.6675C47.1277-9.31024 51.4957-7.17298 56.1931-6.59969L56.1931 3.81206L47.4002 3.85682L47.4002 3.85682C45.8947 3.8605 44.6772 5.08395 44.6809 6.58947C44.6845 8.095 45.908 9.3125 47.4135 9.30882L47.4268 9.30882L56.1931 9.26423L56.1931 17.8435L56.1931 17.8435C56.1931 19.349 57.4136 20.5695 58.9191 20.5695C60.4247 20.5695 61.6451 19.349 61.6451 17.8435L61.6451 9.23642L70.4381 9.19166L70.4381 9.19166C71.9436 9.18798 73.1611 7.96453 73.1574 6.45901C73.1537 4.95348 71.9303 3.73598 70.4248 3.73966L70.4114 3.73966L61.6451 3.78425L61.6451-6.64943L61.6451-6.64943C66.1716-7.26131 70.3724-9.34104 73.6033-12.5697ZM47.7449-38.4267L47.7449-38.4267C53.8207-44.5028 63.6718-44.5031 69.7479-38.4274C75.824-32.3516 75.8243-22.5005 69.7485-16.4244C63.6728-10.3483 53.8217-10.348 47.7456-16.4238C47.7454-16.424 47.7452-16.4242 47.7449-16.4244L47.7449-16.4244C41.6802-22.5048 41.6802-32.3464 47.7449-38.4267Z"/>
  </g>
 </g>
</svg>
