<?xml version="1.0" encoding="UTF-8"?>
<!--Generator: Apple Native CoreSVG 232.5-->
<!DOCTYPE svg
PUBLIC "-//W3C//DTD SVG 1.1//EN"
       "http://www.w3.org/Graphics/SVG/1.1/DTD/svg11.dtd">
<svg version="1.1" xmlns="http://www.w3.org/2000/svg" xmlns:xlink="http://www.w3.org/1999/xlink" width="3300" height="2200">
 <!--glyph: "", point size: 100.0, font version: "19.0d7e1", template writer version: "128"-->
 <style>.monochrome-0 {-sfsymbols-motion-group:0}

.multicolor-0:tintColor {-sfsymbols-motion-group:0}

.hierarchical-0:primary {-sfsymbols-motion-group:0}

.SFSymbolsPreviewWireframe {fill:none;opacity:1.0;stroke:black;stroke-width:0.5}
</style>
 <g id="Notes">
  <rect height="2200" id="artboard" style="fill:white;opacity:1" width="3300" x="0" y="0"/>
  <line style="fill:none;stroke:black;opacity:1;stroke-width:0.5;" x1="263" x2="3036" y1="292" y2="292"/>
  <text style="stroke:none;fill:black;font-family:sans-serif;font-size:13;font-weight:bold;" transform="matrix(1 0 0 1 263 322)">Weight/Scale Variations</text>
  <text style="stroke:none;fill:black;font-family:sans-serif;font-size:13;text-anchor:middle;" transform="matrix(1 0 0 1 559.711 322)">Ultralight</text>
  <text style="stroke:none;fill:black;font-family:sans-serif;font-size:13;text-anchor:middle;" transform="matrix(1 0 0 1 856.422 322)">Thin</text>
  <text style="stroke:none;fill:black;font-family:sans-serif;font-size:13;text-anchor:middle;" transform="matrix(1 0 0 1 1153.13 322)">Light</text>
  <text style="stroke:none;fill:black;font-family:sans-serif;font-size:13;text-anchor:middle;" transform="matrix(1 0 0 1 1449.84 322)">Regular</text>
  <text style="stroke:none;fill:black;font-family:sans-serif;font-size:13;text-anchor:middle;" transform="matrix(1 0 0 1 1746.56 322)">Medium</text>
  <text style="stroke:none;fill:black;font-family:sans-serif;font-size:13;text-anchor:middle;" transform="matrix(1 0 0 1 2043.27 322)">Semibold</text>
  <text style="stroke:none;fill:black;font-family:sans-serif;font-size:13;text-anchor:middle;" transform="matrix(1 0 0 1 2339.98 322)">Bold</text>
  <text style="stroke:none;fill:black;font-family:sans-serif;font-size:13;text-anchor:middle;" transform="matrix(1 0 0 1 2636.69 322)">Heavy</text>
  <text style="stroke:none;fill:black;font-family:sans-serif;font-size:13;text-anchor:middle;" transform="matrix(1 0 0 1 2933.4 322)">Black</text>
  <line style="fill:none;stroke:black;opacity:1;stroke-width:0.5;" x1="263" x2="3036" y1="1903" y2="1903"/>
  <g transform="matrix(0.2 0 0 0.2 263 1933)">
   <path d="m46.2402 4.15039c21.5332 0 39.4531-17.8711 39.4531-39.4043s-17.9688-39.4043-39.502-39.4043c-21.4844 0-39.3555 17.8711-39.3555 39.4043s17.9199 39.4043 39.4043 39.4043Zm0-7.42188c-17.7246 0-31.8848-14.209-31.8848-31.9824s14.1113-31.9824 31.8359-31.9824c17.7734 0 32.0312 14.209 32.0312 31.9824s-14.209 31.9824-31.9824 31.9824Zm-17.9688-31.9824c0 2.14844 1.51367 3.61328 3.75977 3.61328h10.498v10.5957c0 2.19727 1.46484 3.71094 3.61328 3.71094 2.24609 0 3.71094-1.51367 3.71094-3.71094v-10.5957h10.5957c2.19727 0 3.71094-1.46484 3.71094-3.61328 0-2.19727-1.51367-3.71094-3.71094-3.71094h-10.5957v-10.5469c0-2.24609-1.46484-3.75977-3.71094-3.75977-2.14844 0-3.61328 1.51367-3.61328 3.75977v10.5469h-10.498c-2.24609 0-3.75977 1.51367-3.75977 3.71094Z"/>
  </g>
  <g transform="matrix(0.2 0 0 0.2 281.506 1933)">
   <path d="m58.5449 14.5508c27.2461 0 49.8047-22.6074 49.8047-49.8047 0-27.2461-22.6074-49.8047-49.8535-49.8047-27.1973 0-49.7559 22.5586-49.7559 49.8047 0 27.1973 22.6074 49.8047 49.8047 49.8047Zm0-8.30078c-23.0469 0-41.4551-18.457-41.4551-41.5039s18.3594-41.5039 41.4062-41.5039 41.5527 18.457 41.5527 41.5039-18.457 41.5039-41.5039 41.5039Zm-22.6562-41.5039c0 2.39258 1.66016 4.00391 4.15039 4.00391h14.3555v14.4043c0 2.44141 1.66016 4.15039 4.05273 4.15039 2.44141 0 4.15039-1.66016 4.15039-4.15039v-14.4043h14.4043c2.44141 0 4.15039-1.61133 4.15039-4.00391 0-2.44141-1.70898-4.15039-4.15039-4.15039h-14.4043v-14.3555c0-2.49023-1.70898-4.19922-4.15039-4.19922-2.39258 0-4.05273 1.70898-4.05273 4.19922v14.3555h-14.3555c-2.49023 0-4.15039 1.70898-4.15039 4.15039Z"/>
  </g>
  <g transform="matrix(0.2 0 0 0.2 304.924 1933)">
   <path d="m74.8535 28.3203c34.8145 0 63.623-28.8086 63.623-63.5742 0-34.8145-28.8574-63.623-63.6719-63.623-34.7656 0-63.5254 28.8086-63.5254 63.623 0 34.7656 28.8086 63.5742 63.5742 63.5742Zm0-9.08203c-30.1758 0-54.4434-24.3164-54.4434-54.4922 0-30.2246 24.2188-54.4922 54.3945-54.4922 30.2246 0 54.541 24.2676 54.541 54.4922 0 30.1758-24.2676 54.4922-54.4922 54.4922Zm-28.8574-54.4922c0 2.58789 1.85547 4.39453 4.58984 4.39453h19.7266v19.7754c0 2.68555 1.85547 4.58984 4.44336 4.58984 2.68555 0 4.54102-1.85547 4.54102-4.58984v-19.7754h19.7754c2.68555 0 4.58984-1.80664 4.58984-4.39453 0-2.73438-1.85547-4.58984-4.58984-4.58984h-19.7754v-19.7266c0-2.73438-1.85547-4.63867-4.54102-4.63867-2.58789 0-4.44336 1.9043-4.44336 4.63867v19.7266h-19.7266c-2.73438 0-4.58984 1.85547-4.58984 4.58984Z"/>
  </g>
  <text style="stroke:none;fill:black;font-family:sans-serif;font-size:13;font-weight:bold;" transform="matrix(1 0 0 1 263 1953)">Design Variations</text>
  <text style="stroke:none;fill:black;font-family:sans-serif;font-size:13;" transform="matrix(1 0 0 1 263 1971)">Symbols are supported in up to nine weights and three scales.</text>
  <text style="stroke:none;fill:black;font-family:sans-serif;font-size:13;" transform="matrix(1 0 0 1 263 1989)">For optimal layout with text and other symbols, vertically align</text>
  <text style="stroke:none;fill:black;font-family:sans-serif;font-size:13;" transform="matrix(1 0 0 1 263 2007)">symbols with the adjacent text.</text>
  <line style="fill:none;stroke:#00AEEF;stroke-width:0.5;opacity:1.0;" x1="776" x2="776" y1="1919" y2="1933"/>
  <g transform="matrix(0.2 0 0 0.2 776 1933)">
   <path d="m16.5527 0.78125c2.58789 0 3.85742-0.976562 4.78516-3.71094l6.29883-17.2363h28.8086l6.29883 17.2363c0.927734 2.73438 2.19727 3.71094 4.73633 3.71094 2.58789 0 4.24805-1.5625 4.24805-4.00391 0-0.830078-0.146484-1.61133-0.537109-2.63672l-22.9004-60.9863c-1.12305-2.97852-3.125-4.49219-6.25-4.49219-3.02734 0-5.07812 1.46484-6.15234 4.44336l-22.9004 61.084c-0.390625 1.02539-0.537109 1.80664-0.537109 2.63672 0 2.44141 1.5625 3.95508 4.10156 3.95508Zm13.4766-28.3691 11.8652-32.8613h0.244141l11.8652 32.8613Z"/>
  </g>
  <line style="fill:none;stroke:#00AEEF;stroke-width:0.5;opacity:1.0;" x1="792.836" x2="792.836" y1="1919" y2="1933"/>
  <text style="stroke:none;fill:black;font-family:sans-serif;font-size:13;font-weight:bold;" transform="matrix(1 0 0 1 776 1953)">Margins</text>
  <text style="stroke:none;fill:black;font-family:sans-serif;font-size:13;" transform="matrix(1 0 0 1 776 1971)">Leading and trailing margins on the left and right side of each symbol</text>
  <text style="stroke:none;fill:black;font-family:sans-serif;font-size:13;" transform="matrix(1 0 0 1 776 1989)">can be adjusted by modifying the x-location of the margin guidelines.</text>
  <text style="stroke:none;fill:black;font-family:sans-serif;font-size:13;" transform="matrix(1 0 0 1 776 2007)">Modifications are automatically applied proportionally to all</text>
  <text style="stroke:none;fill:black;font-family:sans-serif;font-size:13;" transform="matrix(1 0 0 1 776 2025)">scales and weights.</text>
  <g transform="matrix(0.2 0 0 0.2 1289 1933)">
   <path d="m14.209 9.32617 8.49609 8.54492c4.29688 4.3457 9.22852 4.05273 13.8672-1.07422l53.4668-58.9355-4.83398-4.88281-53.0762 58.3984c-1.75781 2.00195-3.41797 2.49023-5.76172 0.146484l-5.85938-5.81055c-2.34375-2.29492-1.80664-4.00391 0.195312-5.81055l57.373-54.0039-4.88281-4.83398-57.959 54.4434c-4.93164 4.58984-5.32227 9.47266-1.02539 13.8184Zm32.0801-90.9668c-2.09961 2.05078-2.24609 4.93164-1.07422 6.88477 1.17188 1.80664 3.4668 2.97852 6.68945 2.14844 7.32422-1.70898 14.9414-2.00195 22.0703 2.68555l-2.92969 7.27539c-1.70898 4.15039-0.830078 7.08008 1.85547 9.81445l11.4746 11.5723c2.44141 2.44141 4.49219 2.53906 7.32422 2.05078l5.32227-0.976562 3.32031 3.36914-0.195312 2.7832c-0.195312 2.49023 0.439453 4.39453 2.88086 6.78711l3.80859 3.71094c2.39258 2.39258 5.46875 2.53906 7.8125 0.195312l14.5508-14.5996c2.34375-2.34375 2.24609-5.32227-0.146484-7.71484l-3.85742-3.80859c-2.39258-2.39258-4.24805-3.17383-6.64062-2.97852l-2.88086 0.244141-3.22266-3.17383 1.2207-5.61523c0.634766-2.83203-0.146484-5.0293-3.07617-7.95898l-10.9863-10.9375c-16.6992-16.6016-38.8672-16.2109-53.3203-1.75781Zm7.4707 1.85547c12.1582-8.88672 28.6133-7.37305 39.7461 3.75977l12.1582 12.0605c1.17188 1.17188 1.36719 2.09961 1.02539 3.80859l-1.61133 7.42188 7.51953 7.42188 4.93164-0.292969c1.26953-0.0488281 1.66016 0.0488281 2.63672 1.02539l2.88086 2.88086-12.207 12.207-2.88086-2.88086c-0.976562-0.976562-1.12305-1.36719-1.07422-2.68555l0.341797-4.88281-7.4707-7.42188-7.61719 1.26953c-1.61133 0.341797-2.34375 0.195312-3.56445-0.976562l-10.0098-10.0098c-1.26953-1.17188-1.41602-2.00195-0.634766-3.85742l4.39453-10.4492c-7.8125-7.27539-17.9688-10.4004-28.125-7.42188-0.78125 0.195312-1.07422-0.439453-0.439453-0.976562Z"/>
  </g>
  <text style="stroke:none;fill:black;font-family:sans-serif;font-size:13;font-weight:bold;" transform="matrix(1 0 0 1 1289 1953)">Exporting</text>
  <text style="stroke:none;fill:black;font-family:sans-serif;font-size:13;" transform="matrix(1 0 0 1 1289 1971)">Symbols should be outlined when exporting to ensure the</text>
  <text style="stroke:none;fill:black;font-family:sans-serif;font-size:13;" transform="matrix(1 0 0 1 1289 1989)">design is preserved when submitting to Xcode.</text>
  <text id="template-version" style="stroke:none;fill:black;font-family:sans-serif;font-size:13;text-anchor:end;" transform="matrix(1 0 0 1 3036 1933)">Template v.5.0</text>
  <text style="stroke:none;fill:black;font-family:sans-serif;font-size:13;text-anchor:end;" transform="matrix(1 0 0 1 3036 1951)">Requires Xcode 15 or greater</text>
  <text id="descriptive-name" style="stroke:none;fill:black;font-family:sans-serif;font-size:13;text-anchor:end;" transform="matrix(1 0 0 1 3036 1969)">Generated from ruler.symbol</text>
  <text style="stroke:none;fill:black;font-family:sans-serif;font-size:13;text-anchor:end;" transform="matrix(1 0 0 1 3036 1987)">Typeset at 100.0 points</text>
  <text style="stroke:none;fill:black;font-family:sans-serif;font-size:13;" transform="matrix(1 0 0 1 263 726)">Small</text>
  <text style="stroke:none;fill:black;font-family:sans-serif;font-size:13;" transform="matrix(1 0 0 1 263 1156)">Medium</text>
  <text style="stroke:none;fill:black;font-family:sans-serif;font-size:13;" transform="matrix(1 0 0 1 263 1586)">Large</text>
 </g>
 <g id="Guides">
  <g id="H-reference" style="fill:#27AAE1;stroke:none;" transform="matrix(1 0 0 1 339 696)">
   <path d="M0.993654 0L3.63775 0L29.3281-67.1323L30.0303-67.1323L30.0303-70.459L28.1226-70.459ZM11.6885-24.4799L46.9815-24.4799L46.2315-26.7285L12.4385-26.7285ZM55.1196 0L57.7637 0L30.6382-70.459L29.4326-70.459L29.4326-67.1323Z"/>
  </g>
  <line id="Baseline-S" style="fill:none;stroke:#27AAE1;opacity:1;stroke-width:0.5;" x1="263" x2="3036" y1="696" y2="696"/>
  <line id="Capline-S" style="fill:none;stroke:#27AAE1;opacity:1;stroke-width:0.5;" x1="263" x2="3036" y1="625.541" y2="625.541"/>
  <g id="H-reference" style="fill:#27AAE1;stroke:none;" transform="matrix(1 0 0 1 339 1126)">
   <path d="M0.993654 0L3.63775 0L29.3281-67.1323L30.0303-67.1323L30.0303-70.459L28.1226-70.459ZM11.6885-24.4799L46.9815-24.4799L46.2315-26.7285L12.4385-26.7285ZM55.1196 0L57.7637 0L30.6382-70.459L29.4326-70.459L29.4326-67.1323Z"/>
  </g>
  <line id="Baseline-M" style="fill:none;stroke:#27AAE1;opacity:1;stroke-width:0.5;" x1="263" x2="3036" y1="1126" y2="1126"/>
  <line id="Capline-M" style="fill:none;stroke:#27AAE1;opacity:1;stroke-width:0.5;" x1="263" x2="3036" y1="1055.54" y2="1055.54"/>
  <g id="H-reference" style="fill:#27AAE1;stroke:none;" transform="matrix(1 0 0 1 339 1556)">
   <path d="M0.993654 0L3.63775 0L29.3281-67.1323L30.0303-67.1323L30.0303-70.459L28.1226-70.459ZM11.6885-24.4799L46.9815-24.4799L46.2315-26.7285L12.4385-26.7285ZM55.1196 0L57.7637 0L30.6382-70.459L29.4326-70.459L29.4326-67.1323Z"/>
  </g>
  <line id="Baseline-L" style="fill:none;stroke:#27AAE1;opacity:1;stroke-width:0.5;" x1="263" x2="3036" y1="1556" y2="1556"/>
  <line id="Capline-L" style="fill:none;stroke:#27AAE1;opacity:1;stroke-width:0.5;" x1="263" x2="3036" y1="1485.54" y2="1485.54"/>
  <line id="left-margin-Ultralight-S" style="fill:none;stroke:#00AEEF;stroke-width:0.5;opacity:1.0;" x1="508.1" x2="508.1" y1="600.785" y2="720.121"/>
  <line id="right-margin-Ultralight-S" style="fill:none;stroke:#FF3B30;stroke-width:0.5;opacity:1.0;" x1="611.322" x2="611.322" y1="600.785" y2="720.121"/>
  <line id="left-margin-Thin-S" style="fill:none;stroke:#00AEEF;stroke-width:0.5;opacity:1.0;" x1="804.371" x2="804.371" y1="600.785" y2="720.121"/>
  <line id="right-margin-Thin-S" style="fill:none;stroke:#FF3B30;stroke-width:0.5;opacity:1.0;" x1="908.473" x2="908.473" y1="600.785" y2="720.121"/>
  <line id="left-margin-Light-S" style="fill:none;stroke:#00AEEF;stroke-width:0.5;opacity:1.0;" x1="1100.23" x2="1100.23" y1="600.785" y2="720.121"/>
  <line id="right-margin-Light-S" style="fill:none;stroke:#FF3B30;stroke-width:0.5;opacity:1.0;" x1="1206.04" x2="1206.04" y1="600.785" y2="720.121"/>
  <line id="left-margin-Regular-S" style="fill:none;stroke:#00AEEF;stroke-width:0.5;opacity:1.0;" x1="1396.3" x2="1396.3" y1="600.785" y2="720.121"/>
  <line id="right-margin-Regular-S" style="fill:none;stroke:#00AEEF;stroke-width:0.5;opacity:1.0;" x1="1503.38" x2="1503.38" y1="600.785" y2="720.121"/>
  <line id="left-margin-Medium-S" style="fill:none;stroke:#00AEEF;stroke-width:0.5;opacity:1.0;" x1="1692.65" x2="1692.65" y1="600.785" y2="720.121"/>
  <line id="right-margin-Medium-S" style="fill:none;stroke:#00AEEF;stroke-width:0.5;opacity:1.0;" x1="1800.46" x2="1800.46" y1="600.785" y2="720.121"/>
  <line id="left-margin-Semibold-S" style="fill:none;stroke:#00AEEF;stroke-width:0.5;opacity:1.0;" x1="1989.09" x2="1989.09" y1="600.785" y2="720.121"/>
  <line id="right-margin-Semibold-S" style="fill:none;stroke:#00AEEF;stroke-width:0.5;opacity:1.0;" x1="2097.44" x2="2097.44" y1="600.785" y2="720.121"/>
  <line id="left-margin-Bold-S" style="fill:none;stroke:#00AEEF;stroke-width:0.5;opacity:1.0;" x1="2285.41" x2="2285.41" y1="600.785" y2="720.121"/>
  <line id="right-margin-Bold-S" style="fill:none;stroke:#00AEEF;stroke-width:0.5;opacity:1.0;" x1="2394.54" x2="2394.54" y1="600.785" y2="720.121"/>
  <line id="left-margin-Heavy-S" style="fill:none;stroke:#00AEEF;stroke-width:0.5;opacity:1.0;" x1="2581.61" x2="2581.61" y1="600.785" y2="720.121"/>
  <line id="right-margin-Heavy-S" style="fill:none;stroke:#00AEEF;stroke-width:0.5;opacity:1.0;" x1="2691.77" x2="2691.77" y1="600.785" y2="720.121"/>
  <line id="left-margin-Black-S" style="fill:none;stroke:#00AEEF;stroke-width:0.5;opacity:1.0;" x1="2877.83" x2="2877.83" y1="600.785" y2="720.121"/>
  <line id="right-margin-Black-S" style="fill:none;stroke:#00AEEF;stroke-width:0.5;opacity:1.0;" x1="2988.97" x2="2988.97" y1="600.785" y2="720.121"/>
  <line id="left-margin-Ultralight-M" style="fill:none;stroke:#00AEEF;stroke-width:0.5;opacity:1.0;" x1="494.013" x2="494.013" y1="1030.79" y2="1150.12"/>
  <line id="right-margin-Ultralight-M" style="fill:none;stroke:#00AEEF;stroke-width:0.5;opacity:1.0;" x1="625.409" x2="625.409" y1="1030.79" y2="1150.12"/>
  <line id="left-margin-Thin-M" style="fill:none;stroke:#00AEEF;stroke-width:0.5;opacity:1.0;" x1="790.236" x2="790.236" y1="1030.79" y2="1150.12"/>
  <line id="right-margin-Thin-M" style="fill:none;stroke:#00AEEF;stroke-width:0.5;opacity:1.0;" x1="922.609" x2="922.609" y1="1030.79" y2="1150.12"/>
  <line id="left-margin-Light-M" style="fill:none;stroke:#00AEEF;stroke-width:0.5;opacity:1.0;" x1="1085.97" x2="1085.97" y1="1030.79" y2="1150.12"/>
  <line id="right-margin-Light-M" style="fill:none;stroke:#00AEEF;stroke-width:0.5;opacity:1.0;" x1="1220.3" x2="1220.3" y1="1030.79" y2="1150.12"/>
  <line id="left-margin-Regular-M" style="fill:none;stroke:#00AEEF;stroke-width:0.5;opacity:1.0;" x1="1381.95" x2="1381.95" y1="1030.79" y2="1150.12"/>
  <line id="right-margin-Regular-M" style="fill:none;stroke:#00AEEF;stroke-width:0.5;opacity:1.0;" x1="1517.74" x2="1517.74" y1="1030.79" y2="1150.12"/>
  <line id="left-margin-Medium-M" style="fill:none;stroke:#00AEEF;stroke-width:0.5;opacity:1.0;" x1="1678.15" x2="1678.15" y1="1030.79" y2="1150.12"/>
  <line id="right-margin-Medium-M" style="fill:none;stroke:#00AEEF;stroke-width:0.5;opacity:1.0;" x1="1814.96" x2="1814.96" y1="1030.79" y2="1150.12"/>
  <line id="left-margin-Semibold-M" style="fill:none;stroke:#00AEEF;stroke-width:0.5;opacity:1.0;" x1="1974.47" x2="1974.47" y1="1030.79" y2="1150.12"/>
  <line id="right-margin-Semibold-M" style="fill:none;stroke:#00AEEF;stroke-width:0.5;opacity:1.0;" x1="2112.07" x2="2112.07" y1="1030.79" y2="1150.12"/>
  <line id="left-margin-Bold-M" style="fill:none;stroke:#00AEEF;stroke-width:0.5;opacity:1.0;" x1="2270.67" x2="2270.67" y1="1030.79" y2="1150.12"/>
  <line id="right-margin-Bold-M" style="fill:none;stroke:#00AEEF;stroke-width:0.5;opacity:1.0;" x1="2409.29" x2="2409.29" y1="1030.79" y2="1150.12"/>
  <line id="left-margin-Heavy-M" style="fill:none;stroke:#00AEEF;stroke-width:0.5;opacity:1.0;" x1="2566.64" x2="2566.64" y1="1030.79" y2="1150.12"/>
  <line id="right-margin-Heavy-M" style="fill:none;stroke:#00AEEF;stroke-width:0.5;opacity:1.0;" x1="2706.73" x2="2706.73" y1="1030.79" y2="1150.12"/>
  <line id="left-margin-Black-M" style="fill:none;stroke:#00AEEF;stroke-width:0.5;opacity:1.0;" x1="2862.7" x2="2862.7" y1="1030.79" y2="1150.12"/>
  <line id="right-margin-Black-M" style="fill:none;stroke:#00AEEF;stroke-width:0.5;opacity:1.0;" x1="3004.1" x2="3004.1" y1="1030.79" y2="1150.12"/>
  <line id="left-margin-Ultralight-L" style="fill:none;stroke:#00AEEF;stroke-width:0.5;opacity:1.0;" x1="475.165" x2="475.165" y1="1460.79" y2="1580.12"/>
  <line id="right-margin-Ultralight-L" style="fill:none;stroke:#00AEEF;stroke-width:0.5;opacity:1.0;" x1="644.257" x2="644.257" y1="1460.79" y2="1580.12"/>
  <line id="left-margin-Thin-L" style="fill:none;stroke:#00AEEF;stroke-width:0.5;opacity:1.0;" x1="771.315" x2="771.315" y1="1460.79" y2="1580.12"/>
  <line id="right-margin-Thin-L" style="fill:none;stroke:#00AEEF;stroke-width:0.5;opacity:1.0;" x1="941.53" x2="941.53" y1="1460.79" y2="1580.12"/>
  <line id="left-margin-Light-L" style="fill:none;stroke:#00AEEF;stroke-width:0.5;opacity:1.0;" x1="1066.95" x2="1066.95" y1="1460.79" y2="1580.12"/>
  <line id="right-margin-Light-L" style="fill:none;stroke:#00AEEF;stroke-width:0.5;opacity:1.0;" x1="1239.31" x2="1239.31" y1="1460.79" y2="1580.12"/>
  <line id="left-margin-Regular-L" style="fill:none;stroke:#00AEEF;stroke-width:0.5;opacity:1.0;" x1="1362.86" x2="1362.86" y1="1460.79" y2="1580.12"/>
  <line id="right-margin-Regular-L" style="fill:none;stroke:#00AEEF;stroke-width:0.5;opacity:1.0;" x1="1536.83" x2="1536.83" y1="1460.79" y2="1580.12"/>
  <line id="left-margin-Medium-L" style="fill:none;stroke:#00AEEF;stroke-width:0.5;opacity:1.0;" x1="1658.91" x2="1658.91" y1="1460.79" y2="1580.12"/>
  <line id="right-margin-Medium-L" style="fill:none;stroke:#00AEEF;stroke-width:0.5;opacity:1.0;" x1="1834.2" x2="1834.2" y1="1460.79" y2="1580.12"/>
  <line id="left-margin-Semibold-L" style="fill:none;stroke:#00AEEF;stroke-width:0.5;opacity:1.0;" x1="1955.11" x2="1955.11" y1="1460.79" y2="1580.12"/>
  <line id="right-margin-Semibold-L" style="fill:none;stroke:#00AEEF;stroke-width:0.5;opacity:1.0;" x1="2131.43" x2="2131.43" y1="1460.79" y2="1580.12"/>
  <line id="left-margin-Bold-L" style="fill:none;stroke:#00AEEF;stroke-width:0.5;opacity:1.0;" x1="2251.16" x2="2251.16" y1="1460.79" y2="1580.12"/>
  <line id="right-margin-Bold-L" style="fill:none;stroke:#00AEEF;stroke-width:0.5;opacity:1.0;" x1="2428.8" x2="2428.8" y1="1460.79" y2="1580.12"/>
  <line id="left-margin-Heavy-L" style="fill:none;stroke:#00AEEF;stroke-width:0.5;opacity:1.0;" x1="2546.89" x2="2546.89" y1="1460.79" y2="1580.12"/>
  <line id="right-margin-Heavy-L" style="fill:none;stroke:#00AEEF;stroke-width:0.5;opacity:1.0;" x1="2726.48" x2="2726.48" y1="1460.79" y2="1580.12"/>
  <line id="left-margin-Black-L" style="fill:none;stroke:#00AEEF;stroke-width:0.5;opacity:1.0;" x1="2842.75" x2="2842.75" y1="1460.79" y2="1580.12"/>
  <line id="right-margin-Black-L" style="fill:none;stroke:#00AEEF;stroke-width:0.5;opacity:1.0;" x1="3024.05" x2="3024.05" y1="1460.79" y2="1580.12"/>
 </g>
 <g id="Symbols">
  <g id="Black-L" transform="matrix(1 0 0 1 2842.75 1556)">
   <path class="monochrome-0 multicolor-0:tintColor hierarchical-0:primary SFSymbolsPreviewWireframe" d="M111.7-72.2L89.2-94.7C86.8-97.1 82.8-97.1 80.3-94.7L78.7-93L92.4-79.3C94.2-77.5 94.2-74.5 92.4-72.7C91.5-71.8 90.3-71.3 89.1-71.3C87.9-71.3 86.7-71.8 85.8-72.7L72.1-86.4L66.2-80.5L73.2-73.5C75-71.7 75-68.7 73.2-66.9C72.3-66 71.1-65.5 69.9-65.5C68.7-65.5 67.5-66 66.6-66.9L59.6-73.9L53.7-68L67.4-54.3C69.2-52.5 69.2-49.5 67.4-47.7C66.5-46.8 65.3-46.3 64.1-46.3C62.9-46.3 61.7-46.8 60.8-47.7L47-61.3L41.1-55.4L48.1-48.4C49.9-46.6 49.9-43.6 48.1-41.8C47.2-40.9 46-40.4 44.8-40.4C43.6-40.4 42.4-40.9 41.5-41.8L34.5-48.8L28.6-42.9L42.3-29.2C44.1-27.4 44.1-24.4 42.3-22.6C41.4-21.7 40.2-21.2 39-21.2C37.8-21.2 36.6-21.7 35.7-22.6L22-36.3L20.4-34.6C18-32.2 18-28.2 20.4-25.7L42.9-3.2C45.3-0.8 49.3-0.8 51.8-3.2L111.8-63.2C114.1-65.8 114.1-69.8 111.7-72.2Z"/>
  </g>
  <g id="Heavy-L" transform="matrix(1 0 0 1 2546.89 1556)">
   <path class="monochrome-0 multicolor-0:tintColor hierarchical-0:primary SFSymbolsPreviewWireframe" d="M111.7-71.2L89.2-93.7C86.8-96.1 82.8-96.1 80.3-93.7L78.7-92L92.4-78.3C94.2-76.5 94.2-73.5 92.4-71.7C91.5-70.8 90.3-70.3 89.1-70.3C87.9-70.3 86.7-70.8 85.8-71.7L72.1-85.4L66.2-79.5L73.2-72.5C75-70.7 75-67.7 73.2-65.9C72.3-65 71.1-64.5 69.9-64.5C68.7-64.5 67.5-65 66.6-65.9L59.6-72.9L53.7-67L67.4-53.3C69.2-51.5 69.2-48.5 67.4-46.7C66.5-45.8 65.3-45.3 64.1-45.3C62.9-45.3 61.7-45.8 60.8-46.7L47-60.3L41.1-54.4L48.1-47.4C49.9-45.6 49.9-42.6 48.1-40.8C47.2-39.9 46-39.4 44.8-39.4C43.6-39.4 42.4-39.9 41.5-40.8L34.5-47.8L28.6-41.9L42.3-28.2C44.1-26.4 44.1-23.4 42.3-21.6C41.4-20.7 40.2-20.2 39-20.2C37.8-20.2 36.6-20.7 35.7-21.6L22-35.3L20.4-33.6C18-31.2 18-27.2 20.4-24.7L42.9-2.2C45.3 0.2 49.3 0.2 51.8-2.2L111.8-62.2C114.1-64.8 114.1-68.8 111.7-71.2Z"/>
  </g>
  <g id="Bold-L" transform="matrix(1 0 0 1 2251.16 1556)">
   <path class="monochrome-0 multicolor-0:tintColor hierarchical-0:primary SFSymbolsPreviewWireframe" d="M111.7-69.2L89.2-91.7C86.8-94.1 82.8-94.1 80.3-91.7L78.7-90L92.4-76.3C94.2-74.5 94.2-71.5 92.4-69.7C91.5-68.8 90.3-68.3 89.1-68.3C87.9-68.3 86.7-68.8 85.8-69.7L72.1-83.4L66.2-77.5L73.2-70.5C75-68.7 75-65.7 73.2-63.9C72.3-63 71.1-62.5 69.9-62.5C68.7-62.5 67.5-63 66.6-63.9L59.6-70.9L53.7-65L67.4-51.3C69.2-49.5 69.2-46.5 67.4-44.7C66.5-43.8 65.3-43.3 64.1-43.3C62.9-43.3 61.7-43.8 60.8-44.7L47-58.3L41.1-52.4L48.1-45.4C49.9-43.6 49.9-40.6 48.1-38.8C47.2-37.9 46-37.4 44.8-37.4C43.6-37.4 42.4-37.9 41.5-38.8L34.5-45.8L28.6-39.9L42.3-26.2C44.1-24.4 44.1-21.4 42.3-19.6C41.4-18.7 40.2-18.2 39-18.2C37.8-18.2 36.6-18.7 35.7-19.6L22-33.3L20.4-31.6C18-29.2 18-25.2 20.4-22.7L42.9-0.2C45.3 2.2 49.3 2.2 51.8-0.2L111.8-60.2C114.1-62.8 114.1-66.8 111.7-69.2Z"/>
  </g>
  <g id="Semibold-L" transform="matrix(1 0 0 1 1955.11 1556)">
   <path class="monochrome-0 multicolor-0:tintColor hierarchical-0:primary SFSymbolsPreviewWireframe" d="M111.7-68.2L89.2-90.7C86.8-93.1 82.8-93.1 80.3-90.7L78.7-89L92.4-75.3C94.2-73.5 94.2-70.5 92.4-68.7C91.5-67.8 90.3-67.3 89.1-67.3C87.9-67.3 86.7-67.8 85.8-68.7L72.1-82.4L66.2-76.5L73.2-69.5C75-67.7 75-64.7 73.2-62.9C72.3-62 71.1-61.5 69.9-61.5C68.7-61.5 67.5-62 66.6-62.9L59.6-69.9L53.7-64L67.4-50.3C69.2-48.5 69.2-45.5 67.4-43.7C66.5-42.8 65.3-42.3 64.1-42.3C62.9-42.3 61.7-42.8 60.8-43.7L47-57.3L41.1-51.4L48.1-44.4C49.9-42.6 49.9-39.6 48.1-37.8C47.2-36.9 46-36.4 44.8-36.4C43.6-36.4 42.4-36.9 41.5-37.8L34.5-44.8L28.6-38.9L42.3-25.2C44.1-23.4 44.1-20.4 42.3-18.6C41.4-17.7 40.2-17.2 39-17.2C37.8-17.2 36.6-17.7 35.7-18.6L22-32.3L20.4-30.6C18-28.2 18-24.2 20.4-21.7L42.9 0.8C45.3 3.2 49.3 3.2 51.8 0.8L111.8-59.2C114.1-61.8 114.1-65.8 111.7-68.2Z"/>
  </g>
  <g id="Medium-L" transform="matrix(1 0 0 1 1658.91 1556)">
   <path class="monochrome-0 multicolor-0:tintColor hierarchical-0:primary SFSymbolsPreviewWireframe" d="M111.7-67.2L89.2-89.7C86.8-92.1 82.8-92.1 80.3-89.7L78.7-88L92.4-74.3C94.2-72.5 94.2-69.5 92.4-67.7C91.5-66.8 90.3-66.3 89.1-66.3C87.9-66.3 86.7-66.8 85.8-67.7L72.1-81.4L66.2-75.5L73.2-68.5C75-66.7 75-63.7 73.2-61.9C72.3-61 71.1-60.5 69.9-60.5C68.7-60.5 67.5-61 66.6-61.9L59.6-68.9L53.7-63L67.4-49.3C69.2-47.5 69.2-44.5 67.4-42.7C66.5-41.8 65.3-41.3 64.1-41.3C62.9-41.3 61.7-41.8 60.8-42.7L47-56.3L41.1-50.4L48.1-43.4C49.9-41.6 49.9-38.6 48.1-36.8C47.2-35.9 46-35.4 44.8-35.4C43.6-35.4 42.4-35.9 41.5-36.8L34.5-43.8L28.6-37.9L42.3-24.2C44.1-22.4 44.1-19.4 42.3-17.6C41.4-16.7 40.2-16.2 39-16.2C37.8-16.2 36.6-16.7 35.7-17.6L22-31.3L20.4-29.6C18-27.2 18-23.2 20.4-20.7L42.9 1.8C45.3 4.2 49.3 4.2 51.8 1.8L111.8-58.2C114.1-60.8 114.1-64.8 111.7-67.2Z"/>
  </g>
  <g id="Regular-L" transform="matrix(1 0 0 1 1362.86 1556)">
   <path class="monochrome-0 multicolor-0:tintColor hierarchical-0:primary SFSymbolsPreviewWireframe" d="M111.7-66.2L89.2-88.7C86.8-91.1 82.8-91.1 80.3-88.7L78.7-87L92.4-73.3C94.2-71.5 94.2-68.5 92.4-66.7C91.5-65.8 90.3-65.3 89.1-65.3C87.9-65.3 86.7-65.8 85.8-66.7L72.1-80.4L66.2-74.5L73.2-67.5C75-65.7 75-62.7 73.2-60.9C72.3-60 71.1-59.5 69.9-59.5C68.7-59.5 67.5-60 66.6-60.9L59.6-67.9L53.7-62L67.4-48.3C69.2-46.5 69.2-43.5 67.4-41.7C66.5-40.8 65.3-40.3 64.1-40.3C62.9-40.3 61.7-40.8 60.8-41.7L47-55.3L41.1-49.4L48.1-42.4C49.9-40.6 49.9-37.6 48.1-35.8C47.2-34.9 46-34.4 44.8-34.4C43.6-34.4 42.4-34.9 41.5-35.8L34.5-42.8L28.6-36.9L42.3-23.2C44.1-21.4 44.1-18.4 42.3-16.6C41.4-15.7 40.2-15.2 39-15.2C37.8-15.2 36.6-15.7 35.7-16.6L22-30.3L20.4-28.6C18-26.2 18-22.2 20.4-19.7L42.9 2.8C45.3 5.2 49.3 5.2 51.8 2.8L111.8-57.2C114.1-59.8 114.1-63.8 111.7-66.2Z"/>
  </g>
  <g id="Light-L" transform="matrix(1 0 0 1 1066.95 1556)">
   <path class="monochrome-0 multicolor-0:tintColor hierarchical-0:primary SFSymbolsPreviewWireframe" d="M111.7-65.2L89.2-87.7C86.8-90.1 82.8-90.1 80.3-87.7L78.7-86L92.4-72.3C94.2-70.5 94.2-67.5 92.4-65.7C91.5-64.8 90.3-64.3 89.1-64.3C87.9-64.3 86.7-64.8 85.8-65.7L72.1-79.4L66.2-73.5L73.2-66.5C75-64.7 75-61.7 73.2-59.9C72.3-59 71.1-58.5 69.9-58.5C68.7-58.5 67.5-59 66.6-59.9L59.6-66.9L53.7-61L67.4-47.3C69.2-45.5 69.2-42.5 67.4-40.7C66.5-39.8 65.3-39.3 64.1-39.3C62.9-39.3 61.7-39.8 60.8-40.7L47-54.3L41.1-48.4L48.1-41.4C49.9-39.6 49.9-36.6 48.1-34.8C47.2-33.9 46-33.4 44.8-33.4C43.6-33.4 42.4-33.9 41.5-34.8L34.5-41.8L28.6-35.9L42.3-22.2C44.1-20.4 44.1-17.4 42.3-15.6C41.4-14.7 40.2-14.2 39-14.2C37.8-14.2 36.6-14.7 35.7-15.6L22-29.3L20.4-27.6C18-25.2 18-21.2 20.4-18.7L42.9 3.8C45.3 6.2 49.3 6.2 51.8 3.8L111.8-56.2C114.1-58.8 114.1-62.8 111.7-65.2Z"/>
  </g>
  <g id="Thin-L" transform="matrix(1 0 0 1 771.315 1556)">
   <path class="monochrome-0 multicolor-0:tintColor hierarchical-0:primary SFSymbolsPreviewWireframe" d="M111.7-64.2L89.2-86.7C86.8-89.1 82.8-89.1 80.3-86.7L78.7-85L92.4-71.3C94.2-69.5 94.2-66.5 92.4-64.7C91.5-63.8 90.3-63.3 89.1-63.3C87.9-63.3 86.7-63.8 85.8-64.7L72.1-78.4L66.2-72.5L73.2-65.5C75-63.7 75-60.7 73.2-58.9C72.3-58 71.1-57.5 69.9-57.5C68.7-57.5 67.5-58 66.6-58.9L59.6-65.9L53.7-60L67.4-46.3C69.2-44.5 69.2-41.5 67.4-39.7C66.5-38.8 65.3-38.3 64.1-38.3C62.9-38.3 61.7-38.8 60.8-39.7L47-53.3L41.1-47.4L48.1-40.4C49.9-38.6 49.9-35.6 48.1-33.8C47.2-32.9 46-32.4 44.8-32.4C43.6-32.4 42.4-32.9 41.5-33.8L34.5-40.8L28.6-34.9L42.3-21.2C44.1-19.4 44.1-16.4 42.3-14.6C41.4-13.7 40.2-13.2 39-13.2C37.8-13.2 36.6-13.7 35.7-14.6L22-28.3L20.4-26.6C18-24.2 18-20.2 20.4-17.7L42.9 4.8C45.3 7.2 49.3 7.2 51.8 4.8L111.8-55.2C114.1-57.8 114.1-61.8 111.7-64.2Z"/>
  </g>
  <g id="Ultralight-L" transform="matrix(1 0 0 1 475.165 1556)">
   <path class="monochrome-0 multicolor-0:tintColor hierarchical-0:primary SFSymbolsPreviewWireframe" d="M111.7-63.2L89.2-85.7C86.8-88.1 82.8-88.1 80.3-85.7L78.7-84L92.4-70.3C94.2-68.5 94.2-65.5 92.4-63.7C91.5-62.8 90.3-62.3 89.1-62.3C87.9-62.3 86.7-62.8 85.8-63.7L72.1-77.4L66.2-71.5L73.2-64.5C75-62.7 75-59.7 73.2-57.9C72.3-57 71.1-56.5 69.9-56.5C68.7-56.5 67.5-57 66.6-57.9L59.6-64.9L53.7-59L67.4-45.3C69.2-43.5 69.2-40.5 67.4-38.7C66.5-37.8 65.3-37.3 64.1-37.3C62.9-37.3 61.7-37.8 60.8-38.7L47-52.3L41.1-46.4L48.1-39.4C49.9-37.6 49.9-34.6 48.1-32.8C47.2-31.9 46-31.4 44.8-31.4C43.6-31.4 42.4-31.9 41.5-32.8L34.5-39.8L28.6-33.9L42.3-20.2C44.1-18.4 44.1-15.4 42.3-13.6C41.4-12.7 40.2-12.2 39-12.2C37.8-12.2 36.6-12.7 35.7-13.6L22-27.3L20.4-25.6C18-23.2 18-19.2 20.4-16.7L42.9 5.8C45.3 8.2 49.3 8.2 51.8 5.8L111.8-54.2C114.1-56.8 114.1-60.8 111.7-63.2Z"/>
  </g>
  <g id="Black-M" transform="matrix(1 0 0 1 2862.7 1126)">
   <path class="monochrome-0 multicolor-0:tintColor hierarchical-0:primary SFSymbolsPreviewWireframe" d="M107.7-59.2L85.2-81.7C82.8-84.1 78.8-84.1 76.3-81.7L74.7-80L88.4-66.3C90.2-64.5 90.2-61.5 88.4-59.7C87.5-58.8 86.3-58.3 85.1-58.3C83.9-58.3 82.7-58.8 81.8-59.7L68.1-73.4L62.2-67.5L69.2-60.5C71-58.7 71-55.7 69.2-53.9C68.3-53 67.1-52.5 65.9-52.5C64.7-52.5 63.5-53 62.6-53.9L55.6-60.9L49.7-55L63.4-41.3C65.2-39.5 65.2-36.5 63.4-34.7C62.5-33.8 61.3-33.3 60.1-33.3C58.9-33.3 57.7-33.8 56.8-34.7L43-48.3L37.1-42.4L44.1-35.4C45.9-33.6 45.9-30.6 44.1-28.8C43.2-27.9 42-27.4 40.8-27.4C39.6-27.4 38.4-27.9 37.5-28.8L30.5-35.8L24.6-29.9L38.3-16.2C40.1-14.4 40.1-11.4 38.3-9.6C37.4-8.7 36.2-8.2 35-8.2C33.8-8.2 32.6-8.7 31.7-9.6L18-23.3L16.4-21.6C14-19.2 14-15.2 16.4-12.7L38.9 9.8C41.3 12.2 45.3 12.2 47.8 9.8L107.8-50.2C110.1-52.8 110.1-56.8 107.7-59.2Z"/>
  </g>
  <g id="Heavy-M" transform="matrix(1 0 0 1 2566.64 1126)">
   <path class="monochrome-0 multicolor-0:tintColor hierarchical-0:primary SFSymbolsPreviewWireframe" d="M107.7-58.2L85.2-80.7C82.8-83.1 78.8-83.1 76.3-80.7L74.7-79L88.4-65.3C90.2-63.5 90.2-60.5 88.4-58.7C87.5-57.8 86.3-57.3 85.1-57.3C83.9-57.3 82.7-57.8 81.8-58.7L68.1-72.4L62.2-66.5L69.2-59.5C71-57.7 71-54.7 69.2-52.9C68.3-52 67.1-51.5 65.9-51.5C64.7-51.5 63.5-52 62.6-52.9L55.6-59.9L49.7-54L63.4-40.3C65.2-38.5 65.2-35.5 63.4-33.7C62.5-32.8 61.3-32.3 60.1-32.3C58.9-32.3 57.7-32.8 56.8-33.7L43-47.3L37.1-41.4L44.1-34.4C45.9-32.6 45.9-29.6 44.1-27.8C43.2-26.9 42-26.4 40.8-26.4C39.6-26.4 38.4-26.9 37.5-27.8L30.5-34.8L24.6-28.9L38.3-15.2C40.1-13.4 40.1-10.4 38.3-8.6C37.4-7.7 36.2-7.2 35-7.2C33.8-7.2 32.6-7.7 31.7-8.6L18-22.3L16.4-20.6C14-18.2 14-14.2 16.4-11.7L38.9 10.8C41.3 13.2 45.3 13.2 47.8 10.8L107.8-49.2C110.1-51.8 110.1-55.8 107.7-58.2Z"/>
  </g>
  <g id="Bold-M" transform="matrix(1 0 0 1 2270.67 1126)">
   <path class="monochrome-0 multicolor-0:tintColor hierarchical-0:primary SFSymbolsPreviewWireframe" d="M107.7-56.2L85.2-78.7C82.8-81.1 78.8-81.1 76.3-78.7L74.7-77L88.4-63.3C90.2-61.5 90.2-58.5 88.4-56.7C87.5-55.8 86.3-55.3 85.1-55.3C83.9-55.3 82.7-55.8 81.8-56.7L68.1-70.4L62.2-64.5L69.2-57.5C71-55.7 71-52.7 69.2-50.9C68.3-50 67.1-49.5 65.9-49.5C64.7-49.5 63.5-50 62.6-50.9L55.6-57.9L49.7-52L63.4-38.3C65.2-36.5 65.2-33.5 63.4-31.7C62.5-30.8 61.3-30.3 60.1-30.3C58.9-30.3 57.7-30.8 56.8-31.7L43-45.3L37.1-39.4L44.1-32.4C45.9-30.6 45.9-27.6 44.1-25.8C43.2-24.9 42-24.4 40.8-24.4C39.6-24.4 38.4-24.9 37.5-25.8L30.5-32.8L24.6-26.9L38.3-13.2C40.1-11.4 40.1-8.4 38.3-6.6C37.4-5.7 36.2-5.2 35-5.2C33.8-5.2 32.6-5.7 31.7-6.6L18-20.3L16.4-18.6C14-16.2 14-12.2 16.4-9.7L38.9 12.8C41.3 15.2 45.3 15.2 47.8 12.8L107.8-47.2C110.1-49.8 110.1-53.8 107.7-56.2Z"/>
  </g>
  <g id="Semibold-M" transform="matrix(1 0 0 1 1974.47 1126)">
   <path class="monochrome-0 multicolor-0:tintColor hierarchical-0:primary SFSymbolsPreviewWireframe" d="M107.7-55.2L85.2-77.7C82.8-80.1 78.8-80.1 76.3-77.7L74.7-76L88.4-62.3C90.2-60.5 90.2-57.5 88.4-55.7C87.5-54.8 86.3-54.3 85.1-54.3C83.9-54.3 82.7-54.8 81.8-55.7L68.1-69.4L62.2-63.5L69.2-56.5C71-54.7 71-51.7 69.2-49.9C68.3-49 67.1-48.5 65.9-48.5C64.7-48.5 63.5-49 62.6-49.9L55.6-56.9L49.7-51L63.4-37.3C65.2-35.5 65.2-32.5 63.4-30.7C62.5-29.8 61.3-29.3 60.1-29.3C58.9-29.3 57.7-29.8 56.8-30.7L43-44.3L37.1-38.4L44.1-31.4C45.9-29.6 45.9-26.6 44.1-24.8C43.2-23.9 42-23.4 40.8-23.4C39.6-23.4 38.4-23.9 37.5-24.8L30.5-31.8L24.6-25.9L38.3-12.2C40.1-10.4 40.1-7.4 38.3-5.6C37.4-4.7 36.2-4.2 35-4.2C33.8-4.2 32.6-4.7 31.7-5.6L18-19.3L16.4-17.6C14-15.2 14-11.2 16.4-8.7L38.9 13.8C41.3 16.2 45.3 16.2 47.8 13.8L107.8-46.2C110.1-48.8 110.1-52.8 107.7-55.2Z"/>
  </g>
  <g id="Medium-M" transform="matrix(1 0 0 1 1678.15 1126)">
   <path class="monochrome-0 multicolor-0:tintColor hierarchical-0:primary SFSymbolsPreviewWireframe" d="M107.7-55.2L85.2-77.7C82.8-80.1 78.8-80.1 76.3-77.7L74.7-76L88.4-62.3C90.2-60.5 90.2-57.5 88.4-55.7C87.5-54.8 86.3-54.3 85.1-54.3C83.9-54.3 82.7-54.8 81.8-55.7L68.1-69.4L62.2-63.5L69.2-56.5C71-54.7 71-51.7 69.2-49.9C68.3-49 67.1-48.5 65.9-48.5C64.7-48.5 63.5-49 62.6-49.9L55.6-56.9L49.7-51L63.4-37.3C65.2-35.5 65.2-32.5 63.4-30.7C62.5-29.8 61.3-29.3 60.1-29.3C58.9-29.3 57.7-29.8 56.8-30.7L43-44.3L37.1-38.4L44.1-31.4C45.9-29.6 45.9-26.6 44.1-24.8C43.2-23.9 42-23.4 40.8-23.4C39.6-23.4 38.4-23.9 37.5-24.8L30.5-31.8L24.6-25.9L38.3-12.2C40.1-10.4 40.1-7.4 38.3-5.6C37.4-4.7 36.2-4.2 35-4.2C33.8-4.2 32.6-4.7 31.7-5.6L18-19.3L16.4-17.6C14-15.2 14-11.2 16.4-8.7L38.9 13.8C41.3 16.2 45.3 16.2 47.8 13.8L107.8-46.2C110.1-48.8 110.1-52.8 107.7-55.2Z"/>
  </g>
  <g id="Regular-M" transform="matrix(1 0 0 1 1381.95 1126)">
   <path class="monochrome-0 multicolor-0:tintColor hierarchical-0:primary SFSymbolsPreviewWireframe" d="M107.7-54.2L85.2-76.7C82.8-79.1 78.8-79.1 76.3-76.7L74.7-75L88.4-61.3C90.2-59.5 90.2-56.5 88.4-54.7C87.5-53.8 86.3-53.3 85.1-53.3C83.9-53.3 82.7-53.8 81.8-54.7L68.1-68.4L62.2-62.5L69.2-55.5C71-53.7 71-50.7 69.2-48.9C68.3-48 67.1-47.5 65.9-47.5C64.7-47.5 63.5-48 62.6-48.9L55.6-55.9L49.7-50L63.4-36.3C65.2-34.5 65.2-31.5 63.4-29.7C62.5-28.8 61.3-28.3 60.1-28.3C58.9-28.3 57.7-28.8 56.8-29.7L43-43.3L37.1-37.4L44.1-30.4C45.9-28.6 45.9-25.6 44.1-23.8C43.2-22.9 42-22.4 40.8-22.4C39.6-22.4 38.4-22.9 37.5-23.8L30.5-30.8L24.6-24.9L38.3-11.2C40.1-9.4 40.1-6.4 38.3-4.6C37.4-3.7 36.2-3.2 35-3.2C33.8-3.2 32.6-3.7 31.7-4.6L18-18.3L16.4-16.6C14-14.2 14-10.2 16.4-7.7L38.9 14.8C41.3 17.2 45.3 17.2 47.8 14.8L107.8-45.2C110.1-47.8 110.1-51.8 107.7-54.2Z"/>
  </g>
  <g id="Light-M" transform="matrix(1 0 0 1 1085.97 1126)">
   <path class="monochrome-0 multicolor-0:tintColor hierarchical-0:primary SFSymbolsPreviewWireframe" d="M107.7-53.2L85.2-75.7C82.8-78.1 78.8-78.1 76.3-75.7L74.7-74L88.4-60.3C90.2-58.5 90.2-55.5 88.4-53.7C87.5-52.8 86.3-52.3 85.1-52.3C83.9-52.3 82.7-52.8 81.8-53.7L68.1-67.4L62.2-61.5L69.2-54.5C71-52.7 71-49.7 69.2-47.9C68.3-47 67.1-46.5 65.9-46.5C64.7-46.5 63.5-47 62.6-47.9L55.6-54.9L49.7-49L63.4-35.3C65.2-33.5 65.2-30.5 63.4-28.7C62.5-27.8 61.3-27.3 60.1-27.3C58.9-27.3 57.7-27.8 56.8-28.7L43-42.3L37.1-36.4L44.1-29.4C45.9-27.6 45.9-24.6 44.1-22.8C43.2-21.9 42-21.4 40.8-21.4C39.6-21.4 38.4-21.9 37.5-22.8L30.5-29.8L24.6-23.9L38.3-10.2C40.1-8.4 40.1-5.4 38.3-3.6C37.4-2.7 36.2-2.2 35-2.2C33.8-2.2 32.6-2.7 31.7-3.6L18-17.3L16.4-15.6C14-13.2 14-9.2 16.4-6.7L38.9 15.8C41.3 18.2 45.3 18.2 47.8 15.8L107.8-44.2C110.1-46.8 110.1-50.8 107.7-53.2Z"/>
  </g>
  <g id="Thin-M" transform="matrix(1 0 0 1 790.236 1126)">
   <path class="monochrome-0 multicolor-0:tintColor hierarchical-0:primary SFSymbolsPreviewWireframe" d="M107.7-52.2L85.2-74.7C82.8-77.1 78.8-77.1 76.3-74.7L74.7-73L88.4-59.3C90.2-57.5 90.2-54.5 88.4-52.7C87.5-51.8 86.3-51.3 85.1-51.3C83.9-51.3 82.7-51.8 81.8-52.7L68.1-66.4L62.2-60.5L69.2-53.5C71-51.7 71-48.7 69.2-46.9C68.3-46 67.1-45.5 65.9-45.5C64.7-45.5 63.5-46 62.6-46.9L55.6-53.9L49.7-48L63.4-34.3C65.2-32.5 65.2-29.5 63.4-27.7C62.5-26.8 61.3-26.3 60.1-26.3C58.9-26.3 57.7-26.8 56.8-27.7L43-41.3L37.1-35.4L44.1-28.4C45.9-26.6 45.9-23.6 44.1-21.8C43.2-20.9 42-20.4 40.8-20.4C39.6-20.4 38.4-20.9 37.5-21.8L30.5-28.8L24.6-22.9L38.3-9.2C40.1-7.4 40.1-4.4 38.3-2.6C37.4-1.7 36.2-1.2 35-1.2C33.8-1.2 32.6-1.7 31.7-2.6L18-16.3L16.4-14.6C14-12.2 14-8.2 16.4-5.7L38.9 16.8C41.3 19.2 45.3 19.2 47.8 16.8L107.8-43.2C110.1-45.8 110.1-49.8 107.7-52.2Z"/>
  </g>
  <g id="Ultralight-M" transform="matrix(1 0 0 1 494.013 1126)">
   <path class="monochrome-0 multicolor-0:tintColor hierarchical-0:primary SFSymbolsPreviewWireframe" d="M107.7-51.2L85.2-73.7C82.8-76.1 78.8-76.1 76.3-73.7L74.7-72L88.4-58.3C90.2-56.5 90.2-53.5 88.4-51.7C87.5-50.8 86.3-50.3 85.1-50.3C83.9-50.3 82.7-50.8 81.8-51.7L68.1-65.4L62.2-59.5L69.2-52.5C71-50.7 71-47.7 69.2-45.9C68.3-45 67.1-44.5 65.9-44.5C64.7-44.5 63.5-45 62.6-45.9L55.6-52.9L49.7-47L63.4-33.3C65.2-31.5 65.2-28.5 63.4-26.7C62.5-25.8 61.3-25.3 60.1-25.3C58.9-25.3 57.7-25.8 56.8-26.7L43-40.3L37.1-34.4L44.1-27.4C45.9-25.6 45.9-22.6 44.1-20.8C43.2-19.9 42-19.4 40.8-19.4C39.6-19.4 38.4-19.9 37.5-20.8L30.5-27.8L24.6-21.9L38.3-8.2C40.1-6.4 40.1-3.4 38.3-1.6C37.4-0.7 36.2-0.2 35-0.2C33.8-0.2 32.6-0.7 31.7-1.6L18-15.3L16.4-13.6C14-11.2 14-7.2 16.4-4.7L38.9 17.8C41.3 20.2 45.3 20.2 47.8 17.8L107.8-42.2C110.1-44.8 110.1-48.8 107.7-51.2Z"/>
  </g>
  <g id="Black-S" transform="matrix(1 0 0 1 2877.83 696)">
   <path class="monochrome-0 multicolor-0:tintColor hierarchical-0:primary SFSymbolsPreviewWireframe" d="M104.7-48.2L82.2-70.7C79.8-73.1 75.8-73.1 73.3-70.7L71.7-69L85.4-55.3C87.2-53.5 87.2-50.5 85.4-48.7C84.5-47.8 83.3-47.3 82.1-47.3C80.9-47.3 79.7-47.8 78.8-48.7L65.1-62.4L59.2-56.5L66.2-49.5C68-47.7 68-44.7 66.2-42.9C65.3-42 64.1-41.5 62.9-41.5C61.7-41.5 60.5-42 59.6-42.9L52.6-49.9L46.7-44L60.4-30.3C62.2-28.5 62.2-25.5 60.4-23.7C59.5-22.8 58.3-22.3 57.1-22.3C55.9-22.3 54.7-22.8 53.8-23.7L40-37.3L34.1-31.4L41.1-24.4C42.9-22.6 42.9-19.6 41.1-17.8C40.2-16.9 39-16.4 37.8-16.4C36.6-16.4 35.4-16.9 34.5-17.8L27.5-24.8L21.6-18.9L35.3-5.2C37.1-3.4 37.1-0.4 35.3 1.4C34.4 2.3 33.2 2.8 32 2.8C30.8 2.8 29.6 2.3 28.7 1.4L15-12.3L13.4-10.6C11-8.2 11-4.2 13.4-1.7L35.9 20.8C38.3 23.2 42.3 23.2 44.8 20.8L104.8-39.2C107.1-41.8 107.1-45.8 104.7-48.2Z"/>
  </g>
  <g id="Heavy-S" transform="matrix(1 0 0 1 2581.61 696)">
   <path class="monochrome-0 multicolor-0:tintColor hierarchical-0:primary SFSymbolsPreviewWireframe" d="M104.7-48.2L82.2-70.7C79.8-73.1 75.8-73.1 73.3-70.7L71.7-69L85.4-55.3C87.2-53.5 87.2-50.5 85.4-48.7C84.5-47.8 83.3-47.3 82.1-47.3C80.9-47.3 79.7-47.8 78.8-48.7L65.1-62.4L59.2-56.5L66.2-49.5C68-47.7 68-44.7 66.2-42.9C65.3-42 64.1-41.5 62.9-41.5C61.7-41.5 60.5-42 59.6-42.9L52.6-49.9L46.7-44L60.4-30.3C62.2-28.5 62.2-25.5 60.4-23.7C59.5-22.8 58.3-22.3 57.1-22.3C55.9-22.3 54.7-22.8 53.8-23.7L40-37.3L34.1-31.4L41.1-24.4C42.9-22.6 42.9-19.6 41.1-17.8C40.2-16.9 39-16.4 37.8-16.4C36.6-16.4 35.4-16.9 34.5-17.8L27.5-24.8L21.6-18.9L35.3-5.2C37.1-3.4 37.1-0.4 35.3 1.4C34.4 2.3 33.2 2.8 32 2.8C30.8 2.8 29.6 2.3 28.7 1.4L15-12.3L13.4-10.6C11-8.2 11-4.2 13.4-1.7L35.9 20.8C38.3 23.2 42.3 23.2 44.8 20.8L104.8-39.2C107.1-41.8 107.1-45.8 104.7-48.2Z"/>
  </g>
  <g id="Bold-S" transform="matrix(1 0 0 1 2285.41 696)">
   <path class="monochrome-0 multicolor-0:tintColor hierarchical-0:primary SFSymbolsPreviewWireframe" d="M104.7-46.2L82.2-68.7C79.8-71.1 75.8-71.1 73.3-68.7L71.7-67L85.4-53.3C87.2-51.5 87.2-48.5 85.4-46.7C84.5-45.8 83.3-45.3 82.1-45.3C80.9-45.3 79.7-45.8 78.8-46.7L65.1-60.4L59.2-54.5L66.2-47.5C68-45.7 68-42.7 66.2-40.9C65.3-40 64.1-39.5 62.9-39.5C61.7-39.5 60.5-40 59.6-40.9L52.6-47.9L46.7-42L60.4-28.3C62.2-26.5 62.2-23.5 60.4-21.7C59.5-20.8 58.3-20.3 57.1-20.3C55.9-20.3 54.7-20.8 53.8-21.7L40-35.3L34.1-29.4L41.1-22.4C42.9-20.6 42.9-17.6 41.1-15.8C40.2-14.9 39-14.4 37.8-14.4C36.6-14.4 35.4-14.9 34.5-15.8L27.5-22.8L21.6-16.9L35.3-3.2C37.1-1.4 37.1 1.6 35.3 3.4C34.4 4.3 33.2 4.8 32 4.8C30.8 4.8 29.6 4.3 28.7 3.4L15-10.3L13.4-8.6C11-6.2 11-2.2 13.4 0.3L35.9 22.8C38.3 25.2 42.3 25.2 44.8 22.8L104.8-37.2C107.1-39.8 107.1-43.8 104.7-46.2Z"/>
  </g>
  <g id="Semibold-S" transform="matrix(1 0 0 1 1989.09 696)">
   <path class="monochrome-0 multicolor-0:tintColor hierarchical-0:primary SFSymbolsPreviewWireframe" d="M104.7-46.2L82.2-68.7C79.8-71.1 75.8-71.1 73.3-68.7L71.7-67L85.4-53.3C87.2-51.5 87.2-48.5 85.4-46.7C84.5-45.8 83.3-45.3 82.1-45.3C80.9-45.3 79.7-45.8 78.8-46.7L65.1-60.4L59.2-54.5L66.2-47.5C68-45.7 68-42.7 66.2-40.9C65.3-40 64.1-39.5 62.9-39.5C61.7-39.5 60.5-40 59.6-40.9L52.6-47.9L46.7-42L60.4-28.3C62.2-26.5 62.2-23.5 60.4-21.7C59.5-20.8 58.3-20.3 57.1-20.3C55.9-20.3 54.7-20.8 53.8-21.7L40-35.3L34.1-29.4L41.1-22.4C42.9-20.6 42.9-17.6 41.1-15.8C40.2-14.9 39-14.4 37.8-14.4C36.6-14.4 35.4-14.9 34.5-15.8L27.5-22.8L21.6-16.9L35.3-3.2C37.1-1.4 37.1 1.6 35.3 3.4C34.4 4.3 33.2 4.8 32 4.8C30.8 4.8 29.6 4.3 28.7 3.4L15-10.3L13.4-8.6C11-6.2 11-2.2 13.4 0.3L35.9 22.8C38.3 25.2 42.3 25.2 44.8 22.8L104.8-37.2C107.1-39.8 107.1-43.8 104.7-46.2Z"/>
  </g>
  <g id="Medium-S" transform="matrix(1 0 0 1 1692.65 696)">
   <path class="monochrome-0 multicolor-0:tintColor hierarchical-0:primary SFSymbolsPreviewWireframe" d="M104.7-45.2L82.2-67.7C79.8-70.1 75.8-70.1 73.3-67.7L71.7-66L85.4-52.3C87.2-50.5 87.2-47.5 85.4-45.7C84.5-44.8 83.3-44.3 82.1-44.3C80.9-44.3 79.7-44.8 78.8-45.7L65.1-59.4L59.2-53.5L66.2-46.5C68-44.7 68-41.7 66.2-39.9C65.3-39 64.1-38.5 62.9-38.5C61.7-38.5 60.5-39 59.6-39.9L52.6-46.9L46.7-41L60.4-27.3C62.2-25.5 62.2-22.5 60.4-20.7C59.5-19.8 58.3-19.3 57.1-19.3C55.9-19.3 54.7-19.8 53.8-20.7L40-34.3L34.1-28.4L41.1-21.4C42.9-19.6 42.9-16.6 41.1-14.8C40.2-13.9 39-13.4 37.8-13.4C36.6-13.4 35.4-13.9 34.5-14.8L27.5-21.8L21.6-15.9L35.3-2.2C37.1-0.4 37.1 2.6 35.3 4.4C34.4 5.3 33.2 5.8 32 5.8C30.8 5.8 29.6 5.3 28.7 4.4L15-9.3L13.4-7.6C11-5.2 11-1.2 13.4 1.3L35.9 23.8C38.3 26.2 42.3 26.2 44.8 23.8L104.8-36.2C107.1-38.8 107.1-42.8 104.7-45.2Z"/>
  </g>
  <g id="Regular-S" transform="matrix(1 0 0 1 1396.3 696)">
   <path class="monochrome-0 multicolor-0:tintColor hierarchical-0:primary SFSymbolsPreviewWireframe" d="M104.7-44.2L82.2-66.7C79.8-69.1 75.8-69.1 73.3-66.7L71.7-65L85.4-51.3C87.2-49.5 87.2-46.5 85.4-44.7C84.5-43.8 83.3-43.3 82.1-43.3C80.9-43.3 79.7-43.8 78.8-44.7L65.1-58.4L59.2-52.5L66.2-45.5C68-43.7 68-40.7 66.2-38.9C65.3-38 64.1-37.5 62.9-37.5C61.7-37.5 60.5-38 59.6-38.9L52.6-45.9L46.7-40L60.4-26.3C62.2-24.5 62.2-21.5 60.4-19.7C59.5-18.8 58.3-18.3 57.1-18.3C55.9-18.3 54.7-18.8 53.8-19.7L40-33.3L34.1-27.4L41.1-20.4C42.9-18.6 42.9-15.6 41.1-13.8C40.2-12.9 39-12.4 37.8-12.4C36.6-12.4 35.4-12.9 34.5-13.8L27.5-20.8L21.6-14.9L35.3-1.2C37.1 0.6 37.1 3.6 35.3 5.4C34.4 6.3 33.2 6.8 32 6.8C30.8 6.8 29.6 6.3 28.7 5.4L15-8.3L13.4-6.6C11-4.2 11-0.2 13.4 2.3L35.9 24.8C38.3 27.2 42.3 27.2 44.8 24.8L104.8-35.2C107.1-37.8 107.1-41.8 104.7-44.2Z"/>
  </g>
  <g id="Light-S" transform="matrix(1 0 0 1 1100.23 696)">
   <path class="monochrome-0 multicolor-0:tintColor hierarchical-0:primary SFSymbolsPreviewWireframe" d="M104.7-44.2L82.2-66.7C79.8-69.1 75.8-69.1 73.3-66.7L71.7-65L85.4-51.3C87.2-49.5 87.2-46.5 85.4-44.7C84.5-43.8 83.3-43.3 82.1-43.3C80.9-43.3 79.7-43.8 78.8-44.7L65.1-58.4L59.2-52.5L66.2-45.5C68-43.7 68-40.7 66.2-38.9C65.3-38 64.1-37.5 62.9-37.5C61.7-37.5 60.5-38 59.6-38.9L52.6-45.9L46.7-40L60.4-26.3C62.2-24.5 62.2-21.5 60.4-19.7C59.5-18.8 58.3-18.3 57.1-18.3C55.9-18.3 54.7-18.8 53.8-19.7L40-33.3L34.1-27.4L41.1-20.4C42.9-18.6 42.9-15.6 41.1-13.8C40.2-12.9 39-12.4 37.8-12.4C36.6-12.4 35.4-12.9 34.5-13.8L27.5-20.8L21.6-14.9L35.3-1.2C37.1 0.6 37.1 3.6 35.3 5.4C34.4 6.3 33.2 6.8 32 6.8C30.8 6.8 29.6 6.3 28.7 5.4L15-8.3L13.4-6.6C11-4.2 11-0.2 13.4 2.3L35.9 24.8C38.3 27.2 42.3 27.2 44.8 24.8L104.8-35.2C107.1-37.8 107.1-41.8 104.7-44.2Z"/>
  </g>
  <g id="Thin-S" transform="matrix(1 0 0 1 804.371 696)">
   <path class="monochrome-0 multicolor-0:tintColor hierarchical-0:primary SFSymbolsPreviewWireframe" d="M104.7-43.2L82.2-65.7C79.8-68.1 75.8-68.1 73.3-65.7L71.7-64L85.4-50.3C87.2-48.5 87.2-45.5 85.4-43.7C84.5-42.8 83.3-42.3 82.1-42.3C80.9-42.3 79.7-42.8 78.8-43.7L65.1-57.4L59.2-51.5L66.2-44.5C68-42.7 68-39.7 66.2-37.9C65.3-37 64.1-36.5 62.9-36.5C61.7-36.5 60.5-37 59.6-37.9L52.6-44.9L46.7-39L60.4-25.3C62.2-23.5 62.2-20.5 60.4-18.7C59.5-17.8 58.3-17.3 57.1-17.3C55.9-17.3 54.7-17.8 53.8-18.7L40-32.3L34.1-26.4L41.1-19.4C42.9-17.6 42.9-14.6 41.1-12.8C40.2-11.9 39-11.4 37.8-11.4C36.6-11.4 35.4-11.9 34.5-12.8L27.5-19.8L21.6-13.9L35.3-0.2C37.1 1.6 37.1 4.6 35.3 6.4C34.4 7.3 33.2 7.8 32 7.8C30.8 7.8 29.6 7.3 28.7 6.4L15-7.3L13.4-5.6C11-3.2 11 0.8 13.4 3.3L35.9 25.8C38.3 28.2 42.3 28.2 44.8 25.8L104.8-34.2C107.1-36.8 107.1-40.8 104.7-43.2Z"/>
  </g>
  <g id="Ultralight-S" transform="matrix(1 0 0 1 508.1 696)">
   <path class="monochrome-0 multicolor-0:tintColor hierarchical-0:primary SFSymbolsPreviewWireframe" d="M104.7-42.2L82.2-64.7C79.8-67.1 75.8-67.1 73.3-64.7L71.7-63L85.4-49.3C87.2-47.5 87.2-44.5 85.4-42.7C84.5-41.8 83.3-41.3 82.1-41.3C80.9-41.3 79.7-41.8 78.8-42.7L65.1-56.4L59.2-50.5L66.2-43.5C68-41.7 68-38.7 66.2-36.9C65.3-36 64.1-35.5 62.9-35.5C61.7-35.5 60.5-36 59.6-36.9L52.6-43.9L46.7-38L60.4-24.3C62.2-22.5 62.2-19.5 60.4-17.7C59.5-16.8 58.3-16.3 57.1-16.3C55.9-16.3 54.7-16.8 53.8-17.7L40-31.3L34.1-25.4L41.1-18.4C42.9-16.6 42.9-13.6 41.1-11.8C40.2-10.9 39-10.4 37.8-10.4C36.6-10.4 35.4-10.9 34.5-11.8L27.5-18.8L21.6-12.9L35.3 0.8C37.1 2.6 37.1 5.6 35.3 7.4C34.4 8.3 33.2 8.8 32 8.8C30.8 8.8 29.6 8.3 28.7 7.4L15-6.3L13.4-4.6C11-2.2 11 1.8 13.4 4.3L35.9 26.8C38.3 29.2 42.3 29.2 44.8 26.8L104.8-33.2C107.1-35.8 107.1-39.8 104.7-42.2Z"/>
  </g>
 </g>
</svg>
