<?xml version="1.0" encoding="UTF-8"?>
<!--Generator: Apple Native CoreSVG 232.5-->
<!DOCTYPE svg
PUBLIC "-//W3C//DTD SVG 1.1//EN"
       "http://www.w3.org/Graphics/SVG/1.1/DTD/svg11.dtd">
<svg version="1.1" xmlns="http://www.w3.org/2000/svg" xmlns:xlink="http://www.w3.org/1999/xlink" width="3300" height="2200">
 <!--glyph: "", point size: 100.0, font version: "19.0d7e1", template writer version: "128"-->
 <style>.monochrome-0 {-sfsymbols-motion-group:0}

.multicolor-0:tintColor {-sfsymbols-motion-group:0}

.hierarchical-0:primary {-sfsymbols-motion-group:0}

.SFSymbolsPreviewWireframe {fill:none;opacity:1.0;stroke:black;stroke-width:0.5}
</style>
 <g id="Notes">
  <rect height="2200" id="artboard" style="fill:white;opacity:1" width="3300" x="0" y="0"/>
  <line style="fill:none;stroke:black;opacity:1;stroke-width:0.5;" x1="263" x2="3036" y1="292" y2="292"/>
  <text style="stroke:none;fill:black;font-family:sans-serif;font-size:13;font-weight:bold;" transform="matrix(1 0 0 1 263 322)">Weight/Scale Variations</text>
  <text style="stroke:none;fill:black;font-family:sans-serif;font-size:13;text-anchor:middle;" transform="matrix(1 0 0 1 559.711 322)">Ultralight</text>
  <text style="stroke:none;fill:black;font-family:sans-serif;font-size:13;text-anchor:middle;" transform="matrix(1 0 0 1 856.422 322)">Thin</text>
  <text style="stroke:none;fill:black;font-family:sans-serif;font-size:13;text-anchor:middle;" transform="matrix(1 0 0 1 1153.13 322)">Light</text>
  <text style="stroke:none;fill:black;font-family:sans-serif;font-size:13;text-anchor:middle;" transform="matrix(1 0 0 1 1449.84 322)">Regular</text>
  <text style="stroke:none;fill:black;font-family:sans-serif;font-size:13;text-anchor:middle;" transform="matrix(1 0 0 1 1746.56 322)">Medium</text>
  <text style="stroke:none;fill:black;font-family:sans-serif;font-size:13;text-anchor:middle;" transform="matrix(1 0 0 1 2043.27 322)">Semibold</text>
  <text style="stroke:none;fill:black;font-family:sans-serif;font-size:13;text-anchor:middle;" transform="matrix(1 0 0 1 2339.98 322)">Bold</text>
  <text style="stroke:none;fill:black;font-family:sans-serif;font-size:13;text-anchor:middle;" transform="matrix(1 0 0 1 2636.69 322)">Heavy</text>
  <text style="stroke:none;fill:black;font-family:sans-serif;font-size:13;text-anchor:middle;" transform="matrix(1 0 0 1 2933.4 322)">Black</text>
  <line style="fill:none;stroke:black;opacity:1;stroke-width:0.5;" x1="263" x2="3036" y1="1903" y2="1903"/>
  <g transform="matrix(0.2 0 0 0.2 263 1933)">
   <path d="m46.2402 4.15039c21.5332 0 39.4531-17.8711 39.4531-39.4043s-17.9688-39.4043-39.502-39.4043c-21.4844 0-39.3555 17.8711-39.3555 39.4043s17.9199 39.4043 39.4043 39.4043Zm0-7.42188c-17.7246 0-31.8848-14.209-31.8848-31.9824s14.1113-31.9824 31.8359-31.9824c17.7734 0 32.0312 14.209 32.0312 31.9824s-14.209 31.9824-31.9824 31.9824Zm-17.9688-31.9824c0 2.14844 1.51367 3.61328 3.75977 3.61328h10.498v10.5957c0 2.19727 1.46484 3.71094 3.61328 3.71094 2.24609 0 3.71094-1.51367 3.71094-3.71094v-10.5957h10.5957c2.19727 0 3.71094-1.46484 3.71094-3.61328 0-2.19727-1.51367-3.71094-3.71094-3.71094h-10.5957v-10.5469c0-2.24609-1.46484-3.75977-3.71094-3.75977-2.14844 0-3.61328 1.51367-3.61328 3.75977v10.5469h-10.498c-2.24609 0-3.75977 1.51367-3.75977 3.71094Z"/>
  </g>
  <g transform="matrix(0.2 0 0 0.2 281.506 1933)">
   <path d="m58.5449 14.5508c27.2461 0 49.8047-22.6074 49.8047-49.8047 0-27.2461-22.6074-49.8047-49.8535-49.8047-27.1973 0-49.7559 22.5586-49.7559 49.8047 0 27.1973 22.6074 49.8047 49.8047 49.8047Zm0-8.30078c-23.0469 0-41.4551-18.457-41.4551-41.5039s18.3594-41.5039 41.4062-41.5039 41.5527 18.457 41.5527 41.5039-18.457 41.5039-41.5039 41.5039Zm-22.6562-41.5039c0 2.39258 1.66016 4.00391 4.15039 4.00391h14.3555v14.4043c0 2.44141 1.66016 4.15039 4.05273 4.15039 2.44141 0 4.15039-1.66016 4.15039-4.15039v-14.4043h14.4043c2.44141 0 4.15039-1.61133 4.15039-4.00391 0-2.44141-1.70898-4.15039-4.15039-4.15039h-14.4043v-14.3555c0-2.49023-1.70898-4.19922-4.15039-4.19922-2.39258 0-4.05273 1.70898-4.05273 4.19922v14.3555h-14.3555c-2.49023 0-4.15039 1.70898-4.15039 4.15039Z"/>
  </g>
  <g transform="matrix(0.2 0 0 0.2 304.924 1933)">
   <path d="m74.8535 28.3203c34.8145 0 63.623-28.8086 63.623-63.5742 0-34.8145-28.8574-63.623-63.6719-63.623-34.7656 0-63.5254 28.8086-63.5254 63.623 0 34.7656 28.8086 63.5742 63.5742 63.5742Zm0-9.08203c-30.1758 0-54.4434-24.3164-54.4434-54.4922 0-30.2246 24.2188-54.4922 54.3945-54.4922 30.2246 0 54.541 24.2676 54.541 54.4922 0 30.1758-24.2676 54.4922-54.4922 54.4922Zm-28.8574-54.4922c0 2.58789 1.85547 4.39453 4.58984 4.39453h19.7266v19.7754c0 2.68555 1.85547 4.58984 4.44336 4.58984 2.68555 0 4.54102-1.85547 4.54102-4.58984v-19.7754h19.7754c2.68555 0 4.58984-1.80664 4.58984-4.39453 0-2.73438-1.85547-4.58984-4.58984-4.58984h-19.7754v-19.7266c0-2.73438-1.85547-4.63867-4.54102-4.63867-2.58789 0-4.44336 1.9043-4.44336 4.63867v19.7266h-19.7266c-2.73438 0-4.58984 1.85547-4.58984 4.58984Z"/>
  </g>
  <text style="stroke:none;fill:black;font-family:sans-serif;font-size:13;font-weight:bold;" transform="matrix(1 0 0 1 263 1953)">Design Variations</text>
  <text style="stroke:none;fill:black;font-family:sans-serif;font-size:13;" transform="matrix(1 0 0 1 263 1971)">Symbols are supported in up to nine weights and three scales.</text>
  <text style="stroke:none;fill:black;font-family:sans-serif;font-size:13;" transform="matrix(1 0 0 1 263 1989)">For optimal layout with text and other symbols, vertically align</text>
  <text style="stroke:none;fill:black;font-family:sans-serif;font-size:13;" transform="matrix(1 0 0 1 263 2007)">symbols with the adjacent text.</text>
  <line style="fill:none;stroke:#00AEEF;stroke-width:0.5;opacity:1.0;" x1="776" x2="776" y1="1919" y2="1933"/>
  <g transform="matrix(0.2 0 0 0.2 776 1933)">
   <path d="m16.5527 0.78125c2.58789 0 3.85742-0.976562 4.78516-3.71094l6.29883-17.2363h28.8086l6.29883 17.2363c0.927734 2.73438 2.19727 3.71094 4.73633 3.71094 2.58789 0 4.24805-1.5625 4.24805-4.00391 0-0.830078-0.146484-1.61133-0.537109-2.63672l-22.9004-60.9863c-1.12305-2.97852-3.125-4.49219-6.25-4.49219-3.02734 0-5.07812 1.46484-6.15234 4.44336l-22.9004 61.084c-0.390625 1.02539-0.537109 1.80664-0.537109 2.63672 0 2.44141 1.5625 3.95508 4.10156 3.95508Zm13.4766-28.3691 11.8652-32.8613h0.244141l11.8652 32.8613Z"/>
  </g>
  <line style="fill:none;stroke:#00AEEF;stroke-width:0.5;opacity:1.0;" x1="792.836" x2="792.836" y1="1919" y2="1933"/>
  <text style="stroke:none;fill:black;font-family:sans-serif;font-size:13;font-weight:bold;" transform="matrix(1 0 0 1 776 1953)">Margins</text>
  <text style="stroke:none;fill:black;font-family:sans-serif;font-size:13;" transform="matrix(1 0 0 1 776 1971)">Leading and trailing margins on the left and right side of each symbol</text>
  <text style="stroke:none;fill:black;font-family:sans-serif;font-size:13;" transform="matrix(1 0 0 1 776 1989)">can be adjusted by modifying the x-location of the margin guidelines.</text>
  <text style="stroke:none;fill:black;font-family:sans-serif;font-size:13;" transform="matrix(1 0 0 1 776 2007)">Modifications are automatically applied proportionally to all</text>
  <text style="stroke:none;fill:black;font-family:sans-serif;font-size:13;" transform="matrix(1 0 0 1 776 2025)">scales and weights.</text>
  <g transform="matrix(0.2 0 0 0.2 1289 1933)">
   <path d="m14.209 9.32617 8.49609 8.54492c4.29688 4.3457 9.22852 4.05273 13.8672-1.07422l53.4668-58.9355-4.83398-4.88281-53.0762 58.3984c-1.75781 2.00195-3.41797 2.49023-5.76172 0.146484l-5.85938-5.81055c-2.34375-2.29492-1.80664-4.00391 0.195312-5.81055l57.373-54.0039-4.88281-4.83398-57.959 54.4434c-4.93164 4.58984-5.32227 9.47266-1.02539 13.8184Zm32.0801-90.9668c-2.09961 2.05078-2.24609 4.93164-1.07422 6.88477 1.17188 1.80664 3.4668 2.97852 6.68945 2.14844 7.32422-1.70898 14.9414-2.00195 22.0703 2.68555l-2.92969 7.27539c-1.70898 4.15039-0.830078 7.08008 1.85547 9.81445l11.4746 11.5723c2.44141 2.44141 4.49219 2.53906 7.32422 2.05078l5.32227-0.976562 3.32031 3.36914-0.195312 2.7832c-0.195312 2.49023 0.439453 4.39453 2.88086 6.78711l3.80859 3.71094c2.39258 2.39258 5.46875 2.53906 7.8125 0.195312l14.5508-14.5996c2.34375-2.34375 2.24609-5.32227-0.146484-7.71484l-3.85742-3.80859c-2.39258-2.39258-4.24805-3.17383-6.64062-2.97852l-2.88086 0.244141-3.22266-3.17383 1.2207-5.61523c0.634766-2.83203-0.146484-5.0293-3.07617-7.95898l-10.9863-10.9375c-16.6992-16.6016-38.8672-16.2109-53.3203-1.75781Zm7.4707 1.85547c12.1582-8.88672 28.6133-7.37305 39.7461 3.75977l12.1582 12.0605c1.17188 1.17188 1.36719 2.09961 1.02539 3.80859l-1.61133 7.42188 7.51953 7.42188 4.93164-0.292969c1.26953-0.0488281 1.66016 0.0488281 2.63672 1.02539l2.88086 2.88086-12.207 12.207-2.88086-2.88086c-0.976562-0.976562-1.12305-1.36719-1.07422-2.68555l0.341797-4.88281-7.4707-7.42188-7.61719 1.26953c-1.61133 0.341797-2.34375 0.195312-3.56445-0.976562l-10.0098-10.0098c-1.26953-1.17188-1.41602-2.00195-0.634766-3.85742l4.39453-10.4492c-7.8125-7.27539-17.9688-10.4004-28.125-7.42188-0.78125 0.195312-1.07422-0.439453-0.439453-0.976562Z"/>
  </g>
  <text style="stroke:none;fill:black;font-family:sans-serif;font-size:13;font-weight:bold;" transform="matrix(1 0 0 1 1289 1953)">Exporting</text>
  <text style="stroke:none;fill:black;font-family:sans-serif;font-size:13;" transform="matrix(1 0 0 1 1289 1971)">Symbols should be outlined when exporting to ensure the</text>
  <text style="stroke:none;fill:black;font-family:sans-serif;font-size:13;" transform="matrix(1 0 0 1 1289 1989)">design is preserved when submitting to Xcode.</text>
  <text id="template-version" style="stroke:none;fill:black;font-family:sans-serif;font-size:13;text-anchor:end;" transform="matrix(1 0 0 1 3036 1933)">Template v.5.0</text>
  <text style="stroke:none;fill:black;font-family:sans-serif;font-size:13;text-anchor:end;" transform="matrix(1 0 0 1 3036 1951)">Requires Xcode 15 or greater</text>
  <text id="descriptive-name" style="stroke:none;fill:black;font-family:sans-serif;font-size:13;text-anchor:end;" transform="matrix(1 0 0 1 3036 1969)">Generated from diaper_symbol</text>
  <text style="stroke:none;fill:black;font-family:sans-serif;font-size:13;text-anchor:end;" transform="matrix(1 0 0 1 3036 1987)">Typeset at 100.0 points</text>
  <text style="stroke:none;fill:black;font-family:sans-serif;font-size:13;" transform="matrix(1 0 0 1 263 726)">Small</text>
  <text style="stroke:none;fill:black;font-family:sans-serif;font-size:13;" transform="matrix(1 0 0 1 263 1156)">Medium</text>
  <text style="stroke:none;fill:black;font-family:sans-serif;font-size:13;" transform="matrix(1 0 0 1 263 1586)">Large</text>
 </g>
 <g id="Guides">
  <g id="H-reference" style="fill:#27AAE1;stroke:none;" transform="matrix(1 0 0 1 339 696)">
   <path d="M0.993654 0L3.63775 0L29.3281-67.1323L30.0303-67.1323L30.0303-70.459L28.1226-70.459ZM11.6885-24.4799L46.9815-24.4799L46.2315-26.7285L12.4385-26.7285ZM55.1196 0L57.7637 0L30.6382-70.459L29.4326-70.459L29.4326-67.1323Z"/>
  </g>
  <line id="Baseline-S" style="fill:none;stroke:#27AAE1;opacity:1;stroke-width:0.5;" x1="263" x2="3036" y1="696" y2="696"/>
  <line id="Capline-S" style="fill:none;stroke:#27AAE1;opacity:1;stroke-width:0.5;" x1="263" x2="3036" y1="625.541" y2="625.541"/>
  <g id="H-reference" style="fill:#27AAE1;stroke:none;" transform="matrix(1 0 0 1 339 1126)">
   <path d="M0.993654 0L3.63775 0L29.3281-67.1323L30.0303-67.1323L30.0303-70.459L28.1226-70.459ZM11.6885-24.4799L46.9815-24.4799L46.2315-26.7285L12.4385-26.7285ZM55.1196 0L57.7637 0L30.6382-70.459L29.4326-70.459L29.4326-67.1323Z"/>
  </g>
  <line id="Baseline-M" style="fill:none;stroke:#27AAE1;opacity:1;stroke-width:0.5;" x1="263" x2="3036" y1="1126" y2="1126"/>
  <line id="Capline-M" style="fill:none;stroke:#27AAE1;opacity:1;stroke-width:0.5;" x1="263" x2="3036" y1="1055.54" y2="1055.54"/>
  <g id="H-reference" style="fill:#27AAE1;stroke:none;" transform="matrix(1 0 0 1 339 1556)">
   <path d="M0.993654 0L3.63775 0L29.3281-67.1323L30.0303-67.1323L30.0303-70.459L28.1226-70.459ZM11.6885-24.4799L46.9815-24.4799L46.2315-26.7285L12.4385-26.7285ZM55.1196 0L57.7637 0L30.6382-70.459L29.4326-70.459L29.4326-67.1323Z"/>
  </g>
  <line id="Baseline-L" style="fill:none;stroke:#27AAE1;opacity:1;stroke-width:0.5;" x1="263" x2="3036" y1="1556" y2="1556"/>
  <line id="Capline-L" style="fill:none;stroke:#27AAE1;opacity:1;stroke-width:0.5;" x1="263" x2="3036" y1="1485.54" y2="1485.54"/>
  <line id="left-margin-Ultralight-S" style="fill:none;stroke:#00AEEF;stroke-width:0.5;opacity:1.0;" x1="508.1" x2="508.1" y1="600.785" y2="720.121"/>
  <line id="right-margin-Ultralight-S" style="fill:none;stroke:#00AEEF;stroke-width:0.5;opacity:1.0;" x1="611.322" x2="611.322" y1="600.785" y2="720.121"/>
  <line id="left-margin-Thin-S" style="fill:none;stroke:#00AEEF;stroke-width:0.5;opacity:1.0;" x1="804.371" x2="804.371" y1="600.785" y2="720.121"/>
  <line id="right-margin-Thin-S" style="fill:none;stroke:#00AEEF;stroke-width:0.5;opacity:1.0;" x1="908.473" x2="908.473" y1="600.785" y2="720.121"/>
  <line id="left-margin-Light-S" style="fill:none;stroke:#00AEEF;stroke-width:0.5;opacity:1.0;" x1="1100.23" x2="1100.23" y1="600.785" y2="720.121"/>
  <line id="right-margin-Light-S" style="fill:none;stroke:#00AEEF;stroke-width:0.5;opacity:1.0;" x1="1206.04" x2="1206.04" y1="600.785" y2="720.121"/>
  <line id="left-margin-Regular-S" style="fill:none;stroke:#00AEEF;stroke-width:0.5;opacity:1.0;" x1="1396.3" x2="1396.3" y1="600.785" y2="720.121"/>
  <line id="right-margin-Regular-S" style="fill:none;stroke:#00AEEF;stroke-width:0.5;opacity:1.0;" x1="1503.38" x2="1503.38" y1="600.785" y2="720.121"/>
  <line id="left-margin-Medium-S" style="fill:none;stroke:#00AEEF;stroke-width:0.5;opacity:1.0;" x1="1692.65" x2="1692.65" y1="600.785" y2="720.121"/>
  <line id="right-margin-Medium-S" style="fill:none;stroke:#00AEEF;stroke-width:0.5;opacity:1.0;" x1="1800.46" x2="1800.46" y1="600.785" y2="720.121"/>
  <line id="left-margin-Semibold-S" style="fill:none;stroke:#00AEEF;stroke-width:0.5;opacity:1.0;" x1="1989.09" x2="1989.09" y1="600.785" y2="720.121"/>
  <line id="right-margin-Semibold-S" style="fill:none;stroke:#00AEEF;stroke-width:0.5;opacity:1.0;" x1="2097.44" x2="2097.44" y1="600.785" y2="720.121"/>
  <line id="left-margin-Bold-S" style="fill:none;stroke:#00AEEF;stroke-width:0.5;opacity:1.0;" x1="2285.41" x2="2285.41" y1="600.785" y2="720.121"/>
  <line id="right-margin-Bold-S" style="fill:none;stroke:#00AEEF;stroke-width:0.5;opacity:1.0;" x1="2394.54" x2="2394.54" y1="600.785" y2="720.121"/>
  <line id="left-margin-Heavy-S" style="fill:none;stroke:#00AEEF;stroke-width:0.5;opacity:1.0;" x1="2581.61" x2="2581.61" y1="600.785" y2="720.121"/>
  <line id="right-margin-Heavy-S" style="fill:none;stroke:#00AEEF;stroke-width:0.5;opacity:1.0;" x1="2691.77" x2="2691.77" y1="600.785" y2="720.121"/>
  <line id="left-margin-Black-S" style="fill:none;stroke:#00AEEF;stroke-width:0.5;opacity:1.0;" x1="2877.83" x2="2877.83" y1="600.785" y2="720.121"/>
  <line id="right-margin-Black-S" style="fill:none;stroke:#00AEEF;stroke-width:0.5;opacity:1.0;" x1="2988.97" x2="2988.97" y1="600.785" y2="720.121"/>
  <line id="left-margin-Ultralight-M" style="fill:none;stroke:#00AEEF;stroke-width:0.5;opacity:1.0;" x1="494.013" x2="494.013" y1="1030.79" y2="1150.12"/>
  <line id="right-margin-Ultralight-M" style="fill:none;stroke:#00AEEF;stroke-width:0.5;opacity:1.0;" x1="625.409" x2="625.409" y1="1030.79" y2="1150.12"/>
  <line id="left-margin-Thin-M" style="fill:none;stroke:#00AEEF;stroke-width:0.5;opacity:1.0;" x1="790.236" x2="790.236" y1="1030.79" y2="1150.12"/>
  <line id="right-margin-Thin-M" style="fill:none;stroke:#00AEEF;stroke-width:0.5;opacity:1.0;" x1="922.609" x2="922.609" y1="1030.79" y2="1150.12"/>
  <line id="left-margin-Light-M" style="fill:none;stroke:#00AEEF;stroke-width:0.5;opacity:1.0;" x1="1085.97" x2="1085.97" y1="1030.79" y2="1150.12"/>
  <line id="right-margin-Light-M" style="fill:none;stroke:#00AEEF;stroke-width:0.5;opacity:1.0;" x1="1220.3" x2="1220.3" y1="1030.79" y2="1150.12"/>
  <line id="left-margin-Regular-M" style="fill:none;stroke:#00AEEF;stroke-width:0.5;opacity:1.0;" x1="1381.95" x2="1381.95" y1="1030.79" y2="1150.12"/>
  <line id="right-margin-Regular-M" style="fill:none;stroke:#00AEEF;stroke-width:0.5;opacity:1.0;" x1="1517.74" x2="1517.74" y1="1030.79" y2="1150.12"/>
  <line id="left-margin-Medium-M" style="fill:none;stroke:#00AEEF;stroke-width:0.5;opacity:1.0;" x1="1678.15" x2="1678.15" y1="1030.79" y2="1150.12"/>
  <line id="right-margin-Medium-M" style="fill:none;stroke:#00AEEF;stroke-width:0.5;opacity:1.0;" x1="1814.96" x2="1814.96" y1="1030.79" y2="1150.12"/>
  <line id="left-margin-Semibold-M" style="fill:none;stroke:#00AEEF;stroke-width:0.5;opacity:1.0;" x1="1974.47" x2="1974.47" y1="1030.79" y2="1150.12"/>
  <line id="right-margin-Semibold-M" style="fill:none;stroke:#00AEEF;stroke-width:0.5;opacity:1.0;" x1="2112.07" x2="2112.07" y1="1030.79" y2="1150.12"/>
  <line id="left-margin-Bold-M" style="fill:none;stroke:#00AEEF;stroke-width:0.5;opacity:1.0;" x1="2270.67" x2="2270.67" y1="1030.79" y2="1150.12"/>
  <line id="right-margin-Bold-M" style="fill:none;stroke:#00AEEF;stroke-width:0.5;opacity:1.0;" x1="2409.29" x2="2409.29" y1="1030.79" y2="1150.12"/>
  <line id="left-margin-Heavy-M" style="fill:none;stroke:#00AEEF;stroke-width:0.5;opacity:1.0;" x1="2566.64" x2="2566.64" y1="1030.79" y2="1150.12"/>
  <line id="right-margin-Heavy-M" style="fill:none;stroke:#00AEEF;stroke-width:0.5;opacity:1.0;" x1="2706.73" x2="2706.73" y1="1030.79" y2="1150.12"/>
  <line id="left-margin-Black-M" style="fill:none;stroke:#00AEEF;stroke-width:0.5;opacity:1.0;" x1="2862.7" x2="2862.7" y1="1030.79" y2="1150.12"/>
  <line id="right-margin-Black-M" style="fill:none;stroke:#00AEEF;stroke-width:0.5;opacity:1.0;" x1="3004.1" x2="3004.1" y1="1030.79" y2="1150.12"/>
  <line id="left-margin-Ultralight-L" style="fill:none;stroke:#00AEEF;stroke-width:0.5;opacity:1.0;" x1="475.165" x2="475.165" y1="1460.79" y2="1580.12"/>
  <line id="right-margin-Ultralight-L" style="fill:none;stroke:#00AEEF;stroke-width:0.5;opacity:1.0;" x1="644.257" x2="644.257" y1="1460.79" y2="1580.12"/>
  <line id="left-margin-Thin-L" style="fill:none;stroke:#00AEEF;stroke-width:0.5;opacity:1.0;" x1="771.315" x2="771.315" y1="1460.79" y2="1580.12"/>
  <line id="right-margin-Thin-L" style="fill:none;stroke:#00AEEF;stroke-width:0.5;opacity:1.0;" x1="941.53" x2="941.53" y1="1460.79" y2="1580.12"/>
  <line id="left-margin-Light-L" style="fill:none;stroke:#00AEEF;stroke-width:0.5;opacity:1.0;" x1="1066.95" x2="1066.95" y1="1460.79" y2="1580.12"/>
  <line id="right-margin-Light-L" style="fill:none;stroke:#00AEEF;stroke-width:0.5;opacity:1.0;" x1="1239.31" x2="1239.31" y1="1460.79" y2="1580.12"/>
  <line id="left-margin-Regular-L" style="fill:none;stroke:#00AEEF;stroke-width:0.5;opacity:1.0;" x1="1362.86" x2="1362.86" y1="1460.79" y2="1580.12"/>
  <line id="right-margin-Regular-L" style="fill:none;stroke:#00AEEF;stroke-width:0.5;opacity:1.0;" x1="1536.83" x2="1536.83" y1="1460.79" y2="1580.12"/>
  <line id="left-margin-Medium-L" style="fill:none;stroke:#00AEEF;stroke-width:0.5;opacity:1.0;" x1="1658.91" x2="1658.91" y1="1460.79" y2="1580.12"/>
  <line id="right-margin-Medium-L" style="fill:none;stroke:#00AEEF;stroke-width:0.5;opacity:1.0;" x1="1834.2" x2="1834.2" y1="1460.79" y2="1580.12"/>
  <line id="left-margin-Semibold-L" style="fill:none;stroke:#00AEEF;stroke-width:0.5;opacity:1.0;" x1="1955.11" x2="1955.11" y1="1460.79" y2="1580.12"/>
  <line id="right-margin-Semibold-L" style="fill:none;stroke:#00AEEF;stroke-width:0.5;opacity:1.0;" x1="2131.43" x2="2131.43" y1="1460.79" y2="1580.12"/>
  <line id="left-margin-Bold-L" style="fill:none;stroke:#00AEEF;stroke-width:0.5;opacity:1.0;" x1="2251.16" x2="2251.16" y1="1460.79" y2="1580.12"/>
  <line id="right-margin-Bold-L" style="fill:none;stroke:#00AEEF;stroke-width:0.5;opacity:1.0;" x1="2428.8" x2="2428.8" y1="1460.79" y2="1580.12"/>
  <line id="left-margin-Heavy-L" style="fill:none;stroke:#00AEEF;stroke-width:0.5;opacity:1.0;" x1="2546.89" x2="2546.89" y1="1460.79" y2="1580.12"/>
  <line id="right-margin-Heavy-L" style="fill:none;stroke:#00AEEF;stroke-width:0.5;opacity:1.0;" x1="2726.48" x2="2726.48" y1="1460.79" y2="1580.12"/>
  <line id="left-margin-Black-L" style="fill:none;stroke:#00AEEF;stroke-width:0.5;opacity:1.0;" x1="2842.75" x2="2842.75" y1="1460.79" y2="1580.12"/>
  <line id="right-margin-Black-L" style="fill:none;stroke:#00AEEF;stroke-width:0.5;opacity:1.0;" x1="3024.05" x2="3024.05" y1="1460.79" y2="1580.12"/>
 </g>
 <g id="Symbols">
  <g id="Black-L" transform="matrix(1 0 0 1 2842.75 1556)">
   <path class="monochrome-0 multicolor-0:tintColor hierarchical-0:primary SFSymbolsPreviewWireframe" d="M39-86C38.4-86 38-86.4 38-87L38-90C38-90.6 38.4-91 39-91L45.9-91C45.4-93.3 43.4-95 41-95L23-95C20.6-95 18.6-93.3 18.1-91L25-91C25.6-91 26-90.6 26-90L26-87C26-86.4 25.6-86 25-86L18-86L18-85C18-78.5 22.4-73.1 28.4-71.5C28.5-71.5 28.6-71.4 28.7-71.4C29.8-71.1 30.8-71 32-71C33.2-71 34.3-71.2 35.4-71.4C35.5-71.4 35.5-71.4 35.6-71.4C41.6-73 46-78.4 46-84.9L46-85.9L39-85.9ZM20.3-82.5C23.8-80.8 26.4-77.6 27.5-73.9C23.8-75.4 21.1-78.6 20.3-82.5ZM36.6-73.9C37.7-77.6 40.3-80.8 43.8-82.5C42.9-78.6 40.2-75.4 36.6-73.9Z"/>
  </g>
  <g id="Heavy-L" transform="matrix(1 0 0 1 2546.89 1556)">
   <path class="monochrome-0 multicolor-0:tintColor hierarchical-0:primary SFSymbolsPreviewWireframe" d="M39-85C38.4-85 38-85.4 38-86L38-89C38-89.6 38.4-90 39-90L45.9-90C45.4-92.3 43.4-94 41-94L23-94C20.6-94 18.6-92.3 18.1-90L25-90C25.6-90 26-89.6 26-89L26-86C26-85.4 25.6-85 25-85L18-85L18-84C18-77.5 22.4-72.1 28.4-70.5C28.5-70.5 28.6-70.4 28.7-70.4C29.8-70.1 30.8-70 32-70C33.2-70 34.3-70.2 35.4-70.4C35.5-70.4 35.5-70.4 35.6-70.4C41.6-72 46-77.4 46-83.9L46-84.9L39-84.9ZM20.3-81.5C23.8-79.8 26.4-76.6 27.5-72.9C23.8-74.4 21.1-77.6 20.3-81.5ZM36.6-72.9C37.7-76.6 40.3-79.8 43.8-81.5C42.9-77.6 40.2-74.4 36.6-72.9Z"/>
  </g>
  <g id="Bold-L" transform="matrix(1 0 0 1 2251.16 1556)">
   <path class="monochrome-0 multicolor-0:tintColor hierarchical-0:primary SFSymbolsPreviewWireframe" d="M39-83C38.4-83 38-83.4 38-84L38-87C38-87.6 38.4-88 39-88L45.9-88C45.4-90.3 43.4-92 41-92L23-92C20.6-92 18.6-90.3 18.1-88L25-88C25.6-88 26-87.6 26-87L26-84C26-83.4 25.6-83 25-83L18-83L18-82C18-75.5 22.4-70.1 28.4-68.5C28.5-68.5 28.6-68.4 28.7-68.4C29.8-68.1 30.8-68 32-68C33.2-68 34.3-68.2 35.4-68.4C35.5-68.4 35.5-68.4 35.6-68.4C41.6-70 46-75.4 46-81.9L46-82.9L39-82.9ZM20.3-79.5C23.8-77.8 26.4-74.6 27.5-70.9C23.8-72.4 21.1-75.6 20.3-79.5ZM36.6-70.9C37.7-74.6 40.3-77.8 43.8-79.5C42.9-75.6 40.2-72.4 36.6-70.9Z"/>
  </g>
  <g id="Semibold-L" transform="matrix(1 0 0 1 1955.11 1556)">
   <path class="monochrome-0 multicolor-0:tintColor hierarchical-0:primary SFSymbolsPreviewWireframe" d="M39-82C38.4-82 38-82.4 38-83L38-86C38-86.6 38.4-87 39-87L45.9-87C45.4-89.3 43.4-91 41-91L23-91C20.6-91 18.6-89.3 18.1-87L25-87C25.6-87 26-86.6 26-86L26-83C26-82.4 25.6-82 25-82L18-82L18-81C18-74.5 22.4-69.1 28.4-67.5C28.5-67.5 28.6-67.4 28.7-67.4C29.8-67.1 30.8-67 32-67C33.2-67 34.3-67.2 35.4-67.4C35.5-67.4 35.5-67.4 35.6-67.4C41.6-69 46-74.4 46-80.9L46-81.9L39-81.9ZM20.3-78.5C23.8-76.8 26.4-73.6 27.5-69.9C23.8-71.4 21.1-74.6 20.3-78.5ZM36.6-69.9C37.7-73.6 40.3-76.8 43.8-78.5C42.9-74.6 40.2-71.4 36.6-69.9Z"/>
  </g>
  <g id="Medium-L" transform="matrix(1 0 0 1 1658.91 1556)">
   <path class="monochrome-0 multicolor-0:tintColor hierarchical-0:primary SFSymbolsPreviewWireframe" d="M39-81C38.4-81 38-81.4 38-82L38-85C38-85.6 38.4-86 39-86L45.9-86C45.4-88.3 43.4-90 41-90L23-90C20.6-90 18.6-88.3 18.1-86L25-86C25.6-86 26-85.6 26-85L26-82C26-81.4 25.6-81 25-81L18-81L18-80C18-73.5 22.4-68.1 28.4-66.5C28.5-66.5 28.6-66.4 28.7-66.4C29.8-66.1 30.8-66 32-66C33.2-66 34.3-66.2 35.4-66.4C35.5-66.4 35.5-66.4 35.6-66.4C41.6-68 46-73.4 46-79.9L46-80.9L39-80.9ZM20.3-77.5C23.8-75.8 26.4-72.6 27.5-68.9C23.8-70.4 21.1-73.6 20.3-77.5ZM36.6-68.9C37.7-72.6 40.3-75.8 43.8-77.5C42.9-73.6 40.2-70.4 36.6-68.9Z"/>
  </g>
  <g id="Regular-L" transform="matrix(1 0 0 1 1362.86 1556)">
   <path class="monochrome-0 multicolor-0:tintColor hierarchical-0:primary SFSymbolsPreviewWireframe" d="M39-80C38.4-80 38-80.4 38-81L38-84C38-84.6 38.4-85 39-85L45.9-85C45.4-87.3 43.4-89 41-89L23-89C20.6-89 18.6-87.3 18.1-85L25-85C25.6-85 26-84.6 26-84L26-81C26-80.4 25.6-80 25-80L18-80L18-79C18-72.5 22.4-67.1 28.4-65.5C28.5-65.5 28.6-65.4 28.7-65.4C29.8-65.1 30.8-65 32-65C33.2-65 34.3-65.2 35.4-65.4C35.5-65.4 35.5-65.4 35.6-65.4C41.6-67 46-72.4 46-78.9L46-79.9L39-79.9ZM20.3-76.5C23.8-74.8 26.4-71.6 27.5-67.9C23.8-69.4 21.1-72.6 20.3-76.5ZM36.6-67.9C37.7-71.6 40.3-74.8 43.8-76.5C42.9-72.6 40.2-69.4 36.6-67.9Z"/>
  </g>
  <g id="Light-L" transform="matrix(1 0 0 1 1066.95 1556)">
   <path class="monochrome-0 multicolor-0:tintColor hierarchical-0:primary SFSymbolsPreviewWireframe" d="M39-79C38.4-79 38-79.4 38-80L38-83C38-83.6 38.4-84 39-84L45.9-84C45.4-86.3 43.4-88 41-88L23-88C20.6-88 18.6-86.3 18.1-84L25-84C25.6-84 26-83.6 26-83L26-80C26-79.4 25.6-79 25-79L18-79L18-78C18-71.5 22.4-66.1 28.4-64.5C28.5-64.5 28.6-64.4 28.7-64.4C29.8-64.1 30.8-64 32-64C33.2-64 34.3-64.2 35.4-64.4C35.5-64.4 35.5-64.4 35.6-64.4C41.6-66 46-71.4 46-77.9L46-78.9L39-78.9ZM20.3-75.5C23.8-73.8 26.4-70.6 27.5-66.9C23.8-68.4 21.1-71.6 20.3-75.5ZM36.6-66.9C37.7-70.6 40.3-73.8 43.8-75.5C42.9-71.6 40.2-68.4 36.6-66.9Z"/>
  </g>
  <g id="Thin-L" transform="matrix(1 0 0 1 771.315 1556)">
   <path class="monochrome-0 multicolor-0:tintColor hierarchical-0:primary SFSymbolsPreviewWireframe" d="M39-78C38.4-78 38-78.4 38-79L38-82C38-82.6 38.4-83 39-83L45.9-83C45.4-85.3 43.4-87 41-87L23-87C20.6-87 18.6-85.3 18.1-83L25-83C25.6-83 26-82.6 26-82L26-79C26-78.4 25.6-78 25-78L18-78L18-77C18-70.5 22.4-65.1 28.4-63.5C28.5-63.5 28.6-63.4 28.7-63.4C29.8-63.1 30.8-63 32-63C33.2-63 34.3-63.2 35.4-63.4C35.5-63.4 35.5-63.4 35.6-63.4C41.6-65 46-70.4 46-76.9L46-77.9L39-77.9ZM20.3-74.5C23.8-72.8 26.4-69.6 27.5-65.9C23.8-67.4 21.1-70.6 20.3-74.5ZM36.6-65.9C37.7-69.6 40.3-72.8 43.8-74.5C42.9-70.6 40.2-67.4 36.6-65.9Z"/>
  </g>
  <g id="Ultralight-L" transform="matrix(1 0 0 1 475.165 1556)">
   <path class="monochrome-0 multicolor-0:tintColor hierarchical-0:primary SFSymbolsPreviewWireframe" d="M39-77C38.4-77 38-77.4 38-78L38-81C38-81.6 38.4-82 39-82L45.9-82C45.4-84.3 43.4-86 41-86L23-86C20.6-86 18.6-84.3 18.1-82L25-82C25.6-82 26-81.6 26-81L26-78C26-77.4 25.6-77 25-77L18-77L18-76C18-69.5 22.4-64.1 28.4-62.5C28.5-62.5 28.6-62.4 28.7-62.4C29.8-62.1 30.8-62 32-62C33.2-62 34.3-62.2 35.4-62.4C35.5-62.4 35.5-62.4 35.6-62.4C41.6-64 46-69.4 46-75.9L46-76.9L39-76.9ZM20.3-73.5C23.8-71.8 26.4-68.6 27.5-64.9C23.8-66.4 21.1-69.6 20.3-73.5ZM36.6-64.9C37.7-68.6 40.3-71.8 43.8-73.5C42.9-69.6 40.2-66.4 36.6-64.9Z"/>
  </g>
  <g id="Black-M" transform="matrix(1 0 0 1 2862.7 1126)">
   <path class="monochrome-0 multicolor-0:tintColor hierarchical-0:primary SFSymbolsPreviewWireframe" d="M35-73C34.4-73 34-73.4 34-74L34-77C34-77.6 34.4-78 35-78L41.9-78C41.4-80.3 39.4-82 37-82L19-82C16.6-82 14.6-80.3 14.1-78L21-78C21.6-78 22-77.6 22-77L22-74C22-73.4 21.6-73 21-73L14-73L14-72C14-65.5 18.4-60.1 24.4-58.5C24.5-58.5 24.6-58.4 24.7-58.4C25.8-58.1 26.8-58 28-58C29.2-58 30.3-58.2 31.4-58.4C31.5-58.4 31.5-58.4 31.6-58.4C37.6-60 42-65.4 42-71.9L42-72.9L35-72.9ZM16.3-69.5C19.8-67.8 22.4-64.6 23.5-60.9C19.8-62.4 17.1-65.6 16.3-69.5ZM32.6-60.9C33.7-64.6 36.3-67.8 39.8-69.5C38.9-65.6 36.2-62.4 32.6-60.9Z"/>
  </g>
  <g id="Heavy-M" transform="matrix(1 0 0 1 2566.64 1126)">
   <path class="monochrome-0 multicolor-0:tintColor hierarchical-0:primary SFSymbolsPreviewWireframe" d="M35-72C34.4-72 34-72.4 34-73L34-76C34-76.6 34.4-77 35-77L41.9-77C41.4-79.3 39.4-81 37-81L19-81C16.6-81 14.6-79.3 14.1-77L21-77C21.6-77 22-76.6 22-76L22-73C22-72.4 21.6-72 21-72L14-72L14-71C14-64.5 18.4-59.1 24.4-57.5C24.5-57.5 24.6-57.4 24.7-57.4C25.8-57.1 26.8-57 28-57C29.2-57 30.3-57.2 31.4-57.4C31.5-57.4 31.5-57.4 31.6-57.4C37.6-59 42-64.4 42-70.9L42-71.9L35-71.9ZM16.3-68.5C19.8-66.8 22.4-63.6 23.5-59.9C19.8-61.4 17.1-64.6 16.3-68.5ZM32.6-59.9C33.7-63.6 36.3-66.8 39.8-68.5C38.9-64.6 36.2-61.4 32.6-59.9Z"/>
  </g>
  <g id="Bold-M" transform="matrix(1 0 0 1 2270.67 1126)">
   <path class="monochrome-0 multicolor-0:tintColor hierarchical-0:primary SFSymbolsPreviewWireframe" d="M35-70C34.4-70 34-70.4 34-71L34-74C34-74.6 34.4-75 35-75L41.9-75C41.4-77.3 39.4-79 37-79L19-79C16.6-79 14.6-77.3 14.1-75L21-75C21.6-75 22-74.6 22-74L22-71C22-70.4 21.6-70 21-70L14-70L14-69C14-62.5 18.4-57.1 24.4-55.5C24.5-55.5 24.6-55.4 24.7-55.4C25.8-55.1 26.8-55 28-55C29.2-55 30.3-55.2 31.4-55.4C31.5-55.4 31.5-55.4 31.6-55.4C37.6-57 42-62.4 42-68.9L42-69.9L35-69.9ZM16.3-66.5C19.8-64.8 22.4-61.6 23.5-57.9C19.8-59.4 17.1-62.6 16.3-66.5ZM32.6-57.9C33.7-61.6 36.3-64.8 39.8-66.5C38.9-62.6 36.2-59.4 32.6-57.9Z"/>
  </g>
  <g id="Semibold-M" transform="matrix(1 0 0 1 1974.47 1126)">
   <path class="monochrome-0 multicolor-0:tintColor hierarchical-0:primary SFSymbolsPreviewWireframe" d="M35-69C34.4-69 34-69.4 34-70L34-73C34-73.6 34.4-74 35-74L41.9-74C41.4-76.3 39.4-78 37-78L19-78C16.6-78 14.6-76.3 14.1-74L21-74C21.6-74 22-73.6 22-73L22-70C22-69.4 21.6-69 21-69L14-69L14-68C14-61.5 18.4-56.1 24.4-54.5C24.5-54.5 24.6-54.4 24.7-54.4C25.8-54.1 26.8-54 28-54C29.2-54 30.3-54.2 31.4-54.4C31.5-54.4 31.5-54.4 31.6-54.4C37.6-56 42-61.4 42-67.9L42-68.9L35-68.9ZM16.3-65.5C19.8-63.8 22.4-60.6 23.5-56.9C19.8-58.4 17.1-61.6 16.3-65.5ZM32.6-56.9C33.7-60.6 36.3-63.8 39.8-65.5C38.9-61.6 36.2-58.4 32.6-56.9Z"/>
  </g>
  <g id="Medium-M" transform="matrix(1 0 0 1 1678.15 1126)">
   <path class="monochrome-0 multicolor-0:tintColor hierarchical-0:primary SFSymbolsPreviewWireframe" d="M35-69C34.4-69 34-69.4 34-70L34-73C34-73.6 34.4-74 35-74L41.9-74C41.4-76.3 39.4-78 37-78L19-78C16.6-78 14.6-76.3 14.1-74L21-74C21.6-74 22-73.6 22-73L22-70C22-69.4 21.6-69 21-69L14-69L14-68C14-61.5 18.4-56.1 24.4-54.5C24.5-54.5 24.6-54.4 24.7-54.4C25.8-54.1 26.8-54 28-54C29.2-54 30.3-54.2 31.4-54.4C31.5-54.4 31.5-54.4 31.6-54.4C37.6-56 42-61.4 42-67.9L42-68.9L35-68.9ZM16.3-65.5C19.8-63.8 22.4-60.6 23.5-56.9C19.8-58.4 17.1-61.6 16.3-65.5ZM32.6-56.9C33.7-60.6 36.3-63.8 39.8-65.5C38.9-61.6 36.2-58.4 32.6-56.9Z"/>
  </g>
  <g id="Regular-M" transform="matrix(1 0 0 1 1381.95 1126)">
   <path class="monochrome-0 multicolor-0:tintColor hierarchical-0:primary SFSymbolsPreviewWireframe" d="M35-68C34.4-68 34-68.4 34-69L34-72C34-72.6 34.4-73 35-73L41.9-73C41.4-75.3 39.4-77 37-77L19-77C16.6-77 14.6-75.3 14.1-73L21-73C21.6-73 22-72.6 22-72L22-69C22-68.4 21.6-68 21-68L14-68L14-67C14-60.5 18.4-55.1 24.4-53.5C24.5-53.5 24.6-53.4 24.7-53.4C25.8-53.1 26.8-53 28-53C29.2-53 30.3-53.2 31.4-53.4C31.5-53.4 31.5-53.4 31.6-53.4C37.6-55 42-60.4 42-66.9L42-67.9L35-67.9ZM16.3-64.5C19.8-62.8 22.4-59.6 23.5-55.9C19.8-57.4 17.1-60.6 16.3-64.5ZM32.6-55.9C33.7-59.6 36.3-62.8 39.8-64.5C38.9-60.6 36.2-57.4 32.6-55.9Z"/>
  </g>
  <g id="Light-M" transform="matrix(1 0 0 1 1085.97 1126)">
   <path class="monochrome-0 multicolor-0:tintColor hierarchical-0:primary SFSymbolsPreviewWireframe" d="M35-67C34.4-67 34-67.4 34-68L34-71C34-71.6 34.4-72 35-72L41.9-72C41.4-74.3 39.4-76 37-76L19-76C16.6-76 14.6-74.3 14.1-72L21-72C21.6-72 22-71.6 22-71L22-68C22-67.4 21.6-67 21-67L14-67L14-66C14-59.5 18.4-54.1 24.4-52.5C24.5-52.5 24.6-52.4 24.7-52.4C25.8-52.1 26.8-52 28-52C29.2-52 30.3-52.2 31.4-52.4C31.5-52.4 31.5-52.4 31.6-52.4C37.6-54 42-59.4 42-65.9L42-66.9L35-66.9ZM16.3-63.5C19.8-61.8 22.4-58.6 23.5-54.9C19.8-56.4 17.1-59.6 16.3-63.5ZM32.6-54.9C33.7-58.6 36.3-61.8 39.8-63.5C38.9-59.6 36.2-56.4 32.6-54.9Z"/>
  </g>
  <g id="Thin-M" transform="matrix(1 0 0 1 790.236 1126)">
   <path class="monochrome-0 multicolor-0:tintColor hierarchical-0:primary SFSymbolsPreviewWireframe" d="M35-66C34.4-66 34-66.4 34-67L34-70C34-70.6 34.4-71 35-71L41.9-71C41.4-73.3 39.4-75 37-75L19-75C16.6-75 14.6-73.3 14.1-71L21-71C21.6-71 22-70.6 22-70L22-67C22-66.4 21.6-66 21-66L14-66L14-65C14-58.5 18.4-53.1 24.4-51.5C24.5-51.5 24.6-51.4 24.7-51.4C25.8-51.1 26.8-51 28-51C29.2-51 30.3-51.2 31.4-51.4C31.5-51.4 31.5-51.4 31.6-51.4C37.6-53 42-58.4 42-64.9L42-65.9L35-65.9ZM16.3-62.5C19.8-60.8 22.4-57.6 23.5-53.9C19.8-55.4 17.1-58.6 16.3-62.5ZM32.6-53.9C33.7-57.6 36.3-60.8 39.8-62.5C38.9-58.6 36.2-55.4 32.6-53.9Z"/>
  </g>
  <g id="Ultralight-M" transform="matrix(1 0 0 1 494.013 1126)">
   <path class="monochrome-0 multicolor-0:tintColor hierarchical-0:primary SFSymbolsPreviewWireframe" d="M35-65C34.4-65 34-65.4 34-66L34-69C34-69.6 34.4-70 35-70L41.9-70C41.4-72.3 39.4-74 37-74L19-74C16.6-74 14.6-72.3 14.1-70L21-70C21.6-70 22-69.6 22-69L22-66C22-65.4 21.6-65 21-65L14-65L14-64C14-57.5 18.4-52.1 24.4-50.5C24.5-50.5 24.6-50.4 24.7-50.4C25.8-50.1 26.8-50 28-50C29.2-50 30.3-50.2 31.4-50.4C31.5-50.4 31.5-50.4 31.6-50.4C37.6-52 42-57.4 42-63.9L42-64.9L35-64.9ZM16.3-61.5C19.8-59.8 22.4-56.6 23.5-52.9C19.8-54.4 17.1-57.6 16.3-61.5ZM32.6-52.9C33.7-56.6 36.3-59.8 39.8-61.5C38.9-57.6 36.2-54.4 32.6-52.9Z"/>
  </g>
  <g id="Black-S" transform="matrix(1 0 0 1 2877.83 696)">
   <path class="monochrome-0 multicolor-0:tintColor hierarchical-0:primary SFSymbolsPreviewWireframe" d="M32-62C31.4-62 31-62.4 31-63L31-66C31-66.6 31.4-67 32-67L38.9-67C38.4-69.3 36.4-71 34-71L16-71C13.6-71 11.6-69.3 11.1-67L18-67C18.6-67 19-66.6 19-66L19-63C19-62.4 18.6-62 18-62L11-62L11-61C11-54.5 15.4-49.1 21.4-47.5C21.5-47.5 21.6-47.4 21.7-47.4C22.8-47.1 23.8-47 25-47C26.2-47 27.3-47.2 28.4-47.4C28.5-47.4 28.5-47.4 28.6-47.4C34.6-49 39-54.4 39-60.9L39-61.9L32-61.9ZM13.3-58.5C16.8-56.8 19.4-53.6 20.5-49.9C16.8-51.4 14.1-54.6 13.3-58.5ZM29.6-49.9C30.7-53.6 33.3-56.8 36.8-58.5C35.9-54.6 33.2-51.4 29.6-49.9Z"/>
  </g>
  <g id="Heavy-S" transform="matrix(1 0 0 1 2581.61 696)">
   <path class="monochrome-0 multicolor-0:tintColor hierarchical-0:primary SFSymbolsPreviewWireframe" d="M32-62C31.4-62 31-62.4 31-63L31-66C31-66.6 31.4-67 32-67L38.9-67C38.4-69.3 36.4-71 34-71L16-71C13.6-71 11.6-69.3 11.1-67L18-67C18.6-67 19-66.6 19-66L19-63C19-62.4 18.6-62 18-62L11-62L11-61C11-54.5 15.4-49.1 21.4-47.5C21.5-47.5 21.6-47.4 21.7-47.4C22.8-47.1 23.8-47 25-47C26.2-47 27.3-47.2 28.4-47.4C28.5-47.4 28.5-47.4 28.6-47.4C34.6-49 39-54.4 39-60.9L39-61.9L32-61.9ZM13.3-58.5C16.8-56.8 19.4-53.6 20.5-49.9C16.8-51.4 14.1-54.6 13.3-58.5ZM29.6-49.9C30.7-53.6 33.3-56.8 36.8-58.5C35.9-54.6 33.2-51.4 29.6-49.9Z"/>
  </g>
  <g id="Bold-S" transform="matrix(1 0 0 1 2285.41 696)">
   <path class="monochrome-0 multicolor-0:tintColor hierarchical-0:primary SFSymbolsPreviewWireframe" d="M32-60C31.4-60 31-60.4 31-61L31-64C31-64.6 31.4-65 32-65L38.9-65C38.4-67.3 36.4-69 34-69L16-69C13.6-69 11.6-67.3 11.1-65L18-65C18.6-65 19-64.6 19-64L19-61C19-60.4 18.6-60 18-60L11-60L11-59C11-52.5 15.4-47.1 21.4-45.5C21.5-45.5 21.6-45.4 21.7-45.4C22.8-45.1 23.8-45 25-45C26.2-45 27.3-45.2 28.4-45.4C28.5-45.4 28.5-45.4 28.6-45.4C34.6-47 39-52.4 39-58.9L39-59.9L32-59.9ZM13.3-56.5C16.8-54.8 19.4-51.6 20.5-47.9C16.8-49.4 14.1-52.6 13.3-56.5ZM29.6-47.9C30.7-51.6 33.3-54.8 36.8-56.5C35.9-52.6 33.2-49.4 29.6-47.9Z"/>
  </g>
  <g id="Semibold-S" transform="matrix(1 0 0 1 1989.09 696)">
   <path class="monochrome-0 multicolor-0:tintColor hierarchical-0:primary SFSymbolsPreviewWireframe" d="M32-60C31.4-60 31-60.4 31-61L31-64C31-64.6 31.4-65 32-65L38.9-65C38.4-67.3 36.4-69 34-69L16-69C13.6-69 11.6-67.3 11.1-65L18-65C18.6-65 19-64.6 19-64L19-61C19-60.4 18.6-60 18-60L11-60L11-59C11-52.5 15.4-47.1 21.4-45.5C21.5-45.5 21.6-45.4 21.7-45.4C22.8-45.1 23.8-45 25-45C26.2-45 27.3-45.2 28.4-45.4C28.5-45.4 28.5-45.4 28.6-45.4C34.6-47 39-52.4 39-58.9L39-59.9L32-59.9ZM13.3-56.5C16.8-54.8 19.4-51.6 20.5-47.9C16.8-49.4 14.1-52.6 13.3-56.5ZM29.6-47.9C30.7-51.6 33.3-54.8 36.8-56.5C35.9-52.6 33.2-49.4 29.6-47.9Z"/>
  </g>
  <g id="Medium-S" transform="matrix(1 0 0 1 1692.65 696)">
   <path class="monochrome-0 multicolor-0:tintColor hierarchical-0:primary SFSymbolsPreviewWireframe" d="M32-59C31.4-59 31-59.4 31-60L31-63C31-63.6 31.4-64 32-64L38.9-64C38.4-66.3 36.4-68 34-68L16-68C13.6-68 11.6-66.3 11.1-64L18-64C18.6-64 19-63.6 19-63L19-60C19-59.4 18.6-59 18-59L11-59L11-58C11-51.5 15.4-46.1 21.4-44.5C21.5-44.5 21.6-44.4 21.7-44.4C22.8-44.1 23.8-44 25-44C26.2-44 27.3-44.2 28.4-44.4C28.5-44.4 28.5-44.4 28.6-44.4C34.6-46 39-51.4 39-57.9L39-58.9L32-58.9ZM13.3-55.5C16.8-53.8 19.4-50.6 20.5-46.9C16.8-48.4 14.1-51.6 13.3-55.5ZM29.6-46.9C30.7-50.6 33.3-53.8 36.8-55.5C35.9-51.6 33.2-48.4 29.6-46.9Z"/>
  </g>
  <g id="Regular-S" transform="matrix(1 0 0 1 1396.3 696)">
   <path class="monochrome-0 multicolor-0:tintColor hierarchical-0:primary SFSymbolsPreviewWireframe" d="M32-58C31.4-58 31-58.4 31-59L31-62C31-62.6 31.4-63 32-63L38.9-63C38.4-65.3 36.4-67 34-67L16-67C13.6-67 11.6-65.3 11.1-63L18-63C18.6-63 19-62.6 19-62L19-59C19-58.4 18.6-58 18-58L11-58L11-57C11-50.5 15.4-45.1 21.4-43.5C21.5-43.5 21.6-43.4 21.7-43.4C22.8-43.1 23.8-43 25-43C26.2-43 27.3-43.2 28.4-43.4C28.5-43.4 28.5-43.4 28.6-43.4C34.6-45 39-50.4 39-56.9L39-57.9L32-57.9ZM13.3-54.5C16.8-52.8 19.4-49.6 20.5-45.9C16.8-47.4 14.1-50.6 13.3-54.5ZM29.6-45.9C30.7-49.6 33.3-52.8 36.8-54.5C35.9-50.6 33.2-47.4 29.6-45.9Z"/>
  </g>
  <g id="Light-S" transform="matrix(1 0 0 1 1100.23 696)">
   <path class="monochrome-0 multicolor-0:tintColor hierarchical-0:primary SFSymbolsPreviewWireframe" d="M32-58C31.4-58 31-58.4 31-59L31-62C31-62.6 31.4-63 32-63L38.9-63C38.4-65.3 36.4-67 34-67L16-67C13.6-67 11.6-65.3 11.1-63L18-63C18.6-63 19-62.6 19-62L19-59C19-58.4 18.6-58 18-58L11-58L11-57C11-50.5 15.4-45.1 21.4-43.5C21.5-43.5 21.6-43.4 21.7-43.4C22.8-43.1 23.8-43 25-43C26.2-43 27.3-43.2 28.4-43.4C28.5-43.4 28.5-43.4 28.6-43.4C34.6-45 39-50.4 39-56.9L39-57.9L32-57.9ZM13.3-54.5C16.8-52.8 19.4-49.6 20.5-45.9C16.8-47.4 14.1-50.6 13.3-54.5ZM29.6-45.9C30.7-49.6 33.3-52.8 36.8-54.5C35.9-50.6 33.2-47.4 29.6-45.9Z"/>
  </g>
  <g id="Thin-S" transform="matrix(1 0 0 1 804.371 696)">
   <path class="monochrome-0 multicolor-0:tintColor hierarchical-0:primary SFSymbolsPreviewWireframe" d="M32-57C31.4-57 31-57.4 31-58L31-61C31-61.6 31.4-62 32-62L38.9-62C38.4-64.3 36.4-66 34-66L16-66C13.6-66 11.6-64.3 11.1-62L18-62C18.6-62 19-61.6 19-61L19-58C19-57.4 18.6-57 18-57L11-57L11-56C11-49.5 15.4-44.1 21.4-42.5C21.5-42.5 21.6-42.4 21.7-42.4C22.8-42.1 23.8-42 25-42C26.2-42 27.3-42.2 28.4-42.4C28.5-42.4 28.5-42.4 28.6-42.4C34.6-44 39-49.4 39-55.9L39-56.9L32-56.9ZM13.3-53.5C16.8-51.8 19.4-48.6 20.5-44.9C16.8-46.4 14.1-49.6 13.3-53.5ZM29.6-44.9C30.7-48.6 33.3-51.8 36.8-53.5C35.9-49.6 33.2-46.4 29.6-44.9Z"/>
  </g>
  <g id="Ultralight-S" transform="matrix(1 0 0 1 508.1 696)">
   <path class="monochrome-0 multicolor-0:tintColor hierarchical-0:primary SFSymbolsPreviewWireframe" d="M32-56C31.4-56 31-56.4 31-57L31-60C31-60.6 31.4-61 32-61L38.9-61C38.4-63.3 36.4-65 34-65L16-65C13.6-65 11.6-63.3 11.1-61L18-61C18.6-61 19-60.6 19-60L19-57C19-56.4 18.6-56 18-56L11-56L11-55C11-48.5 15.4-43.1 21.4-41.5C21.5-41.5 21.6-41.4 21.7-41.4C22.8-41.1 23.8-41 25-41C26.2-41 27.3-41.2 28.4-41.4C28.5-41.4 28.5-41.4 28.6-41.4C34.6-43 39-48.4 39-54.9L39-55.9L32-55.9ZM13.3-52.5C16.8-50.8 19.4-47.6 20.5-43.9C16.8-45.4 14.1-48.6 13.3-52.5ZM29.6-43.9C30.7-47.6 33.3-50.8 36.8-52.5C35.9-48.6 33.2-45.4 29.6-43.9Z"/>
  </g>
 </g>
</svg>
