<?xml version="1.0" encoding="UTF-8"?>
<!--Generator: Apple Native CoreSVG 232.5-->
<!DOCTYPE svg
PUBLIC "-//W3C//DTD SVG 1.1//EN"
       "http://www.w3.org/Graphics/SVG/1.1/DTD/svg11.dtd">
<svg version="1.1" xmlns="http://www.w3.org/2000/svg" xmlns:xlink="http://www.w3.org/1999/xlink" width="3300" height="2200">
 <!--glyph: "", point size: 100.0, font version: "19.0d7e1", template writer version: "128"-->
 <style>.monochrome-0 {-sfsymbols-motion-group:0}

.multicolor-0:tintColor {-sfsymbols-motion-group:0}

.hierarchical-0:primary {-sfsymbols-motion-group:0}

.SFSymbolsPreviewWireframe {fill:none;opacity:1.0;stroke:black;stroke-width:0.5}
</style>
 <g id="Notes">
  <rect height="2200" id="artboard" style="fill:white;opacity:1" width="3300" x="0" y="0"/>
  <line style="fill:none;stroke:black;opacity:1;stroke-width:0.5;" x1="263" x2="3036" y1="292" y2="292"/>
  <text style="stroke:none;fill:black;font-family:sans-serif;font-size:13;font-weight:bold;" transform="matrix(1 0 0 1 263 322)">Weight/Scale Variations</text>
  <text style="stroke:none;fill:black;font-family:sans-serif;font-size:13;text-anchor:middle;" transform="matrix(1 0 0 1 559.711 322)">Ultralight</text>
  <text style="stroke:none;fill:black;font-family:sans-serif;font-size:13;text-anchor:middle;" transform="matrix(1 0 0 1 856.422 322)">Thin</text>
  <text style="stroke:none;fill:black;font-family:sans-serif;font-size:13;text-anchor:middle;" transform="matrix(1 0 0 1 1153.13 322)">Light</text>
  <text style="stroke:none;fill:black;font-family:sans-serif;font-size:13;text-anchor:middle;" transform="matrix(1 0 0 1 1449.84 322)">Regular</text>
  <text style="stroke:none;fill:black;font-family:sans-serif;font-size:13;text-anchor:middle;" transform="matrix(1 0 0 1 1746.56 322)">Medium</text>
  <text style="stroke:none;fill:black;font-family:sans-serif;font-size:13;text-anchor:middle;" transform="matrix(1 0 0 1 2043.27 322)">Semibold</text>
  <text style="stroke:none;fill:black;font-family:sans-serif;font-size:13;text-anchor:middle;" transform="matrix(1 0 0 1 2339.98 322)">Bold</text>
  <text style="stroke:none;fill:black;font-family:sans-serif;font-size:13;text-anchor:middle;" transform="matrix(1 0 0 1 2636.69 322)">Heavy</text>
  <text style="stroke:none;fill:black;font-family:sans-serif;font-size:13;text-anchor:middle;" transform="matrix(1 0 0 1 2933.4 322)">Black</text>
  <line style="fill:none;stroke:black;opacity:1;stroke-width:0.5;" x1="263" x2="3036" y1="1903" y2="1903"/>
  <g transform="matrix(0.2 0 0 0.2 263 1933)">
   <path d="m46.2402 4.15039c21.5332 0 39.4531-17.8711 39.4531-39.4043s-17.9688-39.4043-39.502-39.4043c-21.4844 0-39.3555 17.8711-39.3555 39.4043s17.9199 39.4043 39.4043 39.4043Zm0-7.42188c-17.7246 0-31.8848-14.209-31.8848-31.9824s14.1113-31.9824 31.8359-31.9824c17.7734 0 32.0312 14.209 32.0312 31.9824s-14.209 31.9824-31.9824 31.9824Zm-17.9688-31.9824c0 2.14844 1.51367 3.61328 3.75977 3.61328h10.498v10.5957c0 2.19727 1.46484 3.71094 3.61328 3.71094 2.24609 0 3.71094-1.51367 3.71094-3.71094v-10.5957h10.5957c2.19727 0 3.71094-1.46484 3.71094-3.61328 0-2.19727-1.51367-3.71094-3.71094-3.71094h-10.5957v-10.5469c0-2.24609-1.46484-3.75977-3.71094-3.75977-2.14844 0-3.61328 1.51367-3.61328 3.75977v10.5469h-10.498c-2.24609 0-3.75977 1.51367-3.75977 3.71094Z"/>
  </g>
  <g transform="matrix(0.2 0 0 0.2 281.506 1933)">
   <path d="m58.5449 14.5508c27.2461 0 49.8047-22.6074 49.8047-49.8047 0-27.2461-22.6074-49.8047-49.8535-49.8047-27.1973 0-49.7559 22.5586-49.7559 49.8047 0 27.1973 22.6074 49.8047 49.8047 49.8047Zm0-8.30078c-23.0469 0-41.4551-18.457-41.4551-41.5039s18.3594-41.5039 41.4062-41.5039 41.5527 18.457 41.5527 41.5039-18.457 41.5039-41.5039 41.5039Zm-22.6562-41.5039c0 2.39258 1.66016 4.00391 4.15039 4.00391h14.3555v14.4043c0 2.44141 1.66016 4.15039 4.05273 4.15039 2.44141 0 4.15039-1.66016 4.15039-4.15039v-14.4043h14.4043c2.44141 0 4.15039-1.61133 4.15039-4.00391 0-2.44141-1.70898-4.15039-4.15039-4.15039h-14.4043v-14.3555c0-2.49023-1.70898-4.19922-4.15039-4.19922-2.39258 0-4.05273 1.70898-4.05273 4.19922v14.3555h-14.3555c-2.49023 0-4.15039 1.70898-4.15039 4.15039Z"/>
  </g>
  <g transform="matrix(0.2 0 0 0.2 304.924 1933)">
   <path d="m74.8535 28.3203c34.8145 0 63.623-28.8086 63.623-63.5742 0-34.8145-28.8574-63.623-63.6719-63.623-34.7656 0-63.5254 28.8086-63.5254 63.623 0 34.7656 28.8086 63.5742 63.5742 63.5742Zm0-9.08203c-30.1758 0-54.4434-24.3164-54.4434-54.4922 0-30.2246 24.2188-54.4922 54.3945-54.4922 30.2246 0 54.541 24.2676 54.541 54.4922 0 30.1758-24.2676 54.4922-54.4922 54.4922Zm-28.8574-54.4922c0 2.58789 1.85547 4.39453 4.58984 4.39453h19.7266v19.7754c0 2.68555 1.85547 4.58984 4.44336 4.58984 2.68555 0 4.54102-1.85547 4.54102-4.58984v-19.7754h19.7754c2.68555 0 4.58984-1.80664 4.58984-4.39453 0-2.73438-1.85547-4.58984-4.58984-4.58984h-19.7754v-19.7266c0-2.73438-1.85547-4.63867-4.54102-4.63867-2.58789 0-4.44336 1.9043-4.44336 4.63867v19.7266h-19.7266c-2.73438 0-4.58984 1.85547-4.58984 4.58984Z"/>
  </g>
  <text style="stroke:none;fill:black;font-family:sans-serif;font-size:13;font-weight:bold;" transform="matrix(1 0 0 1 263 1953)">Design Variations</text>
  <text style="stroke:none;fill:black;font-family:sans-serif;font-size:13;" transform="matrix(1 0 0 1 263 1971)">Symbols are supported in up to nine weights and three scales.</text>
  <text style="stroke:none;fill:black;font-family:sans-serif;font-size:13;" transform="matrix(1 0 0 1 263 1989)">For optimal layout with text and other symbols, vertically align</text>
  <text style="stroke:none;fill:black;font-family:sans-serif;font-size:13;" transform="matrix(1 0 0 1 263 2007)">symbols with the adjacent text.</text>
  <line style="fill:none;stroke:#00AEEF;stroke-width:0.5;opacity:1.0;" x1="776" x2="776" y1="1919" y2="1933"/>
  <g transform="matrix(0.2 0 0 0.2 776 1933)">
   <path d="m16.5527 0.78125c2.58789 0 3.85742-0.976562 4.78516-3.71094l6.29883-17.2363h28.8086l6.29883 17.2363c0.927734 2.73438 2.19727 3.71094 4.73633 3.71094 2.58789 0 4.24805-1.5625 4.24805-4.00391 0-0.830078-0.146484-1.61133-0.537109-2.63672l-22.9004-60.9863c-1.12305-2.97852-3.125-4.49219-6.25-4.49219-3.02734 0-5.07812 1.46484-6.15234 4.44336l-22.9004 61.084c-0.390625 1.02539-0.537109 1.80664-0.537109 2.63672 0 2.44141 1.5625 3.95508 4.10156 3.95508Zm13.4766-28.3691 11.8652-32.8613h0.244141l11.8652 32.8613Z"/>
  </g>
  <line style="fill:none;stroke:#00AEEF;stroke-width:0.5;opacity:1.0;" x1="792.836" x2="792.836" y1="1919" y2="1933"/>
  <text style="stroke:none;fill:black;font-family:sans-serif;font-size:13;font-weight:bold;" transform="matrix(1 0 0 1 776 1953)">Margins</text>
  <text style="stroke:none;fill:black;font-family:sans-serif;font-size:13;" transform="matrix(1 0 0 1 776 1971)">Leading and trailing margins on the left and right side of each symbol</text>
  <text style="stroke:none;fill:black;font-family:sans-serif;font-size:13;" transform="matrix(1 0 0 1 776 1989)">can be adjusted by modifying the x-location of the margin guidelines.</text>
  <text style="stroke:none;fill:black;font-family:sans-serif;font-size:13;" transform="matrix(1 0 0 1 776 2007)">Modifications are automatically applied proportionally to all</text>
  <text style="stroke:none;fill:black;font-family:sans-serif;font-size:13;" transform="matrix(1 0 0 1 776 2025)">scales and weights.</text>
  <g transform="matrix(0.2 0 0 0.2 1289 1933)">
   <path d="m14.209 9.32617 8.49609 8.54492c4.29688 4.3457 9.22852 4.05273 13.8672-1.07422l53.4668-58.9355-4.83398-4.88281-53.0762 58.3984c-1.75781 2.00195-3.41797 2.49023-5.76172 0.146484l-5.85938-5.81055c-2.34375-2.29492-1.80664-4.00391 0.195312-5.81055l57.373-54.0039-4.88281-4.83398-57.959 54.4434c-4.93164 4.58984-5.32227 9.47266-1.02539 13.8184Zm32.0801-90.9668c-2.09961 2.05078-2.24609 4.93164-1.07422 6.88477 1.17188 1.80664 3.4668 2.97852 6.68945 2.14844 7.32422-1.70898 14.9414-2.00195 22.0703 2.68555l-2.92969 7.27539c-1.70898 4.15039-0.830078 7.08008 1.85547 9.81445l11.4746 11.5723c2.44141 2.44141 4.49219 2.53906 7.32422 2.05078l5.32227-0.976562 3.32031 3.36914-0.195312 2.7832c-0.195312 2.49023 0.439453 4.39453 2.88086 6.78711l3.80859 3.71094c2.39258 2.39258 5.46875 2.53906 7.8125 0.195312l14.5508-14.5996c2.34375-2.34375 2.24609-5.32227-0.146484-7.71484l-3.85742-3.80859c-2.39258-2.39258-4.24805-3.17383-6.64062-2.97852l-2.88086 0.244141-3.22266-3.17383 1.2207-5.61523c0.634766-2.83203-0.146484-5.0293-3.07617-7.95898l-10.9863-10.9375c-16.6992-16.6016-38.8672-16.2109-53.3203-1.75781Zm7.4707 1.85547c12.1582-8.88672 28.6133-7.37305 39.7461 3.75977l12.1582 12.0605c1.17188 1.17188 1.36719 2.09961 1.02539 3.80859l-1.61133 7.42188 7.51953 7.42188 4.93164-0.292969c1.26953-0.0488281 1.66016 0.0488281 2.63672 1.02539l2.88086 2.88086-12.207 12.207-2.88086-2.88086c-0.976562-0.976562-1.12305-1.36719-1.07422-2.68555l0.341797-4.88281-7.4707-7.42188-7.61719 1.26953c-1.61133 0.341797-2.34375 0.195312-3.56445-0.976562l-10.0098-10.0098c-1.26953-1.17188-1.41602-2.00195-0.634766-3.85742l4.39453-10.4492c-7.8125-7.27539-17.9688-10.4004-28.125-7.42188-0.78125 0.195312-1.07422-0.439453-0.439453-0.976562Z"/>
  </g>
  <text style="stroke:none;fill:black;font-family:sans-serif;font-size:13;font-weight:bold;" transform="matrix(1 0 0 1 1289 1953)">Exporting</text>
  <text style="stroke:none;fill:black;font-family:sans-serif;font-size:13;" transform="matrix(1 0 0 1 1289 1971)">Symbols should be outlined when exporting to ensure the</text>
  <text style="stroke:none;fill:black;font-family:sans-serif;font-size:13;" transform="matrix(1 0 0 1 1289 1989)">design is preserved when submitting to Xcode.</text>
  <text id="template-version" style="stroke:none;fill:black;font-family:sans-serif;font-size:13;text-anchor:end;" transform="matrix(1 0 0 1 3036 1933)">Template v.5.0</text>
  <text style="stroke:none;fill:black;font-family:sans-serif;font-size:13;text-anchor:end;" transform="matrix(1 0 0 1 3036 1951)">Requires Xcode 15 or greater</text>
  <text id="descriptive-name" style="stroke:none;fill:black;font-family:sans-serif;font-size:13;text-anchor:end;" transform="matrix(1 0 0 1 3036 1969)">Generated from baby_symbol</text>
  <text style="stroke:none;fill:black;font-family:sans-serif;font-size:13;text-anchor:end;" transform="matrix(1 0 0 1 3036 1987)">Typeset at 100.0 points</text>
  <text style="stroke:none;fill:black;font-family:sans-serif;font-size:13;" transform="matrix(1 0 0 1 263 726)">Small</text>
  <text style="stroke:none;fill:black;font-family:sans-serif;font-size:13;" transform="matrix(1 0 0 1 263 1156)">Medium</text>
  <text style="stroke:none;fill:black;font-family:sans-serif;font-size:13;" transform="matrix(1 0 0 1 263 1586)">Large</text>
 </g>
 <g id="Guides">
  <g id="H-reference" style="fill:#27AAE1;stroke:none;" transform="matrix(1 0 0 1 339 696)">
   <path d="M0.993654 0L3.63775 0L29.3281-67.1323L30.0303-67.1323L30.0303-70.459L28.1226-70.459ZM11.6885-24.4799L46.9815-24.4799L46.2315-26.7285L12.4385-26.7285ZM55.1196 0L57.7637 0L30.6382-70.459L29.4326-70.459L29.4326-67.1323Z"/>
  </g>
  <line id="Baseline-S" style="fill:none;stroke:#27AAE1;opacity:1;stroke-width:0.5;" x1="263" x2="3036" y1="696" y2="696"/>
  <line id="Capline-S" style="fill:none;stroke:#27AAE1;opacity:1;stroke-width:0.5;" x1="263" x2="3036" y1="625.541" y2="625.541"/>
  <g id="H-reference" style="fill:#27AAE1;stroke:none;" transform="matrix(1 0 0 1 339 1126)">
   <path d="M0.993654 0L3.63775 0L29.3281-67.1323L30.0303-67.1323L30.0303-70.459L28.1226-70.459ZM11.6885-24.4799L46.9815-24.4799L46.2315-26.7285L12.4385-26.7285ZM55.1196 0L57.7637 0L30.6382-70.459L29.4326-70.459L29.4326-67.1323Z"/>
  </g>
  <line id="Baseline-M" style="fill:none;stroke:#27AAE1;opacity:1;stroke-width:0.5;" x1="263" x2="3036" y1="1126" y2="1126"/>
  <line id="Capline-M" style="fill:none;stroke:#27AAE1;opacity:1;stroke-width:0.5;" x1="263" x2="3036" y1="1055.54" y2="1055.54"/>
  <g id="H-reference" style="fill:#27AAE1;stroke:none;" transform="matrix(1 0 0 1 339 1556)">
   <path d="M0.993654 0L3.63775 0L29.3281-67.1323L30.0303-67.1323L30.0303-70.459L28.1226-70.459ZM11.6885-24.4799L46.9815-24.4799L46.2315-26.7285L12.4385-26.7285ZM55.1196 0L57.7637 0L30.6382-70.459L29.4326-70.459L29.4326-67.1323Z"/>
  </g>
  <line id="Baseline-L" style="fill:none;stroke:#27AAE1;opacity:1;stroke-width:0.5;" x1="263" x2="3036" y1="1556" y2="1556"/>
  <line id="Capline-L" style="fill:none;stroke:#27AAE1;opacity:1;stroke-width:0.5;" x1="263" x2="3036" y1="1485.54" y2="1485.54"/>
  <line id="left-margin-Ultralight-S" style="fill:none;stroke:#00AEEF;stroke-width:0.5;opacity:1.0;" x1="508.1" x2="508.1" y1="600.785" y2="720.121"/>
  <line id="right-margin-Ultralight-S" style="fill:none;stroke:#FF3B30;stroke-width:0.5;opacity:1.0;" x1="611.322" x2="611.322" y1="600.785" y2="720.121"/>
  <line id="left-margin-Thin-S" style="fill:none;stroke:#00AEEF;stroke-width:0.5;opacity:1.0;" x1="804.371" x2="804.371" y1="600.785" y2="720.121"/>
  <line id="right-margin-Thin-S" style="fill:none;stroke:#00AEEF;stroke-width:0.5;opacity:1.0;" x1="908.473" x2="908.473" y1="600.785" y2="720.121"/>
  <line id="left-margin-Light-S" style="fill:none;stroke:#00AEEF;stroke-width:0.5;opacity:1.0;" x1="1100.23" x2="1100.23" y1="600.785" y2="720.121"/>
  <line id="right-margin-Light-S" style="fill:none;stroke:#00AEEF;stroke-width:0.5;opacity:1.0;" x1="1206.04" x2="1206.04" y1="600.785" y2="720.121"/>
  <line id="left-margin-Regular-S" style="fill:none;stroke:#00AEEF;stroke-width:0.5;opacity:1.0;" x1="1396.3" x2="1396.3" y1="600.785" y2="720.121"/>
  <line id="right-margin-Regular-S" style="fill:none;stroke:#00AEEF;stroke-width:0.5;opacity:1.0;" x1="1503.38" x2="1503.38" y1="600.785" y2="720.121"/>
  <line id="left-margin-Medium-S" style="fill:none;stroke:#00AEEF;stroke-width:0.5;opacity:1.0;" x1="1692.65" x2="1692.65" y1="600.785" y2="720.121"/>
  <line id="right-margin-Medium-S" style="fill:none;stroke:#00AEEF;stroke-width:0.5;opacity:1.0;" x1="1800.46" x2="1800.46" y1="600.785" y2="720.121"/>
  <line id="left-margin-Semibold-S" style="fill:none;stroke:#00AEEF;stroke-width:0.5;opacity:1.0;" x1="1989.09" x2="1989.09" y1="600.785" y2="720.121"/>
  <line id="right-margin-Semibold-S" style="fill:none;stroke:#00AEEF;stroke-width:0.5;opacity:1.0;" x1="2097.44" x2="2097.44" y1="600.785" y2="720.121"/>
  <line id="left-margin-Bold-S" style="fill:none;stroke:#00AEEF;stroke-width:0.5;opacity:1.0;" x1="2285.41" x2="2285.41" y1="600.785" y2="720.121"/>
  <line id="right-margin-Bold-S" style="fill:none;stroke:#00AEEF;stroke-width:0.5;opacity:1.0;" x1="2394.54" x2="2394.54" y1="600.785" y2="720.121"/>
  <line id="left-margin-Heavy-S" style="fill:none;stroke:#00AEEF;stroke-width:0.5;opacity:1.0;" x1="2581.61" x2="2581.61" y1="600.785" y2="720.121"/>
  <line id="right-margin-Heavy-S" style="fill:none;stroke:#00AEEF;stroke-width:0.5;opacity:1.0;" x1="2691.77" x2="2691.77" y1="600.785" y2="720.121"/>
  <line id="left-margin-Black-S" style="fill:none;stroke:#00AEEF;stroke-width:0.5;opacity:1.0;" x1="2877.83" x2="2877.83" y1="600.785" y2="720.121"/>
  <line id="right-margin-Black-S" style="fill:none;stroke:#00AEEF;stroke-width:0.5;opacity:1.0;" x1="2988.97" x2="2988.97" y1="600.785" y2="720.121"/>
  <line id="left-margin-Ultralight-M" style="fill:none;stroke:#00AEEF;stroke-width:0.5;opacity:1.0;" x1="494.013" x2="494.013" y1="1030.79" y2="1150.12"/>
  <line id="right-margin-Ultralight-M" style="fill:none;stroke:#00AEEF;stroke-width:0.5;opacity:1.0;" x1="625.409" x2="625.409" y1="1030.79" y2="1150.12"/>
  <line id="left-margin-Thin-M" style="fill:none;stroke:#00AEEF;stroke-width:0.5;opacity:1.0;" x1="790.236" x2="790.236" y1="1030.79" y2="1150.12"/>
  <line id="right-margin-Thin-M" style="fill:none;stroke:#00AEEF;stroke-width:0.5;opacity:1.0;" x1="922.609" x2="922.609" y1="1030.79" y2="1150.12"/>
  <line id="left-margin-Light-M" style="fill:none;stroke:#00AEEF;stroke-width:0.5;opacity:1.0;" x1="1085.97" x2="1085.97" y1="1030.79" y2="1150.12"/>
  <line id="right-margin-Light-M" style="fill:none;stroke:#00AEEF;stroke-width:0.5;opacity:1.0;" x1="1220.3" x2="1220.3" y1="1030.79" y2="1150.12"/>
  <line id="left-margin-Regular-M" style="fill:none;stroke:#00AEEF;stroke-width:0.5;opacity:1.0;" x1="1381.95" x2="1381.95" y1="1030.79" y2="1150.12"/>
  <line id="right-margin-Regular-M" style="fill:none;stroke:#00AEEF;stroke-width:0.5;opacity:1.0;" x1="1517.74" x2="1517.74" y1="1030.79" y2="1150.12"/>
  <line id="left-margin-Medium-M" style="fill:none;stroke:#00AEEF;stroke-width:0.5;opacity:1.0;" x1="1678.15" x2="1678.15" y1="1030.79" y2="1150.12"/>
  <line id="right-margin-Medium-M" style="fill:none;stroke:#00AEEF;stroke-width:0.5;opacity:1.0;" x1="1814.96" x2="1814.96" y1="1030.79" y2="1150.12"/>
  <line id="left-margin-Semibold-M" style="fill:none;stroke:#00AEEF;stroke-width:0.5;opacity:1.0;" x1="1974.47" x2="1974.47" y1="1030.79" y2="1150.12"/>
  <line id="right-margin-Semibold-M" style="fill:none;stroke:#00AEEF;stroke-width:0.5;opacity:1.0;" x1="2112.07" x2="2112.07" y1="1030.79" y2="1150.12"/>
  <line id="left-margin-Bold-M" style="fill:none;stroke:#00AEEF;stroke-width:0.5;opacity:1.0;" x1="2270.67" x2="2270.67" y1="1030.79" y2="1150.12"/>
  <line id="right-margin-Bold-M" style="fill:none;stroke:#00AEEF;stroke-width:0.5;opacity:1.0;" x1="2409.29" x2="2409.29" y1="1030.79" y2="1150.12"/>
  <line id="left-margin-Heavy-M" style="fill:none;stroke:#00AEEF;stroke-width:0.5;opacity:1.0;" x1="2566.64" x2="2566.64" y1="1030.79" y2="1150.12"/>
  <line id="right-margin-Heavy-M" style="fill:none;stroke:#00AEEF;stroke-width:0.5;opacity:1.0;" x1="2706.73" x2="2706.73" y1="1030.79" y2="1150.12"/>
  <line id="left-margin-Black-M" style="fill:none;stroke:#00AEEF;stroke-width:0.5;opacity:1.0;" x1="2862.7" x2="2862.7" y1="1030.79" y2="1150.12"/>
  <line id="right-margin-Black-M" style="fill:none;stroke:#00AEEF;stroke-width:0.5;opacity:1.0;" x1="3004.1" x2="3004.1" y1="1030.79" y2="1150.12"/>
  <line id="left-margin-Ultralight-L" style="fill:none;stroke:#00AEEF;stroke-width:0.5;opacity:1.0;" x1="475.165" x2="475.165" y1="1460.79" y2="1580.12"/>
  <line id="right-margin-Ultralight-L" style="fill:none;stroke:#00AEEF;stroke-width:0.5;opacity:1.0;" x1="644.257" x2="644.257" y1="1460.79" y2="1580.12"/>
  <line id="left-margin-Thin-L" style="fill:none;stroke:#00AEEF;stroke-width:0.5;opacity:1.0;" x1="771.315" x2="771.315" y1="1460.79" y2="1580.12"/>
  <line id="right-margin-Thin-L" style="fill:none;stroke:#00AEEF;stroke-width:0.5;opacity:1.0;" x1="941.53" x2="941.53" y1="1460.79" y2="1580.12"/>
  <line id="left-margin-Light-L" style="fill:none;stroke:#00AEEF;stroke-width:0.5;opacity:1.0;" x1="1066.95" x2="1066.95" y1="1460.79" y2="1580.12"/>
  <line id="right-margin-Light-L" style="fill:none;stroke:#00AEEF;stroke-width:0.5;opacity:1.0;" x1="1239.31" x2="1239.31" y1="1460.79" y2="1580.12"/>
  <line id="left-margin-Regular-L" style="fill:none;stroke:#00AEEF;stroke-width:0.5;opacity:1.0;" x1="1362.86" x2="1362.86" y1="1460.79" y2="1580.12"/>
  <line id="right-margin-Regular-L" style="fill:none;stroke:#00AEEF;stroke-width:0.5;opacity:1.0;" x1="1536.83" x2="1536.83" y1="1460.79" y2="1580.12"/>
  <line id="left-margin-Medium-L" style="fill:none;stroke:#00AEEF;stroke-width:0.5;opacity:1.0;" x1="1658.91" x2="1658.91" y1="1460.79" y2="1580.12"/>
  <line id="right-margin-Medium-L" style="fill:none;stroke:#00AEEF;stroke-width:0.5;opacity:1.0;" x1="1834.2" x2="1834.2" y1="1460.79" y2="1580.12"/>
  <line id="left-margin-Semibold-L" style="fill:none;stroke:#00AEEF;stroke-width:0.5;opacity:1.0;" x1="1955.11" x2="1955.11" y1="1460.79" y2="1580.12"/>
  <line id="right-margin-Semibold-L" style="fill:none;stroke:#00AEEF;stroke-width:0.5;opacity:1.0;" x1="2131.43" x2="2131.43" y1="1460.79" y2="1580.12"/>
  <line id="left-margin-Bold-L" style="fill:none;stroke:#00AEEF;stroke-width:0.5;opacity:1.0;" x1="2251.16" x2="2251.16" y1="1460.79" y2="1580.12"/>
  <line id="right-margin-Bold-L" style="fill:none;stroke:#00AEEF;stroke-width:0.5;opacity:1.0;" x1="2428.8" x2="2428.8" y1="1460.79" y2="1580.12"/>
  <line id="left-margin-Heavy-L" style="fill:none;stroke:#00AEEF;stroke-width:0.5;opacity:1.0;" x1="2546.89" x2="2546.89" y1="1460.79" y2="1580.12"/>
  <line id="right-margin-Heavy-L" style="fill:none;stroke:#00AEEF;stroke-width:0.5;opacity:1.0;" x1="2726.48" x2="2726.48" y1="1460.79" y2="1580.12"/>
  <line id="left-margin-Black-L" style="fill:none;stroke:#00AEEF;stroke-width:0.5;opacity:1.0;" x1="2842.75" x2="2842.75" y1="1460.79" y2="1580.12"/>
  <line id="right-margin-Black-L" style="fill:none;stroke:#00AEEF;stroke-width:0.5;opacity:1.0;" x1="3024.05" x2="3024.05" y1="1460.79" y2="1580.12"/>
 </g>
 <g id="Symbols">
  <g id="Black-L" transform="matrix(1 0 0 1 2842.75 1556)">
   <path class="monochrome-0 multicolor-0:tintColor hierarchical-0:primary SFSymbolsPreviewWireframe" d="M29.1938-25.2758L44.8666-25.2758L37.8583-38.825C37.8235-38.8921 37.7892-38.9598 37.7569-39.0284C35.7253-43.24 36.0085-48.1143 38.5143-52.066C41.0206-56.0172 45.3239-58.3765 50.0266-58.3765L68.8069-58.3765C76.4671-58.3765 86.9695-55.444 93.5738-41.5078L104.225-20.8475C106.288-16.8475 104.694-11.9432 100.666-9.89511C99.4708-9.28735 98.1951-8.99899 96.9384-9C93.9609-9 91.0885-10.6173 89.6382-13.4303L82.5618-27.156L62.3179-27.156L65.576-20.8572C66.8813-18.3346 66.7692-15.3187 65.2815-12.8988C63.7933-10.478 61.1436-9.00102 58.2881-9.00102L29.1938-9.00102C24.6683-9.00102 21-12.6445 21-17.1384C21-21.6333 24.6683-25.2758 29.1938-25.2758ZM77.7387-72.4842C77.7387-81.6057 85.1848-89 94.3696-89C103.554-89 111-81.6057 111-72.4842C111-63.3627 103.554-55.9684 94.3696-55.9684C85.1848-55.9684 77.7387-63.3627 77.7387-72.4842Z"/>
  </g>
  <g id="Heavy-L" transform="matrix(1 0 0 1 2546.89 1556)">
   <path class="monochrome-0 multicolor-0:tintColor hierarchical-0:primary SFSymbolsPreviewWireframe" d="M29.1938-24.2758L44.8666-24.2758L37.8583-37.825C37.8235-37.8921 37.7892-37.9598 37.7569-38.0284C35.7253-42.24 36.0085-47.1143 38.5143-51.066C41.0206-55.0172 45.3239-57.3765 50.0266-57.3765L68.8069-57.3765C76.4671-57.3765 86.9695-54.444 93.5738-40.5078L104.225-19.8475C106.288-15.8475 104.694-10.9432 100.666-8.89511C99.4708-8.28735 98.1951-7.99899 96.9384-8C93.9609-8 91.0885-9.6173 89.6382-12.4303L82.5618-26.156L62.3179-26.156L65.576-19.8572C66.8813-17.3346 66.7692-14.3187 65.2815-11.8988C63.7933-9.47795 61.1436-8.00102 58.2881-8.00102L29.1938-8.00102C24.6683-8.00102 21-11.6445 21-16.1384C21-20.6333 24.6683-24.2758 29.1938-24.2758ZM77.7387-71.4842C77.7387-80.6057 85.1848-88 94.3696-88C103.554-88 111-80.6057 111-71.4842C111-62.3627 103.554-54.9684 94.3696-54.9684C85.1848-54.9684 77.7387-62.3627 77.7387-71.4842Z"/>
  </g>
  <g id="Bold-L" transform="matrix(1 0 0 1 2251.16 1556)">
   <path class="monochrome-0 multicolor-0:tintColor hierarchical-0:primary SFSymbolsPreviewWireframe" d="M29.1938-22.2758L44.8666-22.2758L37.8583-35.825C37.8235-35.8921 37.7892-35.9598 37.7569-36.0284C35.7253-40.24 36.0085-45.1143 38.5143-49.066C41.0206-53.0172 45.3239-55.3765 50.0266-55.3765L68.8069-55.3765C76.4671-55.3765 86.9695-52.444 93.5738-38.5078L104.225-17.8475C106.288-13.8475 104.694-8.94319 100.666-6.89511C99.4708-6.28735 98.1951-5.99899 96.9384-6C93.9609-6 91.0885-7.6173 89.6382-10.4303L82.5618-24.156L62.3179-24.156L65.576-17.8572C66.8813-15.3346 66.7692-12.3187 65.2815-9.89882C63.7933-7.47795 61.1436-6.00102 58.2881-6.00102L29.1938-6.00102C24.6683-6.00102 21-9.64453 21-14.1384C21-18.6333 24.6683-22.2758 29.1938-22.2758ZM77.7387-69.4842C77.7387-78.6057 85.1848-86 94.3696-86C103.554-86 111-78.6057 111-69.4842C111-60.3627 103.554-52.9684 94.3696-52.9684C85.1848-52.9684 77.7387-60.3627 77.7387-69.4842Z"/>
  </g>
  <g id="Semibold-L" transform="matrix(1 0 0 1 1955.11 1556)">
   <path class="monochrome-0 multicolor-0:tintColor hierarchical-0:primary SFSymbolsPreviewWireframe" d="M29.1938-21.2758L44.8666-21.2758L37.8583-34.825C37.8235-34.8921 37.7892-34.9598 37.7569-35.0284C35.7253-39.24 36.0085-44.1143 38.5143-48.066C41.0206-52.0172 45.3239-54.3765 50.0266-54.3765L68.8069-54.3765C76.4671-54.3765 86.9695-51.444 93.5738-37.5078L104.225-16.8475C106.288-12.8475 104.694-7.94319 100.666-5.89511C99.4708-5.28735 98.1951-4.99899 96.9384-5C93.9609-5 91.0885-6.6173 89.6382-9.43029L82.5618-23.156L62.3179-23.156L65.576-16.8572C66.8813-14.3346 66.7692-11.3187 65.2815-8.89882C63.7933-6.47795 61.1436-5.00102 58.2881-5.00102L29.1938-5.00102C24.6683-5.00102 21-8.64453 21-13.1384C21-17.6333 24.6683-21.2758 29.1938-21.2758ZM77.7387-68.4842C77.7387-77.6057 85.1848-85 94.3696-85C103.554-85 111-77.6057 111-68.4842C111-59.3627 103.554-51.9684 94.3696-51.9684C85.1848-51.9684 77.7387-59.3627 77.7387-68.4842Z"/>
  </g>
  <g id="Medium-L" transform="matrix(1 0 0 1 1658.91 1556)">
   <path class="monochrome-0 multicolor-0:tintColor hierarchical-0:primary SFSymbolsPreviewWireframe" d="M29.1938-20.2758L44.8666-20.2758L37.8583-33.825C37.8235-33.8921 37.7892-33.9598 37.7569-34.0284C35.7253-38.24 36.0085-43.1143 38.5143-47.066C41.0206-51.0172 45.3239-53.3765 50.0266-53.3765L68.8069-53.3765C76.4671-53.3765 86.9695-50.444 93.5738-36.5078L104.225-15.8475C106.288-11.8475 104.694-6.94319 100.666-4.89511C99.4708-4.28735 98.1951-3.99899 96.9384-4C93.9609-4 91.0885-5.6173 89.6382-8.43029L82.5618-22.156L62.3179-22.156L65.576-15.8572C66.8813-13.3346 66.7692-10.3187 65.2815-7.89882C63.7933-5.47795 61.1436-4.00102 58.2881-4.00102L29.1938-4.00102C24.6683-4.00102 21-7.64453 21-12.1384C21-16.6333 24.6683-20.2758 29.1938-20.2758ZM77.7387-67.4842C77.7387-76.6057 85.1848-84 94.3696-84C103.554-84 111-76.6057 111-67.4842C111-58.3627 103.554-50.9684 94.3696-50.9684C85.1848-50.9684 77.7387-58.3627 77.7387-67.4842Z"/>
  </g>
  <g id="Regular-L" transform="matrix(1 0 0 1 1362.86 1556)">
   <path class="monochrome-0 multicolor-0:tintColor hierarchical-0:primary SFSymbolsPreviewWireframe" d="M29.1938-19.2758L44.8666-19.2758L37.8583-32.825C37.8235-32.8921 37.7892-32.9598 37.7569-33.0284C35.7253-37.24 36.0085-42.1143 38.5143-46.066C41.0206-50.0172 45.3239-52.3765 50.0266-52.3765L68.8069-52.3765C76.4671-52.3765 86.9695-49.444 93.5738-35.5078L104.225-14.8475C106.288-10.8475 104.694-5.94319 100.666-3.89511C99.4708-3.28735 98.1951-2.99899 96.9384-3C93.9609-3 91.0885-4.6173 89.6382-7.43029L82.5618-21.156L62.3179-21.156L65.576-14.8572C66.8813-12.3346 66.7692-9.31867 65.2815-6.89882C63.7933-4.47795 61.1436-3.00102 58.2881-3.00102L29.1938-3.00102C24.6683-3.00102 21-6.64453 21-11.1384C21-15.6333 24.6683-19.2758 29.1938-19.2758ZM77.7387-66.4842C77.7387-75.6057 85.1848-83 94.3696-83C103.554-83 111-75.6057 111-66.4842C111-57.3627 103.554-49.9684 94.3696-49.9684C85.1848-49.9684 77.7387-57.3627 77.7387-66.4842Z"/>
  </g>
  <g id="Light-L" transform="matrix(1 0 0 1 1066.95 1556)">
   <path class="monochrome-0 multicolor-0:tintColor hierarchical-0:primary SFSymbolsPreviewWireframe" d="M29.1938-18.2758L44.8666-18.2758L37.8583-31.825C37.8235-31.8921 37.7892-31.9598 37.7569-32.0284C35.7253-36.24 36.0085-41.1143 38.5143-45.066C41.0206-49.0172 45.3239-51.3765 50.0266-51.3765L68.8069-51.3765C76.4671-51.3765 86.9695-48.444 93.5738-34.5078L104.225-13.8475C106.288-9.84748 104.694-4.94319 100.666-2.89511C99.4708-2.28735 98.1951-1.99899 96.9384-2C93.9609-2 91.0885-3.6173 89.6382-6.43029L82.5618-20.156L62.3179-20.156L65.576-13.8572C66.8813-11.3346 66.7692-8.31867 65.2815-5.89882C63.7933-3.47795 61.1436-2.00102 58.2881-2.00102L29.1938-2.00102C24.6683-2.00102 21-5.64453 21-10.1384C21-14.6333 24.6683-18.2758 29.1938-18.2758ZM77.7387-65.4842C77.7387-74.6057 85.1848-82 94.3696-82C103.554-82 111-74.6057 111-65.4842C111-56.3627 103.554-48.9684 94.3696-48.9684C85.1848-48.9684 77.7387-56.3627 77.7387-65.4842Z"/>
  </g>
  <g id="Thin-L" transform="matrix(1 0 0 1 771.315 1556)">
   <path class="monochrome-0 multicolor-0:tintColor hierarchical-0:primary SFSymbolsPreviewWireframe" d="M29.1938-17.2758L44.8666-17.2758L37.8583-30.825C37.8235-30.8921 37.7892-30.9598 37.7569-31.0284C35.7253-35.24 36.0085-40.1143 38.5143-44.066C41.0206-48.0172 45.3239-50.3765 50.0266-50.3765L68.8069-50.3765C76.4671-50.3765 86.9695-47.444 93.5738-33.5078L104.225-12.8475C106.288-8.84748 104.694-3.94319 100.666-1.89511C99.4708-1.28735 98.1951-0.998985 96.9384-0.999997C93.9609-0.999997 91.0885-2.6173 89.6382-5.43029L82.5618-19.156L62.3179-19.156L65.576-12.8572C66.8813-10.3346 66.7692-7.31867 65.2815-4.89882C63.7933-2.47795 61.1436-1.00102 58.2881-1.00102L29.1938-1.00102C24.6683-1.00102 21-4.64453 21-9.13839C21-13.6333 24.6683-17.2758 29.1938-17.2758ZM77.7387-64.4842C77.7387-73.6057 85.1848-81 94.3696-81C103.554-81 111-73.6057 111-64.4842C111-55.3627 103.554-47.9684 94.3696-47.9684C85.1848-47.9684 77.7387-55.3627 77.7387-64.4842Z"/>
  </g>
  <g id="Ultralight-L" transform="matrix(1 0 0 1 475.165 1556)">
   <path class="monochrome-0 multicolor-0:tintColor hierarchical-0:primary SFSymbolsPreviewWireframe" d="M29.1938-16.2758L44.8666-16.2758L37.8583-29.825C37.8235-29.8921 37.7892-29.9598 37.7569-30.0284C35.7253-34.24 36.0085-39.1143 38.5143-43.066C41.0206-47.0172 45.3239-49.3765 50.0266-49.3765L68.8069-49.3765C76.4671-49.3765 86.9695-46.444 93.5738-32.5078L104.225-11.8475C106.288-7.84748 104.694-2.94319 100.666-0.895113C99.4708-0.287353 98.1951 0.0010145 96.9384 2.7e-06C93.9609 2.7e-06 91.0885-1.6173 89.6382-4.43029L82.5618-18.156L62.3179-18.156L65.576-11.8572C66.8813-9.33458 66.7692-6.31867 65.2815-3.89882C63.7933-1.47795 61.1436-0.0010199 58.2881-0.0010199L29.1938-0.0010199C24.6683-0.0010199 21-3.64453 21-8.13839C21-12.6333 24.6683-16.2758 29.1938-16.2758ZM77.7387-63.4842C77.7387-72.6057 85.1848-80 94.3696-80C103.554-80 111-72.6057 111-63.4842C111-54.3627 103.554-46.9684 94.3696-46.9684C85.1848-46.9684 77.7387-54.3627 77.7387-63.4842Z"/>
  </g>
  <g id="Black-M" transform="matrix(1 0 0 1 2862.7 1126)">
   <path class="monochrome-0 multicolor-0:tintColor hierarchical-0:primary SFSymbolsPreviewWireframe" d="M25.1938-12.2758L40.8666-12.2758L33.8583-25.825C33.8235-25.8921 33.7892-25.9598 33.7569-26.0284C31.7253-30.24 32.0085-35.1143 34.5143-39.066C37.0206-43.0172 41.3239-45.3765 46.0266-45.3765L64.8069-45.3765C72.4671-45.3765 82.9695-42.444 89.5738-28.5078L100.225-7.8475C102.288-3.84748 100.694 1.05681 96.666 3.10489C95.4708 3.71265 94.1951 4.00101 92.9384 4C89.9609 4 87.0885 2.3827 85.6382-0.430291L78.5618-14.156L58.3179-14.156L61.576-7.85717C62.8813-5.33458 62.7692-2.31867 61.2815 0.101181C59.7933 2.52205 57.1436 3.99898 54.2881 3.99898L25.1938 3.99898C20.6683 3.99898 17 0.355473 17-4.13839C17-8.63327 20.6683-12.2758 25.1938-12.2758ZM73.7387-59.4842C73.7387-68.6057 81.1848-76 90.3696-76C99.5544-76 107-68.6057 107-59.4842C107-50.3627 99.5544-42.9684 90.3696-42.9684C81.1848-42.9684 73.7387-50.3627 73.7387-59.4842Z"/>
  </g>
  <g id="Heavy-M" transform="matrix(1 0 0 1 2566.64 1126)">
   <path class="monochrome-0 multicolor-0:tintColor hierarchical-0:primary SFSymbolsPreviewWireframe" d="M25.1938-11.2758L40.8666-11.2758L33.8583-24.825C33.8235-24.8921 33.7892-24.9598 33.7569-25.0284C31.7253-29.24 32.0085-34.1143 34.5143-38.066C37.0206-42.0172 41.3239-44.3765 46.0266-44.3765L64.8069-44.3765C72.4671-44.3765 82.9695-41.444 89.5738-27.5078L100.225-6.8475C102.288-2.84748 100.694 2.05681 96.666 4.10489C95.4708 4.71265 94.1951 5.00101 92.9384 5C89.9609 5 87.0885 3.3827 85.6382 0.569709L78.5618-13.156L58.3179-13.156L61.576-6.85717C62.8813-4.33458 62.7692-1.31867 61.2815 1.10118C59.7933 3.52205 57.1436 4.99898 54.2881 4.99898L25.1938 4.99898C20.6683 4.99898 17 1.35547 17-3.13839C17-7.63327 20.6683-11.2758 25.1938-11.2758ZM73.7387-58.4842C73.7387-67.6057 81.1848-75 90.3696-75C99.5544-75 107-67.6057 107-58.4842C107-49.3627 99.5544-41.9684 90.3696-41.9684C81.1848-41.9684 73.7387-49.3627 73.7387-58.4842Z"/>
  </g>
  <g id="Bold-M" transform="matrix(1 0 0 1 2270.67 1126)">
   <path class="monochrome-0 multicolor-0:tintColor hierarchical-0:primary SFSymbolsPreviewWireframe" d="M25.1938-9.27576L40.8666-9.27576L33.8583-22.825C33.8235-22.8921 33.7892-22.9598 33.7569-23.0284C31.7253-27.24 32.0085-32.1143 34.5143-36.066C37.0206-40.0172 41.3239-42.3765 46.0266-42.3765L64.8069-42.3765C72.4671-42.3765 82.9695-39.444 89.5738-25.5078L100.225-4.8475C102.288-0.847478 100.694 4.05681 96.666 6.10489C95.4708 6.71265 94.1951 7.00101 92.9384 7C89.9609 7 87.0885 5.3827 85.6382 2.56971L78.5618-11.156L58.3179-11.156L61.576-4.85717C62.8813-2.33458 62.7692 0.681331 61.2815 3.10118C59.7933 5.52205 57.1436 6.99898 54.2881 6.99898L25.1938 6.99898C20.6683 6.99898 17 3.35547 17-1.13839C17-5.63327 20.6683-9.27576 25.1938-9.27576ZM73.7387-56.4842C73.7387-65.6057 81.1848-73 90.3696-73C99.5544-73 107-65.6057 107-56.4842C107-47.3627 99.5544-39.9684 90.3696-39.9684C81.1848-39.9684 73.7387-47.3627 73.7387-56.4842Z"/>
  </g>
  <g id="Semibold-M" transform="matrix(1 0 0 1 1974.47 1126)">
   <path class="monochrome-0 multicolor-0:tintColor hierarchical-0:primary SFSymbolsPreviewWireframe" d="M25.1938-8.27576L40.8666-8.27576L33.8583-21.825C33.8235-21.8921 33.7892-21.9598 33.7569-22.0284C31.7253-26.24 32.0085-31.1143 34.5143-35.066C37.0206-39.0172 41.3239-41.3765 46.0266-41.3765L64.8069-41.3765C72.4671-41.3765 82.9695-38.444 89.5738-24.5078L100.225-3.8475C102.288 0.152522 100.694 5.05681 96.666 7.10489C95.4708 7.71265 94.1951 8.00101 92.9384 8C89.9609 8 87.0885 6.3827 85.6382 3.56971L78.5618-10.156L58.3179-10.156L61.576-3.85717C62.8813-1.33458 62.7692 1.68133 61.2815 4.10118C59.7933 6.52205 57.1436 7.99898 54.2881 7.99898L25.1938 7.99898C20.6683 7.99898 17 4.35547 17-0.138389C17-4.63327 20.6683-8.27576 25.1938-8.27576ZM73.7387-55.4842C73.7387-64.6057 81.1848-72 90.3696-72C99.5544-72 107-64.6057 107-55.4842C107-46.3627 99.5544-38.9684 90.3696-38.9684C81.1848-38.9684 73.7387-46.3627 73.7387-55.4842Z"/>
  </g>
  <g id="Medium-M" transform="matrix(1 0 0 1 1678.15 1126)">
   <path class="monochrome-0 multicolor-0:tintColor hierarchical-0:primary SFSymbolsPreviewWireframe" d="M25.1938-8.27576L40.8666-8.27576L33.8583-21.825C33.8235-21.8921 33.7892-21.9598 33.7569-22.0284C31.7253-26.24 32.0085-31.1143 34.5143-35.066C37.0206-39.0172 41.3239-41.3765 46.0266-41.3765L64.8069-41.3765C72.4671-41.3765 82.9695-38.444 89.5738-24.5078L100.225-3.8475C102.288 0.152522 100.694 5.05681 96.666 7.10489C95.4708 7.71265 94.1951 8.00101 92.9384 8C89.9609 8 87.0885 6.3827 85.6382 3.56971L78.5618-10.156L58.3179-10.156L61.576-3.85717C62.8813-1.33458 62.7692 1.68133 61.2815 4.10118C59.7933 6.52205 57.1436 7.99898 54.2881 7.99898L25.1938 7.99898C20.6683 7.99898 17 4.35547 17-0.138389C17-4.63327 20.6683-8.27576 25.1938-8.27576ZM73.7387-55.4842C73.7387-64.6057 81.1848-72 90.3696-72C99.5544-72 107-64.6057 107-55.4842C107-46.3627 99.5544-38.9684 90.3696-38.9684C81.1848-38.9684 73.7387-46.3627 73.7387-55.4842Z"/>
  </g>
  <g id="Regular-M" transform="matrix(1 0 0 1 1381.95 1126)">
   <path class="monochrome-0 multicolor-0:tintColor hierarchical-0:primary SFSymbolsPreviewWireframe" d="M25.1938-7.27576L40.8666-7.27576L33.8583-20.825C33.8235-20.8921 33.7892-20.9598 33.7569-21.0284C31.7253-25.24 32.0085-30.1143 34.5143-34.066C37.0206-38.0172 41.3239-40.3765 46.0266-40.3765L64.8069-40.3765C72.4671-40.3765 82.9695-37.444 89.5738-23.5078L100.225-2.8475C102.288 1.15252 100.694 6.05681 96.666 8.10489C95.4708 8.71265 94.1951 9.00101 92.9384 9C89.9609 9 87.0885 7.3827 85.6382 4.56971L78.5618-9.156L58.3179-9.156L61.576-2.85717C62.8813-0.334582 62.7692 2.68133 61.2815 5.10118C59.7933 7.52205 57.1436 8.99898 54.2881 8.99898L25.1938 8.99898C20.6683 8.99898 17 5.35547 17 0.861611C17-3.63327 20.6683-7.27576 25.1938-7.27576ZM73.7387-54.4842C73.7387-63.6057 81.1848-71 90.3696-71C99.5544-71 107-63.6057 107-54.4842C107-45.3627 99.5544-37.9684 90.3696-37.9684C81.1848-37.9684 73.7387-45.3627 73.7387-54.4842Z"/>
  </g>
  <g id="Light-M" transform="matrix(1 0 0 1 1085.97 1126)">
   <path class="monochrome-0 multicolor-0:tintColor hierarchical-0:primary SFSymbolsPreviewWireframe" d="M25.1938-6.27576L40.8666-6.27576L33.8583-19.825C33.8235-19.8921 33.7892-19.9598 33.7569-20.0284C31.7253-24.24 32.0085-29.1143 34.5143-33.066C37.0206-37.0172 41.3239-39.3765 46.0266-39.3765L64.8069-39.3765C72.4671-39.3765 82.9695-36.444 89.5738-22.5078L100.225-1.8475C102.288 2.15252 100.694 7.05681 96.666 9.10489C95.4708 9.71265 94.1951 10.001 92.9384 10C89.9609 10 87.0885 8.3827 85.6382 5.56971L78.5618-8.156L58.3179-8.156L61.576-1.85717C62.8813 0.665418 62.7692 3.68133 61.2815 6.10118C59.7933 8.52205 57.1436 9.99898 54.2881 9.99898L25.1938 9.99898C20.6683 9.99898 17 6.35547 17 1.86161C17-2.63327 20.6683-6.27576 25.1938-6.27576ZM73.7387-53.4842C73.7387-62.6057 81.1848-70 90.3696-70C99.5544-70 107-62.6057 107-53.4842C107-44.3627 99.5544-36.9684 90.3696-36.9684C81.1848-36.9684 73.7387-44.3627 73.7387-53.4842Z"/>
  </g>
  <g id="Thin-M" transform="matrix(1 0 0 1 790.236 1126)">
   <path class="monochrome-0 multicolor-0:tintColor hierarchical-0:primary SFSymbolsPreviewWireframe" d="M25.1938-5.27576L40.8666-5.27576L33.8583-18.825C33.8235-18.8921 33.7892-18.9598 33.7569-19.0284C31.7253-23.24 32.0085-28.1143 34.5143-32.066C37.0206-36.0172 41.3239-38.3765 46.0266-38.3765L64.8069-38.3765C72.4671-38.3765 82.9695-35.444 89.5738-21.5078L100.225-0.847503C102.288 3.15252 100.694 8.05681 96.666 10.1049C95.4708 10.7126 94.1951 11.001 92.9384 11C89.9609 11 87.0885 9.3827 85.6382 6.56971L78.5618-7.156L58.3179-7.156L61.576-0.857166C62.8813 1.66542 62.7692 4.68133 61.2815 7.10118C59.7933 9.52205 57.1436 10.999 54.2881 10.999L25.1938 10.999C20.6683 10.999 17 7.35547 17 2.86161C17-1.63327 20.6683-5.27576 25.1938-5.27576ZM73.7387-52.4842C73.7387-61.6057 81.1848-69 90.3696-69C99.5544-69 107-61.6057 107-52.4842C107-43.3627 99.5544-35.9684 90.3696-35.9684C81.1848-35.9684 73.7387-43.3627 73.7387-52.4842Z"/>
  </g>
  <g id="Ultralight-M" transform="matrix(1 0 0 1 494.013 1126)">
   <path class="monochrome-0 multicolor-0:tintColor hierarchical-0:primary SFSymbolsPreviewWireframe" d="M25.1938-4.27576L40.8666-4.27576L33.8583-17.825C33.8235-17.8921 33.7892-17.9598 33.7569-18.0284C31.7253-22.24 32.0085-27.1143 34.5143-31.066C37.0206-35.0172 41.3239-37.3765 46.0266-37.3765L64.8069-37.3765C72.4671-37.3765 82.9695-34.444 89.5738-20.5078L100.225 0.152497C102.288 4.15252 100.694 9.05681 96.666 11.1049C95.4708 11.7126 94.1951 12.001 92.9384 12C89.9609 12 87.0885 10.3827 85.6382 7.56971L78.5618-6.156L58.3179-6.156L61.576 0.142834C62.8813 2.66542 62.7692 5.68133 61.2815 8.10118C59.7933 10.522 57.1436 11.999 54.2881 11.999L25.1938 11.999C20.6683 11.999 17 8.35547 17 3.86161C17-0.633268 20.6683-4.27576 25.1938-4.27576ZM73.7387-51.4842C73.7387-60.6057 81.1848-68 90.3696-68C99.5544-68 107-60.6057 107-51.4842C107-42.3627 99.5544-34.9684 90.3696-34.9684C81.1848-34.9684 73.7387-42.3627 73.7387-51.4842Z"/>
  </g>
  <g id="Black-S" transform="matrix(1 0 0 1 2877.83 696)">
   <path class="monochrome-0 multicolor-0:tintColor hierarchical-0:primary SFSymbolsPreviewWireframe" d="M22.1938-1.27576L37.8666-1.27576L30.8583-14.825C30.8235-14.8921 30.7892-14.9598 30.7569-15.0284C28.7253-19.24 29.0085-24.1143 31.5143-28.066C34.0206-32.0172 38.3239-34.3765 43.0266-34.3765L61.8069-34.3765C69.4671-34.3765 79.9695-31.444 86.5738-17.5078L97.2252 3.1525C99.2875 7.15252 97.6943 12.0568 93.666 14.1049C92.4708 14.7126 91.1951 15.001 89.9384 15C86.9609 15 84.0885 13.3827 82.6382 10.5697L75.5618-3.156L55.3179-3.156L58.576 3.14283C59.8813 5.66542 59.7692 8.68133 58.2815 11.1012C56.7933 13.522 54.1436 14.999 51.2881 14.999L22.1938 14.999C17.6683 14.999 14 11.3555 14 6.86161C14 2.36673 17.6683-1.27576 22.1938-1.27576ZM70.7387-48.4842C70.7387-57.6057 78.1848-65 87.3696-65C96.5544-65 104-57.6057 104-48.4842C104-39.3627 96.5544-31.9684 87.3696-31.9684C78.1848-31.9684 70.7387-39.3627 70.7387-48.4842Z"/>
  </g>
  <g id="Heavy-S" transform="matrix(1 0 0 1 2581.61 696)">
   <path class="monochrome-0 multicolor-0:tintColor hierarchical-0:primary SFSymbolsPreviewWireframe" d="M22.1938-1.27576L37.8666-1.27576L30.8583-14.825C30.8235-14.8921 30.7892-14.9598 30.7569-15.0284C28.7253-19.24 29.0085-24.1143 31.5143-28.066C34.0206-32.0172 38.3239-34.3765 43.0266-34.3765L61.8069-34.3765C69.4671-34.3765 79.9695-31.444 86.5738-17.5078L97.2252 3.1525C99.2875 7.15252 97.6943 12.0568 93.666 14.1049C92.4708 14.7126 91.1951 15.001 89.9384 15C86.9609 15 84.0885 13.3827 82.6382 10.5697L75.5618-3.156L55.3179-3.156L58.576 3.14283C59.8813 5.66542 59.7692 8.68133 58.2815 11.1012C56.7933 13.522 54.1436 14.999 51.2881 14.999L22.1938 14.999C17.6683 14.999 14 11.3555 14 6.86161C14 2.36673 17.6683-1.27576 22.1938-1.27576ZM70.7387-48.4842C70.7387-57.6057 78.1848-65 87.3696-65C96.5544-65 104-57.6057 104-48.4842C104-39.3627 96.5544-31.9684 87.3696-31.9684C78.1848-31.9684 70.7387-39.3627 70.7387-48.4842Z"/>
  </g>
  <g id="Bold-S" transform="matrix(1 0 0 1 2285.41 696)">
   <path class="monochrome-0 multicolor-0:tintColor hierarchical-0:primary SFSymbolsPreviewWireframe" d="M22.1938 0.724243L37.8666 0.724243L30.8583-12.825C30.8235-12.8921 30.7892-12.9598 30.7569-13.0284C28.7253-17.24 29.0085-22.1143 31.5143-26.066C34.0206-30.0172 38.3239-32.3765 43.0266-32.3765L61.8069-32.3765C69.4671-32.3765 79.9695-29.444 86.5738-15.5078L97.2252 5.1525C99.2875 9.15252 97.6943 14.0568 93.666 16.1049C92.4708 16.7126 91.1951 17.001 89.9384 17C86.9609 17 84.0885 15.3827 82.6382 12.5697L75.5618-1.156L55.3179-1.156L58.576 5.14283C59.8813 7.66542 59.7692 10.6813 58.2815 13.1012C56.7933 15.522 54.1436 16.999 51.2881 16.999L22.1938 16.999C17.6683 16.999 14 13.3555 14 8.86161C14 4.36673 17.6683 0.724243 22.1938 0.724243ZM70.7387-46.4842C70.7387-55.6057 78.1848-63 87.3696-63C96.5544-63 104-55.6057 104-46.4842C104-37.3627 96.5544-29.9684 87.3696-29.9684C78.1848-29.9684 70.7387-37.3627 70.7387-46.4842Z"/>
  </g>
  <g id="Semibold-S" transform="matrix(1 0 0 1 1989.09 696)">
   <path class="monochrome-0 multicolor-0:tintColor hierarchical-0:primary SFSymbolsPreviewWireframe" d="M22.1938 0.724243L37.8666 0.724243L30.8583-12.825C30.8235-12.8921 30.7892-12.9598 30.7569-13.0284C28.7253-17.24 29.0085-22.1143 31.5143-26.066C34.0206-30.0172 38.3239-32.3765 43.0266-32.3765L61.8069-32.3765C69.4671-32.3765 79.9695-29.444 86.5738-15.5078L97.2252 5.1525C99.2875 9.15252 97.6943 14.0568 93.666 16.1049C92.4708 16.7126 91.1951 17.001 89.9384 17C86.9609 17 84.0885 15.3827 82.6382 12.5697L75.5618-1.156L55.3179-1.156L58.576 5.14283C59.8813 7.66542 59.7692 10.6813 58.2815 13.1012C56.7933 15.522 54.1436 16.999 51.2881 16.999L22.1938 16.999C17.6683 16.999 14 13.3555 14 8.86161C14 4.36673 17.6683 0.724243 22.1938 0.724243ZM70.7387-46.4842C70.7387-55.6057 78.1848-63 87.3696-63C96.5544-63 104-55.6057 104-46.4842C104-37.3627 96.5544-29.9684 87.3696-29.9684C78.1848-29.9684 70.7387-37.3627 70.7387-46.4842Z"/>
  </g>
  <g id="Medium-S" transform="matrix(1 0 0 1 1692.65 696)">
   <path class="monochrome-0 multicolor-0:tintColor hierarchical-0:primary SFSymbolsPreviewWireframe" d="M22.1938 1.72424L37.8666 1.72424L30.8583-11.825C30.8235-11.8921 30.7892-11.9598 30.7569-12.0284C28.7253-16.24 29.0085-21.1143 31.5143-25.066C34.0206-29.0172 38.3239-31.3765 43.0266-31.3765L61.8069-31.3765C69.4671-31.3765 79.9695-28.444 86.5738-14.5078L97.2252 6.1525C99.2875 10.1525 97.6943 15.0568 93.666 17.1049C92.4708 17.7126 91.1951 18.001 89.9384 18C86.9609 18 84.0885 16.3827 82.6382 13.5697L75.5618-0.155998L55.3179-0.155998L58.576 6.14283C59.8813 8.66542 59.7692 11.6813 58.2815 14.1012C56.7933 16.522 54.1436 17.999 51.2881 17.999L22.1938 17.999C17.6683 17.999 14 14.3555 14 9.86161C14 5.36673 17.6683 1.72424 22.1938 1.72424ZM70.7387-45.4842C70.7387-54.6057 78.1848-62 87.3696-62C96.5544-62 104-54.6057 104-45.4842C104-36.3627 96.5544-28.9684 87.3696-28.9684C78.1848-28.9684 70.7387-36.3627 70.7387-45.4842Z"/>
  </g>
  <g id="Regular-S" transform="matrix(1 0 0 1 1396.3 696)">
   <path class="monochrome-0 multicolor-0:tintColor hierarchical-0:primary SFSymbolsPreviewWireframe" d="M22.1938 2.72424L37.8666 2.72424L30.8583-10.825C30.8235-10.8921 30.7892-10.9598 30.7569-11.0284C28.7253-15.24 29.0085-20.1143 31.5143-24.066C34.0206-28.0172 38.3239-30.3765 43.0266-30.3765L61.8069-30.3765C69.4671-30.3765 79.9695-27.444 86.5738-13.5078L97.2252 7.1525C99.2875 11.1525 97.6943 16.0568 93.666 18.1049C92.4708 18.7126 91.1951 19.001 89.9384 19C86.9609 19 84.0885 17.3827 82.6382 14.5697L75.5618 0.844002L55.3179 0.844002L58.576 7.14283C59.8813 9.66542 59.7692 12.6813 58.2815 15.1012C56.7933 17.522 54.1436 18.999 51.2881 18.999L22.1938 18.999C17.6683 18.999 14 15.3555 14 10.8616C14 6.36673 17.6683 2.72424 22.1938 2.72424ZM70.7387-44.4842C70.7387-53.6057 78.1848-61 87.3696-61C96.5544-61 104-53.6057 104-44.4842C104-35.3627 96.5544-27.9684 87.3696-27.9684C78.1848-27.9684 70.7387-35.3627 70.7387-44.4842Z"/>
  </g>
  <g id="Light-S" transform="matrix(1 0 0 1 1100.23 696)">
   <path class="monochrome-0 multicolor-0:tintColor hierarchical-0:primary SFSymbolsPreviewWireframe" d="M22.1938 2.72424L37.8666 2.72424L30.8583-10.825C30.8235-10.8921 30.7892-10.9598 30.7569-11.0284C28.7253-15.24 29.0085-20.1143 31.5143-24.066C34.0206-28.0172 38.3239-30.3765 43.0266-30.3765L61.8069-30.3765C69.4671-30.3765 79.9695-27.444 86.5738-13.5078L97.2252 7.1525C99.2875 11.1525 97.6943 16.0568 93.666 18.1049C92.4708 18.7126 91.1951 19.001 89.9384 19C86.9609 19 84.0885 17.3827 82.6382 14.5697L75.5618 0.844002L55.3179 0.844002L58.576 7.14283C59.8813 9.66542 59.7692 12.6813 58.2815 15.1012C56.7933 17.522 54.1436 18.999 51.2881 18.999L22.1938 18.999C17.6683 18.999 14 15.3555 14 10.8616C14 6.36673 17.6683 2.72424 22.1938 2.72424ZM70.7387-44.4842C70.7387-53.6057 78.1848-61 87.3696-61C96.5544-61 104-53.6057 104-44.4842C104-35.3627 96.5544-27.9684 87.3696-27.9684C78.1848-27.9684 70.7387-35.3627 70.7387-44.4842Z"/>
  </g>
  <g id="Thin-S" transform="matrix(1 0 0 1 804.371 696)">
   <path class="monochrome-0 multicolor-0:tintColor hierarchical-0:primary SFSymbolsPreviewWireframe" d="M22.1938 3.72424L37.8666 3.72424L30.8583-9.82498C30.8235-9.89212 30.7892-9.95976 30.7569-10.0284C28.7253-14.24 29.0085-19.1143 31.5143-23.066C34.0206-27.0172 38.3239-29.3765 43.0266-29.3765L61.8069-29.3765C69.4671-29.3765 79.9695-26.444 86.5738-12.5078L97.2252 8.1525C99.2875 12.1525 97.6943 17.0568 93.666 19.1049C92.4708 19.7126 91.1951 20.001 89.9384 20C86.9609 20 84.0885 18.3827 82.6382 15.5697L75.5618 1.844L55.3179 1.844L58.576 8.14283C59.8813 10.6654 59.7692 13.6813 58.2815 16.1012C56.7933 18.522 54.1436 19.999 51.2881 19.999L22.1938 19.999C17.6683 19.999 14 16.3555 14 11.8616C14 7.36673 17.6683 3.72424 22.1938 3.72424ZM70.7387-43.4842C70.7387-52.6057 78.1848-60 87.3696-60C96.5544-60 104-52.6057 104-43.4842C104-34.3627 96.5544-26.9684 87.3696-26.9684C78.1848-26.9684 70.7387-34.3627 70.7387-43.4842Z"/>
  </g>
  <g id="Ultralight-S" transform="matrix(1 0 0 1 508.1 696)">
   <path class="monochrome-0 multicolor-0:tintColor hierarchical-0:primary SFSymbolsPreviewWireframe" d="M22.1938 4.72424L37.8666 4.72424L30.8583-8.82498C30.8235-8.89212 30.7892-8.95976 30.7569-9.02842C28.7253-13.24 29.0085-18.1143 31.5143-22.066C34.0206-26.0172 38.3239-28.3765 43.0266-28.3765L61.8069-28.3765C69.4671-28.3765 79.9695-25.444 86.5738-11.5078L97.2252 9.1525C99.2875 13.1525 97.6943 18.0568 93.666 20.1049C92.4708 20.7126 91.1951 21.001 89.9384 21C86.9609 21 84.0885 19.3827 82.6382 16.5697L75.5618 2.844L55.3179 2.844L58.576 9.14283C59.8813 11.6654 59.7692 14.6813 58.2815 17.1012C56.7933 19.522 54.1436 20.999 51.2881 20.999L22.1938 20.999C17.6683 20.999 14 17.3555 14 12.8616C14 8.36673 17.6683 4.72424 22.1938 4.72424ZM70.7387-42.4842C70.7387-51.6057 78.1848-59 87.3696-59C96.5544-59 104-51.6057 104-42.4842C104-33.3627 96.5544-25.9684 87.3696-25.9684C78.1848-25.9684 70.7387-33.3627 70.7387-42.4842Z"/>
  </g>
 </g>
</svg>
