<?xml version="1.0" encoding="UTF-8"?>
<!--Generator: Apple Native CoreSVG 232.5-->
<!DOCTYPE svg
PUBLIC "-//W3C//DTD SVG 1.1//EN"
       "http://www.w3.org/Graphics/SVG/1.1/DTD/svg11.dtd">
<svg version="1.1" xmlns="http://www.w3.org/2000/svg" xmlns:xlink="http://www.w3.org/1999/xlink" width="3300" height="2200">
 <!--glyph: "", point size: 100.0, font version: "19.0d7e1", template writer version: "128"-->
 <style>.monochrome-0 {-sfsymbols-motion-group:0}

.multicolor-0:tintColor {-sfsymbols-motion-group:0}

.hierarchical-0:primary {-sfsymbols-motion-group:0}

.SFSymbolsPreviewWireframe {fill:none;opacity:1.0;stroke:black;stroke-width:0.5}
</style>
 <g id="Notes">
  <rect height="2200" id="artboard" style="fill:white;opacity:1" width="3300" x="0" y="0"/>
  <line style="fill:none;stroke:black;opacity:1;stroke-width:0.5;" x1="263" x2="3036" y1="292" y2="292"/>
  <text style="stroke:none;fill:black;font-family:sans-serif;font-size:13;font-weight:bold;" transform="matrix(1 0 0 1 263 322)">Weight/Scale Variations</text>
  <text style="stroke:none;fill:black;font-family:sans-serif;font-size:13;text-anchor:middle;" transform="matrix(1 0 0 1 559.711 322)">Ultralight</text>
  <text style="stroke:none;fill:black;font-family:sans-serif;font-size:13;text-anchor:middle;" transform="matrix(1 0 0 1 856.422 322)">Thin</text>
  <text style="stroke:none;fill:black;font-family:sans-serif;font-size:13;text-anchor:middle;" transform="matrix(1 0 0 1 1153.13 322)">Light</text>
  <text style="stroke:none;fill:black;font-family:sans-serif;font-size:13;text-anchor:middle;" transform="matrix(1 0 0 1 1449.84 322)">Regular</text>
  <text style="stroke:none;fill:black;font-family:sans-serif;font-size:13;text-anchor:middle;" transform="matrix(1 0 0 1 1746.56 322)">Medium</text>
  <text style="stroke:none;fill:black;font-family:sans-serif;font-size:13;text-anchor:middle;" transform="matrix(1 0 0 1 2043.27 322)">Semibold</text>
  <text style="stroke:none;fill:black;font-family:sans-serif;font-size:13;text-anchor:middle;" transform="matrix(1 0 0 1 2339.98 322)">Bold</text>
  <text style="stroke:none;fill:black;font-family:sans-serif;font-size:13;text-anchor:middle;" transform="matrix(1 0 0 1 2636.69 322)">Heavy</text>
  <text style="stroke:none;fill:black;font-family:sans-serif;font-size:13;text-anchor:middle;" transform="matrix(1 0 0 1 2933.4 322)">Black</text>
  <line style="fill:none;stroke:black;opacity:1;stroke-width:0.5;" x1="263" x2="3036" y1="1903" y2="1903"/>
  <g transform="matrix(0.2 0 0 0.2 263 1933)">
   <path d="m46.2402 4.15039c21.5332 0 39.4531-17.8711 39.4531-39.4043s-17.9688-39.4043-39.502-39.4043c-21.4844 0-39.3555 17.8711-39.3555 39.4043s17.9199 39.4043 39.4043 39.4043Zm0-7.42188c-17.7246 0-31.8848-14.209-31.8848-31.9824s14.1113-31.9824 31.8359-31.9824c17.7734 0 32.0312 14.209 32.0312 31.9824s-14.209 31.9824-31.9824 31.9824Zm-17.9688-31.9824c0 2.14844 1.51367 3.61328 3.75977 3.61328h10.498v10.5957c0 2.19727 1.46484 3.71094 3.61328 3.71094 2.24609 0 3.71094-1.51367 3.71094-3.71094v-10.5957h10.5957c2.19727 0 3.71094-1.46484 3.71094-3.61328 0-2.19727-1.51367-3.71094-3.71094-3.71094h-10.5957v-10.5469c0-2.24609-1.46484-3.75977-3.71094-3.75977-2.14844 0-3.61328 1.51367-3.61328 3.75977v10.5469h-10.498c-2.24609 0-3.75977 1.51367-3.75977 3.71094Z"/>
  </g>
  <g transform="matrix(0.2 0 0 0.2 281.506 1933)">
   <path d="m58.5449 14.5508c27.2461 0 49.8047-22.6074 49.8047-49.8047 0-27.2461-22.6074-49.8047-49.8535-49.8047-27.1973 0-49.7559 22.5586-49.7559 49.8047 0 27.1973 22.6074 49.8047 49.8047 49.8047Zm0-8.30078c-23.0469 0-41.4551-18.457-41.4551-41.5039s18.3594-41.5039 41.4062-41.5039 41.5527 18.457 41.5527 41.5039-18.457 41.5039-41.5039 41.5039Zm-22.6562-41.5039c0 2.39258 1.66016 4.00391 4.15039 4.00391h14.3555v14.4043c0 2.44141 1.66016 4.15039 4.05273 4.15039 2.44141 0 4.15039-1.66016 4.15039-4.15039v-14.4043h14.4043c2.44141 0 4.15039-1.61133 4.15039-4.00391 0-2.44141-1.70898-4.15039-4.15039-4.15039h-14.4043v-14.3555c0-2.49023-1.70898-4.19922-4.15039-4.19922-2.39258 0-4.05273 1.70898-4.05273 4.19922v14.3555h-14.3555c-2.49023 0-4.15039 1.70898-4.15039 4.15039Z"/>
  </g>
  <g transform="matrix(0.2 0 0 0.2 304.924 1933)">
   <path d="m74.8535 28.3203c34.8145 0 63.623-28.8086 63.623-63.5742 0-34.8145-28.8574-63.623-63.6719-63.623-34.7656 0-63.5254 28.8086-63.5254 63.623 0 34.7656 28.8086 63.5742 63.5742 63.5742Zm0-9.08203c-30.1758 0-54.4434-24.3164-54.4434-54.4922 0-30.2246 24.2188-54.4922 54.3945-54.4922 30.2246 0 54.541 24.2676 54.541 54.4922 0 30.1758-24.2676 54.4922-54.4922 54.4922Zm-28.8574-54.4922c0 2.58789 1.85547 4.39453 4.58984 4.39453h19.7266v19.7754c0 2.68555 1.85547 4.58984 4.44336 4.58984 2.68555 0 4.54102-1.85547 4.54102-4.58984v-19.7754h19.7754c2.68555 0 4.58984-1.80664 4.58984-4.39453 0-2.73438-1.85547-4.58984-4.58984-4.58984h-19.7754v-19.7266c0-2.73438-1.85547-4.63867-4.54102-4.63867-2.58789 0-4.44336 1.9043-4.44336 4.63867v19.7266h-19.7266c-2.73438 0-4.58984 1.85547-4.58984 4.58984Z"/>
  </g>
  <text style="stroke:none;fill:black;font-family:sans-serif;font-size:13;font-weight:bold;" transform="matrix(1 0 0 1 263 1953)">Design Variations</text>
  <text style="stroke:none;fill:black;font-family:sans-serif;font-size:13;" transform="matrix(1 0 0 1 263 1971)">Symbols are supported in up to nine weights and three scales.</text>
  <text style="stroke:none;fill:black;font-family:sans-serif;font-size:13;" transform="matrix(1 0 0 1 263 1989)">For optimal layout with text and other symbols, vertically align</text>
  <text style="stroke:none;fill:black;font-family:sans-serif;font-size:13;" transform="matrix(1 0 0 1 263 2007)">symbols with the adjacent text.</text>
  <line style="fill:none;stroke:#00AEEF;stroke-width:0.5;opacity:1.0;" x1="776" x2="776" y1="1919" y2="1933"/>
  <g transform="matrix(0.2 0 0 0.2 776 1933)">
   <path d="m16.5527 0.78125c2.58789 0 3.85742-0.976562 4.78516-3.71094l6.29883-17.2363h28.8086l6.29883 17.2363c0.927734 2.73438 2.19727 3.71094 4.73633 3.71094 2.58789 0 4.24805-1.5625 4.24805-4.00391 0-0.830078-0.146484-1.61133-0.537109-2.63672l-22.9004-60.9863c-1.12305-2.97852-3.125-4.49219-6.25-4.49219-3.02734 0-5.07812 1.46484-6.15234 4.44336l-22.9004 61.084c-0.390625 1.02539-0.537109 1.80664-0.537109 2.63672 0 2.44141 1.5625 3.95508 4.10156 3.95508Zm13.4766-28.3691 11.8652-32.8613h0.244141l11.8652 32.8613Z"/>
  </g>
  <line style="fill:none;stroke:#00AEEF;stroke-width:0.5;opacity:1.0;" x1="792.836" x2="792.836" y1="1919" y2="1933"/>
  <text style="stroke:none;fill:black;font-family:sans-serif;font-size:13;font-weight:bold;" transform="matrix(1 0 0 1 776 1953)">Margins</text>
  <text style="stroke:none;fill:black;font-family:sans-serif;font-size:13;" transform="matrix(1 0 0 1 776 1971)">Leading and trailing margins on the left and right side of each symbol</text>
  <text style="stroke:none;fill:black;font-family:sans-serif;font-size:13;" transform="matrix(1 0 0 1 776 1989)">can be adjusted by modifying the x-location of the margin guidelines.</text>
  <text style="stroke:none;fill:black;font-family:sans-serif;font-size:13;" transform="matrix(1 0 0 1 776 2007)">Modifications are automatically applied proportionally to all</text>
  <text style="stroke:none;fill:black;font-family:sans-serif;font-size:13;" transform="matrix(1 0 0 1 776 2025)">scales and weights.</text>
  <g transform="matrix(0.2 0 0 0.2 1289 1933)">
   <path d="m14.209 9.32617 8.49609 8.54492c4.29688 4.3457 9.22852 4.05273 13.8672-1.07422l53.4668-58.9355-4.83398-4.88281-53.0762 58.3984c-1.75781 2.00195-3.41797 2.49023-5.76172 0.146484l-5.85938-5.81055c-2.34375-2.29492-1.80664-4.00391 0.195312-5.81055l57.373-54.0039-4.88281-4.83398-57.959 54.4434c-4.93164 4.58984-5.32227 9.47266-1.02539 13.8184Zm32.0801-90.9668c-2.09961 2.05078-2.24609 4.93164-1.07422 6.88477 1.17188 1.80664 3.4668 2.97852 6.68945 2.14844 7.32422-1.70898 14.9414-2.00195 22.0703 2.68555l-2.92969 7.27539c-1.70898 4.15039-0.830078 7.08008 1.85547 9.81445l11.4746 11.5723c2.44141 2.44141 4.49219 2.53906 7.32422 2.05078l5.32227-0.976562 3.32031 3.36914-0.195312 2.7832c-0.195312 2.49023 0.439453 4.39453 2.88086 6.78711l3.80859 3.71094c2.39258 2.39258 5.46875 2.53906 7.8125 0.195312l14.5508-14.5996c2.34375-2.34375 2.24609-5.32227-0.146484-7.71484l-3.85742-3.80859c-2.39258-2.39258-4.24805-3.17383-6.64062-2.97852l-2.88086 0.244141-3.22266-3.17383 1.2207-5.61523c0.634766-2.83203-0.146484-5.0293-3.07617-7.95898l-10.9863-10.9375c-16.6992-16.6016-38.8672-16.2109-53.3203-1.75781Zm7.4707 1.85547c12.1582-8.88672 28.6133-7.37305 39.7461 3.75977l12.1582 12.0605c1.17188 1.17188 1.36719 2.09961 1.02539 3.80859l-1.61133 7.42188 7.51953 7.42188 4.93164-0.292969c1.26953-0.0488281 1.66016 0.0488281 2.63672 1.02539l2.88086 2.88086-12.207 12.207-2.88086-2.88086c-0.976562-0.976562-1.12305-1.36719-1.07422-2.68555l0.341797-4.88281-7.4707-7.42188-7.61719 1.26953c-1.61133 0.341797-2.34375 0.195312-3.56445-0.976562l-10.0098-10.0098c-1.26953-1.17188-1.41602-2.00195-0.634766-3.85742l4.39453-10.4492c-7.8125-7.27539-17.9688-10.4004-28.125-7.42188-0.78125 0.195312-1.07422-0.439453-0.439453-0.976562Z"/>
  </g>
  <text style="stroke:none;fill:black;font-family:sans-serif;font-size:13;font-weight:bold;" transform="matrix(1 0 0 1 1289 1953)">Exporting</text>
  <text style="stroke:none;fill:black;font-family:sans-serif;font-size:13;" transform="matrix(1 0 0 1 1289 1971)">Symbols should be outlined when exporting to ensure the</text>
  <text style="stroke:none;fill:black;font-family:sans-serif;font-size:13;" transform="matrix(1 0 0 1 1289 1989)">design is preserved when submitting to Xcode.</text>
  <text id="template-version" style="stroke:none;fill:black;font-family:sans-serif;font-size:13;text-anchor:end;" transform="matrix(1 0 0 1 3036 1933)">Template v.5.0</text>
  <text style="stroke:none;fill:black;font-family:sans-serif;font-size:13;text-anchor:end;" transform="matrix(1 0 0 1 3036 1951)">Requires Xcode 15 or greater</text>
  <text id="descriptive-name" style="stroke:none;fill:black;font-family:sans-serif;font-size:13;text-anchor:end;" transform="matrix(1 0 0 1 3036 1969)">Generated from bear</text>
  <text style="stroke:none;fill:black;font-family:sans-serif;font-size:13;text-anchor:end;" transform="matrix(1 0 0 1 3036 1987)">Typeset at 100.0 points</text>
  <text style="stroke:none;fill:black;font-family:sans-serif;font-size:13;" transform="matrix(1 0 0 1 263 726)">Small</text>
  <text style="stroke:none;fill:black;font-family:sans-serif;font-size:13;" transform="matrix(1 0 0 1 263 1156)">Medium</text>
  <text style="stroke:none;fill:black;font-family:sans-serif;font-size:13;" transform="matrix(1 0 0 1 263 1586)">Large</text>
 </g>
 <g id="Guides">
  <g id="H-reference" style="fill:#27AAE1;stroke:none;" transform="matrix(1 0 0 1 339 696)">
   <path d="M0.993654 0L3.63775 0L29.3281-67.1323L30.0303-67.1323L30.0303-70.459L28.1226-70.459ZM11.6885-24.4799L46.9815-24.4799L46.2315-26.7285L12.4385-26.7285ZM55.1196 0L57.7637 0L30.6382-70.459L29.4326-70.459L29.4326-67.1323Z"/>
  </g>
  <line id="Baseline-S" style="fill:none;stroke:#27AAE1;opacity:1;stroke-width:0.5;" x1="263" x2="3036" y1="696" y2="696"/>
  <line id="Capline-S" style="fill:none;stroke:#27AAE1;opacity:1;stroke-width:0.5;" x1="263" x2="3036" y1="625.541" y2="625.541"/>
  <g id="H-reference" style="fill:#27AAE1;stroke:none;" transform="matrix(1 0 0 1 339 1126)">
   <path d="M0.993654 0L3.63775 0L29.3281-67.1323L30.0303-67.1323L30.0303-70.459L28.1226-70.459ZM11.6885-24.4799L46.9815-24.4799L46.2315-26.7285L12.4385-26.7285ZM55.1196 0L57.7637 0L30.6382-70.459L29.4326-70.459L29.4326-67.1323Z"/>
  </g>
  <line id="Baseline-M" style="fill:none;stroke:#27AAE1;opacity:1;stroke-width:0.5;" x1="263" x2="3036" y1="1126" y2="1126"/>
  <line id="Capline-M" style="fill:none;stroke:#27AAE1;opacity:1;stroke-width:0.5;" x1="263" x2="3036" y1="1055.54" y2="1055.54"/>
  <g id="H-reference" style="fill:#27AAE1;stroke:none;" transform="matrix(1 0 0 1 339 1556)">
   <path d="M0.993654 0L3.63775 0L29.3281-67.1323L30.0303-67.1323L30.0303-70.459L28.1226-70.459ZM11.6885-24.4799L46.9815-24.4799L46.2315-26.7285L12.4385-26.7285ZM55.1196 0L57.7637 0L30.6382-70.459L29.4326-70.459L29.4326-67.1323Z"/>
  </g>
  <line id="Baseline-L" style="fill:none;stroke:#27AAE1;opacity:1;stroke-width:0.5;" x1="263" x2="3036" y1="1556" y2="1556"/>
  <line id="Capline-L" style="fill:none;stroke:#27AAE1;opacity:1;stroke-width:0.5;" x1="263" x2="3036" y1="1485.54" y2="1485.54"/>
  <line id="left-margin-Ultralight-S" style="fill:none;stroke:#00AEEF;stroke-width:0.5;opacity:1.0;" x1="508.1" x2="508.1" y1="600.785" y2="720.121"/>
  <line id="right-margin-Ultralight-S" style="fill:none;stroke:#FF3B30;stroke-width:0.5;opacity:1.0;" x1="611.322" x2="611.322" y1="600.785" y2="720.121"/>
  <line id="left-margin-Thin-S" style="fill:none;stroke:#00AEEF;stroke-width:0.5;opacity:1.0;" x1="804.371" x2="804.371" y1="600.785" y2="720.121"/>
  <line id="right-margin-Thin-S" style="fill:none;stroke:#FF3B30;stroke-width:0.5;opacity:1.0;" x1="908.473" x2="908.473" y1="600.785" y2="720.121"/>
  <line id="left-margin-Light-S" style="fill:none;stroke:#00AEEF;stroke-width:0.5;opacity:1.0;" x1="1100.23" x2="1100.23" y1="600.785" y2="720.121"/>
  <line id="right-margin-Light-S" style="fill:none;stroke:#FF3B30;stroke-width:0.5;opacity:1.0;" x1="1206.04" x2="1206.04" y1="600.785" y2="720.121"/>
  <line id="left-margin-Regular-S" style="fill:none;stroke:#00AEEF;stroke-width:0.5;opacity:1.0;" x1="1396.3" x2="1396.3" y1="600.785" y2="720.121"/>
  <line id="right-margin-Regular-S" style="fill:none;stroke:#FF3B30;stroke-width:0.5;opacity:1.0;" x1="1503.38" x2="1503.38" y1="600.785" y2="720.121"/>
  <line id="left-margin-Medium-S" style="fill:none;stroke:#00AEEF;stroke-width:0.5;opacity:1.0;" x1="1692.65" x2="1692.65" y1="600.785" y2="720.121"/>
  <line id="right-margin-Medium-S" style="fill:none;stroke:#FF3B30;stroke-width:0.5;opacity:1.0;" x1="1800.46" x2="1800.46" y1="600.785" y2="720.121"/>
  <line id="left-margin-Semibold-S" style="fill:none;stroke:#00AEEF;stroke-width:0.5;opacity:1.0;" x1="1989.09" x2="1989.09" y1="600.785" y2="720.121"/>
  <line id="right-margin-Semibold-S" style="fill:none;stroke:#FF3B30;stroke-width:0.5;opacity:1.0;" x1="2097.44" x2="2097.44" y1="600.785" y2="720.121"/>
  <line id="left-margin-Bold-S" style="fill:none;stroke:#00AEEF;stroke-width:0.5;opacity:1.0;" x1="2285.41" x2="2285.41" y1="600.785" y2="720.121"/>
  <line id="right-margin-Bold-S" style="fill:none;stroke:#FF3B30;stroke-width:0.5;opacity:1.0;" x1="2394.54" x2="2394.54" y1="600.785" y2="720.121"/>
  <line id="left-margin-Heavy-S" style="fill:none;stroke:#00AEEF;stroke-width:0.5;opacity:1.0;" x1="2581.61" x2="2581.61" y1="600.785" y2="720.121"/>
  <line id="right-margin-Heavy-S" style="fill:none;stroke:#FF3B30;stroke-width:0.5;opacity:1.0;" x1="2691.77" x2="2691.77" y1="600.785" y2="720.121"/>
  <line id="left-margin-Black-S" style="fill:none;stroke:#00AEEF;stroke-width:0.5;opacity:1.0;" x1="2877.83" x2="2877.83" y1="600.785" y2="720.121"/>
  <line id="right-margin-Black-S" style="fill:none;stroke:#FF3B30;stroke-width:0.5;opacity:1.0;" x1="2988.97" x2="2988.97" y1="600.785" y2="720.121"/>
  <line id="left-margin-Ultralight-M" style="fill:none;stroke:#00AEEF;stroke-width:0.5;opacity:1.0;" x1="494.013" x2="494.013" y1="1030.79" y2="1150.12"/>
  <line id="right-margin-Ultralight-M" style="fill:none;stroke:#FF3B30;stroke-width:0.5;opacity:1.0;" x1="625.409" x2="625.409" y1="1030.79" y2="1150.12"/>
  <line id="left-margin-Thin-M" style="fill:none;stroke:#00AEEF;stroke-width:0.5;opacity:1.0;" x1="790.236" x2="790.236" y1="1030.79" y2="1150.12"/>
  <line id="right-margin-Thin-M" style="fill:none;stroke:#FF3B30;stroke-width:0.5;opacity:1.0;" x1="922.609" x2="922.609" y1="1030.79" y2="1150.12"/>
  <line id="left-margin-Light-M" style="fill:none;stroke:#00AEEF;stroke-width:0.5;opacity:1.0;" x1="1085.97" x2="1085.97" y1="1030.79" y2="1150.12"/>
  <line id="right-margin-Light-M" style="fill:none;stroke:#FF3B30;stroke-width:0.5;opacity:1.0;" x1="1220.3" x2="1220.3" y1="1030.79" y2="1150.12"/>
  <line id="left-margin-Regular-M" style="fill:none;stroke:#00AEEF;stroke-width:0.5;opacity:1.0;" x1="1381.95" x2="1381.95" y1="1030.79" y2="1150.12"/>
  <line id="right-margin-Regular-M" style="fill:none;stroke:#00AEEF;stroke-width:0.5;opacity:1.0;" x1="1517.74" x2="1517.74" y1="1030.79" y2="1150.12"/>
  <line id="left-margin-Medium-M" style="fill:none;stroke:#00AEEF;stroke-width:0.5;opacity:1.0;" x1="1678.15" x2="1678.15" y1="1030.79" y2="1150.12"/>
  <line id="right-margin-Medium-M" style="fill:none;stroke:#00AEEF;stroke-width:0.5;opacity:1.0;" x1="1814.96" x2="1814.96" y1="1030.79" y2="1150.12"/>
  <line id="left-margin-Semibold-M" style="fill:none;stroke:#00AEEF;stroke-width:0.5;opacity:1.0;" x1="1974.47" x2="1974.47" y1="1030.79" y2="1150.12"/>
  <line id="right-margin-Semibold-M" style="fill:none;stroke:#00AEEF;stroke-width:0.5;opacity:1.0;" x1="2112.07" x2="2112.07" y1="1030.79" y2="1150.12"/>
  <line id="left-margin-Bold-M" style="fill:none;stroke:#00AEEF;stroke-width:0.5;opacity:1.0;" x1="2270.67" x2="2270.67" y1="1030.79" y2="1150.12"/>
  <line id="right-margin-Bold-M" style="fill:none;stroke:#00AEEF;stroke-width:0.5;opacity:1.0;" x1="2409.29" x2="2409.29" y1="1030.79" y2="1150.12"/>
  <line id="left-margin-Heavy-M" style="fill:none;stroke:#00AEEF;stroke-width:0.5;opacity:1.0;" x1="2566.64" x2="2566.64" y1="1030.79" y2="1150.12"/>
  <line id="right-margin-Heavy-M" style="fill:none;stroke:#00AEEF;stroke-width:0.5;opacity:1.0;" x1="2706.73" x2="2706.73" y1="1030.79" y2="1150.12"/>
  <line id="left-margin-Black-M" style="fill:none;stroke:#00AEEF;stroke-width:0.5;opacity:1.0;" x1="2862.7" x2="2862.7" y1="1030.79" y2="1150.12"/>
  <line id="right-margin-Black-M" style="fill:none;stroke:#00AEEF;stroke-width:0.5;opacity:1.0;" x1="3004.1" x2="3004.1" y1="1030.79" y2="1150.12"/>
  <line id="left-margin-Ultralight-L" style="fill:none;stroke:#00AEEF;stroke-width:0.5;opacity:1.0;" x1="475.165" x2="475.165" y1="1460.79" y2="1580.12"/>
  <line id="right-margin-Ultralight-L" style="fill:none;stroke:#00AEEF;stroke-width:0.5;opacity:1.0;" x1="644.257" x2="644.257" y1="1460.79" y2="1580.12"/>
  <line id="left-margin-Thin-L" style="fill:none;stroke:#00AEEF;stroke-width:0.5;opacity:1.0;" x1="771.315" x2="771.315" y1="1460.79" y2="1580.12"/>
  <line id="right-margin-Thin-L" style="fill:none;stroke:#00AEEF;stroke-width:0.5;opacity:1.0;" x1="941.53" x2="941.53" y1="1460.79" y2="1580.12"/>
  <line id="left-margin-Light-L" style="fill:none;stroke:#00AEEF;stroke-width:0.5;opacity:1.0;" x1="1066.95" x2="1066.95" y1="1460.79" y2="1580.12"/>
  <line id="right-margin-Light-L" style="fill:none;stroke:#00AEEF;stroke-width:0.5;opacity:1.0;" x1="1239.31" x2="1239.31" y1="1460.79" y2="1580.12"/>
  <line id="left-margin-Regular-L" style="fill:none;stroke:#00AEEF;stroke-width:0.5;opacity:1.0;" x1="1362.86" x2="1362.86" y1="1460.79" y2="1580.12"/>
  <line id="right-margin-Regular-L" style="fill:none;stroke:#00AEEF;stroke-width:0.5;opacity:1.0;" x1="1536.83" x2="1536.83" y1="1460.79" y2="1580.12"/>
  <line id="left-margin-Medium-L" style="fill:none;stroke:#00AEEF;stroke-width:0.5;opacity:1.0;" x1="1658.91" x2="1658.91" y1="1460.79" y2="1580.12"/>
  <line id="right-margin-Medium-L" style="fill:none;stroke:#00AEEF;stroke-width:0.5;opacity:1.0;" x1="1834.2" x2="1834.2" y1="1460.79" y2="1580.12"/>
  <line id="left-margin-Semibold-L" style="fill:none;stroke:#00AEEF;stroke-width:0.5;opacity:1.0;" x1="1955.11" x2="1955.11" y1="1460.79" y2="1580.12"/>
  <line id="right-margin-Semibold-L" style="fill:none;stroke:#00AEEF;stroke-width:0.5;opacity:1.0;" x1="2131.43" x2="2131.43" y1="1460.79" y2="1580.12"/>
  <line id="left-margin-Bold-L" style="fill:none;stroke:#00AEEF;stroke-width:0.5;opacity:1.0;" x1="2251.16" x2="2251.16" y1="1460.79" y2="1580.12"/>
  <line id="right-margin-Bold-L" style="fill:none;stroke:#00AEEF;stroke-width:0.5;opacity:1.0;" x1="2428.8" x2="2428.8" y1="1460.79" y2="1580.12"/>
  <line id="left-margin-Heavy-L" style="fill:none;stroke:#00AEEF;stroke-width:0.5;opacity:1.0;" x1="2546.89" x2="2546.89" y1="1460.79" y2="1580.12"/>
  <line id="right-margin-Heavy-L" style="fill:none;stroke:#00AEEF;stroke-width:0.5;opacity:1.0;" x1="2726.48" x2="2726.48" y1="1460.79" y2="1580.12"/>
  <line id="left-margin-Black-L" style="fill:none;stroke:#00AEEF;stroke-width:0.5;opacity:1.0;" x1="2842.75" x2="2842.75" y1="1460.79" y2="1580.12"/>
  <line id="right-margin-Black-L" style="fill:none;stroke:#00AEEF;stroke-width:0.5;opacity:1.0;" x1="3024.05" x2="3024.05" y1="1460.79" y2="1580.12"/>
 </g>
 <g id="Symbols">
  <g id="Black-L" transform="matrix(1 0 0 1 2842.75 1556)">
   <path class="monochrome-0 multicolor-0:tintColor hierarchical-0:primary SFSymbolsPreviewWireframe" d="M79.29-89.07C94.21-88.85 95.69-85.46 100.06-85.34C106.38-85.16 116.04-97.31 129.13-86.33C142.03-75.51 131.52-58.53 131.52-58.53C131.52-58.53 138.7-45.81 139.54-26.43C140.15-12.4 134.75 5.06 110.54 14.96C88.25 24.08 54.99 22.26 34.66 6.65C18.9-5.44 20.01-23.08 20.44-29.09C21.57-44.86 28.46-57.53 28.46-57.53C28.46-57.53 18.27-77.68 30.71-87.23C44.37-97.72 54.09-85.37 59.71-85.82C63.8-86.16 65.14-89.28 79.29-89.07Z"/>
  </g>
  <g id="Heavy-L" transform="matrix(1 0 0 1 2546.89 1556)">
   <path class="monochrome-0 multicolor-0:tintColor hierarchical-0:primary SFSymbolsPreviewWireframe" d="M79.29-88.07C94.21-87.85 95.69-84.46 100.06-84.34C106.38-84.16 116.04-96.31 129.13-85.33C142.03-74.51 131.52-57.53 131.52-57.53C131.52-57.53 138.7-44.81 139.54-25.43C140.15-11.4 134.75 6.06 110.54 15.96C88.25 25.08 54.99 23.26 34.66 7.65C18.9-4.44 20.01-22.08 20.44-28.09C21.57-43.86 28.46-56.53 28.46-56.53C28.46-56.53 18.27-76.68 30.71-86.23C44.37-96.72 54.09-84.37 59.71-84.82C63.8-85.16 65.14-88.28 79.29-88.07Z"/>
  </g>
  <g id="Bold-L" transform="matrix(1 0 0 1 2251.16 1556)">
   <path class="monochrome-0 multicolor-0:tintColor hierarchical-0:primary SFSymbolsPreviewWireframe" d="M79.29-86.07C94.21-85.85 95.69-82.46 100.06-82.34C106.38-82.16 116.04-94.31 129.13-83.33C142.03-72.51 131.52-55.53 131.52-55.53C131.52-55.53 138.7-42.81 139.54-23.43C140.15-9.4 134.75 8.06 110.54 17.96C88.25 27.08 54.99 25.26 34.66 9.65C18.9-2.44 20.01-20.08 20.44-26.09C21.57-41.86 28.46-54.53 28.46-54.53C28.46-54.53 18.27-74.68 30.71-84.23C44.37-94.72 54.09-82.37 59.71-82.82C63.8-83.16 65.14-86.28 79.29-86.07Z"/>
  </g>
  <g id="Semibold-L" transform="matrix(1 0 0 1 1955.11 1556)">
   <path class="monochrome-0 multicolor-0:tintColor hierarchical-0:primary SFSymbolsPreviewWireframe" d="M79.29-85.07C94.21-84.85 95.69-81.46 100.06-81.34C106.38-81.16 116.04-93.31 129.13-82.33C142.03-71.51 131.52-54.53 131.52-54.53C131.52-54.53 138.7-41.81 139.54-22.43C140.15-8.4 134.75 9.06 110.54 18.96C88.25 28.08 54.99 26.26 34.66 10.65C18.9-1.44 20.01-19.08 20.44-25.09C21.57-40.86 28.46-53.53 28.46-53.53C28.46-53.53 18.27-73.68 30.71-83.23C44.37-93.72 54.09-81.37 59.71-81.82C63.8-82.16 65.14-85.28 79.29-85.07Z"/>
  </g>
  <g id="Medium-L" transform="matrix(1 0 0 1 1658.91 1556)">
   <path class="monochrome-0 multicolor-0:tintColor hierarchical-0:primary SFSymbolsPreviewWireframe" d="M79.29-84.07C94.21-83.85 95.69-80.46 100.06-80.34C106.38-80.16 116.04-92.31 129.13-81.33C142.03-70.51 131.52-53.53 131.52-53.53C131.52-53.53 138.7-40.81 139.54-21.43C140.15-7.4 134.75 10.06 110.54 19.96C88.25 29.08 54.99 27.26 34.66 11.65C18.9-0.44 20.01-18.08 20.44-24.09C21.57-39.86 28.46-52.53 28.46-52.53C28.46-52.53 18.27-72.68 30.71-82.23C44.37-92.72 54.09-80.37 59.71-80.82C63.8-81.16 65.14-84.28 79.29-84.07Z"/>
  </g>
  <g id="Regular-L" transform="matrix(1 0 0 1 1362.86 1556)">
   <path class="monochrome-0 multicolor-0:tintColor hierarchical-0:primary SFSymbolsPreviewWireframe" d="M79.29-83.07C94.21-82.85 95.69-79.46 100.06-79.34C106.38-79.16 116.04-91.31 129.13-80.33C142.03-69.51 131.52-52.53 131.52-52.53C131.52-52.53 138.7-39.81 139.54-20.43C140.15-6.4 134.75 11.06 110.54 20.96C88.25 30.08 54.99 28.26 34.66 12.65C18.9 0.56 20.01-17.08 20.44-23.09C21.57-38.86 28.46-51.53 28.46-51.53C28.46-51.53 18.27-71.68 30.71-81.23C44.37-91.72 54.09-79.37 59.71-79.82C63.8-80.16 65.14-83.28 79.29-83.07Z"/>
  </g>
  <g id="Light-L" transform="matrix(1 0 0 1 1066.95 1556)">
   <path class="monochrome-0 multicolor-0:tintColor hierarchical-0:primary SFSymbolsPreviewWireframe" d="M79.29-82.07C94.21-81.85 95.69-78.46 100.06-78.34C106.38-78.16 116.04-90.31 129.13-79.33C142.03-68.51 131.52-51.53 131.52-51.53C131.52-51.53 138.7-38.81 139.54-19.43C140.15-5.4 134.75 12.06 110.54 21.96C88.25 31.08 54.99 29.26 34.66 13.65C18.9 1.56 20.01-16.08 20.44-22.09C21.57-37.86 28.46-50.53 28.46-50.53C28.46-50.53 18.27-70.68 30.71-80.23C44.37-90.72 54.09-78.37 59.71-78.82C63.8-79.16 65.14-82.28 79.29-82.07Z"/>
  </g>
  <g id="Thin-L" transform="matrix(1 0 0 1 771.315 1556)">
   <path class="monochrome-0 multicolor-0:tintColor hierarchical-0:primary SFSymbolsPreviewWireframe" d="M79.29-81.07C94.21-80.85 95.69-77.46 100.06-77.34C106.38-77.16 116.04-89.31 129.13-78.33C142.03-67.51 131.52-50.53 131.52-50.53C131.52-50.53 138.7-37.81 139.54-18.43C140.15-4.4 134.75 13.06 110.54 22.96C88.25 32.08 54.99 30.26 34.66 14.65C18.9 2.56 20.01-15.08 20.44-21.09C21.57-36.86 28.46-49.53 28.46-49.53C28.46-49.53 18.27-69.68 30.71-79.23C44.37-89.72 54.09-77.37 59.71-77.82C63.8-78.16 65.14-81.28 79.29-81.07Z"/>
  </g>
  <g id="Ultralight-L" transform="matrix(1 0 0 1 475.165 1556)">
   <path class="monochrome-0 multicolor-0:tintColor hierarchical-0:primary SFSymbolsPreviewWireframe" d="M79.29-80.07C94.21-79.85 95.69-76.46 100.06-76.34C106.38-76.16 116.04-88.31 129.13-77.33C142.03-66.51 131.52-49.53 131.52-49.53C131.52-49.53 138.7-36.81 139.54-17.43C140.15-3.4 134.75 14.06 110.54 23.96C88.25 33.08 54.99 31.26 34.66 15.65C18.9 3.56 20.01-14.08 20.44-20.09C21.57-35.86 28.46-48.53 28.46-48.53C28.46-48.53 18.27-68.68 30.71-78.23C44.37-88.72 54.09-76.37 59.71-76.82C63.8-77.16 65.14-80.28 79.29-80.07Z"/>
  </g>
  <g id="Black-M" transform="matrix(1 0 0 1 2862.7 1126)">
   <path class="monochrome-0 multicolor-0:tintColor hierarchical-0:primary SFSymbolsPreviewWireframe" d="M75.29-76.07C90.21-75.85 91.69-72.46 96.06-72.34C102.38-72.16 112.04-84.31 125.13-73.33C138.03-62.51 127.52-45.53 127.52-45.53C127.52-45.53 134.7-32.81 135.54-13.43C136.15 0.6 130.75 18.06 106.54 27.96C84.25 37.08 50.99 35.26 30.66 19.65C14.9 7.56 16.01-10.08 16.44-16.09C17.57-31.86 24.46-44.53 24.46-44.53C24.46-44.53 14.27-64.68 26.71-74.23C40.37-84.72 50.09-72.37 55.71-72.82C59.8-73.16 61.14-76.28 75.29-76.07Z"/>
  </g>
  <g id="Heavy-M" transform="matrix(1 0 0 1 2566.64 1126)">
   <path class="monochrome-0 multicolor-0:tintColor hierarchical-0:primary SFSymbolsPreviewWireframe" d="M75.29-75.07C90.21-74.85 91.69-71.46 96.06-71.34C102.38-71.16 112.04-83.31 125.13-72.33C138.03-61.51 127.52-44.53 127.52-44.53C127.52-44.53 134.7-31.81 135.54-12.43C136.15 1.6 130.75 19.06 106.54 28.96C84.25 38.08 50.99 36.26 30.66 20.65C14.9 8.56 16.01-9.08 16.44-15.09C17.57-30.86 24.46-43.53 24.46-43.53C24.46-43.53 14.27-63.68 26.71-73.23C40.37-83.72 50.09-71.37 55.71-71.82C59.8-72.16 61.14-75.28 75.29-75.07Z"/>
  </g>
  <g id="Bold-M" transform="matrix(1 0 0 1 2270.67 1126)">
   <path class="monochrome-0 multicolor-0:tintColor hierarchical-0:primary SFSymbolsPreviewWireframe" d="M75.29-73.07C90.21-72.85 91.69-69.46 96.06-69.34C102.38-69.16 112.04-81.31 125.13-70.33C138.03-59.51 127.52-42.53 127.52-42.53C127.52-42.53 134.7-29.81 135.54-10.43C136.15 3.6 130.75 21.06 106.54 30.96C84.25 40.08 50.99 38.26 30.66 22.65C14.9 10.56 16.01-7.08 16.44-13.09C17.57-28.86 24.46-41.53 24.46-41.53C24.46-41.53 14.27-61.68 26.71-71.23C40.37-81.72 50.09-69.37 55.71-69.82C59.8-70.16 61.14-73.28 75.29-73.07Z"/>
  </g>
  <g id="Semibold-M" transform="matrix(1 0 0 1 1974.47 1126)">
   <path class="monochrome-0 multicolor-0:tintColor hierarchical-0:primary SFSymbolsPreviewWireframe" d="M75.29-72.07C90.21-71.85 91.69-68.46 96.06-68.34C102.38-68.16 112.04-80.31 125.13-69.33C138.03-58.51 127.52-41.53 127.52-41.53C127.52-41.53 134.7-28.81 135.54-9.43C136.15 4.6 130.75 22.06 106.54 31.96C84.25 41.08 50.99 39.26 30.66 23.65C14.9 11.56 16.01-6.08 16.44-12.09C17.57-27.86 24.46-40.53 24.46-40.53C24.46-40.53 14.27-60.68 26.71-70.23C40.37-80.72 50.09-68.37 55.71-68.82C59.8-69.16 61.14-72.28 75.29-72.07Z"/>
  </g>
  <g id="Medium-M" transform="matrix(1 0 0 1 1678.15 1126)">
   <path class="monochrome-0 multicolor-0:tintColor hierarchical-0:primary SFSymbolsPreviewWireframe" d="M75.29-72.07C90.21-71.85 91.69-68.46 96.06-68.34C102.38-68.16 112.04-80.31 125.13-69.33C138.03-58.51 127.52-41.53 127.52-41.53C127.52-41.53 134.7-28.81 135.54-9.43C136.15 4.6 130.75 22.06 106.54 31.96C84.25 41.08 50.99 39.26 30.66 23.65C14.9 11.56 16.01-6.08 16.44-12.09C17.57-27.86 24.46-40.53 24.46-40.53C24.46-40.53 14.27-60.68 26.71-70.23C40.37-80.72 50.09-68.37 55.71-68.82C59.8-69.16 61.14-72.28 75.29-72.07Z"/>
  </g>
  <g id="Regular-M" transform="matrix(1 0 0 1 1381.95 1126)">
   <path class="monochrome-0 multicolor-0:tintColor hierarchical-0:primary SFSymbolsPreviewWireframe" d="M75.29-71.07C90.21-70.85 91.69-67.46 96.06-67.34C102.38-67.16 112.04-79.31 125.13-68.33C138.03-57.51 127.52-40.53 127.52-40.53C127.52-40.53 134.7-27.81 135.54-8.43C136.15 5.6 130.75 23.06 106.54 32.96C84.25 42.08 50.99 40.26 30.66 24.65C14.9 12.56 16.01-5.08 16.44-11.09C17.57-26.86 24.46-39.53 24.46-39.53C24.46-39.53 14.27-59.68 26.71-69.23C40.37-79.72 50.09-67.37 55.71-67.82C59.8-68.16 61.14-71.28 75.29-71.07Z"/>
  </g>
  <g id="Light-M" transform="matrix(1 0 0 1 1085.97 1126)">
   <path class="monochrome-0 multicolor-0:tintColor hierarchical-0:primary SFSymbolsPreviewWireframe" d="M75.29-70.07C90.21-69.85 91.69-66.46 96.06-66.34C102.38-66.16 112.04-78.31 125.13-67.33C138.03-56.51 127.52-39.53 127.52-39.53C127.52-39.53 134.7-26.81 135.54-7.43C136.15 6.6 130.75 24.06 106.54 33.96C84.25 43.08 50.99 41.26 30.66 25.65C14.9 13.56 16.01-4.08 16.44-10.09C17.57-25.86 24.46-38.53 24.46-38.53C24.46-38.53 14.27-58.68 26.71-68.23C40.37-78.72 50.09-66.37 55.71-66.82C59.8-67.16 61.14-70.28 75.29-70.07Z"/>
  </g>
  <g id="Thin-M" transform="matrix(1 0 0 1 790.236 1126)">
   <path class="monochrome-0 multicolor-0:tintColor hierarchical-0:primary SFSymbolsPreviewWireframe" d="M75.29-69.07C90.21-68.85 91.69-65.46 96.06-65.34C102.38-65.16 112.04-77.31 125.13-66.33C138.03-55.51 127.52-38.53 127.52-38.53C127.52-38.53 134.7-25.81 135.54-6.43C136.15 7.6 130.75 25.06 106.54 34.96C84.25 44.08 50.99 42.26 30.66 26.65C14.9 14.56 16.01-3.08 16.44-9.09C17.57-24.86 24.46-37.53 24.46-37.53C24.46-37.53 14.27-57.68 26.71-67.23C40.37-77.72 50.09-65.37 55.71-65.82C59.8-66.16 61.14-69.28 75.29-69.07Z"/>
  </g>
  <g id="Ultralight-M" transform="matrix(1 0 0 1 494.013 1126)">
   <path class="monochrome-0 multicolor-0:tintColor hierarchical-0:primary SFSymbolsPreviewWireframe" d="M75.29-68.07C90.21-67.85 91.69-64.46 96.06-64.34C102.38-64.16 112.04-76.31 125.13-65.33C138.03-54.51 127.52-37.53 127.52-37.53C127.52-37.53 134.7-24.81 135.54-5.43C136.15 8.6 130.75 26.06 106.54 35.96C84.25 45.08 50.99 43.26 30.66 27.65C14.9 15.56 16.01-2.08 16.44-8.09C17.57-23.86 24.46-36.53 24.46-36.53C24.46-36.53 14.27-56.68 26.71-66.23C40.37-76.72 50.09-64.37 55.71-64.82C59.8-65.16 61.14-68.28 75.29-68.07Z"/>
  </g>
  <g id="Black-S" transform="matrix(1 0 0 1 2877.83 696)">
   <path class="monochrome-0 multicolor-0:tintColor hierarchical-0:primary SFSymbolsPreviewWireframe" d="M72.29-65.07C87.21-64.85 88.69-61.46 93.06-61.34C99.38-61.16 109.04-73.31 122.13-62.33C135.03-51.51 124.52-34.53 124.52-34.53C124.52-34.53 131.7-21.81 132.54-2.43C133.15 11.6 127.75 29.06 103.54 38.96C81.25 48.08 47.99 46.26 27.66 30.65C11.9 18.56 13.01 0.92 13.44-5.09C14.57-20.86 21.46-33.53 21.46-33.53C21.46-33.53 11.27-53.68 23.71-63.23C37.37-73.72 47.09-61.37 52.71-61.82C56.8-62.16 58.14-65.28 72.29-65.07Z"/>
  </g>
  <g id="Heavy-S" transform="matrix(1 0 0 1 2581.61 696)">
   <path class="monochrome-0 multicolor-0:tintColor hierarchical-0:primary SFSymbolsPreviewWireframe" d="M72.29-65.07C87.21-64.85 88.69-61.46 93.06-61.34C99.38-61.16 109.04-73.31 122.13-62.33C135.03-51.51 124.52-34.53 124.52-34.53C124.52-34.53 131.7-21.81 132.54-2.43C133.15 11.6 127.75 29.06 103.54 38.96C81.25 48.08 47.99 46.26 27.66 30.65C11.9 18.56 13.01 0.92 13.44-5.09C14.57-20.86 21.46-33.53 21.46-33.53C21.46-33.53 11.27-53.68 23.71-63.23C37.37-73.72 47.09-61.37 52.71-61.82C56.8-62.16 58.14-65.28 72.29-65.07Z"/>
  </g>
  <g id="Bold-S" transform="matrix(1 0 0 1 2285.41 696)">
   <path class="monochrome-0 multicolor-0:tintColor hierarchical-0:primary SFSymbolsPreviewWireframe" d="M72.29-63.07C87.21-62.85 88.69-59.46 93.06-59.34C99.38-59.16 109.04-71.31 122.13-60.33C135.03-49.51 124.52-32.53 124.52-32.53C124.52-32.53 131.7-19.81 132.54-0.43C133.15 13.6 127.75 31.06 103.54 40.96C81.25 50.08 47.99 48.26 27.66 32.65C11.9 20.56 13.01 2.92 13.44-3.09C14.57-18.86 21.46-31.53 21.46-31.53C21.46-31.53 11.27-51.68 23.71-61.23C37.37-71.72 47.09-59.37 52.71-59.82C56.8-60.16 58.14-63.28 72.29-63.07Z"/>
  </g>
  <g id="Semibold-S" transform="matrix(1 0 0 1 1989.09 696)">
   <path class="monochrome-0 multicolor-0:tintColor hierarchical-0:primary SFSymbolsPreviewWireframe" d="M72.29-63.07C87.21-62.85 88.69-59.46 93.06-59.34C99.38-59.16 109.04-71.31 122.13-60.33C135.03-49.51 124.52-32.53 124.52-32.53C124.52-32.53 131.7-19.81 132.54-0.43C133.15 13.6 127.75 31.06 103.54 40.96C81.25 50.08 47.99 48.26 27.66 32.65C11.9 20.56 13.01 2.92 13.44-3.09C14.57-18.86 21.46-31.53 21.46-31.53C21.46-31.53 11.27-51.68 23.71-61.23C37.37-71.72 47.09-59.37 52.71-59.82C56.8-60.16 58.14-63.28 72.29-63.07Z"/>
  </g>
  <g id="Medium-S" transform="matrix(1 0 0 1 1692.65 696)">
   <path class="monochrome-0 multicolor-0:tintColor hierarchical-0:primary SFSymbolsPreviewWireframe" d="M72.29-62.07C87.21-61.85 88.69-58.46 93.06-58.34C99.38-58.16 109.04-70.31 122.13-59.33C135.03-48.51 124.52-31.53 124.52-31.53C124.52-31.53 131.7-18.81 132.54 0.57C133.15 14.6 127.75 32.06 103.54 41.96C81.25 51.08 47.99 49.26 27.66 33.65C11.9 21.56 13.01 3.92 13.44-2.09C14.57-17.86 21.46-30.53 21.46-30.53C21.46-30.53 11.27-50.68 23.71-60.23C37.37-70.72 47.09-58.37 52.71-58.82C56.8-59.16 58.14-62.28 72.29-62.07Z"/>
  </g>
  <g id="Regular-S" transform="matrix(1 0 0 1 1396.3 696)">
   <path class="monochrome-0 multicolor-0:tintColor hierarchical-0:primary SFSymbolsPreviewWireframe" d="M72.29-61.07C87.21-60.85 88.69-57.46 93.06-57.34C99.38-57.16 109.04-69.31 122.13-58.33C135.03-47.51 124.52-30.53 124.52-30.53C124.52-30.53 131.7-17.81 132.54 1.57C133.15 15.6 127.75 33.06 103.54 42.96C81.25 52.08 47.99 50.26 27.66 34.65C11.9 22.56 13.01 4.92 13.44-1.09C14.57-16.86 21.46-29.53 21.46-29.53C21.46-29.53 11.27-49.68 23.71-59.23C37.37-69.72 47.09-57.37 52.71-57.82C56.8-58.16 58.14-61.28 72.29-61.07Z"/>
  </g>
  <g id="Light-S" transform="matrix(1 0 0 1 1100.23 696)">
   <path class="monochrome-0 multicolor-0:tintColor hierarchical-0:primary SFSymbolsPreviewWireframe" d="M72.29-61.07C87.21-60.85 88.69-57.46 93.06-57.34C99.38-57.16 109.04-69.31 122.13-58.33C135.03-47.51 124.52-30.53 124.52-30.53C124.52-30.53 131.7-17.81 132.54 1.57C133.15 15.6 127.75 33.06 103.54 42.96C81.25 52.08 47.99 50.26 27.66 34.65C11.9 22.56 13.01 4.92 13.44-1.09C14.57-16.86 21.46-29.53 21.46-29.53C21.46-29.53 11.27-49.68 23.71-59.23C37.37-69.72 47.09-57.37 52.71-57.82C56.8-58.16 58.14-61.28 72.29-61.07Z"/>
  </g>
  <g id="Thin-S" transform="matrix(1 0 0 1 804.371 696)">
   <path class="monochrome-0 multicolor-0:tintColor hierarchical-0:primary SFSymbolsPreviewWireframe" d="M72.29-60.07C87.21-59.85 88.69-56.46 93.06-56.34C99.38-56.16 109.04-68.31 122.13-57.33C135.03-46.51 124.52-29.53 124.52-29.53C124.52-29.53 131.7-16.81 132.54 2.57C133.15 16.6 127.75 34.06 103.54 43.96C81.25 53.08 47.99 51.26 27.66 35.65C11.9 23.56 13.01 5.92 13.44-0.09C14.57-15.86 21.46-28.53 21.46-28.53C21.46-28.53 11.27-48.68 23.71-58.23C37.37-68.72 47.09-56.37 52.71-56.82C56.8-57.16 58.14-60.28 72.29-60.07Z"/>
  </g>
  <g id="Ultralight-S" transform="matrix(1 0 0 1 508.1 696)">
   <path class="monochrome-0 multicolor-0:tintColor hierarchical-0:primary SFSymbolsPreviewWireframe" d="M72.29-59.07C87.21-58.85 88.69-55.46 93.06-55.34C99.38-55.16 109.04-67.31 122.13-56.33C135.03-45.51 124.52-28.53 124.52-28.53C124.52-28.53 131.7-15.81 132.54 3.57C133.15 17.6 127.75 35.06 103.54 44.96C81.25 54.08 47.99 52.26 27.66 36.65C11.9 24.56 13.01 6.92 13.44 0.91C14.57-14.86 21.46-27.53 21.46-27.53C21.46-27.53 11.27-47.68 23.71-57.23C37.37-67.72 47.09-55.37 52.71-55.82C56.8-56.16 58.14-59.28 72.29-59.07Z"/>
  </g>
 </g>
</svg>
