<?xml version="1.0" encoding="UTF-8"?>
<!--Generator: Apple Native CoreSVG 232.5-->
<!DOCTYPE svg
PUBLIC "-//W3C//DTD SVG 1.1//EN"
       "http://www.w3.org/Graphics/SVG/1.1/DTD/svg11.dtd">
<svg version="1.1" xmlns="http://www.w3.org/2000/svg" xmlns:xlink="http://www.w3.org/1999/xlink" width="3300" height="2200">
 <!--glyph: "", point size: 100.0, font version: "19.0d7e1", template writer version: "128"-->
 <style>.monochrome-0 {-sfsymbols-motion-group:0}

.multicolor-0:tintColor {-sfsymbols-motion-group:0}

.hierarchical-0:primary {-sfsymbols-motion-group:0}

.SFSymbolsPreviewWireframe {fill:none;opacity:1.0;stroke:black;stroke-width:0.5}
</style>
 <g id="Notes">
  <rect height="2200" id="artboard" style="fill:white;opacity:1" width="3300" x="0" y="0"/>
  <line style="fill:none;stroke:black;opacity:1;stroke-width:0.5;" x1="263" x2="3036" y1="292" y2="292"/>
  <text style="stroke:none;fill:black;font-family:sans-serif;font-size:13;font-weight:bold;" transform="matrix(1 0 0 1 263 322)">Weight/Scale Variations</text>
  <text style="stroke:none;fill:black;font-family:sans-serif;font-size:13;text-anchor:middle;" transform="matrix(1 0 0 1 559.711 322)">Ultralight</text>
  <text style="stroke:none;fill:black;font-family:sans-serif;font-size:13;text-anchor:middle;" transform="matrix(1 0 0 1 856.422 322)">Thin</text>
  <text style="stroke:none;fill:black;font-family:sans-serif;font-size:13;text-anchor:middle;" transform="matrix(1 0 0 1 1153.13 322)">Light</text>
  <text style="stroke:none;fill:black;font-family:sans-serif;font-size:13;text-anchor:middle;" transform="matrix(1 0 0 1 1449.84 322)">Regular</text>
  <text style="stroke:none;fill:black;font-family:sans-serif;font-size:13;text-anchor:middle;" transform="matrix(1 0 0 1 1746.56 322)">Medium</text>
  <text style="stroke:none;fill:black;font-family:sans-serif;font-size:13;text-anchor:middle;" transform="matrix(1 0 0 1 2043.27 322)">Semibold</text>
  <text style="stroke:none;fill:black;font-family:sans-serif;font-size:13;text-anchor:middle;" transform="matrix(1 0 0 1 2339.98 322)">Bold</text>
  <text style="stroke:none;fill:black;font-family:sans-serif;font-size:13;text-anchor:middle;" transform="matrix(1 0 0 1 2636.69 322)">Heavy</text>
  <text style="stroke:none;fill:black;font-family:sans-serif;font-size:13;text-anchor:middle;" transform="matrix(1 0 0 1 2933.4 322)">Black</text>
  <line style="fill:none;stroke:black;opacity:1;stroke-width:0.5;" x1="263" x2="3036" y1="1903" y2="1903"/>
  <g transform="matrix(0.2 0 0 0.2 263 1933)">
   <path d="m46.2402 4.15039c21.5332 0 39.4531-17.8711 39.4531-39.4043s-17.9688-39.4043-39.502-39.4043c-21.4844 0-39.3555 17.8711-39.3555 39.4043s17.9199 39.4043 39.4043 39.4043Zm0-7.42188c-17.7246 0-31.8848-14.209-31.8848-31.9824s14.1113-31.9824 31.8359-31.9824c17.7734 0 32.0312 14.209 32.0312 31.9824s-14.209 31.9824-31.9824 31.9824Zm-17.9688-31.9824c0 2.14844 1.51367 3.61328 3.75977 3.61328h10.498v10.5957c0 2.19727 1.46484 3.71094 3.61328 3.71094 2.24609 0 3.71094-1.51367 3.71094-3.71094v-10.5957h10.5957c2.19727 0 3.71094-1.46484 3.71094-3.61328 0-2.19727-1.51367-3.71094-3.71094-3.71094h-10.5957v-10.5469c0-2.24609-1.46484-3.75977-3.71094-3.75977-2.14844 0-3.61328 1.51367-3.61328 3.75977v10.5469h-10.498c-2.24609 0-3.75977 1.51367-3.75977 3.71094Z"/>
  </g>
  <g transform="matrix(0.2 0 0 0.2 281.506 1933)">
   <path d="m58.5449 14.5508c27.2461 0 49.8047-22.6074 49.8047-49.8047 0-27.2461-22.6074-49.8047-49.8535-49.8047-27.1973 0-49.7559 22.5586-49.7559 49.8047 0 27.1973 22.6074 49.8047 49.8047 49.8047Zm0-8.30078c-23.0469 0-41.4551-18.457-41.4551-41.5039s18.3594-41.5039 41.4062-41.5039 41.5527 18.457 41.5527 41.5039-18.457 41.5039-41.5039 41.5039Zm-22.6562-41.5039c0 2.39258 1.66016 4.00391 4.15039 4.00391h14.3555v14.4043c0 2.44141 1.66016 4.15039 4.05273 4.15039 2.44141 0 4.15039-1.66016 4.15039-4.15039v-14.4043h14.4043c2.44141 0 4.15039-1.61133 4.15039-4.00391 0-2.44141-1.70898-4.15039-4.15039-4.15039h-14.4043v-14.3555c0-2.49023-1.70898-4.19922-4.15039-4.19922-2.39258 0-4.05273 1.70898-4.05273 4.19922v14.3555h-14.3555c-2.49023 0-4.15039 1.70898-4.15039 4.15039Z"/>
  </g>
  <g transform="matrix(0.2 0 0 0.2 304.924 1933)">
   <path d="m74.8535 28.3203c34.8145 0 63.623-28.8086 63.623-63.5742 0-34.8145-28.8574-63.623-63.6719-63.623-34.7656 0-63.5254 28.8086-63.5254 63.623 0 34.7656 28.8086 63.5742 63.5742 63.5742Zm0-9.08203c-30.1758 0-54.4434-24.3164-54.4434-54.4922 0-30.2246 24.2188-54.4922 54.3945-54.4922 30.2246 0 54.541 24.2676 54.541 54.4922 0 30.1758-24.2676 54.4922-54.4922 54.4922Zm-28.8574-54.4922c0 2.58789 1.85547 4.39453 4.58984 4.39453h19.7266v19.7754c0 2.68555 1.85547 4.58984 4.44336 4.58984 2.68555 0 4.54102-1.85547 4.54102-4.58984v-19.7754h19.7754c2.68555 0 4.58984-1.80664 4.58984-4.39453 0-2.73438-1.85547-4.58984-4.58984-4.58984h-19.7754v-19.7266c0-2.73438-1.85547-4.63867-4.54102-4.63867-2.58789 0-4.44336 1.9043-4.44336 4.63867v19.7266h-19.7266c-2.73438 0-4.58984 1.85547-4.58984 4.58984Z"/>
  </g>
  <text style="stroke:none;fill:black;font-family:sans-serif;font-size:13;font-weight:bold;" transform="matrix(1 0 0 1 263 1953)">Design Variations</text>
  <text style="stroke:none;fill:black;font-family:sans-serif;font-size:13;" transform="matrix(1 0 0 1 263 1971)">Symbols are supported in up to nine weights and three scales.</text>
  <text style="stroke:none;fill:black;font-family:sans-serif;font-size:13;" transform="matrix(1 0 0 1 263 1989)">For optimal layout with text and other symbols, vertically align</text>
  <text style="stroke:none;fill:black;font-family:sans-serif;font-size:13;" transform="matrix(1 0 0 1 263 2007)">symbols with the adjacent text.</text>
  <line style="fill:none;stroke:#00AEEF;stroke-width:0.5;opacity:1.0;" x1="776" x2="776" y1="1919" y2="1933"/>
  <g transform="matrix(0.2 0 0 0.2 776 1933)">
   <path d="m16.5527 0.78125c2.58789 0 3.85742-0.976562 4.78516-3.71094l6.29883-17.2363h28.8086l6.29883 17.2363c0.927734 2.73438 2.19727 3.71094 4.73633 3.71094 2.58789 0 4.24805-1.5625 4.24805-4.00391 0-0.830078-0.146484-1.61133-0.537109-2.63672l-22.9004-60.9863c-1.12305-2.97852-3.125-4.49219-6.25-4.49219-3.02734 0-5.07812 1.46484-6.15234 4.44336l-22.9004 61.084c-0.390625 1.02539-0.537109 1.80664-0.537109 2.63672 0 2.44141 1.5625 3.95508 4.10156 3.95508Zm13.4766-28.3691 11.8652-32.8613h0.244141l11.8652 32.8613Z"/>
  </g>
  <line style="fill:none;stroke:#00AEEF;stroke-width:0.5;opacity:1.0;" x1="792.836" x2="792.836" y1="1919" y2="1933"/>
  <text style="stroke:none;fill:black;font-family:sans-serif;font-size:13;font-weight:bold;" transform="matrix(1 0 0 1 776 1953)">Margins</text>
  <text style="stroke:none;fill:black;font-family:sans-serif;font-size:13;" transform="matrix(1 0 0 1 776 1971)">Leading and trailing margins on the left and right side of each symbol</text>
  <text style="stroke:none;fill:black;font-family:sans-serif;font-size:13;" transform="matrix(1 0 0 1 776 1989)">can be adjusted by modifying the x-location of the margin guidelines.</text>
  <text style="stroke:none;fill:black;font-family:sans-serif;font-size:13;" transform="matrix(1 0 0 1 776 2007)">Modifications are automatically applied proportionally to all</text>
  <text style="stroke:none;fill:black;font-family:sans-serif;font-size:13;" transform="matrix(1 0 0 1 776 2025)">scales and weights.</text>
  <g transform="matrix(0.2 0 0 0.2 1289 1933)">
   <path d="m14.209 9.32617 8.49609 8.54492c4.29688 4.3457 9.22852 4.05273 13.8672-1.07422l53.4668-58.9355-4.83398-4.88281-53.0762 58.3984c-1.75781 2.00195-3.41797 2.49023-5.76172 0.146484l-5.85938-5.81055c-2.34375-2.29492-1.80664-4.00391 0.195312-5.81055l57.373-54.0039-4.88281-4.83398-57.959 54.4434c-4.93164 4.58984-5.32227 9.47266-1.02539 13.8184Zm32.0801-90.9668c-2.09961 2.05078-2.24609 4.93164-1.07422 6.88477 1.17188 1.80664 3.4668 2.97852 6.68945 2.14844 7.32422-1.70898 14.9414-2.00195 22.0703 2.68555l-2.92969 7.27539c-1.70898 4.15039-0.830078 7.08008 1.85547 9.81445l11.4746 11.5723c2.44141 2.44141 4.49219 2.53906 7.32422 2.05078l5.32227-0.976562 3.32031 3.36914-0.195312 2.7832c-0.195312 2.49023 0.439453 4.39453 2.88086 6.78711l3.80859 3.71094c2.39258 2.39258 5.46875 2.53906 7.8125 0.195312l14.5508-14.5996c2.34375-2.34375 2.24609-5.32227-0.146484-7.71484l-3.85742-3.80859c-2.39258-2.39258-4.24805-3.17383-6.64062-2.97852l-2.88086 0.244141-3.22266-3.17383 1.2207-5.61523c0.634766-2.83203-0.146484-5.0293-3.07617-7.95898l-10.9863-10.9375c-16.6992-16.6016-38.8672-16.2109-53.3203-1.75781Zm7.4707 1.85547c12.1582-8.88672 28.6133-7.37305 39.7461 3.75977l12.1582 12.0605c1.17188 1.17188 1.36719 2.09961 1.02539 3.80859l-1.61133 7.42188 7.51953 7.42188 4.93164-0.292969c1.26953-0.0488281 1.66016 0.0488281 2.63672 1.02539l2.88086 2.88086-12.207 12.207-2.88086-2.88086c-0.976562-0.976562-1.12305-1.36719-1.07422-2.68555l0.341797-4.88281-7.4707-7.42188-7.61719 1.26953c-1.61133 0.341797-2.34375 0.195312-3.56445-0.976562l-10.0098-10.0098c-1.26953-1.17188-1.41602-2.00195-0.634766-3.85742l4.39453-10.4492c-7.8125-7.27539-17.9688-10.4004-28.125-7.42188-0.78125 0.195312-1.07422-0.439453-0.439453-0.976562Z"/>
  </g>
  <text style="stroke:none;fill:black;font-family:sans-serif;font-size:13;font-weight:bold;" transform="matrix(1 0 0 1 1289 1953)">Exporting</text>
  <text style="stroke:none;fill:black;font-family:sans-serif;font-size:13;" transform="matrix(1 0 0 1 1289 1971)">Symbols should be outlined when exporting to ensure the</text>
  <text style="stroke:none;fill:black;font-family:sans-serif;font-size:13;" transform="matrix(1 0 0 1 1289 1989)">design is preserved when submitting to Xcode.</text>
  <text id="template-version" style="stroke:none;fill:black;font-family:sans-serif;font-size:13;text-anchor:end;" transform="matrix(1 0 0 1 3036 1933)">Template v.5.0</text>
  <text style="stroke:none;fill:black;font-family:sans-serif;font-size:13;text-anchor:end;" transform="matrix(1 0 0 1 3036 1951)">Requires Xcode 15 or greater</text>
  <text id="descriptive-name" style="stroke:none;fill:black;font-family:sans-serif;font-size:13;text-anchor:end;" transform="matrix(1 0 0 1 3036 1969)">Generated from size.symbol</text>
  <text style="stroke:none;fill:black;font-family:sans-serif;font-size:13;text-anchor:end;" transform="matrix(1 0 0 1 3036 1987)">Typeset at 100.0 points</text>
  <text style="stroke:none;fill:black;font-family:sans-serif;font-size:13;" transform="matrix(1 0 0 1 263 726)">Small</text>
  <text style="stroke:none;fill:black;font-family:sans-serif;font-size:13;" transform="matrix(1 0 0 1 263 1156)">Medium</text>
  <text style="stroke:none;fill:black;font-family:sans-serif;font-size:13;" transform="matrix(1 0 0 1 263 1586)">Large</text>
 </g>
 <g id="Guides">
  <g id="H-reference" style="fill:#27AAE1;stroke:none;" transform="matrix(1 0 0 1 339 696)">
   <path d="M0.993654 0L3.63775 0L29.3281-67.1323L30.0303-67.1323L30.0303-70.459L28.1226-70.459ZM11.6885-24.4799L46.9815-24.4799L46.2315-26.7285L12.4385-26.7285ZM55.1196 0L57.7637 0L30.6382-70.459L29.4326-70.459L29.4326-67.1323Z"/>
  </g>
  <line id="Baseline-S" style="fill:none;stroke:#27AAE1;opacity:1;stroke-width:0.5;" x1="263" x2="3036" y1="696" y2="696"/>
  <line id="Capline-S" style="fill:none;stroke:#27AAE1;opacity:1;stroke-width:0.5;" x1="263" x2="3036" y1="625.541" y2="625.541"/>
  <g id="H-reference" style="fill:#27AAE1;stroke:none;" transform="matrix(1 0 0 1 339 1126)">
   <path d="M0.993654 0L3.63775 0L29.3281-67.1323L30.0303-67.1323L30.0303-70.459L28.1226-70.459ZM11.6885-24.4799L46.9815-24.4799L46.2315-26.7285L12.4385-26.7285ZM55.1196 0L57.7637 0L30.6382-70.459L29.4326-70.459L29.4326-67.1323Z"/>
  </g>
  <line id="Baseline-M" style="fill:none;stroke:#27AAE1;opacity:1;stroke-width:0.5;" x1="263" x2="3036" y1="1126" y2="1126"/>
  <line id="Capline-M" style="fill:none;stroke:#27AAE1;opacity:1;stroke-width:0.5;" x1="263" x2="3036" y1="1055.54" y2="1055.54"/>
  <g id="H-reference" style="fill:#27AAE1;stroke:none;" transform="matrix(1 0 0 1 339 1556)">
   <path d="M0.993654 0L3.63775 0L29.3281-67.1323L30.0303-67.1323L30.0303-70.459L28.1226-70.459ZM11.6885-24.4799L46.9815-24.4799L46.2315-26.7285L12.4385-26.7285ZM55.1196 0L57.7637 0L30.6382-70.459L29.4326-70.459L29.4326-67.1323Z"/>
  </g>
  <line id="Baseline-L" style="fill:none;stroke:#27AAE1;opacity:1;stroke-width:0.5;" x1="263" x2="3036" y1="1556" y2="1556"/>
  <line id="Capline-L" style="fill:none;stroke:#27AAE1;opacity:1;stroke-width:0.5;" x1="263" x2="3036" y1="1485.54" y2="1485.54"/>
  <line id="left-margin-Ultralight-S" style="fill:none;stroke:#00AEEF;stroke-width:0.5;opacity:1.0;" x1="508.1" x2="508.1" y1="600.785" y2="720.121"/>
  <line id="right-margin-Ultralight-S" style="fill:none;stroke:#00AEEF;stroke-width:0.5;opacity:1.0;" x1="611.322" x2="611.322" y1="600.785" y2="720.121"/>
  <line id="left-margin-Thin-S" style="fill:none;stroke:#00AEEF;stroke-width:0.5;opacity:1.0;" x1="804.371" x2="804.371" y1="600.785" y2="720.121"/>
  <line id="right-margin-Thin-S" style="fill:none;stroke:#00AEEF;stroke-width:0.5;opacity:1.0;" x1="908.473" x2="908.473" y1="600.785" y2="720.121"/>
  <line id="left-margin-Light-S" style="fill:none;stroke:#00AEEF;stroke-width:0.5;opacity:1.0;" x1="1100.23" x2="1100.23" y1="600.785" y2="720.121"/>
  <line id="right-margin-Light-S" style="fill:none;stroke:#00AEEF;stroke-width:0.5;opacity:1.0;" x1="1206.04" x2="1206.04" y1="600.785" y2="720.121"/>
  <line id="left-margin-Regular-S" style="fill:none;stroke:#00AEEF;stroke-width:0.5;opacity:1.0;" x1="1396.3" x2="1396.3" y1="600.785" y2="720.121"/>
  <line id="right-margin-Regular-S" style="fill:none;stroke:#00AEEF;stroke-width:0.5;opacity:1.0;" x1="1503.38" x2="1503.38" y1="600.785" y2="720.121"/>
  <line id="left-margin-Medium-S" style="fill:none;stroke:#00AEEF;stroke-width:0.5;opacity:1.0;" x1="1692.65" x2="1692.65" y1="600.785" y2="720.121"/>
  <line id="right-margin-Medium-S" style="fill:none;stroke:#00AEEF;stroke-width:0.5;opacity:1.0;" x1="1800.46" x2="1800.46" y1="600.785" y2="720.121"/>
  <line id="left-margin-Semibold-S" style="fill:none;stroke:#00AEEF;stroke-width:0.5;opacity:1.0;" x1="1989.09" x2="1989.09" y1="600.785" y2="720.121"/>
  <line id="right-margin-Semibold-S" style="fill:none;stroke:#00AEEF;stroke-width:0.5;opacity:1.0;" x1="2097.44" x2="2097.44" y1="600.785" y2="720.121"/>
  <line id="left-margin-Bold-S" style="fill:none;stroke:#00AEEF;stroke-width:0.5;opacity:1.0;" x1="2285.41" x2="2285.41" y1="600.785" y2="720.121"/>
  <line id="right-margin-Bold-S" style="fill:none;stroke:#00AEEF;stroke-width:0.5;opacity:1.0;" x1="2394.54" x2="2394.54" y1="600.785" y2="720.121"/>
  <line id="left-margin-Heavy-S" style="fill:none;stroke:#00AEEF;stroke-width:0.5;opacity:1.0;" x1="2581.61" x2="2581.61" y1="600.785" y2="720.121"/>
  <line id="right-margin-Heavy-S" style="fill:none;stroke:#00AEEF;stroke-width:0.5;opacity:1.0;" x1="2691.77" x2="2691.77" y1="600.785" y2="720.121"/>
  <line id="left-margin-Black-S" style="fill:none;stroke:#00AEEF;stroke-width:0.5;opacity:1.0;" x1="2877.83" x2="2877.83" y1="600.785" y2="720.121"/>
  <line id="right-margin-Black-S" style="fill:none;stroke:#00AEEF;stroke-width:0.5;opacity:1.0;" x1="2988.97" x2="2988.97" y1="600.785" y2="720.121"/>
  <line id="left-margin-Ultralight-M" style="fill:none;stroke:#00AEEF;stroke-width:0.5;opacity:1.0;" x1="494.013" x2="494.013" y1="1030.79" y2="1150.12"/>
  <line id="right-margin-Ultralight-M" style="fill:none;stroke:#00AEEF;stroke-width:0.5;opacity:1.0;" x1="625.409" x2="625.409" y1="1030.79" y2="1150.12"/>
  <line id="left-margin-Thin-M" style="fill:none;stroke:#00AEEF;stroke-width:0.5;opacity:1.0;" x1="790.236" x2="790.236" y1="1030.79" y2="1150.12"/>
  <line id="right-margin-Thin-M" style="fill:none;stroke:#00AEEF;stroke-width:0.5;opacity:1.0;" x1="922.609" x2="922.609" y1="1030.79" y2="1150.12"/>
  <line id="left-margin-Light-M" style="fill:none;stroke:#00AEEF;stroke-width:0.5;opacity:1.0;" x1="1085.97" x2="1085.97" y1="1030.79" y2="1150.12"/>
  <line id="right-margin-Light-M" style="fill:none;stroke:#00AEEF;stroke-width:0.5;opacity:1.0;" x1="1220.3" x2="1220.3" y1="1030.79" y2="1150.12"/>
  <line id="left-margin-Regular-M" style="fill:none;stroke:#00AEEF;stroke-width:0.5;opacity:1.0;" x1="1381.95" x2="1381.95" y1="1030.79" y2="1150.12"/>
  <line id="right-margin-Regular-M" style="fill:none;stroke:#00AEEF;stroke-width:0.5;opacity:1.0;" x1="1517.74" x2="1517.74" y1="1030.79" y2="1150.12"/>
  <line id="left-margin-Medium-M" style="fill:none;stroke:#00AEEF;stroke-width:0.5;opacity:1.0;" x1="1678.15" x2="1678.15" y1="1030.79" y2="1150.12"/>
  <line id="right-margin-Medium-M" style="fill:none;stroke:#00AEEF;stroke-width:0.5;opacity:1.0;" x1="1814.96" x2="1814.96" y1="1030.79" y2="1150.12"/>
  <line id="left-margin-Semibold-M" style="fill:none;stroke:#00AEEF;stroke-width:0.5;opacity:1.0;" x1="1974.47" x2="1974.47" y1="1030.79" y2="1150.12"/>
  <line id="right-margin-Semibold-M" style="fill:none;stroke:#00AEEF;stroke-width:0.5;opacity:1.0;" x1="2112.07" x2="2112.07" y1="1030.79" y2="1150.12"/>
  <line id="left-margin-Bold-M" style="fill:none;stroke:#00AEEF;stroke-width:0.5;opacity:1.0;" x1="2270.67" x2="2270.67" y1="1030.79" y2="1150.12"/>
  <line id="right-margin-Bold-M" style="fill:none;stroke:#00AEEF;stroke-width:0.5;opacity:1.0;" x1="2409.29" x2="2409.29" y1="1030.79" y2="1150.12"/>
  <line id="left-margin-Heavy-M" style="fill:none;stroke:#00AEEF;stroke-width:0.5;opacity:1.0;" x1="2566.64" x2="2566.64" y1="1030.79" y2="1150.12"/>
  <line id="right-margin-Heavy-M" style="fill:none;stroke:#00AEEF;stroke-width:0.5;opacity:1.0;" x1="2706.73" x2="2706.73" y1="1030.79" y2="1150.12"/>
  <line id="left-margin-Black-M" style="fill:none;stroke:#00AEEF;stroke-width:0.5;opacity:1.0;" x1="2862.7" x2="2862.7" y1="1030.79" y2="1150.12"/>
  <line id="right-margin-Black-M" style="fill:none;stroke:#00AEEF;stroke-width:0.5;opacity:1.0;" x1="3004.1" x2="3004.1" y1="1030.79" y2="1150.12"/>
  <line id="left-margin-Ultralight-L" style="fill:none;stroke:#00AEEF;stroke-width:0.5;opacity:1.0;" x1="475.165" x2="475.165" y1="1460.79" y2="1580.12"/>
  <line id="right-margin-Ultralight-L" style="fill:none;stroke:#00AEEF;stroke-width:0.5;opacity:1.0;" x1="644.257" x2="644.257" y1="1460.79" y2="1580.12"/>
  <line id="left-margin-Thin-L" style="fill:none;stroke:#00AEEF;stroke-width:0.5;opacity:1.0;" x1="771.315" x2="771.315" y1="1460.79" y2="1580.12"/>
  <line id="right-margin-Thin-L" style="fill:none;stroke:#00AEEF;stroke-width:0.5;opacity:1.0;" x1="941.53" x2="941.53" y1="1460.79" y2="1580.12"/>
  <line id="left-margin-Light-L" style="fill:none;stroke:#00AEEF;stroke-width:0.5;opacity:1.0;" x1="1066.95" x2="1066.95" y1="1460.79" y2="1580.12"/>
  <line id="right-margin-Light-L" style="fill:none;stroke:#00AEEF;stroke-width:0.5;opacity:1.0;" x1="1239.31" x2="1239.31" y1="1460.79" y2="1580.12"/>
  <line id="left-margin-Regular-L" style="fill:none;stroke:#00AEEF;stroke-width:0.5;opacity:1.0;" x1="1362.86" x2="1362.86" y1="1460.79" y2="1580.12"/>
  <line id="right-margin-Regular-L" style="fill:none;stroke:#00AEEF;stroke-width:0.5;opacity:1.0;" x1="1536.83" x2="1536.83" y1="1460.79" y2="1580.12"/>
  <line id="left-margin-Medium-L" style="fill:none;stroke:#00AEEF;stroke-width:0.5;opacity:1.0;" x1="1658.91" x2="1658.91" y1="1460.79" y2="1580.12"/>
  <line id="right-margin-Medium-L" style="fill:none;stroke:#00AEEF;stroke-width:0.5;opacity:1.0;" x1="1834.2" x2="1834.2" y1="1460.79" y2="1580.12"/>
  <line id="left-margin-Semibold-L" style="fill:none;stroke:#00AEEF;stroke-width:0.5;opacity:1.0;" x1="1955.11" x2="1955.11" y1="1460.79" y2="1580.12"/>
  <line id="right-margin-Semibold-L" style="fill:none;stroke:#00AEEF;stroke-width:0.5;opacity:1.0;" x1="2131.43" x2="2131.43" y1="1460.79" y2="1580.12"/>
  <line id="left-margin-Bold-L" style="fill:none;stroke:#00AEEF;stroke-width:0.5;opacity:1.0;" x1="2251.16" x2="2251.16" y1="1460.79" y2="1580.12"/>
  <line id="right-margin-Bold-L" style="fill:none;stroke:#00AEEF;stroke-width:0.5;opacity:1.0;" x1="2428.8" x2="2428.8" y1="1460.79" y2="1580.12"/>
  <line id="left-margin-Heavy-L" style="fill:none;stroke:#00AEEF;stroke-width:0.5;opacity:1.0;" x1="2546.89" x2="2546.89" y1="1460.79" y2="1580.12"/>
  <line id="right-margin-Heavy-L" style="fill:none;stroke:#00AEEF;stroke-width:0.5;opacity:1.0;" x1="2726.48" x2="2726.48" y1="1460.79" y2="1580.12"/>
  <line id="left-margin-Black-L" style="fill:none;stroke:#00AEEF;stroke-width:0.5;opacity:1.0;" x1="2842.75" x2="2842.75" y1="1460.79" y2="1580.12"/>
  <line id="right-margin-Black-L" style="fill:none;stroke:#00AEEF;stroke-width:0.5;opacity:1.0;" x1="3024.05" x2="3024.05" y1="1460.79" y2="1580.12"/>
 </g>
 <g id="Symbols">
  <g id="Black-L" transform="matrix(1 0 0 1 2842.75 1556)">
   <path class="monochrome-0 multicolor-0:tintColor hierarchical-0:primary SFSymbolsPreviewWireframe" d="M96.7-26.5L92.6-22.5L92.6-75.7L96.7-71.7C97.6-70.8 99-70.8 99.9-71.7C100.8-72.6 100.8-74 99.9-74.9L92.6-82L92-82.5C91.1-83.3 89.8-83.4 88.9-82.5L88.1-81.7L80.7-74.8C79.8-74 79.7-72.5 80.6-71.6C81-71.1 81.6-70.9 82.2-70.9C82.7-70.9 83.3-71.1 83.7-71.5L88-75.5C88-75.5 88-75.5 88-75.5L88-75.5L88-75.5L88-22.4L88-22.4L83.7-26.4C83.3-26.8 82.7-27 82.2-27C81.6-27 81-26.8 80.6-26.3C79.8-25.4 79.8-24 80.7-23.1L88.1-16.2L88.9-15.4C89.8-14.6 91.1-14.6 92-15.4L92.6-15.9L99.8-23C100.7-23.9 100.7-25.3 99.8-26.2C99-27.3 97.6-27.4 96.7-26.5ZM55.4-84L39.7-84C35.2-84 31.5-80.3 31.5-75.8L31.5-23.3C31.5-18.8 35.2-15.1 39.7-15.1L55.3-15.1C59.8-15.1 63.5-18.8 63.5-23.3L63.5-75.8C63.6-80.3 59.9-84 55.4-84ZM59.1-71.8L49.9-71.8C48.7-71.8 47.7-70.8 47.7-69.6C47.7-68.4 48.7-67.4 49.9-67.4L59.1-67.4L59.1-61.9L49.9-61.9C48.7-61.9 47.7-60.9 47.7-59.7C47.7-58.5 48.7-57.5 49.9-57.5L59.1-57.5L59.1-51.7L49.9-51.7C48.7-51.7 47.7-50.7 47.7-49.5C47.7-48.3 48.7-47.3 49.9-47.3L59.1-47.3L59.1-41.8L49.9-41.8C48.7-41.8 47.7-40.8 47.7-39.6C47.7-38.4 48.7-37.4 49.9-37.4L59.1-37.4L59.1-31.9L49.9-31.9C48.7-31.9 47.7-30.9 47.7-29.7C47.7-28.5 48.7-27.4 49.9-27.4L59.1-27.4L59.1-23.6C59.1-21.5 57.4-19.9 55.4-19.9L39.7-19.9C37.6-19.9 36-21.6 36-23.6L36-75.8C36-77.9 37.7-79.5 39.7-79.5L55.3-79.5C57.4-79.5 59-77.8 59-75.8L59-71.8Z"/>
  </g>
  <g id="Heavy-L" transform="matrix(1 0 0 1 2546.89 1556)">
   <path class="monochrome-0 multicolor-0:tintColor hierarchical-0:primary SFSymbolsPreviewWireframe" d="M96.7-25.5L92.6-21.5L92.6-74.7L96.7-70.7C97.6-69.8 99-69.8 99.9-70.7C100.8-71.6 100.8-73 99.9-73.9L92.6-81L92-81.5C91.1-82.3 89.8-82.4 88.9-81.5L88.1-80.7L80.7-73.8C79.8-73 79.7-71.5 80.6-70.6C81-70.1 81.6-69.9 82.2-69.9C82.7-69.9 83.3-70.1 83.7-70.5L88-74.5C88-74.5 88-74.5 88-74.5L88-74.5L88-74.5L88-21.4L88-21.4L83.7-25.4C83.3-25.8 82.7-26 82.2-26C81.6-26 81-25.8 80.6-25.3C79.8-24.4 79.8-23 80.7-22.1L88.1-15.2L88.9-14.4C89.8-13.6 91.1-13.6 92-14.4L92.6-14.9L99.8-22C100.7-22.9 100.7-24.3 99.8-25.2C99-26.3 97.6-26.4 96.7-25.5ZM55.4-83L39.7-83C35.2-83 31.5-79.3 31.5-74.8L31.5-22.3C31.5-17.8 35.2-14.1 39.7-14.1L55.3-14.1C59.8-14.1 63.5-17.8 63.5-22.3L63.5-74.8C63.6-79.3 59.9-83 55.4-83ZM59.1-70.8L49.9-70.8C48.7-70.8 47.7-69.8 47.7-68.6C47.7-67.4 48.7-66.4 49.9-66.4L59.1-66.4L59.1-60.9L49.9-60.9C48.7-60.9 47.7-59.9 47.7-58.7C47.7-57.5 48.7-56.5 49.9-56.5L59.1-56.5L59.1-50.7L49.9-50.7C48.7-50.7 47.7-49.7 47.7-48.5C47.7-47.3 48.7-46.3 49.9-46.3L59.1-46.3L59.1-40.8L49.9-40.8C48.7-40.8 47.7-39.8 47.7-38.6C47.7-37.4 48.7-36.4 49.9-36.4L59.1-36.4L59.1-30.9L49.9-30.9C48.7-30.9 47.7-29.9 47.7-28.7C47.7-27.5 48.7-26.4 49.9-26.4L59.1-26.4L59.1-22.6C59.1-20.5 57.4-18.9 55.4-18.9L39.7-18.9C37.6-18.9 36-20.6 36-22.6L36-74.8C36-76.9 37.7-78.5 39.7-78.5L55.3-78.5C57.4-78.5 59-76.8 59-74.8L59-70.8Z"/>
  </g>
  <g id="Bold-L" transform="matrix(1 0 0 1 2251.16 1556)">
   <path class="monochrome-0 multicolor-0:tintColor hierarchical-0:primary SFSymbolsPreviewWireframe" d="M96.7-23.5L92.6-19.5L92.6-72.7L96.7-68.7C97.6-67.8 99-67.8 99.9-68.7C100.8-69.6 100.8-71 99.9-71.9L92.6-79L92-79.5C91.1-80.3 89.8-80.4 88.9-79.5L88.1-78.7L80.7-71.8C79.8-71 79.7-69.5 80.6-68.6C81-68.1 81.6-67.9 82.2-67.9C82.7-67.9 83.3-68.1 83.7-68.5L88-72.5C88-72.5 88-72.5 88-72.5L88-72.5L88-72.5L88-19.4L88-19.4L83.7-23.4C83.3-23.8 82.7-24 82.2-24C81.6-24 81-23.8 80.6-23.3C79.8-22.4 79.8-21 80.7-20.1L88.1-13.2L88.9-12.4C89.8-11.6 91.1-11.6 92-12.4L92.6-12.9L99.8-20C100.7-20.9 100.7-22.3 99.8-23.2C99-24.3 97.6-24.4 96.7-23.5ZM55.4-81L39.7-81C35.2-81 31.5-77.3 31.5-72.8L31.5-20.3C31.5-15.8 35.2-12.1 39.7-12.1L55.3-12.1C59.8-12.1 63.5-15.8 63.5-20.3L63.5-72.8C63.6-77.3 59.9-81 55.4-81ZM59.1-68.8L49.9-68.8C48.7-68.8 47.7-67.8 47.7-66.6C47.7-65.4 48.7-64.4 49.9-64.4L59.1-64.4L59.1-58.9L49.9-58.9C48.7-58.9 47.7-57.9 47.7-56.7C47.7-55.5 48.7-54.5 49.9-54.5L59.1-54.5L59.1-48.7L49.9-48.7C48.7-48.7 47.7-47.7 47.7-46.5C47.7-45.3 48.7-44.3 49.9-44.3L59.1-44.3L59.1-38.8L49.9-38.8C48.7-38.8 47.7-37.8 47.7-36.6C47.7-35.4 48.7-34.4 49.9-34.4L59.1-34.4L59.1-28.9L49.9-28.9C48.7-28.9 47.7-27.9 47.7-26.7C47.7-25.5 48.7-24.4 49.9-24.4L59.1-24.4L59.1-20.6C59.1-18.5 57.4-16.9 55.4-16.9L39.7-16.9C37.6-16.9 36-18.6 36-20.6L36-72.8C36-74.9 37.7-76.5 39.7-76.5L55.3-76.5C57.4-76.5 59-74.8 59-72.8L59-68.8Z"/>
  </g>
  <g id="Semibold-L" transform="matrix(1 0 0 1 1955.11 1556)">
   <path class="monochrome-0 multicolor-0:tintColor hierarchical-0:primary SFSymbolsPreviewWireframe" d="M96.7-22.5L92.6-18.5L92.6-71.7L96.7-67.7C97.6-66.8 99-66.8 99.9-67.7C100.8-68.6 100.8-70 99.9-70.9L92.6-78L92-78.5C91.1-79.3 89.8-79.4 88.9-78.5L88.1-77.7L80.7-70.8C79.8-70 79.7-68.5 80.6-67.6C81-67.1 81.6-66.9 82.2-66.9C82.7-66.9 83.3-67.1 83.7-67.5L88-71.5C88-71.5 88-71.5 88-71.5L88-71.5L88-71.5L88-18.4L88-18.4L83.7-22.4C83.3-22.8 82.7-23 82.2-23C81.6-23 81-22.8 80.6-22.3C79.8-21.4 79.8-20 80.7-19.1L88.1-12.2L88.9-11.4C89.8-10.6 91.1-10.6 92-11.4L92.6-11.9L99.8-19C100.7-19.9 100.7-21.3 99.8-22.2C99-23.3 97.6-23.4 96.7-22.5ZM55.4-80L39.7-80C35.2-80 31.5-76.3 31.5-71.8L31.5-19.3C31.5-14.8 35.2-11.1 39.7-11.1L55.3-11.1C59.8-11.1 63.5-14.8 63.5-19.3L63.5-71.8C63.6-76.3 59.9-80 55.4-80ZM59.1-67.8L49.9-67.8C48.7-67.8 47.7-66.8 47.7-65.6C47.7-64.4 48.7-63.4 49.9-63.4L59.1-63.4L59.1-57.9L49.9-57.9C48.7-57.9 47.7-56.9 47.7-55.7C47.7-54.5 48.7-53.5 49.9-53.5L59.1-53.5L59.1-47.7L49.9-47.7C48.7-47.7 47.7-46.7 47.7-45.5C47.7-44.3 48.7-43.3 49.9-43.3L59.1-43.3L59.1-37.8L49.9-37.8C48.7-37.8 47.7-36.8 47.7-35.6C47.7-34.4 48.7-33.4 49.9-33.4L59.1-33.4L59.1-27.9L49.9-27.9C48.7-27.9 47.7-26.9 47.7-25.7C47.7-24.5 48.7-23.4 49.9-23.4L59.1-23.4L59.1-19.6C59.1-17.5 57.4-15.9 55.4-15.9L39.7-15.9C37.6-15.9 36-17.6 36-19.6L36-71.8C36-73.9 37.7-75.5 39.7-75.5L55.3-75.5C57.4-75.5 59-73.8 59-71.8L59-67.8Z"/>
  </g>
  <g id="Medium-L" transform="matrix(1 0 0 1 1658.91 1556)">
   <path class="monochrome-0 multicolor-0:tintColor hierarchical-0:primary SFSymbolsPreviewWireframe" d="M96.7-21.5L92.6-17.5L92.6-70.7L96.7-66.7C97.6-65.8 99-65.8 99.9-66.7C100.8-67.6 100.8-69 99.9-69.9L92.6-77L92-77.5C91.1-78.3 89.8-78.4 88.9-77.5L88.1-76.7L80.7-69.8C79.8-69 79.7-67.5 80.6-66.6C81-66.1 81.6-65.9 82.2-65.9C82.7-65.9 83.3-66.1 83.7-66.5L88-70.5C88-70.5 88-70.5 88-70.5L88-70.5L88-70.5L88-17.4L88-17.4L83.7-21.4C83.3-21.8 82.7-22 82.2-22C81.6-22 81-21.8 80.6-21.3C79.8-20.4 79.8-19 80.7-18.1L88.1-11.2L88.9-10.4C89.8-9.6 91.1-9.6 92-10.4L92.6-10.9L99.8-18C100.7-18.9 100.7-20.3 99.8-21.2C99-22.3 97.6-22.4 96.7-21.5ZM55.4-79L39.7-79C35.2-79 31.5-75.3 31.5-70.8L31.5-18.3C31.5-13.8 35.2-10.1 39.7-10.1L55.3-10.1C59.8-10.1 63.5-13.8 63.5-18.3L63.5-70.8C63.6-75.3 59.9-79 55.4-79ZM59.1-66.8L49.9-66.8C48.7-66.8 47.7-65.8 47.7-64.6C47.7-63.4 48.7-62.4 49.9-62.4L59.1-62.4L59.1-56.9L49.9-56.9C48.7-56.9 47.7-55.9 47.7-54.7C47.7-53.5 48.7-52.5 49.9-52.5L59.1-52.5L59.1-46.7L49.9-46.7C48.7-46.7 47.7-45.7 47.7-44.5C47.7-43.3 48.7-42.3 49.9-42.3L59.1-42.3L59.1-36.8L49.9-36.8C48.7-36.8 47.7-35.8 47.7-34.6C47.7-33.4 48.7-32.4 49.9-32.4L59.1-32.4L59.1-26.9L49.9-26.9C48.7-26.9 47.7-25.9 47.7-24.7C47.7-23.5 48.7-22.4 49.9-22.4L59.1-22.4L59.1-18.6C59.1-16.5 57.4-14.9 55.4-14.9L39.7-14.9C37.6-14.9 36-16.6 36-18.6L36-70.8C36-72.9 37.7-74.5 39.7-74.5L55.3-74.5C57.4-74.5 59-72.8 59-70.8L59-66.8Z"/>
  </g>
  <g id="Regular-L" transform="matrix(1 0 0 1 1362.86 1556)">
   <path class="monochrome-0 multicolor-0:tintColor hierarchical-0:primary SFSymbolsPreviewWireframe" d="M96.7-20.5L92.6-16.5L92.6-69.7L96.7-65.7C97.6-64.8 99-64.8 99.9-65.7C100.8-66.6 100.8-68 99.9-68.9L92.6-76L92-76.5C91.1-77.3 89.8-77.4 88.9-76.5L88.1-75.7L80.7-68.8C79.8-68 79.7-66.5 80.6-65.6C81-65.1 81.6-64.9 82.2-64.9C82.7-64.9 83.3-65.1 83.7-65.5L88-69.5C88-69.5 88-69.5 88-69.5L88-69.5L88-69.5L88-16.4L88-16.4L83.7-20.4C83.3-20.8 82.7-21 82.2-21C81.6-21 81-20.8 80.6-20.3C79.8-19.4 79.8-18 80.7-17.1L88.1-10.2L88.9-9.4C89.8-8.6 91.1-8.6 92-9.4L92.6-9.9L99.8-17C100.7-17.9 100.7-19.3 99.8-20.2C99-21.3 97.6-21.4 96.7-20.5ZM55.4-78L39.7-78C35.2-78 31.5-74.3 31.5-69.8L31.5-17.3C31.5-12.8 35.2-9.1 39.7-9.1L55.3-9.1C59.8-9.1 63.5-12.8 63.5-17.3L63.5-69.8C63.6-74.3 59.9-78 55.4-78ZM59.1-65.8L49.9-65.8C48.7-65.8 47.7-64.8 47.7-63.6C47.7-62.4 48.7-61.4 49.9-61.4L59.1-61.4L59.1-55.9L49.9-55.9C48.7-55.9 47.7-54.9 47.7-53.7C47.7-52.5 48.7-51.5 49.9-51.5L59.1-51.5L59.1-45.7L49.9-45.7C48.7-45.7 47.7-44.7 47.7-43.5C47.7-42.3 48.7-41.3 49.9-41.3L59.1-41.3L59.1-35.8L49.9-35.8C48.7-35.8 47.7-34.8 47.7-33.6C47.7-32.4 48.7-31.4 49.9-31.4L59.1-31.4L59.1-25.9L49.9-25.9C48.7-25.9 47.7-24.9 47.7-23.7C47.7-22.5 48.7-21.4 49.9-21.4L59.1-21.4L59.1-17.6C59.1-15.5 57.4-13.9 55.4-13.9L39.7-13.9C37.6-13.9 36-15.6 36-17.6L36-69.8C36-71.9 37.7-73.5 39.7-73.5L55.3-73.5C57.4-73.5 59-71.8 59-69.8L59-65.8Z"/>
  </g>
  <g id="Light-L" transform="matrix(1 0 0 1 1066.95 1556)">
   <path class="monochrome-0 multicolor-0:tintColor hierarchical-0:primary SFSymbolsPreviewWireframe" d="M96.7-19.5L92.6-15.5L92.6-68.7L96.7-64.7C97.6-63.8 99-63.8 99.9-64.7C100.8-65.6 100.8-67 99.9-67.9L92.6-75L92-75.5C91.1-76.3 89.8-76.4 88.9-75.5L88.1-74.7L80.7-67.8C79.8-67 79.7-65.5 80.6-64.6C81-64.1 81.6-63.9 82.2-63.9C82.7-63.9 83.3-64.1 83.7-64.5L88-68.5C88-68.5 88-68.5 88-68.5L88-68.5L88-68.5L88-15.4L88-15.4L83.7-19.4C83.3-19.8 82.7-20 82.2-20C81.6-20 81-19.8 80.6-19.3C79.8-18.4 79.8-17 80.7-16.1L88.1-9.2L88.9-8.4C89.8-7.6 91.1-7.6 92-8.4L92.6-8.9L99.8-16C100.7-16.9 100.7-18.3 99.8-19.2C99-20.3 97.6-20.4 96.7-19.5ZM55.4-77L39.7-77C35.2-77 31.5-73.3 31.5-68.8L31.5-16.3C31.5-11.8 35.2-8.1 39.7-8.1L55.3-8.1C59.8-8.1 63.5-11.8 63.5-16.3L63.5-68.8C63.6-73.3 59.9-77 55.4-77ZM59.1-64.8L49.9-64.8C48.7-64.8 47.7-63.8 47.7-62.6C47.7-61.4 48.7-60.4 49.9-60.4L59.1-60.4L59.1-54.9L49.9-54.9C48.7-54.9 47.7-53.9 47.7-52.7C47.7-51.5 48.7-50.5 49.9-50.5L59.1-50.5L59.1-44.7L49.9-44.7C48.7-44.7 47.7-43.7 47.7-42.5C47.7-41.3 48.7-40.3 49.9-40.3L59.1-40.3L59.1-34.8L49.9-34.8C48.7-34.8 47.7-33.8 47.7-32.6C47.7-31.4 48.7-30.4 49.9-30.4L59.1-30.4L59.1-24.9L49.9-24.9C48.7-24.9 47.7-23.9 47.7-22.7C47.7-21.5 48.7-20.4 49.9-20.4L59.1-20.4L59.1-16.6C59.1-14.5 57.4-12.9 55.4-12.9L39.7-12.9C37.6-12.9 36-14.6 36-16.6L36-68.8C36-70.9 37.7-72.5 39.7-72.5L55.3-72.5C57.4-72.5 59-70.8 59-68.8L59-64.8Z"/>
  </g>
  <g id="Thin-L" transform="matrix(1 0 0 1 771.315 1556)">
   <path class="monochrome-0 multicolor-0:tintColor hierarchical-0:primary SFSymbolsPreviewWireframe" d="M96.7-18.5L92.6-14.5L92.6-67.7L96.7-63.7C97.6-62.8 99-62.8 99.9-63.7C100.8-64.6 100.8-66 99.9-66.9L92.6-74L92-74.5C91.1-75.3 89.8-75.4 88.9-74.5L88.1-73.7L80.7-66.8C79.8-66 79.7-64.5 80.6-63.6C81-63.1 81.6-62.9 82.2-62.9C82.7-62.9 83.3-63.1 83.7-63.5L88-67.5C88-67.5 88-67.5 88-67.5L88-67.5L88-67.5L88-14.4L88-14.4L83.7-18.4C83.3-18.8 82.7-19 82.2-19C81.6-19 81-18.8 80.6-18.3C79.8-17.4 79.8-16 80.7-15.1L88.1-8.2L88.9-7.4C89.8-6.6 91.1-6.6 92-7.4L92.6-7.9L99.8-15C100.7-15.9 100.7-17.3 99.8-18.2C99-19.3 97.6-19.4 96.7-18.5ZM55.4-76L39.7-76C35.2-76 31.5-72.3 31.5-67.8L31.5-15.3C31.5-10.8 35.2-7.1 39.7-7.1L55.3-7.1C59.8-7.1 63.5-10.8 63.5-15.3L63.5-67.8C63.6-72.3 59.9-76 55.4-76ZM59.1-63.8L49.9-63.8C48.7-63.8 47.7-62.8 47.7-61.6C47.7-60.4 48.7-59.4 49.9-59.4L59.1-59.4L59.1-53.9L49.9-53.9C48.7-53.9 47.7-52.9 47.7-51.7C47.7-50.5 48.7-49.5 49.9-49.5L59.1-49.5L59.1-43.7L49.9-43.7C48.7-43.7 47.7-42.7 47.7-41.5C47.7-40.3 48.7-39.3 49.9-39.3L59.1-39.3L59.1-33.8L49.9-33.8C48.7-33.8 47.7-32.8 47.7-31.6C47.7-30.4 48.7-29.4 49.9-29.4L59.1-29.4L59.1-23.9L49.9-23.9C48.7-23.9 47.7-22.9 47.7-21.7C47.7-20.5 48.7-19.4 49.9-19.4L59.1-19.4L59.1-15.6C59.1-13.5 57.4-11.9 55.4-11.9L39.7-11.9C37.6-11.9 36-13.6 36-15.6L36-67.8C36-69.9 37.7-71.5 39.7-71.5L55.3-71.5C57.4-71.5 59-69.8 59-67.8L59-63.8Z"/>
  </g>
  <g id="Ultralight-L" transform="matrix(1 0 0 1 475.165 1556)">
   <path class="monochrome-0 multicolor-0:tintColor hierarchical-0:primary SFSymbolsPreviewWireframe" d="M96.7-17.5L92.6-13.5L92.6-66.7L96.7-62.7C97.6-61.8 99-61.8 99.9-62.7C100.8-63.6 100.8-65 99.9-65.9L92.6-73L92-73.5C91.1-74.3 89.8-74.4 88.9-73.5L88.1-72.7L80.7-65.8C79.8-65 79.7-63.5 80.6-62.6C81-62.1 81.6-61.9 82.2-61.9C82.7-61.9 83.3-62.1 83.7-62.5L88-66.5C88-66.5 88-66.5 88-66.5L88-66.5L88-66.5L88-13.4L88-13.4L83.7-17.4C83.3-17.8 82.7-18 82.2-18C81.6-18 81-17.8 80.6-17.3C79.8-16.4 79.8-15 80.7-14.1L88.1-7.2L88.9-6.4C89.8-5.6 91.1-5.6 92-6.4L92.6-6.9L99.8-14C100.7-14.9 100.7-16.3 99.8-17.2C99-18.3 97.6-18.4 96.7-17.5ZM55.4-75L39.7-75C35.2-75 31.5-71.3 31.5-66.8L31.5-14.3C31.5-9.8 35.2-6.1 39.7-6.1L55.3-6.1C59.8-6.1 63.5-9.8 63.5-14.3L63.5-66.8C63.6-71.3 59.9-75 55.4-75ZM59.1-62.8L49.9-62.8C48.7-62.8 47.7-61.8 47.7-60.6C47.7-59.4 48.7-58.4 49.9-58.4L59.1-58.4L59.1-52.9L49.9-52.9C48.7-52.9 47.7-51.9 47.7-50.7C47.7-49.5 48.7-48.5 49.9-48.5L59.1-48.5L59.1-42.7L49.9-42.7C48.7-42.7 47.7-41.7 47.7-40.5C47.7-39.3 48.7-38.3 49.9-38.3L59.1-38.3L59.1-32.8L49.9-32.8C48.7-32.8 47.7-31.8 47.7-30.6C47.7-29.4 48.7-28.4 49.9-28.4L59.1-28.4L59.1-22.9L49.9-22.9C48.7-22.9 47.7-21.9 47.7-20.7C47.7-19.5 48.7-18.4 49.9-18.4L59.1-18.4L59.1-14.6C59.1-12.5 57.4-10.9 55.4-10.9L39.7-10.9C37.6-10.9 36-12.6 36-14.6L36-66.8C36-68.9 37.7-70.5 39.7-70.5L55.3-70.5C57.4-70.5 59-68.8 59-66.8L59-62.8Z"/>
  </g>
  <g id="Black-M" transform="matrix(1 0 0 1 2862.7 1126)">
   <path class="monochrome-0 multicolor-0:tintColor hierarchical-0:primary SFSymbolsPreviewWireframe" d="M92.7-13.5L88.6-9.5L88.6-62.7L92.7-58.7C93.6-57.8 95-57.8 95.9-58.7C96.8-59.6 96.8-61 95.9-61.9L88.6-69L88-69.5C87.1-70.3 85.8-70.4 84.9-69.5L84.1-68.7L76.7-61.8C75.8-61 75.7-59.5 76.6-58.6C77-58.1 77.6-57.9 78.2-57.9C78.7-57.9 79.3-58.1 79.7-58.5L84-62.5C84-62.5 84-62.5 84-62.5L84-62.5L84-62.5L84-9.4L84-9.4L79.7-13.4C79.3-13.8 78.7-14 78.2-14C77.6-14 77-13.8 76.6-13.3C75.8-12.4 75.8-11 76.7-10.1L84.1-3.2L84.9-2.4C85.8-1.6 87.1-1.6 88-2.4L88.6-2.9L95.8-10C96.7-10.9 96.7-12.3 95.8-13.2C95-14.3 93.6-14.4 92.7-13.5ZM51.4-71L35.7-71C31.2-71 27.5-67.3 27.5-62.8L27.5-10.3C27.5-5.8 31.2-2.1 35.7-2.1L51.3-2.1C55.8-2.1 59.5-5.8 59.5-10.3L59.5-62.8C59.6-67.3 55.9-71 51.4-71ZM55.1-58.8L45.9-58.8C44.7-58.8 43.7-57.8 43.7-56.6C43.7-55.4 44.7-54.4 45.9-54.4L55.1-54.4L55.1-48.9L45.9-48.9C44.7-48.9 43.7-47.9 43.7-46.7C43.7-45.5 44.7-44.5 45.9-44.5L55.1-44.5L55.1-38.7L45.9-38.7C44.7-38.7 43.7-37.7 43.7-36.5C43.7-35.3 44.7-34.3 45.9-34.3L55.1-34.3L55.1-28.8L45.9-28.8C44.7-28.8 43.7-27.8 43.7-26.6C43.7-25.4 44.7-24.4 45.9-24.4L55.1-24.4L55.1-18.9L45.9-18.9C44.7-18.9 43.7-17.9 43.7-16.7C43.7-15.5 44.7-14.4 45.9-14.4L55.1-14.4L55.1-10.6C55.1-8.5 53.4-6.9 51.4-6.9L35.7-6.9C33.6-6.9 32-8.6 32-10.6L32-62.8C32-64.9 33.7-66.5 35.7-66.5L51.3-66.5C53.4-66.5 55-64.8 55-62.8L55-58.8Z"/>
  </g>
  <g id="Heavy-M" transform="matrix(1 0 0 1 2566.64 1126)">
   <path class="monochrome-0 multicolor-0:tintColor hierarchical-0:primary SFSymbolsPreviewWireframe" d="M92.7-12.5L88.6-8.5L88.6-61.7L92.7-57.7C93.6-56.8 95-56.8 95.9-57.7C96.8-58.6 96.8-60 95.9-60.9L88.6-68L88-68.5C87.1-69.3 85.8-69.4 84.9-68.5L84.1-67.7L76.7-60.8C75.8-60 75.7-58.5 76.6-57.6C77-57.1 77.6-56.9 78.2-56.9C78.7-56.9 79.3-57.1 79.7-57.5L84-61.5C84-61.5 84-61.5 84-61.5L84-61.5L84-61.5L84-8.4L84-8.4L79.7-12.4C79.3-12.8 78.7-13 78.2-13C77.6-13 77-12.8 76.6-12.3C75.8-11.4 75.8-10 76.7-9.1L84.1-2.2L84.9-1.4C85.8-0.6 87.1-0.6 88-1.4L88.6-1.9L95.8-9C96.7-9.9 96.7-11.3 95.8-12.2C95-13.3 93.6-13.4 92.7-12.5ZM51.4-70L35.7-70C31.2-70 27.5-66.3 27.5-61.8L27.5-9.3C27.5-4.8 31.2-1.1 35.7-1.1L51.3-1.1C55.8-1.1 59.5-4.8 59.5-9.3L59.5-61.8C59.6-66.3 55.9-70 51.4-70ZM55.1-57.8L45.9-57.8C44.7-57.8 43.7-56.8 43.7-55.6C43.7-54.4 44.7-53.4 45.9-53.4L55.1-53.4L55.1-47.9L45.9-47.9C44.7-47.9 43.7-46.9 43.7-45.7C43.7-44.5 44.7-43.5 45.9-43.5L55.1-43.5L55.1-37.7L45.9-37.7C44.7-37.7 43.7-36.7 43.7-35.5C43.7-34.3 44.7-33.3 45.9-33.3L55.1-33.3L55.1-27.8L45.9-27.8C44.7-27.8 43.7-26.8 43.7-25.6C43.7-24.4 44.7-23.4 45.9-23.4L55.1-23.4L55.1-17.9L45.9-17.9C44.7-17.9 43.7-16.9 43.7-15.7C43.7-14.5 44.7-13.4 45.9-13.4L55.1-13.4L55.1-9.6C55.1-7.5 53.4-5.9 51.4-5.9L35.7-5.9C33.6-5.9 32-7.6 32-9.6L32-61.8C32-63.9 33.7-65.5 35.7-65.5L51.3-65.5C53.4-65.5 55-63.8 55-61.8L55-57.8Z"/>
  </g>
  <g id="Bold-M" transform="matrix(1 0 0 1 2270.67 1126)">
   <path class="monochrome-0 multicolor-0:tintColor hierarchical-0:primary SFSymbolsPreviewWireframe" d="M92.7-10.5L88.6-6.5L88.6-59.7L92.7-55.7C93.6-54.8 95-54.8 95.9-55.7C96.8-56.6 96.8-58 95.9-58.9L88.6-66L88-66.5C87.1-67.3 85.8-67.4 84.9-66.5L84.1-65.7L76.7-58.8C75.8-58 75.7-56.5 76.6-55.6C77-55.1 77.6-54.9 78.2-54.9C78.7-54.9 79.3-55.1 79.7-55.5L84-59.5C84-59.5 84-59.5 84-59.5L84-59.5L84-59.5L84-6.4L84-6.4L79.7-10.4C79.3-10.8 78.7-11 78.2-11C77.6-11 77-10.8 76.6-10.3C75.8-9.4 75.8-8 76.7-7.1L84.1-0.2L84.9 0.6C85.8 1.4 87.1 1.4 88 0.6L88.6 0.1L95.8-7C96.7-7.9 96.7-9.3 95.8-10.2C95-11.3 93.6-11.4 92.7-10.5ZM51.4-68L35.7-68C31.2-68 27.5-64.3 27.5-59.8L27.5-7.3C27.5-2.8 31.2 0.9 35.7 0.9L51.3 0.9C55.8 0.9 59.5-2.8 59.5-7.3L59.5-59.8C59.6-64.3 55.9-68 51.4-68ZM55.1-55.8L45.9-55.8C44.7-55.8 43.7-54.8 43.7-53.6C43.7-52.4 44.7-51.4 45.9-51.4L55.1-51.4L55.1-45.9L45.9-45.9C44.7-45.9 43.7-44.9 43.7-43.7C43.7-42.5 44.7-41.5 45.9-41.5L55.1-41.5L55.1-35.7L45.9-35.7C44.7-35.7 43.7-34.7 43.7-33.5C43.7-32.3 44.7-31.3 45.9-31.3L55.1-31.3L55.1-25.8L45.9-25.8C44.7-25.8 43.7-24.8 43.7-23.6C43.7-22.4 44.7-21.4 45.9-21.4L55.1-21.4L55.1-15.9L45.9-15.9C44.7-15.9 43.7-14.9 43.7-13.7C43.7-12.5 44.7-11.4 45.9-11.4L55.1-11.4L55.1-7.6C55.1-5.5 53.4-3.9 51.4-3.9L35.7-3.9C33.6-3.9 32-5.6 32-7.6L32-59.8C32-61.9 33.7-63.5 35.7-63.5L51.3-63.5C53.4-63.5 55-61.8 55-59.8L55-55.8Z"/>
  </g>
  <g id="Semibold-M" transform="matrix(1 0 0 1 1974.47 1126)">
   <path class="monochrome-0 multicolor-0:tintColor hierarchical-0:primary SFSymbolsPreviewWireframe" d="M92.7-9.5L88.6-5.5L88.6-58.7L92.7-54.7C93.6-53.8 95-53.8 95.9-54.7C96.8-55.6 96.8-57 95.9-57.9L88.6-65L88-65.5C87.1-66.3 85.8-66.4 84.9-65.5L84.1-64.7L76.7-57.8C75.8-57 75.7-55.5 76.6-54.6C77-54.1 77.6-53.9 78.2-53.9C78.7-53.9 79.3-54.1 79.7-54.5L84-58.5C84-58.5 84-58.5 84-58.5L84-58.5L84-58.5L84-5.4L84-5.4L79.7-9.4C79.3-9.8 78.7-10 78.2-10C77.6-10 77-9.8 76.6-9.3C75.8-8.4 75.8-7 76.7-6.1L84.1 0.8L84.9 1.6C85.8 2.4 87.1 2.4 88 1.6L88.6 1.1L95.8-6C96.7-6.9 96.7-8.3 95.8-9.2C95-10.3 93.6-10.4 92.7-9.5ZM51.4-67L35.7-67C31.2-67 27.5-63.3 27.5-58.8L27.5-6.3C27.5-1.8 31.2 1.9 35.7 1.9L51.3 1.9C55.8 1.9 59.5-1.8 59.5-6.3L59.5-58.8C59.6-63.3 55.9-67 51.4-67ZM55.1-54.8L45.9-54.8C44.7-54.8 43.7-53.8 43.7-52.6C43.7-51.4 44.7-50.4 45.9-50.4L55.1-50.4L55.1-44.9L45.9-44.9C44.7-44.9 43.7-43.9 43.7-42.7C43.7-41.5 44.7-40.5 45.9-40.5L55.1-40.5L55.1-34.7L45.9-34.7C44.7-34.7 43.7-33.7 43.7-32.5C43.7-31.3 44.7-30.3 45.9-30.3L55.1-30.3L55.1-24.8L45.9-24.8C44.7-24.8 43.7-23.8 43.7-22.6C43.7-21.4 44.7-20.4 45.9-20.4L55.1-20.4L55.1-14.9L45.9-14.9C44.7-14.9 43.7-13.9 43.7-12.7C43.7-11.5 44.7-10.4 45.9-10.4L55.1-10.4L55.1-6.6C55.1-4.5 53.4-2.9 51.4-2.9L35.7-2.9C33.6-2.9 32-4.6 32-6.6L32-58.8C32-60.9 33.7-62.5 35.7-62.5L51.3-62.5C53.4-62.5 55-60.8 55-58.8L55-54.8Z"/>
  </g>
  <g id="Medium-M" transform="matrix(1 0 0 1 1678.15 1126)">
   <path class="monochrome-0 multicolor-0:tintColor hierarchical-0:primary SFSymbolsPreviewWireframe" d="M92.7-9.5L88.6-5.5L88.6-58.7L92.7-54.7C93.6-53.8 95-53.8 95.9-54.7C96.8-55.6 96.8-57 95.9-57.9L88.6-65L88-65.5C87.1-66.3 85.8-66.4 84.9-65.5L84.1-64.7L76.7-57.8C75.8-57 75.7-55.5 76.6-54.6C77-54.1 77.6-53.9 78.2-53.9C78.7-53.9 79.3-54.1 79.7-54.5L84-58.5C84-58.5 84-58.5 84-58.5L84-58.5L84-58.5L84-5.4L84-5.4L79.7-9.4C79.3-9.8 78.7-10 78.2-10C77.6-10 77-9.8 76.6-9.3C75.8-8.4 75.8-7 76.7-6.1L84.1 0.8L84.9 1.6C85.8 2.4 87.1 2.4 88 1.6L88.6 1.1L95.8-6C96.7-6.9 96.7-8.3 95.8-9.2C95-10.3 93.6-10.4 92.7-9.5ZM51.4-67L35.7-67C31.2-67 27.5-63.3 27.5-58.8L27.5-6.3C27.5-1.8 31.2 1.9 35.7 1.9L51.3 1.9C55.8 1.9 59.5-1.8 59.5-6.3L59.5-58.8C59.6-63.3 55.9-67 51.4-67ZM55.1-54.8L45.9-54.8C44.7-54.8 43.7-53.8 43.7-52.6C43.7-51.4 44.7-50.4 45.9-50.4L55.1-50.4L55.1-44.9L45.9-44.9C44.7-44.9 43.7-43.9 43.7-42.7C43.7-41.5 44.7-40.5 45.9-40.5L55.1-40.5L55.1-34.7L45.9-34.7C44.7-34.7 43.7-33.7 43.7-32.5C43.7-31.3 44.7-30.3 45.9-30.3L55.1-30.3L55.1-24.8L45.9-24.8C44.7-24.8 43.7-23.8 43.7-22.6C43.7-21.4 44.7-20.4 45.9-20.4L55.1-20.4L55.1-14.9L45.9-14.9C44.7-14.9 43.7-13.9 43.7-12.7C43.7-11.5 44.7-10.4 45.9-10.4L55.1-10.4L55.1-6.6C55.1-4.5 53.4-2.9 51.4-2.9L35.7-2.9C33.6-2.9 32-4.6 32-6.6L32-58.8C32-60.9 33.7-62.5 35.7-62.5L51.3-62.5C53.4-62.5 55-60.8 55-58.8L55-54.8Z"/>
  </g>
  <g id="Regular-M" transform="matrix(1 0 0 1 1381.95 1126)">
   <path class="monochrome-0 multicolor-0:tintColor hierarchical-0:primary SFSymbolsPreviewWireframe" d="M92.7-8.5L88.6-4.5L88.6-57.7L92.7-53.7C93.6-52.8 95-52.8 95.9-53.7C96.8-54.6 96.8-56 95.9-56.9L88.6-64L88-64.5C87.1-65.3 85.8-65.4 84.9-64.5L84.1-63.7L76.7-56.8C75.8-56 75.7-54.5 76.6-53.6C77-53.1 77.6-52.9 78.2-52.9C78.7-52.9 79.3-53.1 79.7-53.5L84-57.5C84-57.5 84-57.5 84-57.5L84-57.5L84-57.5L84-4.4L84-4.4L79.7-8.4C79.3-8.8 78.7-9 78.2-9C77.6-9 77-8.8 76.6-8.3C75.8-7.4 75.8-6 76.7-5.1L84.1 1.8L84.9 2.6C85.8 3.4 87.1 3.4 88 2.6L88.6 2.1L95.8-5C96.7-5.9 96.7-7.3 95.8-8.2C95-9.3 93.6-9.4 92.7-8.5ZM51.4-66L35.7-66C31.2-66 27.5-62.3 27.5-57.8L27.5-5.3C27.5-0.8 31.2 2.9 35.7 2.9L51.3 2.9C55.8 2.9 59.5-0.8 59.5-5.3L59.5-57.8C59.6-62.3 55.9-66 51.4-66ZM55.1-53.8L45.9-53.8C44.7-53.8 43.7-52.8 43.7-51.6C43.7-50.4 44.7-49.4 45.9-49.4L55.1-49.4L55.1-43.9L45.9-43.9C44.7-43.9 43.7-42.9 43.7-41.7C43.7-40.5 44.7-39.5 45.9-39.5L55.1-39.5L55.1-33.7L45.9-33.7C44.7-33.7 43.7-32.7 43.7-31.5C43.7-30.3 44.7-29.3 45.9-29.3L55.1-29.3L55.1-23.8L45.9-23.8C44.7-23.8 43.7-22.8 43.7-21.6C43.7-20.4 44.7-19.4 45.9-19.4L55.1-19.4L55.1-13.9L45.9-13.9C44.7-13.9 43.7-12.9 43.7-11.7C43.7-10.5 44.7-9.4 45.9-9.4L55.1-9.4L55.1-5.6C55.1-3.5 53.4-1.9 51.4-1.9L35.7-1.9C33.6-1.9 32-3.6 32-5.6L32-57.8C32-59.9 33.7-61.5 35.7-61.5L51.3-61.5C53.4-61.5 55-59.8 55-57.8L55-53.8Z"/>
  </g>
  <g id="Light-M" transform="matrix(1 0 0 1 1085.97 1126)">
   <path class="monochrome-0 multicolor-0:tintColor hierarchical-0:primary SFSymbolsPreviewWireframe" d="M92.7-7.5L88.6-3.5L88.6-56.7L92.7-52.7C93.6-51.8 95-51.8 95.9-52.7C96.8-53.6 96.8-55 95.9-55.9L88.6-63L88-63.5C87.1-64.3 85.8-64.4 84.9-63.5L84.1-62.7L76.7-55.8C75.8-55 75.7-53.5 76.6-52.6C77-52.1 77.6-51.9 78.2-51.9C78.7-51.9 79.3-52.1 79.7-52.5L84-56.5C84-56.5 84-56.5 84-56.5L84-56.5L84-56.5L84-3.4L84-3.4L79.7-7.4C79.3-7.8 78.7-8 78.2-8C77.6-8 77-7.8 76.6-7.3C75.8-6.4 75.8-5 76.7-4.1L84.1 2.8L84.9 3.6C85.8 4.4 87.1 4.4 88 3.6L88.6 3.1L95.8-4C96.7-4.9 96.7-6.3 95.8-7.2C95-8.3 93.6-8.4 92.7-7.5ZM51.4-65L35.7-65C31.2-65 27.5-61.3 27.5-56.8L27.5-4.3C27.5 0.2 31.2 3.9 35.7 3.9L51.3 3.9C55.8 3.9 59.5 0.2 59.5-4.3L59.5-56.8C59.6-61.3 55.9-65 51.4-65ZM55.1-52.8L45.9-52.8C44.7-52.8 43.7-51.8 43.7-50.6C43.7-49.4 44.7-48.4 45.9-48.4L55.1-48.4L55.1-42.9L45.9-42.9C44.7-42.9 43.7-41.9 43.7-40.7C43.7-39.5 44.7-38.5 45.9-38.5L55.1-38.5L55.1-32.7L45.9-32.7C44.7-32.7 43.7-31.7 43.7-30.5C43.7-29.3 44.7-28.3 45.9-28.3L55.1-28.3L55.1-22.8L45.9-22.8C44.7-22.8 43.7-21.8 43.7-20.6C43.7-19.4 44.7-18.4 45.9-18.4L55.1-18.4L55.1-12.9L45.9-12.9C44.7-12.9 43.7-11.9 43.7-10.7C43.7-9.5 44.7-8.4 45.9-8.4L55.1-8.4L55.1-4.6C55.1-2.5 53.4-0.9 51.4-0.9L35.7-0.9C33.6-0.9 32-2.6 32-4.6L32-56.8C32-58.9 33.7-60.5 35.7-60.5L51.3-60.5C53.4-60.5 55-58.8 55-56.8L55-52.8Z"/>
  </g>
  <g id="Thin-M" transform="matrix(1 0 0 1 790.236 1126)">
   <path class="monochrome-0 multicolor-0:tintColor hierarchical-0:primary SFSymbolsPreviewWireframe" d="M92.7-6.5L88.6-2.5L88.6-55.7L92.7-51.7C93.6-50.8 95-50.8 95.9-51.7C96.8-52.6 96.8-54 95.9-54.9L88.6-62L88-62.5C87.1-63.3 85.8-63.4 84.9-62.5L84.1-61.7L76.7-54.8C75.8-54 75.7-52.5 76.6-51.6C77-51.1 77.6-50.9 78.2-50.9C78.7-50.9 79.3-51.1 79.7-51.5L84-55.5C84-55.5 84-55.5 84-55.5L84-55.5L84-55.5L84-2.4L84-2.4L79.7-6.4C79.3-6.8 78.7-7 78.2-7C77.6-7 77-6.8 76.6-6.3C75.8-5.4 75.8-4 76.7-3.1L84.1 3.8L84.9 4.6C85.8 5.4 87.1 5.4 88 4.6L88.6 4.1L95.8-3C96.7-3.9 96.7-5.3 95.8-6.2C95-7.3 93.6-7.4 92.7-6.5ZM51.4-64L35.7-64C31.2-64 27.5-60.3 27.5-55.8L27.5-3.3C27.5 1.2 31.2 4.9 35.7 4.9L51.3 4.9C55.8 4.9 59.5 1.2 59.5-3.3L59.5-55.8C59.6-60.3 55.9-64 51.4-64ZM55.1-51.8L45.9-51.8C44.7-51.8 43.7-50.8 43.7-49.6C43.7-48.4 44.7-47.4 45.9-47.4L55.1-47.4L55.1-41.9L45.9-41.9C44.7-41.9 43.7-40.9 43.7-39.7C43.7-38.5 44.7-37.5 45.9-37.5L55.1-37.5L55.1-31.7L45.9-31.7C44.7-31.7 43.7-30.7 43.7-29.5C43.7-28.3 44.7-27.3 45.9-27.3L55.1-27.3L55.1-21.8L45.9-21.8C44.7-21.8 43.7-20.8 43.7-19.6C43.7-18.4 44.7-17.4 45.9-17.4L55.1-17.4L55.1-11.9L45.9-11.9C44.7-11.9 43.7-10.9 43.7-9.7C43.7-8.5 44.7-7.4 45.9-7.4L55.1-7.4L55.1-3.6C55.1-1.5 53.4 0.1 51.4 0.1L35.7 0.1C33.6 0.1 32-1.6 32-3.6L32-55.8C32-57.9 33.7-59.5 35.7-59.5L51.3-59.5C53.4-59.5 55-57.8 55-55.8L55-51.8Z"/>
  </g>
  <g id="Ultralight-M" transform="matrix(1 0 0 1 494.013 1126)">
   <path class="monochrome-0 multicolor-0:tintColor hierarchical-0:primary SFSymbolsPreviewWireframe" d="M92.7-5.5L88.6-1.5L88.6-54.7L92.7-50.7C93.6-49.8 95-49.8 95.9-50.7C96.8-51.6 96.8-53 95.9-53.9L88.6-61L88-61.5C87.1-62.3 85.8-62.4 84.9-61.5L84.1-60.7L76.7-53.8C75.8-53 75.7-51.5 76.6-50.6C77-50.1 77.6-49.9 78.2-49.9C78.7-49.9 79.3-50.1 79.7-50.5L84-54.5C84-54.5 84-54.5 84-54.5L84-54.5L84-54.5L84-1.4L84-1.4L79.7-5.4C79.3-5.8 78.7-6 78.2-6C77.6-6 77-5.8 76.6-5.3C75.8-4.4 75.8-3 76.7-2.1L84.1 4.8L84.9 5.6C85.8 6.4 87.1 6.4 88 5.6L88.6 5.1L95.8-2C96.7-2.9 96.7-4.3 95.8-5.2C95-6.3 93.6-6.4 92.7-5.5ZM51.4-63L35.7-63C31.2-63 27.5-59.3 27.5-54.8L27.5-2.3C27.5 2.2 31.2 5.9 35.7 5.9L51.3 5.9C55.8 5.9 59.5 2.2 59.5-2.3L59.5-54.8C59.6-59.3 55.9-63 51.4-63ZM55.1-50.8L45.9-50.8C44.7-50.8 43.7-49.8 43.7-48.6C43.7-47.4 44.7-46.4 45.9-46.4L55.1-46.4L55.1-40.9L45.9-40.9C44.7-40.9 43.7-39.9 43.7-38.7C43.7-37.5 44.7-36.5 45.9-36.5L55.1-36.5L55.1-30.7L45.9-30.7C44.7-30.7 43.7-29.7 43.7-28.5C43.7-27.3 44.7-26.3 45.9-26.3L55.1-26.3L55.1-20.8L45.9-20.8C44.7-20.8 43.7-19.8 43.7-18.6C43.7-17.4 44.7-16.4 45.9-16.4L55.1-16.4L55.1-10.9L45.9-10.9C44.7-10.9 43.7-9.9 43.7-8.7C43.7-7.5 44.7-6.4 45.9-6.4L55.1-6.4L55.1-2.6C55.1-0.5 53.4 1.1 51.4 1.1L35.7 1.1C33.6 1.1 32-0.6 32-2.6L32-54.8C32-56.9 33.7-58.5 35.7-58.5L51.3-58.5C53.4-58.5 55-56.8 55-54.8L55-50.8Z"/>
  </g>
  <g id="Black-S" transform="matrix(1 0 0 1 2877.83 696)">
   <path class="monochrome-0 multicolor-0:tintColor hierarchical-0:primary SFSymbolsPreviewWireframe" d="M89.7-2.5L85.6 1.5L85.6-51.7L89.7-47.7C90.6-46.8 92-46.8 92.9-47.7C93.8-48.6 93.8-50 92.9-50.9L85.6-58L85-58.5C84.1-59.3 82.8-59.4 81.9-58.5L81.1-57.7L73.7-50.8C72.8-50 72.7-48.5 73.6-47.6C74-47.1 74.6-46.9 75.2-46.9C75.7-46.9 76.3-47.1 76.7-47.5L81-51.5C81-51.5 81-51.5 81-51.5L81-51.5L81-51.5L81 1.6L81 1.6L76.7-2.4C76.3-2.8 75.7-3 75.2-3C74.6-3 74-2.8 73.6-2.3C72.8-1.4 72.8 0 73.7 0.9L81.1 7.8L81.9 8.6C82.8 9.4 84.1 9.4 85 8.6L85.6 8.1L92.8 1C93.7 0.1 93.7-1.3 92.8-2.2C92-3.3 90.6-3.4 89.7-2.5ZM48.4-60L32.7-60C28.2-60 24.5-56.3 24.5-51.8L24.5 0.7C24.5 5.2 28.2 8.9 32.7 8.9L48.3 8.9C52.8 8.9 56.5 5.2 56.5 0.7L56.5-51.8C56.6-56.3 52.9-60 48.4-60ZM52.1-47.8L42.9-47.8C41.7-47.8 40.7-46.8 40.7-45.6C40.7-44.4 41.7-43.4 42.9-43.4L52.1-43.4L52.1-37.9L42.9-37.9C41.7-37.9 40.7-36.9 40.7-35.7C40.7-34.5 41.7-33.5 42.9-33.5L52.1-33.5L52.1-27.7L42.9-27.7C41.7-27.7 40.7-26.7 40.7-25.5C40.7-24.3 41.7-23.3 42.9-23.3L52.1-23.3L52.1-17.8L42.9-17.8C41.7-17.8 40.7-16.8 40.7-15.6C40.7-14.4 41.7-13.4 42.9-13.4L52.1-13.4L52.1-7.9L42.9-7.9C41.7-7.9 40.7-6.9 40.7-5.7C40.7-4.5 41.7-3.4 42.9-3.4L52.1-3.4L52.1 0.4C52.1 2.5 50.4 4.1 48.4 4.1L32.7 4.1C30.6 4.1 29 2.4 29 0.4L29-51.8C29-53.9 30.7-55.5 32.7-55.5L48.3-55.5C50.4-55.5 52-53.8 52-51.8L52-47.8Z"/>
  </g>
  <g id="Heavy-S" transform="matrix(1 0 0 1 2581.61 696)">
   <path class="monochrome-0 multicolor-0:tintColor hierarchical-0:primary SFSymbolsPreviewWireframe" d="M89.7-2.5L85.6 1.5L85.6-51.7L89.7-47.7C90.6-46.8 92-46.8 92.9-47.7C93.8-48.6 93.8-50 92.9-50.9L85.6-58L85-58.5C84.1-59.3 82.8-59.4 81.9-58.5L81.1-57.7L73.7-50.8C72.8-50 72.7-48.5 73.6-47.6C74-47.1 74.6-46.9 75.2-46.9C75.7-46.9 76.3-47.1 76.7-47.5L81-51.5C81-51.5 81-51.5 81-51.5L81-51.5L81-51.5L81 1.6L81 1.6L76.7-2.4C76.3-2.8 75.7-3 75.2-3C74.6-3 74-2.8 73.6-2.3C72.8-1.4 72.8 0 73.7 0.9L81.1 7.8L81.9 8.6C82.8 9.4 84.1 9.4 85 8.6L85.6 8.1L92.8 1C93.7 0.1 93.7-1.3 92.8-2.2C92-3.3 90.6-3.4 89.7-2.5ZM48.4-60L32.7-60C28.2-60 24.5-56.3 24.5-51.8L24.5 0.7C24.5 5.2 28.2 8.9 32.7 8.9L48.3 8.9C52.8 8.9 56.5 5.2 56.5 0.7L56.5-51.8C56.6-56.3 52.9-60 48.4-60ZM52.1-47.8L42.9-47.8C41.7-47.8 40.7-46.8 40.7-45.6C40.7-44.4 41.7-43.4 42.9-43.4L52.1-43.4L52.1-37.9L42.9-37.9C41.7-37.9 40.7-36.9 40.7-35.7C40.7-34.5 41.7-33.5 42.9-33.5L52.1-33.5L52.1-27.7L42.9-27.7C41.7-27.7 40.7-26.7 40.7-25.5C40.7-24.3 41.7-23.3 42.9-23.3L52.1-23.3L52.1-17.8L42.9-17.8C41.7-17.8 40.7-16.8 40.7-15.6C40.7-14.4 41.7-13.4 42.9-13.4L52.1-13.4L52.1-7.9L42.9-7.9C41.7-7.9 40.7-6.9 40.7-5.7C40.7-4.5 41.7-3.4 42.9-3.4L52.1-3.4L52.1 0.4C52.1 2.5 50.4 4.1 48.4 4.1L32.7 4.1C30.6 4.1 29 2.4 29 0.4L29-51.8C29-53.9 30.7-55.5 32.7-55.5L48.3-55.5C50.4-55.5 52-53.8 52-51.8L52-47.8Z"/>
  </g>
  <g id="Bold-S" transform="matrix(1 0 0 1 2285.41 696)">
   <path class="monochrome-0 multicolor-0:tintColor hierarchical-0:primary SFSymbolsPreviewWireframe" d="M89.7-0.5L85.6 3.5L85.6-49.7L89.7-45.7C90.6-44.8 92-44.8 92.9-45.7C93.8-46.6 93.8-48 92.9-48.9L85.6-56L85-56.5C84.1-57.3 82.8-57.4 81.9-56.5L81.1-55.7L73.7-48.8C72.8-48 72.7-46.5 73.6-45.6C74-45.1 74.6-44.9 75.2-44.9C75.7-44.9 76.3-45.1 76.7-45.5L81-49.5C81-49.5 81-49.5 81-49.5L81-49.5L81-49.5L81 3.6L81 3.6L76.7-0.4C76.3-0.8 75.7-1 75.2-1C74.6-1 74-0.8 73.6-0.3C72.8 0.6 72.8 2 73.7 2.9L81.1 9.8L81.9 10.6C82.8 11.4 84.1 11.4 85 10.6L85.6 10.1L92.8 3C93.7 2.1 93.7 0.7 92.8-0.2C92-1.3 90.6-1.4 89.7-0.5ZM48.4-58L32.7-58C28.2-58 24.5-54.3 24.5-49.8L24.5 2.7C24.5 7.2 28.2 10.9 32.7 10.9L48.3 10.9C52.8 10.9 56.5 7.2 56.5 2.7L56.5-49.8C56.6-54.3 52.9-58 48.4-58ZM52.1-45.8L42.9-45.8C41.7-45.8 40.7-44.8 40.7-43.6C40.7-42.4 41.7-41.4 42.9-41.4L52.1-41.4L52.1-35.9L42.9-35.9C41.7-35.9 40.7-34.9 40.7-33.7C40.7-32.5 41.7-31.5 42.9-31.5L52.1-31.5L52.1-25.7L42.9-25.7C41.7-25.7 40.7-24.7 40.7-23.5C40.7-22.3 41.7-21.3 42.9-21.3L52.1-21.3L52.1-15.8L42.9-15.8C41.7-15.8 40.7-14.8 40.7-13.6C40.7-12.4 41.7-11.4 42.9-11.4L52.1-11.4L52.1-5.9L42.9-5.9C41.7-5.9 40.7-4.9 40.7-3.7C40.7-2.5 41.7-1.4 42.9-1.4L52.1-1.4L52.1 2.4C52.1 4.5 50.4 6.1 48.4 6.1L32.7 6.1C30.6 6.1 29 4.4 29 2.4L29-49.8C29-51.9 30.7-53.5 32.7-53.5L48.3-53.5C50.4-53.5 52-51.8 52-49.8L52-45.8Z"/>
  </g>
  <g id="Semibold-S" transform="matrix(1 0 0 1 1989.09 696)">
   <path class="monochrome-0 multicolor-0:tintColor hierarchical-0:primary SFSymbolsPreviewWireframe" d="M89.7-0.5L85.6 3.5L85.6-49.7L89.7-45.7C90.6-44.8 92-44.8 92.9-45.7C93.8-46.6 93.8-48 92.9-48.9L85.6-56L85-56.5C84.1-57.3 82.8-57.4 81.9-56.5L81.1-55.7L73.7-48.8C72.8-48 72.7-46.5 73.6-45.6C74-45.1 74.6-44.9 75.2-44.9C75.7-44.9 76.3-45.1 76.7-45.5L81-49.5C81-49.5 81-49.5 81-49.5L81-49.5L81-49.5L81 3.6L81 3.6L76.7-0.4C76.3-0.8 75.7-1 75.2-1C74.6-1 74-0.8 73.6-0.3C72.8 0.6 72.8 2 73.7 2.9L81.1 9.8L81.9 10.6C82.8 11.4 84.1 11.4 85 10.6L85.6 10.1L92.8 3C93.7 2.1 93.7 0.7 92.8-0.2C92-1.3 90.6-1.4 89.7-0.5ZM48.4-58L32.7-58C28.2-58 24.5-54.3 24.5-49.8L24.5 2.7C24.5 7.2 28.2 10.9 32.7 10.9L48.3 10.9C52.8 10.9 56.5 7.2 56.5 2.7L56.5-49.8C56.6-54.3 52.9-58 48.4-58ZM52.1-45.8L42.9-45.8C41.7-45.8 40.7-44.8 40.7-43.6C40.7-42.4 41.7-41.4 42.9-41.4L52.1-41.4L52.1-35.9L42.9-35.9C41.7-35.9 40.7-34.9 40.7-33.7C40.7-32.5 41.7-31.5 42.9-31.5L52.1-31.5L52.1-25.7L42.9-25.7C41.7-25.7 40.7-24.7 40.7-23.5C40.7-22.3 41.7-21.3 42.9-21.3L52.1-21.3L52.1-15.8L42.9-15.8C41.7-15.8 40.7-14.8 40.7-13.6C40.7-12.4 41.7-11.4 42.9-11.4L52.1-11.4L52.1-5.9L42.9-5.9C41.7-5.9 40.7-4.9 40.7-3.7C40.7-2.5 41.7-1.4 42.9-1.4L52.1-1.4L52.1 2.4C52.1 4.5 50.4 6.1 48.4 6.1L32.7 6.1C30.6 6.1 29 4.4 29 2.4L29-49.8C29-51.9 30.7-53.5 32.7-53.5L48.3-53.5C50.4-53.5 52-51.8 52-49.8L52-45.8Z"/>
  </g>
  <g id="Medium-S" transform="matrix(1 0 0 1 1692.65 696)">
   <path class="monochrome-0 multicolor-0:tintColor hierarchical-0:primary SFSymbolsPreviewWireframe" d="M89.7 0.5L85.6 4.5L85.6-48.7L89.7-44.7C90.6-43.8 92-43.8 92.9-44.7C93.8-45.6 93.8-47 92.9-47.9L85.6-55L85-55.5C84.1-56.3 82.8-56.4 81.9-55.5L81.1-54.7L73.7-47.8C72.8-47 72.7-45.5 73.6-44.6C74-44.1 74.6-43.9 75.2-43.9C75.7-43.9 76.3-44.1 76.7-44.5L81-48.5C81-48.5 81-48.5 81-48.5L81-48.5L81-48.5L81 4.6L81 4.6L76.7 0.6C76.3 0.2 75.7 0 75.2 0C74.6 0 74 0.2 73.6 0.7C72.8 1.6 72.8 3 73.7 3.9L81.1 10.8L81.9 11.6C82.8 12.4 84.1 12.4 85 11.6L85.6 11.1L92.8 4C93.7 3.1 93.7 1.7 92.8 0.8C92-0.3 90.6-0.4 89.7 0.5ZM48.4-57L32.7-57C28.2-57 24.5-53.3 24.5-48.8L24.5 3.7C24.5 8.2 28.2 11.9 32.7 11.9L48.3 11.9C52.8 11.9 56.5 8.2 56.5 3.7L56.5-48.8C56.6-53.3 52.9-57 48.4-57ZM52.1-44.8L42.9-44.8C41.7-44.8 40.7-43.8 40.7-42.6C40.7-41.4 41.7-40.4 42.9-40.4L52.1-40.4L52.1-34.9L42.9-34.9C41.7-34.9 40.7-33.9 40.7-32.7C40.7-31.5 41.7-30.5 42.9-30.5L52.1-30.5L52.1-24.7L42.9-24.7C41.7-24.7 40.7-23.7 40.7-22.5C40.7-21.3 41.7-20.3 42.9-20.3L52.1-20.3L52.1-14.8L42.9-14.8C41.7-14.8 40.7-13.8 40.7-12.6C40.7-11.4 41.7-10.4 42.9-10.4L52.1-10.4L52.1-4.9L42.9-4.9C41.7-4.9 40.7-3.9 40.7-2.7C40.7-1.5 41.7-0.4 42.9-0.4L52.1-0.4L52.1 3.4C52.1 5.5 50.4 7.1 48.4 7.1L32.7 7.1C30.6 7.1 29 5.4 29 3.4L29-48.8C29-50.9 30.7-52.5 32.7-52.5L48.3-52.5C50.4-52.5 52-50.8 52-48.8L52-44.8Z"/>
  </g>
  <g id="Regular-S" transform="matrix(1 0 0 1 1396.3 696)">
   <path class="monochrome-0 multicolor-0:tintColor hierarchical-0:primary SFSymbolsPreviewWireframe" d="M89.7 1.5L85.6 5.5L85.6-47.7L89.7-43.7C90.6-42.8 92-42.8 92.9-43.7C93.8-44.6 93.8-46 92.9-46.9L85.6-54L85-54.5C84.1-55.3 82.8-55.4 81.9-54.5L81.1-53.7L73.7-46.8C72.8-46 72.7-44.5 73.6-43.6C74-43.1 74.6-42.9 75.2-42.9C75.7-42.9 76.3-43.1 76.7-43.5L81-47.5C81-47.5 81-47.5 81-47.5L81-47.5L81-47.5L81 5.6L81 5.6L76.7 1.6C76.3 1.2 75.7 1 75.2 1C74.6 1 74 1.2 73.6 1.7C72.8 2.6 72.8 4 73.7 4.9L81.1 11.8L81.9 12.6C82.8 13.4 84.1 13.4 85 12.6L85.6 12.1L92.8 5C93.7 4.1 93.7 2.7 92.8 1.8C92 0.7 90.6 0.6 89.7 1.5ZM48.4-56L32.7-56C28.2-56 24.5-52.3 24.5-47.8L24.5 4.7C24.5 9.2 28.2 12.9 32.7 12.9L48.3 12.9C52.8 12.9 56.5 9.2 56.5 4.7L56.5-47.8C56.6-52.3 52.9-56 48.4-56ZM52.1-43.8L42.9-43.8C41.7-43.8 40.7-42.8 40.7-41.6C40.7-40.4 41.7-39.4 42.9-39.4L52.1-39.4L52.1-33.9L42.9-33.9C41.7-33.9 40.7-32.9 40.7-31.7C40.7-30.5 41.7-29.5 42.9-29.5L52.1-29.5L52.1-23.7L42.9-23.7C41.7-23.7 40.7-22.7 40.7-21.5C40.7-20.3 41.7-19.3 42.9-19.3L52.1-19.3L52.1-13.8L42.9-13.8C41.7-13.8 40.7-12.8 40.7-11.6C40.7-10.4 41.7-9.4 42.9-9.4L52.1-9.4L52.1-3.9L42.9-3.9C41.7-3.9 40.7-2.9 40.7-1.7C40.7-0.5 41.7 0.6 42.9 0.6L52.1 0.6L52.1 4.4C52.1 6.5 50.4 8.1 48.4 8.1L32.7 8.1C30.6 8.1 29 6.4 29 4.4L29-47.8C29-49.9 30.7-51.5 32.7-51.5L48.3-51.5C50.4-51.5 52-49.8 52-47.8L52-43.8Z"/>
  </g>
  <g id="Light-S" transform="matrix(1 0 0 1 1100.23 696)">
   <path class="monochrome-0 multicolor-0:tintColor hierarchical-0:primary SFSymbolsPreviewWireframe" d="M89.7 1.5L85.6 5.5L85.6-47.7L89.7-43.7C90.6-42.8 92-42.8 92.9-43.7C93.8-44.6 93.8-46 92.9-46.9L85.6-54L85-54.5C84.1-55.3 82.8-55.4 81.9-54.5L81.1-53.7L73.7-46.8C72.8-46 72.7-44.5 73.6-43.6C74-43.1 74.6-42.9 75.2-42.9C75.7-42.9 76.3-43.1 76.7-43.5L81-47.5C81-47.5 81-47.5 81-47.5L81-47.5L81-47.5L81 5.6L81 5.6L76.7 1.6C76.3 1.2 75.7 1 75.2 1C74.6 1 74 1.2 73.6 1.7C72.8 2.6 72.8 4 73.7 4.9L81.1 11.8L81.9 12.6C82.8 13.4 84.1 13.4 85 12.6L85.6 12.1L92.8 5C93.7 4.1 93.7 2.7 92.8 1.8C92 0.7 90.6 0.6 89.7 1.5ZM48.4-56L32.7-56C28.2-56 24.5-52.3 24.5-47.8L24.5 4.7C24.5 9.2 28.2 12.9 32.7 12.9L48.3 12.9C52.8 12.9 56.5 9.2 56.5 4.7L56.5-47.8C56.6-52.3 52.9-56 48.4-56ZM52.1-43.8L42.9-43.8C41.7-43.8 40.7-42.8 40.7-41.6C40.7-40.4 41.7-39.4 42.9-39.4L52.1-39.4L52.1-33.9L42.9-33.9C41.7-33.9 40.7-32.9 40.7-31.7C40.7-30.5 41.7-29.5 42.9-29.5L52.1-29.5L52.1-23.7L42.9-23.7C41.7-23.7 40.7-22.7 40.7-21.5C40.7-20.3 41.7-19.3 42.9-19.3L52.1-19.3L52.1-13.8L42.9-13.8C41.7-13.8 40.7-12.8 40.7-11.6C40.7-10.4 41.7-9.4 42.9-9.4L52.1-9.4L52.1-3.9L42.9-3.9C41.7-3.9 40.7-2.9 40.7-1.7C40.7-0.5 41.7 0.6 42.9 0.6L52.1 0.6L52.1 4.4C52.1 6.5 50.4 8.1 48.4 8.1L32.7 8.1C30.6 8.1 29 6.4 29 4.4L29-47.8C29-49.9 30.7-51.5 32.7-51.5L48.3-51.5C50.4-51.5 52-49.8 52-47.8L52-43.8Z"/>
  </g>
  <g id="Thin-S" transform="matrix(1 0 0 1 804.371 696)">
   <path class="monochrome-0 multicolor-0:tintColor hierarchical-0:primary SFSymbolsPreviewWireframe" d="M89.7 2.5L85.6 6.5L85.6-46.7L89.7-42.7C90.6-41.8 92-41.8 92.9-42.7C93.8-43.6 93.8-45 92.9-45.9L85.6-53L85-53.5C84.1-54.3 82.8-54.4 81.9-53.5L81.1-52.7L73.7-45.8C72.8-45 72.7-43.5 73.6-42.6C74-42.1 74.6-41.9 75.2-41.9C75.7-41.9 76.3-42.1 76.7-42.5L81-46.5C81-46.5 81-46.5 81-46.5L81-46.5L81-46.5L81 6.6L81 6.6L76.7 2.6C76.3 2.2 75.7 2 75.2 2C74.6 2 74 2.2 73.6 2.7C72.8 3.6 72.8 5 73.7 5.9L81.1 12.8L81.9 13.6C82.8 14.4 84.1 14.4 85 13.6L85.6 13.1L92.8 6C93.7 5.1 93.7 3.7 92.8 2.8C92 1.7 90.6 1.6 89.7 2.5ZM48.4-55L32.7-55C28.2-55 24.5-51.3 24.5-46.8L24.5 5.7C24.5 10.2 28.2 13.9 32.7 13.9L48.3 13.9C52.8 13.9 56.5 10.2 56.5 5.7L56.5-46.8C56.6-51.3 52.9-55 48.4-55ZM52.1-42.8L42.9-42.8C41.7-42.8 40.7-41.8 40.7-40.6C40.7-39.4 41.7-38.4 42.9-38.4L52.1-38.4L52.1-32.9L42.9-32.9C41.7-32.9 40.7-31.9 40.7-30.7C40.7-29.5 41.7-28.5 42.9-28.5L52.1-28.5L52.1-22.7L42.9-22.7C41.7-22.7 40.7-21.7 40.7-20.5C40.7-19.3 41.7-18.3 42.9-18.3L52.1-18.3L52.1-12.8L42.9-12.8C41.7-12.8 40.7-11.8 40.7-10.6C40.7-9.4 41.7-8.4 42.9-8.4L52.1-8.4L52.1-2.9L42.9-2.9C41.7-2.9 40.7-1.9 40.7-0.7C40.7 0.5 41.7 1.6 42.9 1.6L52.1 1.6L52.1 5.4C52.1 7.5 50.4 9.1 48.4 9.1L32.7 9.1C30.6 9.1 29 7.4 29 5.4L29-46.8C29-48.9 30.7-50.5 32.7-50.5L48.3-50.5C50.4-50.5 52-48.8 52-46.8L52-42.8Z"/>
  </g>
  <g id="Ultralight-S" transform="matrix(1 0 0 1 508.1 696)">
   <path class="monochrome-0 multicolor-0:tintColor hierarchical-0:primary SFSymbolsPreviewWireframe" d="M89.7 3.5L85.6 7.5L85.6-45.7L89.7-41.7C90.6-40.8 92-40.8 92.9-41.7C93.8-42.6 93.8-44 92.9-44.9L85.6-52L85-52.5C84.1-53.3 82.8-53.4 81.9-52.5L81.1-51.7L73.7-44.8C72.8-44 72.7-42.5 73.6-41.6C74-41.1 74.6-40.9 75.2-40.9C75.7-40.9 76.3-41.1 76.7-41.5L81-45.5C81-45.5 81-45.5 81-45.5L81-45.5L81-45.5L81 7.6L81 7.6L76.7 3.6C76.3 3.2 75.7 3 75.2 3C74.6 3 74 3.2 73.6 3.7C72.8 4.6 72.8 6 73.7 6.9L81.1 13.8L81.9 14.6C82.8 15.4 84.1 15.4 85 14.6L85.6 14.1L92.8 7C93.7 6.1 93.7 4.7 92.8 3.8C92 2.7 90.6 2.6 89.7 3.5ZM48.4-54L32.7-54C28.2-54 24.5-50.3 24.5-45.8L24.5 6.7C24.5 11.2 28.2 14.9 32.7 14.9L48.3 14.9C52.8 14.9 56.5 11.2 56.5 6.7L56.5-45.8C56.6-50.3 52.9-54 48.4-54ZM52.1-41.8L42.9-41.8C41.7-41.8 40.7-40.8 40.7-39.6C40.7-38.4 41.7-37.4 42.9-37.4L52.1-37.4L52.1-31.9L42.9-31.9C41.7-31.9 40.7-30.9 40.7-29.7C40.7-28.5 41.7-27.5 42.9-27.5L52.1-27.5L52.1-21.7L42.9-21.7C41.7-21.7 40.7-20.7 40.7-19.5C40.7-18.3 41.7-17.3 42.9-17.3L52.1-17.3L52.1-11.8L42.9-11.8C41.7-11.8 40.7-10.8 40.7-9.6C40.7-8.4 41.7-7.4 42.9-7.4L52.1-7.4L52.1-1.9L42.9-1.9C41.7-1.9 40.7-0.9 40.7 0.3C40.7 1.5 41.7 2.6 42.9 2.6L52.1 2.6L52.1 6.4C52.1 8.5 50.4 10.1 48.4 10.1L32.7 10.1C30.6 10.1 29 8.4 29 6.4L29-45.8C29-47.9 30.7-49.5 32.7-49.5L48.3-49.5C50.4-49.5 52-47.8 52-45.8L52-41.8Z"/>
  </g>
 </g>
</svg>
